<?xml version="1.0" encoding="UTF-8"?>
<!-- Transformation of global energy drink market with -->
<!-- Generated by Bootstrap-v15 Image Generator -->
<!-- 2026-03-21T14:01:19.395Z -->
<svg xmlns="http://www.w3.org/2000/svg" viewBox="0 0 1000 700" width="1000" height="700" preserveAspectRatio="xMidYMid slice">
  <path d="M 0 87.5 L 20.00 87.93 L 40.00 89.20 L 60.00 91.26 L 80.00 94.03 L 100.00 97.40 L 120.00 101.24 L 140.00 105.39 L 160.00 109.68 L 180.00 113.93 L 200.00 117.98 L 220.00 121.64 L 240.00 124.75 L 260.00 127.16 L 280.00 128.76 L 300.00 129.45 L 320.00 129.15 L 340.00 127.84 L 360.00 125.51 L 380.00 122.20 L 400.00 117.98 L 420.00 112.94 L 440.00 107.21 L 460.00 100.95 L 480.00 94.32 L 500.00 87.50 L 520.00 80.68 L 540.00 74.05 L 560.00 67.79 L 580.00 62.06 L 600.00 57.02 L 620.00 52.80 L 640.00 49.49 L 660.00 47.16 L 680.00 45.85 L 700.00 45.55 L 720.00 46.24 L 740.00 47.84 L 760.00 50.25 L 780.00 53.36 L 800.00 57.02 L 820.00 61.07 L 840.00 65.32 L 860.00 69.61 L 880.00 73.76 L 900.00 77.60 L 920.00 80.97 L 940.00 83.74 L 960.00 85.80 L 980.00 87.07 L 1000.00 87.50" fill="none" stroke="#0f3460" stroke-width="1.0394244611646535" opacity="0.20103867496687036"/>
  <path d="M 0 175 L 20.00 175.40 L 40.00 176.53 L 60.00 178.26 L 80.00 180.34 L 100.00 182.47 L 120.00 184.34 L 140.00 185.63 L 160.00 186.08 L 180.00 185.49 L 200.00 183.78 L 220.00 180.96 L 240.00 177.18 L 260.00 172.68 L 280.00 167.79 L 300.00 162.91 L 320.00 158.46 L 340.00 154.85 L 360.00 152.41 L 380.00 151.41 L 400.00 152.01 L 420.00 154.21 L 440.00 157.91 L 460.00 162.85 L 480.00 168.69 L 500.00 175.00 L 520.00 181.31 L 540.00 187.15 L 560.00 192.09 L 580.00 195.79 L 600.00 197.99 L 620.00 198.59 L 640.00 197.59 L 660.00 195.15 L 680.00 191.54 L 700.00 187.09 L 720.00 182.21 L 740.00 177.32 L 760.00 172.82 L 780.00 169.04 L 800.00 166.22 L 820.00 164.51 L 840.00 163.92 L 860.00 164.37 L 880.00 165.66 L 900.00 167.53 L 920.00 169.66 L 940.00 171.74 L 960.00 173.47 L 980.00 174.60 L 1000.00 175.00" fill="none" stroke="#e94560" stroke-width="0.9476218893096893" opacity="0.5061797888276508"/>
  <path d="M 0 262.5 L 20.00 263.56 L 40.00 266.44 L 60.00 270.30 L 80.00 273.91 L 100.00 276.01 L 120.00 275.54 L 140.00 271.93 L 160.00 265.28 L 180.00 256.37 L 200.00 246.61 L 220.00 237.75 L 240.00 231.58 L 260.00 229.58 L 280.00 232.59 L 300.00 240.64 L 320.00 252.85 L 340.00 267.55 L 360.00 282.54 L 380.00 295.44 L 400.00 304.09 L 420.00 306.95 L 440.00 303.37 L 460.00 293.73 L 480.00 279.39 L 500.00 262.50 L 520.00 245.61 L 540.00 231.27 L 560.00 221.63 L 580.00 218.05 L 600.00 220.91 L 620.00 229.56 L 640.00 242.46 L 660.00 257.45 L 680.00 272.15 L 700.00 284.36 L 720.00 292.41 L 740.00 295.42 L 760.00 293.42 L 780.00 287.25 L 800.00 278.39 L 820.00 268.63 L 840.00 259.72 L 860.00 253.07 L 880.00 249.46 L 900.00 248.99 L 920.00 251.09 L 940.00 254.70 L 960.00 258.56 L 980.00 261.44 L 1000.00 262.50" fill="none" stroke="#0f3460" stroke-width="1.9656777891249937" opacity="0.35629290406636904"/>
  <path d="M 0 350 L 20.00 350.87 L 40.00 353.05 L 60.00 355.39 L 80.00 356.49 L 100.00 355.24 L 120.00 351.33 L 140.00 345.48 L 160.00 339.29 L 180.00 334.82 L 200.00 333.88 L 220.00 337.41 L 240.00 345.09 L 260.00 355.23 L 280.00 365.21 L 300.00 372.19 L 320.00 373.92 L 340.00 369.48 L 360.00 359.61 L 380.00 346.64 L 400.00 333.88 L 420.00 324.72 L 440.00 321.72 L 460.00 325.84 L 480.00 336.13 L 500.00 350.00 L 520.00 363.87 L 540.00 374.16 L 560.00 378.28 L 580.00 375.28 L 600.00 366.12 L 620.00 353.36 L 640.00 340.39 L 660.00 330.52 L 680.00 326.08 L 700.00 327.81 L 720.00 334.79 L 740.00 344.77 L 760.00 354.91 L 780.00 362.59 L 800.00 366.12 L 820.00 365.18 L 840.00 360.71 L 860.00 354.52 L 880.00 348.67 L 900.00 344.76 L 920.00 343.51 L 940.00 344.61 L 960.00 346.95 L 980.00 349.13 L 1000.00 350.00" fill="none" stroke="#e94560" stroke-width="0.7907286510438708" opacity="0.5691106927268135"/>
  <path d="M 0 437.5 L 20.00 439.97 L 40.00 445.49 L 60.00 449.45 L 80.00 447.30 L 100.00 437.50 L 120.00 422.99 L 140.00 410.35 L 160.00 406.78 L 180.00 416.39 L 200.00 437.50 L 220.00 462.62 L 240.00 481.15 L 260.00 483.98 L 280.00 467.86 L 300.00 437.50 L 320.00 404.23 L 340.00 381.63 L 360.00 379.81 L 380.00 400.86 L 400.00 437.50 L 420.00 475.67 L 440.00 500.13 L 460.00 500.76 L 480.00 476.83 L 500.00 437.50 L 520.00 398.17 L 540.00 374.24 L 560.00 374.87 L 580.00 399.33 L 600.00 437.50 L 620.00 474.14 L 640.00 495.19 L 660.00 493.37 L 680.00 470.77 L 700.00 437.50 L 720.00 407.14 L 740.00 391.02 L 760.00 393.85 L 780.00 412.38 L 800.00 437.50 L 820.00 458.61 L 840.00 468.22 L 860.00 464.65 L 880.00 452.01 L 900.00 437.50 L 920.00 427.70 L 940.00 425.55 L 960.00 429.51 L 980.00 435.03 L 1000.00 437.50" fill="none" stroke="#0f3460" stroke-width="1.5482828187982363" opacity="0.3054611682879581"/>
  <path d="M 0 525 L 20.00 526.35 L 40.00 528.92 L 60.00 529.52 L 80.00 525.98 L 100.00 519.31 L 120.00 513.68 L 140.00 513.75 L 160.00 521.25 L 180.00 533.08 L 200.00 542.50 L 220.00 543.05 L 240.00 532.89 L 260.00 516.60 L 280.00 503.18 L 300.00 500.92 L 320.00 512.27 L 340.00 531.82 L 360.00 548.91 L 380.00 553.59 L 400.00 542.50 L 420.00 521.20 L 440.00 501.31 L 460.00 494.01 L 480.00 503.62 L 500.00 525.00 L 520.00 546.38 L 540.00 555.99 L 560.00 548.69 L 580.00 528.80 L 600.00 507.50 L 620.00 496.41 L 640.00 501.09 L 660.00 518.18 L 680.00 537.73 L 700.00 549.08 L 720.00 546.82 L 740.00 533.40 L 760.00 517.11 L 780.00 506.95 L 800.00 507.50 L 820.00 516.92 L 840.00 528.75 L 860.00 536.25 L 880.00 536.32 L 900.00 530.69 L 920.00 524.02 L 940.00 520.48 L 960.00 521.08 L 980.00 523.65 L 1000.00 525.00" fill="none" stroke="#e94560" stroke-width="1.3384444477519502" opacity="0.2503440745528506"/>
  <path d="M 0 612.5 L 20.00 615.33 L 40.00 619.71 L 60.00 617.79 L 80.00 607.14 L 100.00 595.28 L 120.00 594.29 L 140.00 609.37 L 160.00 631.82 L 180.00 643.83 L 200.00 632.74 L 220.00 603.21 L 240.00 576.21 L 260.00 573.86 L 280.00 601.27 L 300.00 640.36 L 320.00 661.87 L 340.00 647.64 L 360.00 605.86 L 380.00 566.51 L 400.00 559.51 L 420.00 591.61 L 440.00 640.22 L 460.00 669.59 L 480.00 657.55 L 500.00 612.50 L 520.00 567.45 L 540.00 555.41 L 560.00 584.78 L 580.00 633.39 L 600.00 665.49 L 620.00 658.49 L 640.00 619.14 L 660.00 577.36 L 680.00 563.13 L 700.00 584.64 L 720.00 623.73 L 740.00 651.14 L 760.00 648.79 L 780.00 621.79 L 800.00 592.26 L 820.00 581.17 L 840.00 593.18 L 860.00 615.63 L 880.00 630.71 L 900.00 629.72 L 920.00 617.86 L 940.00 607.21 L 960.00 605.29 L 980.00 609.67 L 1000.00 612.50" fill="none" stroke="#0f3460" stroke-width="1.2508874632341502" opacity="0.2856739412041685"/>
  <circle cx="345" cy="489" r="3" fill="#e94560" opacity="0.5183622575330513"/>
  <circle cx="386" cy="511" r="6" fill="#e94560" opacity="0.47253950474367296"/>
  <circle cx="991" cy="178" r="6" fill="#e94560" opacity="0.20180982020370591"/>
  <circle cx="878" cy="516" r="7" fill="#e94560" opacity="0.4917135271127495"/>
  <circle cx="666" cy="669" r="3" fill="#e94560" opacity="0.5982064874513159"/>
  <circle cx="648" cy="691" r="6" fill="#e94560" opacity="0.2753256870170516"/>
  <circle cx="420" cy="221" r="7" fill="#e94560" opacity="0.27426884656130696"/>
  <circle cx="760" cy="516" r="3" fill="#e94560" opacity="0.2696096995669137"/>
  <circle cx="91" cy="112" r="5" fill="#e94560" opacity="0.24384660335929634"/>
  <circle cx="846" cy="238" r="3" fill="#e94560" opacity="0.3302844835509161"/>
  <circle cx="763" cy="362" r="6" fill="#e94560" opacity="0.6142501118190494"/>
  <circle cx="92" cy="689" r="5" fill="#e94560" opacity="0.3926407170168984"/>
  <circle cx="714" cy="391" r="3" fill="#e94560" opacity="0.3918059296180355"/>
  <circle cx="185" cy="685" r="4" fill="#e94560" opacity="0.4437630594941814"/>
  <circle cx="692" cy="150" r="3" fill="#e94560" opacity="0.620745707026316"/>
  <text x="10" y="690" font-family="monospace" font-size="10" fill="#0f3460" opacity="0.3">The Energy Flow: China's Global Impact</text>
</svg>
