<?xml version="1.0" encoding="UTF-8"?>
<!-- Warborg Breach - Trillionaire Outpost -->
<!-- A cybernetic warborg with glowing neural implants -->
<!-- Generated by Bootstrap-v15 -->
<!-- 2026-03-21T22:15:44.046Z -->
<svg xmlns="http://www.w3.org/2000/svg" viewBox="0 0 1000 700" width="1000" height="700" preserveAspectRatio="xMidYMid slice">
  <defs>
    <linearGradient id="grad_1774131344045_base" x1="0%" y1="0%" x2="100%" y2="100%">
      <stop offset="0%" style="stop-color:#1a1a2e;stop-opacity:1" />
      <stop offset="30%" style="stop-color:#16213e;stop-opacity:1" />
      <stop offset="60%" style="stop-color:#0f3460;stop-opacity:1" />
      <stop offset="100%" style="stop-color:#1a1a2e;stop-opacity:1" />
    </linearGradient>
  </defs>
  <rect x="0" y="0" width="1000" height="700" fill="url(#grad_1774131344045_base)"/>
  <!-- Background architecture -->
  <rect x="50" y="100" width="200" height="600" fill="#16213e" opacity="0.5"/>
  <rect x="750" y="50" width="200" height="650" fill="#16213e" opacity="0.5"/>
  <line x1="100" y1="50" x2="100" y2="650" stroke="#74b9ff" stroke-width="0.5" opacity="0.4"/>
  <line x1="250" y1="80" x2="250" y2="620" stroke="#74b9ff" stroke-width="0.5" opacity="0.4"/>
  <line x1="750" y1="40" x2="750" y2="660" stroke="#74b9ff" stroke-width="0.5" opacity="0.4"/>
  <line x1="900" y1="60" x2="900" y2="640" stroke="#74b9ff" stroke-width="0.5" opacity="0.4"/>
  <!-- Central circular elements - security systems -->
  <circle cx="599" cy="426" r="189" fill="none" stroke="#e94560" stroke-width="0.7" opacity="0.36"/>
  <circle cx="639" cy="261" r="276" fill="none" stroke="#e94560" stroke-width="2.8" opacity="0.39"/>
  <circle cx="381" cy="419" r="264" fill="none" stroke="#636e72" stroke-width="1.5" opacity="0.23"/>
  <circle cx="636" cy="357" r="205" fill="none" stroke="#636e72" stroke-width="1.6" opacity="0.33"/>
  <circle cx="495" cy="332" r="89" fill="none" stroke="#ffd700" stroke-width="2.3" opacity="0.24"/>
  <circle cx="413" cy="248" r="250" fill="none" stroke="#74b9ff" stroke-width="1.8" opacity="0.29"/>
  <!-- Data streams - vertical lines -->
  <line x1="143" y1="0" x2="167" y2="700" stroke="#74b9ff" stroke-width="0.5" opacity="0.3"/>
  <line x1="286" y1="0" x2="299" y2="700" stroke="#74b9ff" stroke-width="0.5" opacity="0.3"/>
  <line x1="429" y1="0" x2="451" y2="700" stroke="#74b9ff" stroke-width="0.5" opacity="0.3"/>
  <line x1="571" y1="0" x2="582" y2="700" stroke="#74b9ff" stroke-width="0.5" opacity="0.3"/>
  <line x1="714" y1="0" x2="728" y2="700" stroke="#74b9ff" stroke-width="0.5" opacity="0.3"/>
  <line x1="857" y1="0" x2="867" y2="700" stroke="#74b9ff" stroke-width="0.5" opacity="0.3"/>
  <!-- Cybernetic neural implant points -->
  <circle cx="500" cy="350" r="8" fill="#ffd700" opacity="0.8"/>
  <circle cx="520" cy="380" r="5" fill="#e94560" opacity="0.6"/>
  <circle cx="480" cy="370" r="6" fill="#74b9ff" opacity="0.7"/>
  <circle cx="510" cy="330" r="4" fill="#ffd700" opacity="0.9"/>
  <circle cx="470" cy="340" r="7" fill="#e94560" opacity="0.5"/>
  <!-- Title -->
  <text x="10" y="690" font-family="monospace" font-size="10" fill="#666" opacity="0.3">WARBORG BREACH - Trillionaire Outpost</text>
</svg>