<?xml version="1.0" encoding="UTF-8"?>
<!-- session_968396 -->
<!-- Generated by Bootstrap-v15 Image Generator -->
<!-- 2026-03-20T08:06:08.399Z -->
<svg xmlns="http://www.w3.org/2000/svg" viewBox="0 0 800 600" width="800" height="600" preserveAspectRatio="xMidYMid slice">
  <path d="M 0 85.71428571428571 L 16.00 85.91 L 32.00 86.50 L 48.00 87.45 L 64.00 88.74 L 80.00 90.29 L 96.00 92.07 L 112.00 93.99 L 128.00 95.97 L 144.00 97.94 L 160.00 99.81 L 176.00 101.50 L 192.00 102.94 L 208.00 104.06 L 224.00 104.80 L 240.00 105.11 L 256.00 104.98 L 272.00 104.37 L 288.00 103.29 L 304.00 101.76 L 320.00 99.81 L 336.00 97.48 L 352.00 94.83 L 368.00 91.94 L 384.00 88.87 L 400.00 85.71 L 416.00 82.56 L 432.00 79.49 L 448.00 76.60 L 464.00 73.95 L 480.00 71.62 L 496.00 69.67 L 512.00 68.14 L 528.00 67.06 L 544.00 66.45 L 560.00 66.31 L 576.00 66.63 L 592.00 67.37 L 608.00 68.49 L 624.00 69.93 L 640.00 71.62 L 656.00 73.49 L 672.00 75.46 L 688.00 77.44 L 704.00 79.36 L 720.00 81.13 L 736.00 82.69 L 752.00 83.98 L 768.00 84.93 L 784.00 85.52 L 800.00 85.71" fill="none" stroke="#2d3436" stroke-width="1.3762349013929014" opacity="0.3807465584157098"/>
  <path d="M 0 171.42857142857142 L 16.00 171.45 L 32.00 171.50 L 48.00 171.59 L 64.00 171.69 L 80.00 171.79 L 96.00 171.88 L 112.00 171.95 L 128.00 171.97 L 144.00 171.94 L 160.00 171.86 L 176.00 171.72 L 192.00 171.53 L 208.00 171.32 L 224.00 171.08 L 240.00 170.84 L 256.00 170.62 L 272.00 170.45 L 288.00 170.33 L 304.00 170.28 L 320.00 170.31 L 336.00 170.41 L 352.00 170.59 L 368.00 170.84 L 384.00 171.12 L 400.00 171.43 L 416.00 171.74 L 432.00 172.02 L 448.00 172.26 L 464.00 172.44 L 480.00 172.55 L 496.00 172.58 L 512.00 172.53 L 528.00 172.41 L 544.00 172.24 L 560.00 172.02 L 576.00 171.78 L 592.00 171.54 L 608.00 171.32 L 624.00 171.14 L 640.00 171.00 L 656.00 170.92 L 672.00 170.89 L 688.00 170.91 L 704.00 170.97 L 720.00 171.06 L 736.00 171.17 L 752.00 171.27 L 768.00 171.35 L 784.00 171.41 L 800.00 171.43" fill="none" stroke="#fd79a8" stroke-width="1.7213668783015184" opacity="0.4000844856283138"/>
  <path d="M 0 257.1428571428571 L 16.00 258.08 L 32.00 260.62 L 48.00 264.02 L 64.00 267.21 L 80.00 269.06 L 96.00 268.64 L 112.00 265.46 L 128.00 259.59 L 144.00 251.74 L 160.00 243.13 L 176.00 235.32 L 192.00 229.88 L 208.00 228.11 L 224.00 230.76 L 240.00 237.86 L 256.00 248.63 L 272.00 261.60 L 288.00 274.82 L 304.00 286.19 L 320.00 293.82 L 336.00 296.34 L 352.00 293.18 L 368.00 284.68 L 384.00 272.04 L 400.00 257.14 L 416.00 242.25 L 432.00 229.60 L 448.00 221.10 L 464.00 217.94 L 480.00 220.47 L 496.00 228.09 L 512.00 239.47 L 528.00 252.69 L 544.00 265.66 L 560.00 276.43 L 576.00 283.52 L 592.00 286.18 L 608.00 284.41 L 624.00 278.97 L 640.00 271.15 L 656.00 262.55 L 672.00 254.69 L 688.00 248.83 L 704.00 245.64 L 720.00 245.23 L 736.00 247.08 L 752.00 250.27 L 768.00 253.66 L 784.00 256.21 L 800.00 257.14" fill="none" stroke="#2d3436" stroke-width="1.9832623492543098" opacity="0.3706912408051667"/>
  <path d="M 0 342.85714285714283 L 16.00 343.24 L 32.00 344.19 L 48.00 345.21 L 64.00 345.68 L 80.00 345.14 L 96.00 343.44 L 112.00 340.89 L 128.00 338.19 L 144.00 336.24 L 160.00 335.83 L 176.00 337.37 L 192.00 340.72 L 208.00 345.13 L 224.00 349.48 L 240.00 352.52 L 256.00 353.28 L 272.00 351.34 L 288.00 347.04 L 304.00 341.39 L 320.00 335.83 L 336.00 331.85 L 352.00 330.54 L 368.00 332.33 L 384.00 336.82 L 400.00 342.86 L 416.00 348.90 L 432.00 353.38 L 448.00 355.17 L 464.00 353.87 L 480.00 349.88 L 496.00 344.32 L 512.00 338.67 L 528.00 334.37 L 544.00 332.44 L 560.00 333.19 L 576.00 336.23 L 592.00 340.58 L 608.00 345.00 L 624.00 348.34 L 640.00 349.88 L 656.00 349.47 L 672.00 347.52 L 688.00 344.83 L 704.00 342.28 L 720.00 340.58 L 736.00 340.03 L 752.00 340.51 L 768.00 341.53 L 784.00 342.48 L 800.00 342.86" fill="none" stroke="#fd79a8" stroke-width="0.6808919450383127" opacity="0.5447900106746637"/>
  <path d="M 0 428.57142857142856 L 16.00 429.55 L 32.00 431.73 L 48.00 433.29 L 64.00 432.44 L 80.00 428.57 L 96.00 422.85 L 112.00 417.86 L 128.00 416.45 L 144.00 420.24 L 160.00 428.57 L 176.00 438.49 L 192.00 445.80 L 208.00 446.92 L 224.00 440.56 L 240.00 428.57 L 256.00 415.44 L 272.00 406.52 L 288.00 405.80 L 304.00 414.11 L 320.00 428.57 L 336.00 443.64 L 352.00 453.29 L 368.00 453.54 L 384.00 444.10 L 400.00 428.57 L 416.00 413.05 L 432.00 403.60 L 448.00 403.85 L 464.00 413.51 L 480.00 428.57 L 496.00 443.03 L 512.00 451.34 L 528.00 450.63 L 544.00 441.70 L 560.00 428.57 L 576.00 416.59 L 592.00 410.23 L 608.00 411.34 L 624.00 418.66 L 640.00 428.57 L 656.00 436.91 L 672.00 440.70 L 688.00 439.29 L 704.00 434.30 L 720.00 428.57 L 736.00 424.70 L 752.00 423.86 L 768.00 425.42 L 784.00 427.59 L 800.00 428.57" fill="none" stroke="#2d3436" stroke-width="0.9313165742183418" opacity="0.464650278261496"/>
  <path d="M 0 514.2857142857142 L 16.00 516.84 L 32.00 521.73 L 48.00 522.88 L 64.00 516.14 L 80.00 503.48 L 96.00 492.76 L 112.00 492.89 L 128.00 507.16 L 144.00 529.65 L 160.00 547.56 L 176.00 548.61 L 192.00 529.28 L 208.00 498.31 L 224.00 472.79 L 240.00 468.49 L 256.00 490.08 L 272.00 527.26 L 288.00 559.75 L 304.00 568.64 L 320.00 547.56 L 336.00 507.06 L 352.00 469.24 L 368.00 455.36 L 384.00 473.63 L 400.00 514.29 L 416.00 554.95 L 432.00 573.21 L 448.00 559.33 L 464.00 521.51 L 480.00 481.02 L 496.00 459.93 L 512.00 468.82 L 528.00 501.32 L 544.00 538.49 L 560.00 560.08 L 576.00 555.78 L 592.00 530.26 L 608.00 499.29 L 624.00 479.96 L 640.00 481.02 L 656.00 498.92 L 672.00 521.42 L 688.00 535.68 L 704.00 535.81 L 720.00 525.10 L 736.00 512.43 L 752.00 505.69 L 768.00 506.84 L 784.00 511.73 L 800.00 514.29" fill="none" stroke="#fd79a8" stroke-width="1.658020756470323" opacity="0.48481004510887366"/>
  <circle cx="606" cy="55" r="7" fill="#ffeaa7" opacity="0.4012059002092673"/>
  <circle cx="35" cy="354" r="4" fill="#ffeaa7" opacity="0.581903344188371"/>
  <circle cx="302" cy="453" r="6" fill="#ffeaa7" opacity="0.3372843346968599"/>
  <circle cx="780" cy="106" r="5" fill="#ffeaa7" opacity="0.3663084107007836"/>
  <circle cx="704" cy="359" r="6" fill="#ffeaa7" opacity="0.39715964820322835"/>
  <circle cx="620" cy="233" r="7" fill="#ffeaa7" opacity="0.5900244380220954"/>
  <circle cx="357" cy="413" r="7" fill="#ffeaa7" opacity="0.27320259690121207"/>
  <circle cx="741" cy="123" r="4" fill="#ffeaa7" opacity="0.5125518119547756"/>
  <circle cx="240" cy="416" r="7" fill="#ffeaa7" opacity="0.5142654184451318"/>
  <circle cx="141" cy="56" r="8" fill="#ffeaa7" opacity="0.3609835108938858"/>
  <circle cx="661" cy="199" r="2" fill="#ffeaa7" opacity="0.5812373875263459"/>
  <text x="10" y="590" font-family="monospace" font-size="10" fill="#2d3436" opacity="0.3">session_968396</text>
</svg>