<?xml version="1.0" encoding="UTF-8"?>
<!-- Ember Heat -->
<!-- Generated by Bootstrap-v15 Image Generator -->
<!-- 2026-03-20T08:06:08.394Z -->
<svg xmlns="http://www.w3.org/2000/svg" viewBox="0 0 600 600" width="600" height="600" preserveAspectRatio="xMidYMid slice">
  <line x1="300" y1="480" x2="300" y2="416" stroke="#1a1a2e" stroke-width="2" opacity="1"/>
  <line x1="300" y1="416" x2="276" y2="374" stroke="#1a1a2e" stroke-width="1.5" opacity="0.9"/>
  <line x1="276" y1="374" x2="246" y2="362" stroke="#1a1a2e" stroke-width="1" opacity="0.8"/>
  <line x1="246" y1="362" x2="231" y2="368" stroke="#1a1a2e" stroke-width="0.5" opacity="0.7"/>
  <line x1="246" y1="362" x2="239" y2="348" stroke="#1a1a2e" stroke-width="0.5" opacity="0.7"/>
  <line x1="276" y1="374" x2="281" y2="343" stroke="#1a1a2e" stroke-width="1" opacity="0.8"/>
  <line x1="281" y1="343" x2="275" y2="328" stroke="#1a1a2e" stroke-width="0.5" opacity="0.7"/>
  <line x1="281" y1="343" x2="291" y2="330" stroke="#1a1a2e" stroke-width="0.5" opacity="0.7"/>
  <line x1="300" y1="416" x2="324" y2="374" stroke="#1a1a2e" stroke-width="1.5" opacity="0.9"/>
  <line x1="324" y1="374" x2="326" y2="342" stroke="#1a1a2e" stroke-width="1" opacity="0.8"/>
  <line x1="326" y1="342" x2="315" y2="330" stroke="#1a1a2e" stroke-width="0.5" opacity="0.7"/>
  <line x1="326" y1="342" x2="338" y2="332" stroke="#1a1a2e" stroke-width="0.5" opacity="0.7"/>
  <line x1="324" y1="374" x2="350" y2="356" stroke="#1a1a2e" stroke-width="1" opacity="0.8"/>
  <line x1="350" y1="356" x2="358" y2="343" stroke="#1a1a2e" stroke-width="0.5" opacity="0.7"/>
  <line x1="350" y1="356" x2="366" y2="355" stroke="#1a1a2e" stroke-width="0.5" opacity="0.7"/>
  <circle cx="316" cy="288" r="240" fill="none" stroke="#e94560" stroke-width="0.49352887153155356" opacity="0.21677178482051085" stroke-dasharray="none"/>
  <circle cx="309" cy="284" r="222" fill="none" stroke="#16213e" stroke-width="1.6806732389639516" opacity="0.24730389981685189" stroke-dasharray="none"/>
  <circle cx="302" cy="319" r="204" fill="none" stroke="#e94560" stroke-width="0.6347677152247178" opacity="0.5138271236722198" stroke-dasharray="none"/>
  <circle cx="312" cy="320" r="186" fill="none" stroke="#16213e" stroke-width="0.7611529559585865" opacity="0.30420925678130856" stroke-dasharray="none"/>
  <circle cx="280" cy="284" r="168" fill="none" stroke="#e94560" stroke-width="0.7214709244885154" opacity="0.26125050310326536" stroke-dasharray="none"/>
  <circle cx="320" cy="317" r="150" fill="none" stroke="#16213e" stroke-width="0.3755586601262312" opacity="0.442433836372628" stroke-dasharray="none"/>
  <circle cx="282" cy="286" r="132" fill="none" stroke="#e94560" stroke-width="1.5895682427718396" opacity="0.46669929209151223" stroke-dasharray="9.88609804136395 9.342773393560993"/>
  <circle cx="307" cy="311" r="114" fill="none" stroke="#16213e" stroke-width="0.47550434155167376" opacity="0.3706180570882698" stroke-dasharray="9.04299551717661 3.1045987447920487"/>
  <circle cx="304" cy="304" r="96" fill="none" stroke="#e94560" stroke-width="1.0572425990620187" opacity="0.28768466972765117" stroke-dasharray="none"/>
  <circle cx="320" cy="318" r="78" fill="none" stroke="#16213e" stroke-width="1.9619838182436014" opacity="0.2872328127632416" stroke-dasharray="7.895443814802807 6.636127396130267"/>
  <circle cx="285" cy="281" r="60" fill="none" stroke="#e94560" stroke-width="0.791189644626343" opacity="0.438618974146856" stroke-dasharray="16.597570470975015 5.825476226901484"/>
  <circle cx="280" cy="284" r="42" fill="none" stroke="#16213e" stroke-width="1.6695530827834035" opacity="0.3111691621048133" stroke-dasharray="none"/>
  <text x="10" y="590" font-family="monospace" font-size="10" fill="#1a1a2e" opacity="0.3">Ember Heat</text>
</svg>