<?xml version="1.0" encoding="UTF-8"?>
<!-- Recursive Growth -->
<!-- Generated by Bootstrap-v15 Image Generator -->
<!-- 2026-03-20T08:06:08.381Z -->
<svg xmlns="http://www.w3.org/2000/svg" viewBox="0 0 800 600" width="800" height="600" preserveAspectRatio="xMidYMid slice">
  <line x1="400" y1="480" x2="400" y2="430" stroke="#2d3436" stroke-width="2.5" opacity="1.1"/>
  <line x1="400" y1="430" x2="376" y2="398" stroke="#2d3436" stroke-width="2" opacity="1"/>
  <line x1="376" y1="398" x2="347" y2="391" stroke="#2d3436" stroke-width="1.5" opacity="0.9"/>
  <line x1="347" y1="391" x2="329" y2="401" stroke="#2d3436" stroke-width="1" opacity="0.8"/>
  <line x1="329" y1="401" x2="324" y2="409" stroke="#2d3436" stroke-width="0.5" opacity="0.7"/>
  <line x1="329" y1="401" x2="319" y2="401" stroke="#2d3436" stroke-width="0.5" opacity="0.7"/>
  <line x1="347" y1="391" x2="336" y2="374" stroke="#2d3436" stroke-width="1" opacity="0.8"/>
  <line x1="336" y1="374" x2="327" y2="370" stroke="#2d3436" stroke-width="0.5" opacity="0.7"/>
  <line x1="336" y1="374" x2="336" y2="364" stroke="#2d3436" stroke-width="0.5" opacity="0.7"/>
  <line x1="376" y1="398" x2="377" y2="368" stroke="#2d3436" stroke-width="1.5" opacity="0.9"/>
  <line x1="377" y1="368" x2="368" y2="350" stroke="#2d3436" stroke-width="1" opacity="0.8"/>
  <line x1="368" y1="350" x2="358" y2="347" stroke="#2d3436" stroke-width="0.5" opacity="0.7"/>
  <line x1="368" y1="350" x2="370" y2="341" stroke="#2d3436" stroke-width="0.5" opacity="0.7"/>
  <line x1="377" y1="368" x2="387" y2="351" stroke="#2d3436" stroke-width="1" opacity="0.8"/>
  <line x1="387" y1="351" x2="386" y2="341" stroke="#2d3436" stroke-width="0.5" opacity="0.7"/>
  <line x1="387" y1="351" x2="396" y2="347" stroke="#2d3436" stroke-width="0.5" opacity="0.7"/>
  <line x1="400" y1="430" x2="424" y2="398" stroke="#2d3436" stroke-width="2" opacity="1"/>
  <line x1="424" y1="398" x2="422" y2="368" stroke="#2d3436" stroke-width="1.5" opacity="0.9"/>
  <line x1="422" y1="368" x2="411" y2="351" stroke="#2d3436" stroke-width="1" opacity="0.8"/>
  <line x1="411" y1="351" x2="402" y2="347" stroke="#2d3436" stroke-width="0.5" opacity="0.7"/>
  <line x1="411" y1="351" x2="412" y2="341" stroke="#2d3436" stroke-width="0.5" opacity="0.7"/>
  <line x1="422" y1="368" x2="429" y2="350" stroke="#2d3436" stroke-width="1" opacity="0.8"/>
  <line x1="429" y1="350" x2="427" y2="340" stroke="#2d3436" stroke-width="0.5" opacity="0.7"/>
  <line x1="429" y1="350" x2="437" y2="343" stroke="#2d3436" stroke-width="0.5" opacity="0.7"/>
  <line x1="424" y1="398" x2="454" y2="392" stroke="#2d3436" stroke-width="1.5" opacity="0.9"/>
  <line x1="454" y1="392" x2="469" y2="379" stroke="#2d3436" stroke-width="1" opacity="0.8"/>
  <line x1="469" y1="379" x2="472" y2="370" stroke="#2d3436" stroke-width="0.5" opacity="0.7"/>
  <line x1="469" y1="379" x2="478" y2="377" stroke="#2d3436" stroke-width="0.5" opacity="0.7"/>
  <line x1="454" y1="392" x2="472" y2="399" stroke="#2d3436" stroke-width="1" opacity="0.8"/>
  <line x1="472" y1="399" x2="482" y2="396" stroke="#2d3436" stroke-width="0.5" opacity="0.7"/>
  <line x1="472" y1="399" x2="478" y2="408" stroke="#2d3436" stroke-width="0.5" opacity="0.7"/>
  <circle cx="417" cy="290" r="240" fill="none" stroke="#00b894" stroke-width="0.6045924846774838" opacity="0.4762225778317091" stroke-dasharray="none"/>
  <circle cx="392" cy="317" r="216" fill="none" stroke="#55efc4" stroke-width="1.390565450414913" opacity="0.5549412422620057" stroke-dasharray="none"/>
  <circle cx="415" cy="293" r="192" fill="none" stroke="#00b894" stroke-width="1.103492441403236" opacity="0.3041043440018498" stroke-dasharray="14.052186152970593 3.3617206220437144"/>
  <circle cx="391" cy="310" r="168" fill="none" stroke="#55efc4" stroke-width="0.9489909165821693" opacity="0.5820614355917002" stroke-dasharray="none"/>
  <circle cx="395" cy="310" r="144" fill="none" stroke="#00b894" stroke-width="1.0346484652830004" opacity="0.4410874276928123" stroke-dasharray="none"/>
  <circle cx="387" cy="298" r="120" fill="none" stroke="#55efc4" stroke-width="1.8816915338415914" opacity="0.5699299367407875" stroke-dasharray="none"/>
  <circle cx="386" cy="292" r="96" fill="none" stroke="#00b894" stroke-width="1.911739807748868" opacity="0.3296936100541482" stroke-dasharray="14.307228501104278 4.50778995078614"/>
  <circle cx="412" cy="315" r="72" fill="none" stroke="#55efc4" stroke-width="1.7120415761598753" opacity="0.49598725494288615" stroke-dasharray="5.851560338810393 3.884015286557468"/>
  <circle cx="420" cy="320" r="48" fill="none" stroke="#00b894" stroke-width="1.3448092780978673" opacity="0.41890389618150814" stroke-dasharray="none"/>
  <text x="10" y="590" font-family="monospace" font-size="10" fill="#2d3436" opacity="0.3">Recursive Growth</text>
</svg>