<?xml version="1.0" encoding="UTF-8"?>
<!-- Flowing Movement -->
<!-- Generated by Bootstrap-v15 Image Generator -->
<!-- 2026-03-20T08:06:08.391Z -->
<svg xmlns="http://www.w3.org/2000/svg" viewBox="0 0 800 400" width="800" height="400" preserveAspectRatio="xMidYMid slice">
  <path d="M 0 44.44444444444444 L 16.00 44.71 L 32.00 45.51 L 48.00 46.81 L 64.00 48.56 L 80.00 50.68 L 96.00 53.09 L 112.00 55.70 L 128.00 58.40 L 144.00 61.08 L 160.00 63.62 L 176.00 65.93 L 192.00 67.88 L 208.00 69.41 L 224.00 70.41 L 240.00 70.84 L 256.00 70.66 L 272.00 69.83 L 288.00 68.36 L 304.00 66.28 L 320.00 63.62 L 336.00 60.45 L 352.00 56.85 L 368.00 52.91 L 384.00 48.74 L 400.00 44.44 L 416.00 40.15 L 432.00 35.98 L 448.00 32.04 L 464.00 28.43 L 480.00 25.26 L 496.00 22.61 L 512.00 20.52 L 528.00 19.06 L 544.00 18.23 L 560.00 18.05 L 576.00 18.48 L 592.00 19.48 L 608.00 21.00 L 624.00 22.96 L 640.00 25.26 L 656.00 27.81 L 672.00 30.49 L 688.00 33.19 L 704.00 35.80 L 720.00 38.21 L 736.00 40.33 L 752.00 42.08 L 768.00 43.38 L 784.00 44.17 L 800.00 44.44" fill="none" stroke="#2d3436" stroke-width="1.6559008378382205" opacity="0.426846525859195"/>
  <path d="M 0 88.88888888888889 L 16.00 89.49 L 32.00 91.21 L 48.00 93.82 L 64.00 96.95 L 80.00 100.18 L 96.00 103.00 L 112.00 104.95 L 128.00 105.63 L 144.00 104.75 L 160.00 102.16 L 176.00 97.90 L 192.00 92.18 L 208.00 85.38 L 224.00 78.00 L 240.00 70.63 L 256.00 63.90 L 272.00 58.44 L 288.00 54.75 L 304.00 53.25 L 320.00 54.15 L 336.00 57.48 L 352.00 63.06 L 368.00 70.53 L 384.00 79.36 L 400.00 88.89 L 416.00 98.42 L 432.00 107.25 L 448.00 114.71 L 464.00 120.30 L 480.00 123.63 L 496.00 124.53 L 512.00 123.02 L 528.00 119.34 L 544.00 113.87 L 560.00 107.15 L 576.00 99.78 L 592.00 92.40 L 608.00 85.59 L 624.00 79.88 L 640.00 75.62 L 656.00 73.03 L 672.00 72.15 L 688.00 72.83 L 704.00 74.78 L 720.00 77.60 L 736.00 80.82 L 752.00 83.96 L 768.00 86.57 L 784.00 88.29 L 800.00 88.89" fill="none" stroke="#fd79a8" stroke-width="0.6981487750593158" opacity="0.5463302841014005"/>
  <path d="M 0 133.33333333333331 L 16.00 133.57 L 32.00 134.21 L 48.00 135.07 L 64.00 135.88 L 80.00 136.35 L 96.00 136.24 L 112.00 135.44 L 128.00 133.95 L 144.00 131.97 L 160.00 129.79 L 176.00 127.82 L 192.00 126.44 L 208.00 125.99 L 224.00 126.66 L 240.00 128.46 L 256.00 131.18 L 272.00 134.46 L 288.00 137.80 L 304.00 140.68 L 320.00 142.60 L 336.00 143.24 L 352.00 142.44 L 368.00 140.29 L 384.00 137.10 L 400.00 133.33 L 416.00 129.57 L 432.00 126.37 L 448.00 124.22 L 464.00 123.42 L 480.00 124.06 L 496.00 125.99 L 512.00 128.87 L 528.00 132.21 L 544.00 135.49 L 560.00 138.21 L 576.00 140.00 L 592.00 140.67 L 608.00 140.23 L 624.00 138.85 L 640.00 136.87 L 656.00 134.70 L 672.00 132.71 L 688.00 131.23 L 704.00 130.43 L 720.00 130.32 L 736.00 130.79 L 752.00 131.60 L 768.00 132.45 L 784.00 133.10 L 800.00 133.33" fill="none" stroke="#2d3436" stroke-width="1.0474003634166449" opacity="0.3834031671723057"/>
  <path d="M 0 177.77777777777777 L 16.00 178.74 L 32.00 181.14 L 48.00 183.71 L 64.00 184.92 L 80.00 183.54 L 96.00 179.24 L 112.00 172.80 L 128.00 166.00 L 144.00 161.07 L 160.00 160.04 L 176.00 163.93 L 192.00 172.37 L 208.00 183.53 L 224.00 194.52 L 240.00 202.20 L 256.00 204.10 L 272.00 199.21 L 288.00 188.35 L 304.00 174.08 L 320.00 160.04 L 336.00 149.96 L 352.00 146.66 L 368.00 151.19 L 384.00 162.52 L 400.00 177.78 L 416.00 193.04 L 432.00 204.36 L 448.00 208.89 L 464.00 205.59 L 480.00 195.52 L 496.00 181.48 L 512.00 167.21 L 528.00 156.35 L 544.00 151.45 L 560.00 153.36 L 576.00 161.04 L 592.00 172.02 L 608.00 183.18 L 624.00 191.63 L 640.00 195.52 L 656.00 194.48 L 672.00 189.56 L 688.00 182.75 L 704.00 176.31 L 720.00 172.01 L 736.00 170.64 L 752.00 171.84 L 768.00 174.42 L 784.00 176.82 L 800.00 177.78" fill="none" stroke="#fd79a8" stroke-width="1.816153285834831" opacity="0.2956515435856066"/>
  <path d="M 0 222.22222222222223 L 16.00 222.74 L 32.00 223.89 L 48.00 224.71 L 64.00 224.26 L 80.00 222.22 L 96.00 219.20 L 112.00 216.57 L 128.00 215.83 L 144.00 217.83 L 160.00 222.22 L 176.00 227.45 L 192.00 231.31 L 208.00 231.90 L 224.00 228.54 L 240.00 222.22 L 256.00 215.30 L 272.00 210.59 L 288.00 210.21 L 304.00 214.60 L 320.00 222.22 L 336.00 230.17 L 352.00 235.26 L 368.00 235.39 L 384.00 230.41 L 400.00 222.22 L 416.00 214.04 L 432.00 209.06 L 448.00 209.19 L 464.00 214.28 L 480.00 222.22 L 496.00 229.85 L 512.00 234.23 L 528.00 233.85 L 544.00 229.15 L 560.00 222.22 L 576.00 215.90 L 592.00 212.55 L 608.00 213.14 L 624.00 216.99 L 640.00 222.22 L 656.00 226.62 L 672.00 228.62 L 688.00 227.87 L 704.00 225.24 L 720.00 222.22 L 736.00 220.18 L 752.00 219.74 L 768.00 220.56 L 784.00 221.71 L 800.00 222.22" fill="none" stroke="#2d3436" stroke-width="0.8537080681204428" opacity="0.37485955384573977"/>
  <path d="M 0 266.66666666666663 L 16.00 266.90 L 32.00 267.33 L 48.00 267.44 L 64.00 266.83 L 80.00 265.70 L 96.00 264.74 L 112.00 264.75 L 128.00 266.03 L 144.00 268.04 L 160.00 269.64 L 176.00 269.74 L 192.00 268.01 L 208.00 265.24 L 224.00 262.95 L 240.00 262.57 L 256.00 264.50 L 272.00 267.83 L 288.00 270.73 L 304.00 271.53 L 320.00 269.64 L 336.00 266.02 L 352.00 262.64 L 368.00 261.40 L 384.00 263.03 L 400.00 266.67 L 416.00 270.30 L 432.00 271.94 L 448.00 270.70 L 464.00 267.31 L 480.00 263.69 L 496.00 261.80 L 512.00 262.60 L 528.00 265.51 L 544.00 268.83 L 560.00 270.76 L 576.00 270.38 L 592.00 268.10 L 608.00 265.33 L 624.00 263.60 L 640.00 263.69 L 656.00 265.29 L 672.00 267.30 L 688.00 268.58 L 704.00 268.59 L 720.00 267.63 L 736.00 266.50 L 752.00 265.90 L 768.00 266.00 L 784.00 266.44 L 800.00 266.67" fill="none" stroke="#fd79a8" stroke-width="0.9095795372953264" opacity="0.5510021660034385"/>
  <path d="M 0 311.1111111111111 L 16.00 312.83 L 32.00 315.49 L 48.00 314.32 L 64.00 307.85 L 80.00 300.66 L 96.00 300.06 L 112.00 309.21 L 128.00 322.84 L 144.00 330.13 L 160.00 323.40 L 176.00 305.47 L 192.00 289.08 L 208.00 287.65 L 224.00 304.30 L 240.00 328.02 L 256.00 341.08 L 272.00 332.45 L 288.00 307.08 L 304.00 283.19 L 320.00 278.94 L 336.00 298.43 L 352.00 327.94 L 368.00 345.77 L 384.00 338.46 L 400.00 311.11 L 416.00 283.76 L 432.00 276.45 L 448.00 294.28 L 464.00 323.79 L 480.00 343.28 L 496.00 339.03 L 512.00 315.14 L 528.00 289.78 L 544.00 281.14 L 560.00 294.20 L 576.00 317.93 L 592.00 334.57 L 608.00 333.14 L 624.00 316.75 L 640.00 298.82 L 656.00 292.09 L 672.00 299.38 L 688.00 313.01 L 704.00 322.17 L 720.00 321.56 L 736.00 314.37 L 752.00 307.90 L 768.00 306.73 L 784.00 309.39 L 800.00 311.11" fill="none" stroke="#2d3436" stroke-width="1.8906582799299385" opacity="0.28790489787795415"/>
  <path d="M 0 355.55555555555554 L 16.00 356.02 L 32.00 356.55 L 48.00 355.76 L 64.00 353.87 L 80.00 352.97 L 96.00 354.75 L 112.00 358.12 L 128.00 359.72 L 144.00 357.29 L 160.00 352.52 L 176.00 349.96 L 192.00 352.65 L 208.00 358.65 L 224.00 362.32 L 240.00 359.74 L 256.00 352.82 L 272.00 347.98 L 288.00 350.11 L 304.00 357.59 L 320.00 363.51 L 336.00 362.12 L 352.00 354.47 L 368.00 347.66 L 384.00 348.14 L 400.00 355.56 L 416.00 362.97 L 432.00 363.45 L 448.00 356.64 L 464.00 348.99 L 480.00 347.60 L 496.00 353.52 L 512.00 361.01 L 528.00 363.13 L 544.00 358.29 L 560.00 351.37 L 576.00 348.79 L 592.00 352.47 L 608.00 358.46 L 624.00 361.15 L 640.00 358.60 L 656.00 353.82 L 672.00 351.39 L 688.00 352.99 L 704.00 356.36 L 720.00 358.14 L 736.00 357.24 L 752.00 355.35 L 768.00 354.56 L 784.00 355.09 L 800.00 355.56" fill="none" stroke="#fd79a8" stroke-width="1.7121221004766816" opacity="0.2705702059459457"/>
  <circle cx="116" cy="72" r="5" fill="#ffeaa7" opacity="0.555213176121294"/>
  <circle cx="709" cy="222" r="5" fill="#ffeaa7" opacity="0.30588508732003683"/>
  <circle cx="709" cy="100" r="4" fill="#ffeaa7" opacity="0.5266763315897623"/>
  <circle cx="36" cy="224" r="4" fill="#ffeaa7" opacity="0.5629712005911091"/>
  <circle cx="161" cy="97" r="6" fill="#ffeaa7" opacity="0.6761650898620302"/>
  <circle cx="667" cy="99" r="5" fill="#ffeaa7" opacity="0.590322484928905"/>
  <circle cx="792" cy="372" r="5" fill="#ffeaa7" opacity="0.5283740736656555"/>
  <circle cx="501" cy="58" r="3" fill="#ffeaa7" opacity="0.48564818382917274"/>
  <circle cx="671" cy="93" r="4" fill="#ffeaa7" opacity="0.2984941507072606"/>
  <circle cx="320" cy="31" r="3" fill="#ffeaa7" opacity="0.39851040215485706"/>
  <circle cx="721" cy="23" r="2" fill="#ffeaa7" opacity="0.4131865697306043"/>
  <circle cx="726" cy="203" r="7" fill="#ffeaa7" opacity="0.5686812664746257"/>
  <text x="10" y="390" font-family="monospace" font-size="10" fill="#2d3436" opacity="0.3">Flowing Movement</text>
</svg>