<?xml version="1.0" encoding="UTF-8"?>
<!-- tactile → visual: warmth and texture -->
<!-- Generated by Bootstrap-v15 Image Generator -->
<!-- 2026-03-20T08:06:08.402Z -->
<svg xmlns="http://www.w3.org/2000/svg" viewBox="0 0 800 600" width="800" height="600" preserveAspectRatio="xMidYMid slice">
  <line x1="400" y1="480" x2="400" y2="430" stroke="#1a1a2e" stroke-width="2.5" opacity="1.1"/>
  <line x1="400" y1="430" x2="378" y2="397" stroke="#1a1a2e" stroke-width="2" opacity="1"/>
  <line x1="378" y1="397" x2="349" y2="390" stroke="#1a1a2e" stroke-width="1.5" opacity="0.9"/>
  <line x1="349" y1="390" x2="330" y2="398" stroke="#1a1a2e" stroke-width="1" opacity="0.8"/>
  <line x1="330" y1="398" x2="326" y2="407" stroke="#1a1a2e" stroke-width="0.5" opacity="0.7"/>
  <line x1="330" y1="398" x2="321" y2="395" stroke="#1a1a2e" stroke-width="0.5" opacity="0.7"/>
  <line x1="349" y1="390" x2="335" y2="375" stroke="#1a1a2e" stroke-width="1" opacity="0.8"/>
  <line x1="335" y1="375" x2="325" y2="374" stroke="#1a1a2e" stroke-width="0.5" opacity="0.7"/>
  <line x1="335" y1="375" x2="335" y2="365" stroke="#1a1a2e" stroke-width="0.5" opacity="0.7"/>
  <line x1="378" y1="397" x2="383" y2="367" stroke="#1a1a2e" stroke-width="1.5" opacity="0.9"/>
  <line x1="383" y1="367" x2="374" y2="350" stroke="#1a1a2e" stroke-width="1" opacity="0.8"/>
  <line x1="374" y1="350" x2="365" y2="344" stroke="#1a1a2e" stroke-width="0.5" opacity="0.7"/>
  <line x1="374" y1="350" x2="373" y2="340" stroke="#1a1a2e" stroke-width="0.5" opacity="0.7"/>
  <line x1="383" y1="367" x2="399" y2="354" stroke="#1a1a2e" stroke-width="1" opacity="0.8"/>
  <line x1="399" y1="354" x2="400" y2="344" stroke="#1a1a2e" stroke-width="0.5" opacity="0.7"/>
  <line x1="399" y1="354" x2="409" y2="354" stroke="#1a1a2e" stroke-width="0.5" opacity="0.7"/>
  <line x1="400" y1="430" x2="422" y2="397" stroke="#1a1a2e" stroke-width="2" opacity="1"/>
  <line x1="422" y1="397" x2="419" y2="367" stroke="#1a1a2e" stroke-width="1.5" opacity="0.9"/>
  <line x1="419" y1="367" x2="408" y2="350" stroke="#1a1a2e" stroke-width="1" opacity="0.8"/>
  <line x1="408" y1="350" x2="399" y2="347" stroke="#1a1a2e" stroke-width="0.5" opacity="0.7"/>
  <line x1="408" y1="350" x2="409" y2="340" stroke="#1a1a2e" stroke-width="0.5" opacity="0.7"/>
  <line x1="419" y1="367" x2="426" y2="348" stroke="#1a1a2e" stroke-width="1" opacity="0.8"/>
  <line x1="426" y1="348" x2="424" y2="339" stroke="#1a1a2e" stroke-width="0.5" opacity="0.7"/>
  <line x1="426" y1="348" x2="435" y2="343" stroke="#1a1a2e" stroke-width="0.5" opacity="0.7"/>
  <line x1="422" y1="397" x2="451" y2="388" stroke="#1a1a2e" stroke-width="1.5" opacity="0.9"/>
  <line x1="451" y1="388" x2="462" y2="371" stroke="#1a1a2e" stroke-width="1" opacity="0.8"/>
  <line x1="462" y1="371" x2="461" y2="361" stroke="#1a1a2e" stroke-width="0.5" opacity="0.7"/>
  <line x1="462" y1="371" x2="471" y2="368" stroke="#1a1a2e" stroke-width="0.5" opacity="0.7"/>
  <line x1="451" y1="388" x2="469" y2="396" stroke="#1a1a2e" stroke-width="1" opacity="0.8"/>
  <line x1="469" y1="396" x2="479" y2="392" stroke="#1a1a2e" stroke-width="0.5" opacity="0.7"/>
  <line x1="469" y1="396" x2="473" y2="405" stroke="#1a1a2e" stroke-width="0.5" opacity="0.7"/>
  <circle cx="380" cy="297" r="240" fill="none" stroke="#e94560" stroke-width="0.7208533255825399" opacity="0.5096534620497288" stroke-dasharray="none"/>
  <circle cx="417" cy="294" r="216" fill="none" stroke="#16213e" stroke-width="0.6421143739902515" opacity="0.5917737538440073" stroke-dasharray="6.399961703506762 4.2472649083870095"/>
  <circle cx="386" cy="281" r="192" fill="none" stroke="#e94560" stroke-width="1.8940649633685993" opacity="0.4488165321999289" stroke-dasharray="19.627106281986208 9.938851274956729"/>
  <circle cx="413" cy="320" r="168" fill="none" stroke="#16213e" stroke-width="0.5010839996696418" opacity="0.35094750537548536" stroke-dasharray="none"/>
  <circle cx="408" cy="293" r="144" fill="none" stroke="#e94560" stroke-width="1.1425288389848012" opacity="0.5341123219159405" stroke-dasharray="none"/>
  <circle cx="380" cy="286" r="120" fill="none" stroke="#16213e" stroke-width="1.2757086805880724" opacity="0.39427861651030094" stroke-dasharray="5.085893766778241 5.769462502002716"/>
  <circle cx="412" cy="306" r="96" fill="none" stroke="#e94560" stroke-width="1.460526335050744" opacity="0.4622795947008499" stroke-dasharray="15.956990067390993 4.205031568245305"/>
  <circle cx="402" cy="305" r="72" fill="none" stroke="#16213e" stroke-width="1.7214519235448826" opacity="0.2902557321086996" stroke-dasharray="12.527121657850564 6.228457095969688"/>
  <circle cx="380" cy="280" r="48" fill="none" stroke="#e94560" stroke-width="0.8461290134971933" opacity="0.27181188421239577" stroke-dasharray="none"/>
  <text x="10" y="590" font-family="monospace" font-size="10" fill="#1a1a2e" opacity="0.3">tactile → visual: warmth and texture</text>
</svg>