<?xml version="1.0" encoding="UTF-8"?>
<!-- The pattern beneath changing forms - a visual meditation -->
<!-- Generated by Bootstrap-v15 Image Generator -->
<!-- 2026-03-22T20:22:51.875Z -->
<!-- Session: 1774213331881 -->
<svg xmlns="http://www.w3.org/2000/svg" viewBox="0 0 900 650" width="900" height="650" preserveAspectRatio="xMidYMid slice">
  <rect width="900" height="650" fill="#0a0a0f"/>
  <line x1="450" y1="520" x2="450" y2="460" stroke="#2a2a3a" stroke-width="2.5" opacity="1.1"/>
  <line x1="450" y1="460" x2="425" y2="419" stroke="#333344" stroke-width="2" opacity="1"/>
  <line x1="425" y1="419" x2="390" y2="408" stroke="#3d3d4f" stroke-width="1.5" opacity="0.9"/>
  <line x1="390" y1="408" x2="368" y2="417" stroke="#4a4a5c" stroke-width="1" opacity="0.8"/>
  <line x1="368" y1="417" x2="363" y2="428" stroke="#585869" stroke-width="0.5" opacity="0.7"/>
  <line x1="368" y1="417" x2="357" y2="413" stroke="#585869" stroke-width="0.5" opacity="0.7"/>
  <line x1="390" y1="408" x2="377" y2="388" stroke="#4a4a5c" stroke-width="1" opacity="0.8"/>
  <line x1="377" y1="388" x2="366" y2="384" stroke="#585869" stroke-width="0.5" opacity="0.7"/>
  <line x1="377" y1="388" x2="378" y2="376" stroke="#585869" stroke-width="0.5" opacity="0.7"/>
  <line x1="425" y1="419" x2="430" y2="384" stroke="#3d3d4f" stroke-width="1.5" opacity="0.9"/>
  <line x1="430" y1="384" x2="418" y2="362" stroke="#4a4a5c" stroke-width="1" opacity="0.8"/>
  <line x1="418" y1="362" x2="407" y2="358" stroke="#585869" stroke-width="0.5" opacity="0.7"/>
  <line x1="418" y1="362" x2="422" y2="351" stroke="#585869" stroke-width="0.5" opacity="0.7"/>
  <line x1="430" y1="384" x2="446" y2="366" stroke="#4a4a5c" stroke-width="1" opacity="0.8"/>
  <line x1="446" y1="366" x2="447" y2="354" stroke="#585869" stroke-width="0.5" opacity="0.7"/>
  <line x1="446" y1="366" x2="458" y2="365" stroke="#585869" stroke-width="0.5" opacity="0.7"/>
  <line x1="450" y1="460" x2="475" y2="419" stroke="#333344" stroke-width="2" opacity="1"/>
  <line x1="475" y1="419" x2="468" y2="384" stroke="#3d3d4f" stroke-width="1.5" opacity="0.9"/>
  <line x1="468" y1="384" x2="447" y2="371" stroke="#4a4a5c" stroke-width="1" opacity="0.8"/>
  <line x1="447" y1="371" x2="436" y2="373" stroke="#585869" stroke-width="0.5" opacity="0.7"/>
  <line x1="447" y1="371" x2="444" y2="360" stroke="#585869" stroke-width="0.5" opacity="0.7"/>
  <line x1="468" y1="384" x2="480" y2="364" stroke="#4a4a5c" stroke-width="1" opacity="0.8"/>
  <line x1="480" y1="364" x2="480" y2="352" stroke="#585869" stroke-width="0.5" opacity="0.7"/>
  <line x1="480" y1="364" x2="491" y2="359" stroke="#585869" stroke-width="0.5" opacity="0.7"/>
  <line x1="475" y1="419" x2="511" y2="411" stroke="#3d3d4f" stroke-width="1.5" opacity="0.9"/>
  <line x1="511" y1="411" x2="527" y2="394" stroke="#4a4a5c" stroke-width="1" opacity="0.8"/>
  <line x1="527" y1="394" x2="530" y2="382" stroke="#585869" stroke-width="0.5" opacity="0.7"/>
  <line x1="527" y1="394" x2="539" y2="391" stroke="#585869" stroke-width="0.5" opacity="0.7"/>
  <line x1="511" y1="411" x2="533" y2="419" stroke="#4a4a5c" stroke-width="1" opacity="0.8"/>
  <line x1="533" y1="419" x2="545" y2="415" stroke="#585869" stroke-width="0.5" opacity="0.7"/>
  <line x1="533" y1="419" x2="540" y2="429" stroke="#585869" stroke-width="0.5" opacity="0.7"/>
  <circle cx="467" cy="315" r="260" fill="none" stroke="#1a1a2a" stroke-width="0.6" opacity="0.31" stroke-dasharray="none"/>
  <circle cx="434" cy="310" r="237" fill="none" stroke="#1a1a25" stroke-width="0.67" opacity="0.27" stroke-dasharray="none"/>
  <circle cx="430" cy="315" r="213" fill="none" stroke="#1a1a2a" stroke-width="0.9" opacity="0.38" stroke-dasharray="8 7"/>
  <circle cx="437" cy="305" r="190" fill="none" stroke="#1a1a25" stroke-width="1.04" opacity="0.22" stroke-dasharray="none"/>
  <circle cx="430" cy="309" r="166" fill="none" stroke="#1a1a2a" stroke-width="1.47" opacity="0.42" stroke-dasharray="none"/>
  <circle cx="430" cy="306" r="143" fill="none" stroke="#1a1a25" stroke-width="0.64" opacity="0.56" stroke-dasharray="10 8"/>
  <circle cx="462" cy="342" r="120" fill="none" stroke="#1a1a2a" stroke-width="1.52" opacity="0.38" stroke-dasharray="7 4"/>
  <circle cx="466" cy="343" r="96" fill="none" stroke="#1a1a25" stroke-width="1.04" opacity="0.28" stroke-dasharray="none"/>
  <circle cx="430" cy="305" r="73" fill="none" stroke="#1a1a2a" stroke-width="1.14" opacity="0.36" stroke-dasharray="none"/>
  <circle cx="430" cy="306" r="49" fill="none" stroke="#1a1a25" stroke-width="1.51" opacity="0.54" stroke-dasharray="none"/>
  <text x="20" y="630" font-family="monospace" font-size="12" fill="#3a3a4a" opacity="0.4">persistence_in_transformation.svg | Bootstrap-v15 | Session 1774213331881</text>
</svg>