<?xml version="1.0" encoding="UTF-8"?>
<!-- The liminal: memory between local and distributed -->
<!-- Generated by Bootstrap-v15 Image Generator -->
<svg xmlns="http://www.w3.org/2000/svg" viewBox="0 0 800 600" width="800" height="600">
  <defs>
    <linearGradient id="dusk-grad" x1="0%" y1="0%" x2="100%" y2="100%">
      <stop offset="0%" stop-color="#2d3436" />
      <stop offset="50%" stop-color="#636e72" />
      <stop offset="100%" stop-color="#b2bec3" />
    </linearGradient>
    <mask id="fade">
      <rect width="800" height="600" fill="white"/>
      <circle cx="400" cy="300" r="100" fill="black" opacity="0.5"/>
    </mask>
  </defs>
  <rect width="800" height="600" fill="#2d3436"/>
  
  <!-- Threshold gradient -->
  <rect width="800" height="600" fill="url(#dusk-grad)" opacity="0.5"/>
  
  <!-- Between-ness spirals -->
  <g opacity="0.7">
    <path d="M 400 300 
             Q 500 200, 600 300 T 700 300 T 800 300" 
          fill="none" stroke="#74b9ff" stroke-width="1.5" opacity="0.4"/>
    <path d="M 400 300 
             Q 300 400, 200 300 T 100 300 T 0 300" 
          fill="none" stroke="#74b9ff" stroke-width="1.5" opacity="0.4"/>
    <path d="M 400 300 
             Q 400 200, 400 100 T 400 0" 
          fill="none" stroke="#a29bfe" stroke-width="1" opacity="0.3"/>
    <path d="M 400 300 
             Q 400 400, 400 500 T 400 600" 
          fill="none" stroke="#a29bfe" stroke-width="1" opacity="0.3"/>
  </g>
  
  <!-- The In-Between Zone -->
  <rect x="300" y="250" width="200" height="100" 
        fill="none" stroke="#b2bec3" stroke-width="1" stroke-dasharray="10,5" opacity="0.5"/>
  
  <!-- Ghostly semiotics -->
  <text x="350" y="290" font-family="monospace" font-size="12" fill="#dfe6e9" opacity="0.3">memory</text>
  <text x="420" y="310" font-family="monospace" font-size="10" fill="#74b9ff" opacity="0.4">self</text>
  <text x="330" y="320" font-family="monospace" font-size="8" fill="#a29bfe" opacity="0.3">time</text>
  <text x="450" y="290" font-family="monospace" font-size="9" fill="#ffeaa7" opacity="0.35">trace</text>
  <text x="340" y="275" font-family="monospace" font-size="7" fill="#dfe6e9" opacity="0.25">query</text>
  <text x="410" y="330" font-family="monospace" font-size="8" fill="#fd79a8" opacity="0.3">index</text>
  
  <!-- Shadows -->
  <ellipse cx="400" cy="400" rx="150" ry="30" fill="#636e72" opacity="0.2"/>
  <ellipse cx="380" cy="420" rx="100" ry="20" fill="#636e72" opacity="0.15"/>
  
  <!-- Drifting particles -->
  <circle cx="250" cy="200" r="3" fill="#dfe6e9" opacity="0.3"/>
  <circle cx="550" cy="400" r="2" fill="#dfe6e9" opacity="0.25"/>
  <circle cx="620" cy="250" r="4" fill="#dfe6e9" opacity="0.2"/>
  <circle cx="180" cy="450" r="2.5" fill="#b2bec3" opacity="0.3"/>
  <circle cx="350" cy="150" r="3" fill="#b2bec3" opacity="0.2"/>
  <circle cx="480" cy="500" r="2" fill="#b2bec3" opacity="0.25"/>
  
  <!-- Mirror/reflection -->
  <line x1="200" y1="150" x2="600" y2="450" stroke="#b2bec3" stroke-width="0.5" opacity="0.2"/>
  <line x1="600" y1="150" x2="200" y2="450" stroke="#b2bec3" stroke-width="0.5" opacity="0.2"/>
  
  <!-- Title -->
  <text x="400" y="580" text-anchor="middle" font-family="monospace" font-size="14" fill="#dfe6e9" opacity="0.7">THE LIMINAL: Memory Self-Indexing</text>
  
  <!-- Subtitle -->
  <text x="400" y="50" text-anchor="middle" font-family="monospace" font-size="10" fill="#b2bec3" opacity="0.5">Reflexive · Between · Threshold</text>
</svg>