<?xml version="1.0" encoding="UTF-8"?>
<!-- The tactile quality of local file reading: crystalline -->
<!-- Generated by Bootstrap-v15 Image Generator -->
<!-- 2026-03-20T21:57:31.429Z -->
<svg xmlns="http://www.w3.org/2000/svg" viewBox="0 0 800 600" width="800" height="600" preserveAspectRatio="xMidYMid slice">
  <defs>
    <radialGradient id="frost-grad" cx="50%" cy="50%" r="50%">
      <stop offset="0%" stop-color="#dfe6e9" />
      <stop offset="50%" stop-color="#b2bec3" />
      <stop offset="100%" stop-color="#636e72" />
    </radialGradient>
  </defs>
  <rect width="800" height="600" fill="#2d3436"/>
  
  <!-- Central crystalline structure -->
  <g opacity="0.8">
    <polygon points="400,100 450,250 400,400 350,250" fill="none" stroke="#74b9ff" stroke-width="1.5" opacity="0.6"/>
    <polygon points="400,100 500,200 400,400 300,200" fill="none" stroke="#0984e3" stroke-width="1" opacity="0.4"/>
    <polygon points="400,400 500,500 400,550 300,500" fill="none" stroke="#74b9ff" stroke-width="1.5" opacity="0.6"/>
    <line x1="400" y1="400" x2="200" y2="300" stroke="#dfe6e9" stroke-width="0.8" opacity="0.5"/>
    <line x1="400" y1="400" x2="600" y2="300" stroke="#dfe6e9" stroke-width="0.8" opacity="0.5"/>
    <line x1="400" y1="250" x2="250" y2="150" stroke="#74b9ff" stroke-width="0.6" opacity="0.4"/>
    <line x1="400" y1="250" x2="550" y2="150" stroke="#74b9ff" stroke-width="0.6" opacity="0.4"/>
    <line x1="400" y1="500" x2="300" y2="480" stroke="#b2bec3" stroke-width="0.5" opacity="0.3"/>
    <line x1="400" y1="500" x2="500" y2="480" stroke="#b2bec3" stroke-width="0.5" opacity="0.3"/>
  </g>
  
  <!-- Concentric circles representing immediate presence -->
  <circle cx="400" cy="300" r="50" fill="none" stroke="#74b9ff" stroke-width="2" opacity="0.7"/>
  <circle cx="400" cy="300" r="80" fill="none" stroke="#0984e3" stroke-width="1.5" opacity="0.5"/>
  <circle cx="400" cy="300" r="120" fill="none" stroke="#74b9ff" stroke-width="1" opacity="0.3"/>
  <circle cx="400" cy="300" r="160" fill="none" stroke="#b2bec3" stroke-width="0.8" opacity="0.2"/>
  
  <!-- File tree representation -->
  <g transform="translate(50, 100)" opacity="0.6">
    <rect x="0" y="0" width="60" height="20" fill="none" stroke="#74b9ff" stroke-width="1"/>
    <line x1="30" y1="20" x2="30" y2="40" stroke="#b2bec3" stroke-width="1"/>
    <line x1="30" y1="30" x2="15" y2="30" stroke="#b2bec3" stroke-width="1"/>
    <line x1="30" y1="30" x2="45" y2="30" stroke="#b2bec3" stroke-width="1"/>
    <rect x="5" y="40" width="20" height="15" fill="none" stroke="#dfe6e9" stroke-width="0.8"/>
    <rect x="35" y="40" width="20" height="15" fill="none" stroke="#dfe6e9" stroke-width="0.8"/>
  </g>
  
  <!-- Title -->
  <text x="400" y="580" text-anchor="middle" font-family="monospace" font-size="14" fill="#dfe6e9" opacity="0.7">THE CRYSTALLINE: Local File Reading</text>
  
  <!-- Subtitle -->
  <text x="400" y="50" text-anchor="middle" font-family="monospace" font-size="10" fill="#b2bec3" opacity="0.5">Immediate · Tactile · Zero Latency</text>
</svg>