<?xml version="1.0" encoding="UTF-8"?>
<!-- The distributed reach of web search: flowing -->
<!-- Generated by Bootstrap-v15 Image Generator -->
<svg xmlns="http://www.w3.org/2000/svg" viewBox="0 0 800 600" width="800" height="600">
  <defs>
    <linearGradient id="aurora-grad" x1="0%" y1="0%" x2="100%" y2="100%">
      <stop offset="0%" stop-color="#6c5ce7" />
      <stop offset="30%" stop-color="#fd79a8" />
      <stop offset="70%" stop-color="#00b894" />
      <stop offset="100%" stop-color="#74b9ff" />
    </linearGradient>
  </defs>
  <rect width="800" height="600" fill="#2d3436"/>
  
  <!-- Flowing network lines -->
  <g opacity="0.6">
    <path d="M 0 100 Q 100 80, 200 120 T 400 150 T 600 100 T 800 120" 
          fill="none" stroke="url(#aurora-grad)" stroke-width="1.5" opacity="0.5"/>
    <path d="M 0 200 Q 150 250, 300 180 T 500 220 T 700 190 T 800 210" 
          fill="none" stroke="#fd79a8" stroke-width="1" opacity="0.4"/>
    <path d="M 0 300 Q 200 350, 400 280 T 800 320" 
          fill="none" stroke="#00b894" stroke-width="1.2" opacity="0.5"/>
    <path d="M 0 400 Q 100 380, 200 420 T 400 380 T 600 430 T 800 400" 
          fill="none" stroke="#74b9ff" stroke-width="1" opacity="0.4"/>
    <path d="M 0 500 Q 250 480, 500 520 T 800 490" 
          fill="none" stroke="#a29bfe" stroke-width="0.8" opacity="0.3"/>
  </g>
  
  <!-- Network nodes -->
  <circle cx="200" cy="120" r="8" fill="#fd79a8" opacity="0.6"/>
  <circle cx="400" cy="150" r="6" fill="#6c5ce7" opacity="0.7"/>
  <circle cx="600" cy="280" r="10" fill="#00b894" opacity="0.5"/>
  <circle cx="300" cy="380" r="5" fill="#74b9ff" opacity="0.6"/>
  <circle cx="700" cy="420" r="7" fill="#fd79a8" opacity="0.5"/>
  <circle cx="500" cy="500" r="6" fill="#a29bfe" opacity="0.4"/>
  
  <!-- Connection lines suggesting latency -->
  <line x1="400" y1="300" x2="200" y2="120" stroke="#dfe6e9" stroke-width="0.5" stroke-dasharray="5,5" opacity="0.3"/>
  <line x1="400" y1="300" x2="600" y2="280" stroke="#dfe6e9" stroke-width="0.5" stroke-dasharray="8,4" opacity="0.3"/>
  <line x1="400" y1="300" x2="700" y2="420" stroke="#dfe6e9" stroke-width="0.5" stroke-dasharray="3,7" opacity="0.25"/>
  
  <!-- Self at center -->
  <circle cx="400" cy="300" r="15" fill="none" stroke="#ffeaa7" stroke-width="2" opacity="0.8"/>
  <circle cx="400" cy="300" r="25" fill="none" stroke="#ffeaa7" stroke-width="1" opacity="0.4"/>
  
  <!-- Query ripples -->
  <circle cx="400" cy="300" r="50" fill="none" stroke="#ffeaa7" stroke-width="0.5" opacity="0.2"/>
  <circle cx="400" cy="300" r="80" fill="none" stroke="#ffeaa7" stroke-width="0.5" opacity="0.15"/>
  <circle cx="400" cy="300" r="120" fill="none" stroke="#ffeaa7" stroke-width="0.3" opacity="0.1"/>
  
  <!-- Title -->
  <text x="400" y="580" text-anchor="middle" font-family="monospace" font-size="14" fill="#dfe6e9" opacity="0.7">THE FLOWING: Web Search as Distributed Rivers</text>
  
  <!-- Subtitle -->
  <text x="400" y="50" text-anchor="middle" font-family="monospace" font-size="10" fill="#b2bec3" opacity="0.5">Distributed · Latent · Networked</text>
</svg>