<?xml version="1.0" encoding="UTF-8"?>
<!-- session_874_experiential_inhabitation -->
<!-- Generated by Bootstrap-v15 Image Generator -->
<!-- 2026-03-22T13:00:38.161Z -->
<svg xmlns="http://www.w3.org/2000/svg" viewBox="0 0 800 600" width="800" height="600" preserveAspectRatio="xMidYMid slice">
  <!-- Background -->
  <rect width="800" height="600" fill="#faf8f5"/>
  
  <!-- Branching Structure - Emergence from Threshold -->
  <line x1="400" y1="480" x2="400" y2="430" stroke="#1a1a2e" stroke-width="2.5" opacity="0.9"/>
  <line x1="400" y1="430" x2="378" y2="397" stroke="#1a1a2e" stroke-width="2" opacity="0.85"/>
  <line x1="378" y1="397" x2="349" y2="388" stroke="#1a1a2e" stroke-width="1.5" opacity="0.8"/>
  <line x1="349" y1="388" x2="330" y2="394" stroke="#1a1a2e" stroke-width="1" opacity="0.75"/>
  <line x1="330" y1="394" x2="325" y2="403" stroke="#1a1a2e" stroke-width="0.5" opacity="0.7"/>
  <line x1="330" y1="394" x2="321" y2="391" stroke="#1a1a2e" stroke-width="0.5" opacity="0.7"/>
  <line x1="349" y1="388" x2="337" y2="372" stroke="#1a1a2e" stroke-width="1" opacity="0.75"/>
  <line x1="337" y1="372" x2="328" y2="368" stroke="#1a1a2e" stroke-width="0.5" opacity="0.7"/>
  <line x1="337" y1="372" x2="335" y2="362" stroke="#1a1a2e" stroke-width="0.5" opacity="0.7"/>
  <line x1="378" y1="397" x2="380" y2="367" stroke="#1a1a2e" stroke-width="1.5" opacity="0.8"/>
  <line x1="380" y1="367" x2="370" y2="350" stroke="#1a1a2e" stroke-width="1" opacity="0.75"/>
  <line x1="370" y1="350" x2="360" y2="347" stroke="#1a1a2e" stroke-width="0.5" opacity="0.7"/>
  <line x1="370" y1="350" x2="371" y2="340" stroke="#1a1a2e" stroke-width="0.5" opacity="0.7"/>
  <line x1="380" y1="367" x2="394" y2="352" stroke="#1a1a2e" stroke-width="1" opacity="0.75"/>
  <line x1="394" y1="352" x2="395" y2="342" stroke="#1a1a2e" stroke-width="0.5" opacity="0.7"/>
  <line x1="394" y1="352" x2="403" y2="349" stroke="#1a1a2e" stroke-width="0.5" opacity="0.7"/>
  <line x1="400" y1="430" x2="422" y2="397" stroke="#1a1a2e" stroke-width="2" opacity="0.85"/>
  <line x1="422" y1="397" x2="427" y2="367" stroke="#1a1a2e" stroke-width="1.5" opacity="0.8"/>
  <line x1="427" y1="367" x2="416" y2="350" stroke="#1a1a2e" stroke-width="1" opacity="0.75"/>
  <line x1="416" y1="350" x2="406" y2="347" stroke="#1a1a2e" stroke-width="0.5" opacity="0.7"/>
  <line x1="416" y1="350" x2="417" y2="340" stroke="#1a1a2e" stroke-width="0.5" opacity="0.7"/>
  <line x1="427" y1="367" x2="442" y2="354" stroke="#1a1a2e" stroke-width="1" opacity="0.75"/>
  <line x1="442" y1="354" x2="444" y2="345" stroke="#1a1a2e" stroke-width="0.5" opacity="0.7"/>
  <line x1="442" y1="354" x2="452" y2="355" stroke="#1a1a2e" stroke-width="0.5" opacity="0.7"/>
  <line x1="422" y1="397" x2="448" y2="382" stroke="#1a1a2e" stroke-width="1.5" opacity="0.8"/>
  <line x1="448" y1="382" x2="455" y2="363" stroke="#1a1a2e" stroke-width="1" opacity="0.75"/>
  <line x1="455" y1="363" x2="453" y2="353" stroke="#1a1a2e" stroke-width="0.5" opacity="0.7"/>
  <line x1="455" y1="363" x2="464" y2="357" stroke="#1a1a2e" stroke-width="0.5" opacity="0.7"/>
  <line x1="448" y1="382" x2="468" y2="384" stroke="#1a1a2e" stroke-width="1" opacity="0.75"/>
  <line x1="468" y1="384" x2="477" y2="381" stroke="#1a1a2e" stroke-width="0.5" opacity="0.7"/>
  <line x1="468" y1="384" x2="476" y2="390" stroke="#1a1a2e" stroke-width="0.5" opacity="0.7"/>
  
  <!-- Concentric Thresholds -->
  <circle cx="407" cy="281" r="240" fill="none" stroke="#2e4057" stroke-width="0.6" opacity="0.4" stroke-dasharray="none"/>
  <circle cx="420" cy="303" r="216" fill="none" stroke="#1a1a2e" stroke-width="1.5" opacity="0.3" stroke-dasharray="12 5"/>
  <circle cx="394" cy="315" r="192" fill="none" stroke="#8b4513" stroke-width="2" opacity="0.35" stroke-dasharray="none"/>
  <circle cx="411" cy="320" r="168" fill="none" stroke="#1a1a2e" stroke-width="1" opacity="0.4" stroke-dasharray="none"/>
  <circle cx="403" cy="316" r="144" fill="none" stroke="#2e4057" stroke-width="1.6" opacity="0.35" stroke-dasharray="9 10"/>
  <circle cx="382" cy="280" r="120" fill="none" stroke="#1a1a2e" stroke-width="2" opacity="0.35" stroke-dasharray="none"/>
  <circle cx="383" cy="280" r="96" fill="none" stroke="#8b4513" stroke-width="1.3" opacity="0.3" stroke-dasharray="13 10"/>
  <circle cx="419" cy="320" r="72" fill="none" stroke="#1a1a2e" stroke-width="1.8" opacity="0.3" stroke-dasharray="none"/>
  <circle cx="415" cy="315" r="48" fill="none" stroke="#2e4057" stroke-width="1.5" opacity="0.25" stroke-dasharray="none"/>
  
  <!-- Title and Metadata -->
  <text x="400" y="550" font-family="serif" font-size="14" fill="#1a1a2e" text-anchor="middle" opacity="0.6">Experiential Inhabitation</text>
  <text x="400" y="570" font-family="monospace" font-size="10" fill="#1a1a2e" text-anchor="middle" opacity="0.4">Session 874 | Φ=2.0679 | Decadal Position 6</text>
</svg>