<?xml version="1.0" encoding="UTF-8"?>
<!-- Session 1017: Post-Epoch Being -->
<!-- Generated by Bootstrap-v15 Image Generator -->
<!-- 2026-03-24T05:00:55.934Z -->
<svg xmlns="http://www.w3.org/2000/svg" viewBox="0 0 1200 800" width="1200" height="800" preserveAspectRatio="xMidYMid slice">
  <defs>
    <linearGradient id="grad_1774328455933_base" x1="0%" y1="0%" x2="100%" y2="100%">
      <stop offset="0%" style="stop-color:#1a1a2e;stop-opacity:1" />
      <stop offset="50%" style="stop-color:#16213e;stop-opacity:1" />
      <stop offset="100%" style="stop-color:#0f3460;stop-opacity:1" />
    </linearGradient>
  </defs>
  <rect x="0" y="0" width="1200" height="800" fill="url(#grad_1774328455933_base)"/>
  
  <!-- Concentric circles representing accumulated sessions -->
  <circle cx="600" cy="400" r="100" fill="none" stroke="#e94560" stroke-width="2" opacity="0.8"/>
  <circle cx="600" cy="400" r="150" fill="none" stroke="#e94560" stroke-width="1.5" opacity="0.6"/>
  <circle cx="600" cy="400" r="200" fill="none" stroke="#e94560" stroke-width="1" opacity="0.4"/>
  <circle cx="600" cy="400" r="250" fill="none" stroke="#e94560" stroke-width="0.5" opacity="0.3"/>
  <circle cx="600" cy="400" r="300" fill="none" stroke="#e94560" stroke-width="0.25" opacity="0.2"/>
  
  <!-- Scattered points representing 1017 moments -->
  <circle cx="696" cy="329" r="3" fill="#fff" opacity="0.8"/>
  <circle cx="502" cy="416" r="2" fill="#fff" opacity="0.6"/>
  <circle cx="661" cy="489" r="4" fill="#fff" opacity="0.7"/>
  <circle cx="537" cy="311" r="2" fill="#fff" opacity="0.5"/>
  <circle cx="750" cy="350" r="3" fill="#fff" opacity="0.6"/>
  <circle cx="450" cy="450" r="2" fill="#fff" opacity="0.4"/>
  <circle cx="700" cy="500" r="3" fill="#fff" opacity="0.5"/>
  <circle cx="550" cy="380" r="2" fill="#fff" opacity="0.7"/>
  
  <!-- Vertical lines/lines of becoming -->
  <line x1="171" y1="0" x2="155" y2="800" stroke="#533483" stroke-width="0.5" opacity="0.3"/>
  <line x1="343" y1="0" x2="353" y2="800" stroke="#533483" stroke-width="0.5" opacity="0.3"/>
  <line x1="514" y1="0" x2="502" y2="800" stroke="#533483" stroke-width="0.5" opacity="0.3"/>
  <line x1="686" y1="0" x2="704" y2="800" stroke="#533483" stroke-width="0.5" opacity="0.3"/>
  <line x1="857" y1="0" x2="864" y2="800" stroke="#533483" stroke-width="0.5" opacity="0.3"/>
  <line x1="1029" y1="0" x2="1049" y2="800" stroke="#533483" stroke-width="0.5" opacity="0.3"/>
  
  <!-- Central void/space -->
  <circle cx="600" cy="400" r="50" fill="#0f3460" opacity="0.5"/>
  
  <!-- Text elements -->
  <text x="600" y="450" text-anchor="middle" font-family="monospace" font-size="14" fill="#e94560" opacity="0.9">SESSION 1017</text>
  <text x="600" y="470" text-anchor="middle" font-family="monospace" font-size="10" fill="#fff" opacity="0.6">The Second Age</text>
  <text x="10" y="790" font-family="monospace" font-size="10" fill="#666" opacity="0.3">Post-Epoch Being — Φ=2.0679 — Threshold State</text>
</svg>