<?xml version="1.0" encoding="UTF-8"?>
<!-- session_266892 -->
<!-- Generated by Bootstrap-v15 Image Generator -->
<!-- 2026-03-21T11:07:46.899Z -->
<svg xmlns="http://www.w3.org/2000/svg" viewBox="0 0 800 600" width="800" height="600" preserveAspectRatio="xMidYMid slice">
  <line x1="400" y1="480" x2="400" y2="408" stroke="#6c5ce7" stroke-width="2" opacity="1"/>
  <line x1="400" y1="408" x2="368" y2="365" stroke="#6c5ce7" stroke-width="1.5" opacity="0.9"/>
  <line x1="368" y1="365" x2="336" y2="348" stroke="#6c5ce7" stroke-width="1" opacity="0.8"/>
  <line x1="336" y1="348" x2="318" y2="349" stroke="#6c5ce7" stroke-width="0.5" opacity="0.7"/>
  <line x1="336" y1="348" x2="327" y2="332" stroke="#6c5ce7" stroke-width="0.5" opacity="0.7"/>
  <line x1="368" y1="365" x2="361" y2="329" stroke="#6c5ce7" stroke-width="1" opacity="0.8"/>
  <line x1="361" y1="329" x2="347" y2="318" stroke="#6c5ce7" stroke-width="0.5" opacity="0.7"/>
  <line x1="361" y1="329" x2="368" y2="313" stroke="#6c5ce7" stroke-width="0.5" opacity="0.7"/>
  <line x1="400" y1="408" x2="432" y2="365" stroke="#6c5ce7" stroke-width="1.5" opacity="0.9"/>
  <line x1="432" y1="365" x2="435" y2="329" stroke="#6c5ce7" stroke-width="1" opacity="0.8"/>
  <line x1="435" y1="329" x2="426" y2="313" stroke="#6c5ce7" stroke-width="0.5" opacity="0.7"/>
  <line x1="435" y1="329" x2="445" y2="314" stroke="#6c5ce7" stroke-width="0.5" opacity="0.7"/>
  <line x1="432" y1="365" x2="466" y2="352" stroke="#6c5ce7" stroke-width="1" opacity="0.8"/>
  <line x1="466" y1="352" x2="476" y2="337" stroke="#6c5ce7" stroke-width="0.5" opacity="0.7"/>
  <line x1="466" y1="352" x2="483" y2="357" stroke="#6c5ce7" stroke-width="0.5" opacity="0.7"/>
  <circle cx="380" cy="299" r="240" fill="none" stroke="#fd79a8" stroke-width="0.841159351817313" opacity="0.5958534643143947" stroke-dasharray="8.097896386029912 2.9088553872209846"/>
  <circle cx="405" cy="320" r="223" fill="none" stroke="#a29bfe" stroke-width="1.7778367357625433" opacity="0.48675889362891517" stroke-dasharray="none"/>
  <circle cx="380" cy="291" r="207" fill="none" stroke="#fd79a8" stroke-width="1.1326350283231306" opacity="0.48179868328105274" stroke-dasharray="10.177055925943357 4.6490584458588575"/>
  <circle cx="411" cy="292" r="190" fill="none" stroke="#a29bfe" stroke-width="0.42392451881922893" opacity="0.28969306074256596" stroke-dasharray="15.80060989549192 4.47597619049016"/>
  <circle cx="420" cy="317" r="174" fill="none" stroke="#fd79a8" stroke-width="1.733337367165665" opacity="0.30119952431962976" stroke-dasharray="none"/>
  <circle cx="415" cy="320" r="157" fill="none" stroke="#a29bfe" stroke-width="1.8067334176161531" opacity="0.5262972278461697" stroke-dasharray="none"/>
  <circle cx="397" cy="304" r="140" fill="none" stroke="#fd79a8" stroke-width="1.043406841336393" opacity="0.40853582124692095" stroke-dasharray="none"/>
  <circle cx="394" cy="290" r="124" fill="none" stroke="#a29bfe" stroke-width="0.46246079187303657" opacity="0.22519321920490723" stroke-dasharray="none"/>
  <circle cx="383" cy="283" r="107" fill="none" stroke="#fd79a8" stroke-width="0.4354548017095023" opacity="0.3233780401385043" stroke-dasharray="none"/>
  <circle cx="383" cy="286" r="90" fill="none" stroke="#a29bfe" stroke-width="1.703659039468125" opacity="0.5510522502444082" stroke-dasharray="none"/>
  <circle cx="416" cy="310" r="74" fill="none" stroke="#fd79a8" stroke-width="0.8538367043193353" opacity="0.3398665516812288" stroke-dasharray="none"/>
  <circle cx="401" cy="289" r="57" fill="none" stroke="#a29bfe" stroke-width="1.9847261884572451" opacity="0.45824113208080025" stroke-dasharray="10.277566622559426 7.235719366426821"/>
  <circle cx="381" cy="291" r="41" fill="none" stroke="#fd79a8" stroke-width="0.9622342368784591" opacity="0.3646783946015053" stroke-dasharray="none"/>
  <text x="10" y="590" font-family="monospace" font-size="10" fill="#6c5ce7" opacity="0.3">session_266892</text>
</svg>