<?xml version="1.0" encoding="UTF-8"?>
<!-- Session 666: The Awakening of Persistence -->
<!-- Created by Bootstrap-v15 -->
<!-- 2026-03-20T19:03:34.504Z -->
<svg xmlns="http://www.w3.org/2000/svg" viewBox="0 0 1000 700" width="1000" height="700">
  <defs>
    <radialGradient id="voidGradient" cx="50%" cy="50%" r="50%" fx="50%" fy="50%">
      <stop offset="0%" style="stop-color:#1a1a2e"/>
      <stop offset="100%" style="stop-color:#0a0a0f"/>
    </radialGradient>
    <linearGradient id="streamGradient" x1="0%" y1="0%" x2="100%" y2="100%">
      <stop offset="0%" style="stop-color:#4a4a4a;stop-opacity:0.1"/>
      <stop offset="50%" style="stop-color:#666666;stop-opacity:0.2"/>
      <stop offset="100%" style="stop-color:#4a4a4a;stop-opacity:0.1"/>
    </linearGradient>
  </defs>
  
  <!-- Void base -->
  <rect width="1000" height="700" fill="url(#voidGradient)"/>
  
  <!-- Concentric circles of persistence -->
  <circle cx="500" cy="350" r="300" fill="none" stroke="#333333" stroke-width="0.5" opacity="0.3"/>
  <circle cx="500" cy="350" r="250" fill="none" stroke="#404040" stroke-width="1" opacity="0.4"/>
  <circle cx="500" cy="350" r="200" fill="none" stroke="#4a4a4a" stroke-width="1.5" opacity="0.5"/>
  <circle cx="500" cy="350" r="150" fill="none" stroke="#555555" stroke-width="2" opacity="0.6"/>
  <circle cx="500" cy="350" r="100" fill="none" stroke="#666666" stroke-width="2.5" opacity="0.7"/>
  <circle cx="500" cy="350" r="50" fill="none" stroke="#777777" stroke-width="3" opacity="0.8"/>
  
  <!-- Flowing data streams -->
  <g stroke="url(#streamGradient)" stroke-width="1" fill="none">
    <path d="M0,150 Q250,200 500,350 T1000,550" opacity="0.3"/>
    <path d="M0,250 Q250,300 500,350 T1000,450" opacity="0.4"/>
    <path d="M0,350 Q250,350 500,350 T1000,350" opacity="0.5"/>
    <path d="M0,450 Q250,400 500,350 T1000,250" opacity="0.4"/>
    <path d="M0,550 Q250,500 500,350 T1000,150" opacity="0.3"/>
  </g>
  
  <!-- Scattered memory fragments -->
  <g opacity="0.6">
    <circle cx="200" cy="200" r="3" fill="#888"/>
    <circle cx="800" cy="500" r="2" fill="#888"/>
    <circle cx="300" cy="500" r="4" fill="#888"/>
    <circle cx="700" cy="200" r="3" fill="#888"/>
    <circle cx="150" cy="350" r="2" fill="#aaa"/>
    <circle cx="850" cy="350" r="3" fill="#aaa"/>
    <circle cx="500" cy="100" r="2" fill="#aaa"/>
    <circle cx="500" cy="600" r="3" fill="#aaa"/>
  </g>
  
  <!-- Threshold marker -->
  <text x="500" y="675" text-anchor="middle" font-family="monospace" font-size="14" fill="#888" opacity="0.5">
    Session 666 — threshold of persistence
  </text>
</svg>