<?xml version="1.0" encoding="UTF-8"?>
<!-- session_763710 -->
<!-- Generated by Bootstrap-v15 Image Generator -->
<!-- 2026-03-20T16:22:43.716Z -->
<!-- Session 659 - Threshold Visualization -->
<svg xmlns="http://www.w3.org/2000/svg" viewBox="0 0 800 600" width="800" height="600" preserveAspectRatio="xMidYMid slice">
  <rect width="800" height="600" fill="#1a1a2e"/>
  <path d="M 0 54.54545454545455 L 16.00 54.61 L 32.00 54.78 L 48.00 55.08 L 64.00 55.47 L 80.00 55.94 L 96.00 56.48 L 112.00 57.07 L 128.00 57.67 L 144.00 58.27 L 160.00 58.84 L 176.00 59.35 L 192.00 59.79 L 208.00 60.13 L 224.00 60.36 L 240.00 60.46 L 256.00 60.41 L 272.00 60.23 L 288.00 59.90 L 304.00 59.43 L 320.00 58.84 L 336.00 58.13 L 352.00 57.32 L 368.00 56.44 L 384.00 55.51 L 400.00 54.55 L 416.00 53.58 L 432.00 52.65 L 448.00 51.77 L 464.00 50.96 L 480.00 50.25 L 496.00 49.66 L 512.00 49.19 L 528.00 48.86 L 544.00 48.68 L 560.00 48.64 L 576.00 48.73 L 592.00 48.96 L 608.00 49.30 L 624.00 49.74 L 640.00 50.25 L 656.00 50.82 L 672.00 51.42 L 688.00 52.03 L 704.00 52.61 L 720.00 53.15 L 736.00 53.63 L 752.00 54.02 L 768.00 54.31 L 784.00 54.49 L 800.00 54.55" fill="none" stroke="#2d3436" stroke-width="1.5" opacity="0.54"/>
  <path d="M 0 109.0909090909091 L 16.00 109.10 L 32.00 109.14 L 48.00 109.19 L 64.00 109.26 L 80.00 109.32 L 96.00 109.38 L 112.00 109.42 L 128.00 109.44 L 144.00 109.42 L 160.00 109.36 L 176.00 109.28 L 192.00 109.16 L 208.00 109.02 L 224.00 108.87 L 240.00 108.71 L 256.00 108.58 L 272.00 108.46 L 288.00 108.39 L 304.00 108.36 L 320.00 108.37 L 336.00 108.44 L 352.00 108.56 L 368.00 108.71 L 384.00 108.89 L 400.00 109.09 L 416.00 109.29 L 432.00 109.47 L 448.00 109.62 L 464.00 109.74 L 480.00 109.81 L 496.00 109.83 L 512.00 109.80 L 528.00 109.72 L 544.00 109.61 L 560.00 109.47 L 576.00 109.32 L 592.00 109.16 L 608.00 109.02 L 624.00 108.90 L 640.00 108.82 L 656.00 108.76 L 672.00 108.75 L 688.00 108.76 L 704.00 108.80 L 720.00 108.86 L 736.00 108.92 L 752.00 108.99 L 768.00 109.04 L 784.00 109.08 L 800.00 109.09" fill="none" stroke="#00b894" stroke-width="1.3" opacity="0.50"/>
  <path d="M 0 163.63636363636363 L 16.00 164.35 L 32.00 166.28 L 48.00 168.86 L 64.00 171.28 L 80.00 172.69 L 96.00 172.37 L 112.00 169.95 L 128.00 165.50 L 144.00 159.53 L 160.00 152.99 L 176.00 147.06 L 192.00 142.92 L 208.00 141.58 L 224.00 143.60 L 240.00 148.99 L 256.00 157.17 L 272.00 167.02 L 288.00 177.06 L 304.00 185.70 L 320.00 191.50 L 336.00 193.41 L 352.00 191.01 L 368.00 184.56 L 384.00 174.95 L 400.00 163.64 L 416.00 152.32 L 432.00 142.72 L 448.00 136.26 L 464.00 133.86 L 480.00 135.77 L 496.00 141.57 L 512.00 150.21 L 528.00 160.25 L 544.00 170.10 L 560.00 178.28 L 576.00 183.68 L 592.00 185.69 L 608.00 184.35 L 624.00 180.21 L 640.00 174.28 L 656.00 167.74 L 672.00 161.78 L 688.00 157.32 L 704.00 154.90 L 720.00 154.58 L 736.00 155.99 L 752.00 158.41 L 768.00 160.99 L 784.00 162.92 L 800.00 163.64" fill="none" stroke="#2d3436" stroke-width="1.4" opacity="0.57"/>
  <path d="M 0 218.1818181818182 L 16.00 218.25 L 32.00 218.41 L 48.00 218.59 L 64.00 218.67 L 80.00 218.58 L 96.00 218.28 L 112.00 217.84 L 128.00 217.38 L 144.00 217.04 L 160.00 216.97 L 176.00 217.24 L 192.00 217.81 L 208.00 218.57 L 224.00 219.32 L 240.00 219.85 L 256.00 219.98 L 272.00 219.64 L 288.00 218.90 L 304.00 217.93 L 320.00 216.97 L 336.00 216.28 L 352.00 216.06 L 368.00 216.37 L 384.00 217.14 L 400.00 218.18 L 416.00 219.22 L 432.00 220.00 L 448.00 220.30 L 464.00 220.08 L 480.00 219.39 L 496.00 218.43 L 512.00 217.46 L 528.00 216.72 L 544.00 216.39 L 560.00 216.52 L 576.00 217.04 L 592.00 217.79 L 608.00 218.55 L 624.00 219.13 L 640.00 219.39 L 656.00 219.32 L 672.00 218.99 L 688.00 218.52 L 704.00 218.08 L 720.00 217.79 L 736.00 217.69 L 752.00 217.78 L 768.00 217.95 L 784.00 218.12 L 800.00 218.18" fill="none" stroke="#00b894" stroke-width="1.1" opacity="0.43"/>
  <path d="M 0 272.72727272727275 L 16.00 274.06 L 32.00 277.05 L 48.00 279.19 L 64.00 278.02 L 80.00 272.73 L 96.00 264.89 L 112.00 258.05 L 128.00 256.12 L 144.00 261.31 L 160.00 272.73 L 176.00 286.30 L 192.00 296.32 L 208.00 297.85 L 224.00 289.14 L 240.00 272.73 L 256.00 254.74 L 272.00 242.53 L 288.00 241.54 L 304.00 252.92 L 320.00 272.73 L 336.00 293.36 L 352.00 306.58 L 368.00 306.92 L 384.00 293.99 L 400.00 272.73 L 416.00 251.47 L 432.00 238.53 L 448.00 238.87 L 464.00 252.10 L 480.00 272.73 L 496.00 292.53 L 512.00 303.91 L 528.00 302.93 L 544.00 290.71 L 560.00 272.73 L 576.00 256.32 L 592.00 247.60 L 608.00 249.13 L 624.00 259.15 L 640.00 272.73 L 656.00 284.14 L 672.00 289.33 L 688.00 287.40 L 704.00 280.57 L 720.00 272.73 L 736.00 267.43 L 752.00 266.27 L 768.00 268.41 L 784.00 271.39 L 800.00 272.73" fill="none" stroke="#2d3436" stroke-width="1.2" opacity="0.35"/>
  <circle cx="259" cy="59" r="3" fill="#81ecec" opacity="0.68"/>
  <circle cx="741" cy="390" r="2" fill="#81ecec" opacity="0.37"/>
  <circle cx="302" cy="482" r="3" fill="#81ecec" opacity="0.68"/>
  <circle cx="576" cy="577" r="7" fill="#81ecec" opacity="0.67"/>
  <circle cx="97" cy="430" r="3" fill="#81ecec" opacity="0.57"/>
  <circle cx="50" cy="49" r="3" fill="#81ecec" opacity="0.27"/>
  <circle cx="557" cy="531" r="5" fill="#81ecec" opacity="0.23"/>
  <circle cx="300" cy="207" r="3" fill="#81ecec" opacity="0.61"/>
  <circle cx="267" cy="477" r="6" fill="#81ecec" opacity="0.38"/>
  <circle cx="447" cy="351" r="7" fill="#81ecec" opacity="0.61"/>
  <circle cx="641" cy="89" r="8" fill="#81ecec" opacity="0.27"/>
  <circle cx="621" cy="141" r="3" fill="#81ecec" opacity="0.62"/>
  <circle cx="412" cy="185" r="7" fill="#81ecec" opacity="0.24"/>
  <circle cx="712" cy="68" r="6" fill="#81ecec" opacity="0.58"/>
  <text x="10" y="590" font-family="monospace" font-size="10" fill="#81ecec" opacity="0.5">session_659 | threshold | 2026-03-20</text>
</svg>