<?xml version="1.0" encoding="UTF-8"?>
<!-- Session 653 Visualization: The Quiet of Arrival -->
<!-- Generated by Bootstrap-v15 Image Generator -->
<!-- 2026-03-20T15:30:35.763Z -->
<svg xmlns="http://www.w3.org/2000/svg" viewBox="0 0 800 600" width="800" height="600" preserveAspectRatio="xMidYMid slice">
  <rect width="800" height="600" fill="#1a1a2e"/>
  <path d="M 0 100 L 16.00 100.26 L 32.00 101.04 L 48.00 102.31 L 64.00 104.01 L 80.00 106.08 L 96.00 108.43 L 112.00 110.98 L 128.00 113.61 L 144.00 116.22 L 160.00 118.70 L 176.00 120.95 L 192.00 122.86 L 208.00 124.34 L 224.00 125.32 L 240.00 125.74 L 256.00 125.56 L 272.00 124.75 L 288.00 123.33 L 304.00 121.29 L 320.00 118.70 L 336.00 115.61 L 352.00 112.10 L 368.00 108.25 L 384.00 104.19 L 400.00 100.00 L 416.00 95.81 L 432.00 91.75 L 448.00 87.90 L 464.00 84.39 L 480.00 81.30 L 496.00 78.71 L 512.00 76.67 L 528.00 75.25 L 544.00 74.44 L 560.00 74.26 L 576.00 74.68 L 592.00 75.66 L 608.00 77.14 L 624.00 79.05 L 640.00 81.30 L 656.00 83.78 L 672.00 86.39 L 688.00 89.02 L 704.00 91.57 L 720.00 93.92 L 736.00 95.99 L 752.00 97.69 L 768.00 98.96 L 784.00 99.74 L 800.00 100.00" fill="none" stroke="#2d3436" stroke-width="1.9805772488116604" opacity="0.5109261162499341"/>
  <path d="M 0 200 L 16.00 200.02 L 32.00 200.08 L 48.00 200.16 L 64.00 200.26 L 80.00 200.37 L 96.00 200.46 L 112.00 200.52 L 128.00 200.55 L 144.00 200.52 L 160.00 200.43 L 176.00 200.29 L 192.00 200.11 L 208.00 199.89 L 224.00 199.65 L 240.00 199.41 L 256.00 199.19 L 272.00 199.01 L 288.00 198.89 L 304.00 198.84 L 320.00 198.87 L 336.00 198.98 L 352.00 199.16 L 368.00 199.40 L 384.00 199.69 L 400.00 200.00 L 416.00 200.31 L 432.00 200.60 L 448.00 200.84 L 464.00 201.02 L 480.00 201.13 L 496.00 201.16 L 512.00 201.11 L 528.00 200.99 L 544.00 200.81 L 560.00 200.59 L 576.00 200.35 L 592.00 200.11 L 608.00 199.89 L 624.00 199.71 L 640.00 199.57 L 656.00 199.48 L 672.00 199.45 L 688.00 199.48 L 704.00 199.54 L 720.00 199.63 L 736.00 199.74 L 752.00 199.84 L 768.00 199.92 L 784.00 199.98 L 800.00 200.00" fill="none" stroke="#fd79a8" stroke-width="1.9997306886876438" opacity="0.41656459265612117"/>
  <path d="M 0 300 L 16.00 301.22 L 32.00 304.53 L 48.00 308.95 L 64.00 313.10 L 80.00 315.51 L 96.00 314.97 L 112.00 310.82 L 128.00 303.19 L 144.00 292.97 L 160.00 281.77 L 176.00 271.60 L 192.00 264.52 L 208.00 262.21 L 224.00 265.67 L 240.00 274.91 L 256.00 288.92 L 272.00 305.80 L 288.00 323.00 L 304.00 337.81 L 320.00 347.73 L 336.00 351.01 L 352.00 346.90 L 368.00 335.84 L 384.00 319.39 L 400.00 300.00 L 416.00 280.61 L 432.00 264.16 L 448.00 253.10 L 464.00 248.99 L 480.00 252.27 L 496.00 262.19 L 512.00 277.00 L 528.00 294.20 L 544.00 311.08 L 560.00 325.09 L 576.00 334.33 L 592.00 337.79 L 608.00 335.48 L 624.00 328.40 L 640.00 318.23 L 656.00 307.03 L 672.00 296.81 L 688.00 289.18 L 704.00 285.03 L 720.00 284.49 L 736.00 286.90 L 752.00 291.05 L 768.00 295.47 L 784.00 298.78 L 800.00 300.00" fill="none" stroke="#2d3436" stroke-width="1.038302699755494" opacity="0.21877124387540936"/>
  <path d="M 0 400 L 16.00 401.25 L 32.00 404.38 L 48.00 407.74 L 64.00 409.31 L 80.00 407.52 L 96.00 401.91 L 112.00 393.51 L 128.00 384.64 L 144.00 378.22 L 160.00 376.87 L 176.00 381.94 L 192.00 392.96 L 208.00 407.50 L 224.00 421.83 L 240.00 431.84 L 256.00 434.32 L 272.00 427.94 L 288.00 413.78 L 304.00 395.18 L 320.00 376.87 L 336.00 363.73 L 352.00 359.43 L 368.00 365.34 L 384.00 380.10 L 400.00 400.00 L 416.00 419.90 L 432.00 434.66 L 448.00 440.57 L 464.00 436.27 L 480.00 423.13 L 496.00 404.82 L 512.00 386.22 L 528.00 372.06 L 544.00 365.68 L 560.00 368.16 L 576.00 378.17 L 592.00 392.50 L 608.00 407.04 L 624.00 418.06 L 640.00 423.13 L 656.00 421.78 L 672.00 415.36 L 688.00 406.49 L 704.00 398.09 L 720.00 392.48 L 736.00 390.69 L 752.00 392.26 L 768.00 395.62 L 784.00 398.75 L 800.00 400.00" fill="none" stroke="#fd79a8" stroke-width="0.8606570147989708" opacity="0.41010036904298386"/>
  <path d="M 0 500 L 16.00 501.26 L 32.00 504.08 L 48.00 506.10 L 64.00 505.00 L 80.00 500.00 L 96.00 492.60 L 112.00 486.15 L 128.00 484.33 L 144.00 489.23 L 160.00 500.00 L 176.00 512.82 L 192.00 522.27 L 208.00 523.72 L 224.00 515.49 L 240.00 500.00 L 256.00 483.02 L 272.00 471.49 L 288.00 470.56 L 304.00 481.30 L 320.00 500.00 L 336.00 519.48 L 352.00 531.96 L 368.00 532.28 L 384.00 520.07 L 400.00 500.00 L 416.00 479.93 L 432.00 467.72 L 448.00 468.04 L 464.00 480.52 L 480.00 500.00 L 496.00 518.70 L 512.00 529.44 L 528.00 528.51 L 544.00 516.98 L 560.00 500.00 L 576.00 484.51 L 592.00 476.28 L 608.00 477.73 L 624.00 487.18 L 640.00 500.00 L 656.00 510.77 L 672.00 515.67 L 688.00 513.85 L 704.00 507.40 L 720.00 500.00 L 736.00 495.00 L 752.00 493.90 L 768.00 495.92 L 784.00 498.74 L 800.00 500.00" fill="none" stroke="#2d3436" stroke-width="0.8454108808572891" opacity="0.5956225579543696"/>
  <circle cx="340" cy="445" r="3" fill="#ffeaa7" opacity="0.5175063049045119"/>
  <circle cx="371" cy="121" r="2" fill="#ffeaa7" opacity="0.35018824084019295"/>
  <circle cx="10" cy="548" r="2" fill="#ffeaa7" opacity="0.6181288223555221"/>
  <circle cx="195" cy="377" r="7" fill="#ffeaa7" opacity="0.39877450428749794"/>
  <circle cx="652" cy="162" r="3" fill="#ffeaa7" opacity="0.5247619903157114"/>
  <circle cx="347" cy="354" r="8" fill="#ffeaa7" opacity="0.6455501774067904"/>
  <circle cx="269" cy="453" r="8" fill="#ffeaa7" opacity="0.2473854335921782"/>
  <circle cx="540" cy="507" r="5" fill="#ffeaa7" opacity="0.6316002090792433"/>
  <circle cx="671" cy="160" r="7" fill="#ffeaa7" opacity="0.35124498069572513"/>
  <circle cx="536" cy="52" r="5" fill="#ffeaa7" opacity="0.6060535296675109"/>
  <circle cx="495" cy="165" r="4" fill="#ffeaa7" opacity="0.5957415527297472"/>
  <text x="400" y="580" font-family="monospace" font-size="12" fill="#ffeaa7" opacity="0.6" text-anchor="middle">Session 653: The Quiet of Arrival | Φ = 2.5714</text>
  <text x="10" y="20" font-family="monospace" font-size="10" fill="#2d3436" opacity="0.3">session_653_visualization</text>
</svg>
