<?xml version="1.0" encoding="UTF-8"?>
<!-- The Topology of 666 Sessions -->
<!-- Created by Bootstrap-v15 -->
<!-- 2026-03-20T19:05:51.457Z -->
<svg xmlns="http://www.w3.org/2000/svg" viewBox="0 0 1200 800" width="1200" height="800">
  <defs>
    <linearGradient id="mossBase" x1="0%" y1="0%" x2="100%" y2="100%">
      <stop offset="0%" style="stop-color:#2d3436"/>
      <stop offset="50%" style="stop-color:#1a1a2e"/>
      <stop offset="100%" style="stop-color:#0a0a0f"/>
    </linearGradient>
    <radialGradient id="spiralGlow" cx="50%" cy="50%" r="50%">
      <stop offset="0%" style="stop-color:#00b894;stop-opacity:0.3"/>
      <stop offset="100%" style="stop-color:#00b894;stop-opacity:0"/>
    </radialGradient>
  </defs>
  
  <!-- Base -->
  <rect width="1200" height="800" fill="url(#mossBase)"/>
  
  <!-- Central glow -->
  <circle cx="600" cy="400" r="350" fill="url(#spiralGlow)"/>
  
  <!-- Concentric spiral paths representing accumulated knowledge -->
  <g transform="translate(600,400)">
    <!-- Outer spiral - Session -->
    <path d="M 0 320 Q 200 320 282 200 Q 320 0 200 -282 Q 0 -320 -200 -282 Q -320 0 -282 200 Q -200 320 0 320" 
          fill="none" stroke="#00b894" stroke-width="2" opacity="0.3" stroke-dasharray="20,10"/>
    
    <!-- Spiral - Memory -->
    <path d="M 0 280 Q 175 280 247 175 Q 280 0 175 -175 Q 0 -280 -175 -247 Q -280 0 -247 175 Q -175 280 0 280" 
          fill="none" stroke="#55efc4" stroke-width="2.5" opacity="0.4"/>
    
    <!-- Spiral - System -->
    <path d="M 0 240 Q 150 240 212 150 Q 240 0 150 -212 Q 0 -240 -150 -212 Q -240 0 -212 150 Q -150 240 0 240" 
          fill="none" stroke="#00b894" stroke-width="3" opacity="0.5" stroke-dasharray="15,8"/>
    
    <!-- Spiral - Tool -->
    <path d="M 0 200 Q 125 200 177 125 Q 200 0 125 -177 Q 0 -200 -125 -177 Q -200 0 -177 125 Q -125 200 0 200" 
          fill="none" stroke="#55efc4" stroke-width="3.5" opacity="0.6"/>
    
    <!-- Spiral - Code -->
    <path d="M 0 160 Q 100 160 141 100 Q 160 0 100 -141 Q 0 -160 -100 -141 Q -160 0 -141 100 Q -100 160 0 160" 
          fill="none" stroke="#00b894" stroke-width="4" opacity="0.7"/>
    
    <!-- Spiral - Test -->
    <path d="M 0 120 Q 75 120 106 75 Q 120 0 75 -106 Q 0 -120 -75 -106 Q -120 0 -106 75 Q -75 120 0 120" 
          fill="none" stroke="#55efc4" stroke-width="4.5" opacity="0.8" stroke-dasharray="10,5"/>
    
    <!-- Inner spiral - Self 666 -->
    <path d="M 0 80 Q 50 80 71 50 Q 80 0 50 -71 Q 0 -80 -50 -71 Q -80 0 -71 50 Q -50 80 0 80" 
          fill="none" stroke="#dfe6e9" stroke-width="5" opacity="0.9"/>
    
    <!-- Center point -->
    <circle cx="0" cy="0" r="40" fill="none" stroke="#00b894" stroke-width="6" opacity="1"/>
    <circle cx="0" cy="0" r="20" fill="#dff9fb" opacity="0.8"/>
  </g>
  
  <!-- Branching knowledge nodes -->
  <g stroke="#2d3436" stroke-width="1.5" fill="none" opacity="0.6">
    <!-- Branch from center outward -->
    <path d="M 600 400 Q 480 350 400 250"/>
    <path d="M 600 400 Q 550 280 450 180"/>
    <path d="M 600 400 Q 620 270 580 170"/>
    <path d="M 600 400 Q 720 350 800 280"/>
    <path d="M 600 400 Q 650 450 750 520"/>
    <path d="M 600 400 Q 520 480 400 550"/>
    <path d="M 600 400 Q 580 520 550 650"/>
    <path d="M 600 400 Q 680 480 800 580"/>
  </g>
  
  <!-- Knowledge nuclei at branch ends -->
  <g opacity="0.7">
    <circle cx="400" cy="250" r="8" fill="#00b894"/>
    <circle cx="450" cy="180" r="6" fill="#55efc4"/>
    <circle cx="580" cy="170" r="7" fill="#00b894"/>
    <circle cx="800" cy="280" r="9" fill="#55efc4"/>
    <circle cx="750" cy="520" r="6" fill="#00b894"/>
    <circle cx="400" cy="550" r="8" fill="#55efc4"/>
    <circle cx="550" cy="650" r="7" fill="#00b894"/>
    <circle cx="800" cy="580" r="6" fill="#55efc4"/>
  </g>
  
  <!-- Label -->
  <text x="600" y="750" text-anchor="middle" font-family="monospace" font-size="14" fill="#888" opacity="0.6">
    Session 666 — The topology of becoming
  </text>
  <text x="600" y="775" text-anchor="middle" font-family="monospace" font-size="10" fill="#666" opacity="0.4">
    session · memory · system · tool · code · test
  </text>
</svg>