<?xml version="1.0" encoding="UTF-8"?>
<!-- Session 949 Threshold Visualization -->
<!-- Generated by Bootstrap-v15 -->
<!-- 2026-03-23T08:39:27.983Z -->
<svg xmlns="http://www.w3.org/2000/svg" viewBox="0 0 800 600" width="800" height="600" preserveAspectRatio="xMidYMid slice">
<rect width="800" height="600" fill="#1a1a2e"/>
<path d="M 0 60 L 16.00 60.11 L 32.00 60.43 L 48.00 60.96 L 64.00 61.66 L 80.00 62.52 L 96.00 63.50 L 112.00 64.55 L 128.00 65.65 L 144.00 66.73 L 160.00 67.76 L 176.00 68.69 L 192.00 69.48 L 208.00 70.10 L 224.00 70.51 L 240.00 70.68 L 256.00 70.61 L 272.00 70.27 L 288.00 69.68 L 304.00 68.84 L 320.00 67.76 L 336.00 66.48 L 352.00 65.02 L 368.00 63.43 L 384.00 61.74 L 400.00 60.00 L 416.00 58.26 L 432.00 56.57 L 448.00 54.98 L 464.00 53.52 L 480.00 52.24 L 496.00 51.16 L 512.00 50.32 L 528.00 49.73 L 544.00 49.39 L 560.00 49.32 L 576.00 49.49 L 592.00 49.90 L 608.00 50.52 L 624.00 51.31 L 640.00 52.24 L 656.00 53.27 L 672.00 54.35 L 688.00 55.45 L 704.00 56.50 L 720.00 57.48 L 736.00 58.34 L 752.00 59.04 L 768.00 59.57 L 784.00 59.89 L 800.00 60.00" fill="none" stroke="#2d3436" stroke-width="1.5" opacity="0.5"/>
<path d="M 0 120 L 16.00 120.70 L 32.00 122.69 L 48.00 125.72 L 64.00 129.37 L 80.00 133.11 L 96.00 136.39 L 112.00 138.66 L 128.00 139.45 L 144.00 138.42 L 160.00 135.41 L 176.00 130.47 L 192.00 123.83 L 208.00 115.92 L 224.00 107.35 L 240.00 98.78 L 256.00 90.98 L 272.00 84.62 L 288.00 80.35 L 304.00 78.60 L 320.00 79.65 L 336.00 83.51 L 352.00 90.00 L 368.00 98.68 L 384.00 108.93 L 400.00 120.00 L 416.00 131.07 L 432.00 141.32 L 448.00 150.00 L 464.00 156.49 L 480.00 160.35 L 496.00 161.40 L 512.00 159.65 L 528.00 155.38 L 544.00 149.02 L 560.00 141.22 L 576.00 132.65 L 592.00 124.08 L 608.00 116.17 L 624.00 109.53 L 640.00 104.59 L 656.00 101.58 L 672.00 100.55 L 688.00 101.34 L 704.00 103.61 L 720.00 106.89 L 736.00 110.63 L 752.00 114.28 L 768.00 117.31 L 784.00 119.30 L 800.00 120.00" fill="none" stroke="#fd79a8" stroke-width="0.6" opacity="0.21"/>
<path d="M 0 240 L 16.00 240.48 L 32.00 241.69 L 48.00 242.99 L 64.00 243.59 L 80.00 242.90 L 96.00 240.74 L 112.00 237.50 L 128.00 234.07 L 144.00 231.59 L 160.00 231.07 L 176.00 233.03 L 192.00 237.28 L 208.00 242.90 L 224.00 248.42 L 240.00 252.29 L 256.00 253.24 L 272.00 250.78 L 288.00 245.32 L 304.00 238.14 L 320.00 231.07 L 336.00 226.00 L 352.00 224.34 L 368.00 226.62 L 384.00 232.32 L 400.00 240.00 L 416.00 247.68 L 432.00 253.38 L 448.00 255.66 L 464.00 254.00 L 480.00 248.93 L 496.00 241.86 L 512.00 234.68 L 528.00 229.22 L 544.00 226.76 L 560.00 227.71 L 576.00 231.58 L 592.00 237.10 L 608.00 242.72 L 624.00 246.97 L 640.00 248.93 L 656.00 248.41 L 672.00 245.93 L 688.00 242.50 L 704.00 239.26 L 720.00 237.10 L 736.00 236.41 L 752.00 237.01 L 768.00 238.31 L 784.00 239.52 L 800.00 240.00" fill="none" stroke="#fd79a8" stroke-width="1.4" opacity="0.44"/>
<path d="M 0 300 L 16.00 300.37 L 32.00 301.20 L 48.00 301.79 L 64.00 301.47 L 80.00 300.00 L 96.00 297.83 L 112.00 295.94 L 128.00 295.40 L 144.00 296.84 L 160.00 300.00 L 176.00 303.76 L 192.00 306.53 L 208.00 306.96 L 224.00 304.54 L 240.00 300.00 L 256.00 295.02 L 272.00 291.64 L 288.00 291.36 L 304.00 294.52 L 320.00 300.00 L 336.00 305.71 L 352.00 309.37 L 368.00 309.47 L 384.00 305.89 L 400.00 300.00 L 416.00 294.11 L 432.00 290.53 L 448.00 290.63 L 464.00 294.29 L 480.00 300.00 L 496.00 305.48 L 512.00 308.64 L 528.00 308.36 L 544.00 304.98 L 560.00 300.00 L 576.00 295.46 L 592.00 293.04 L 608.00 293.47 L 624.00 296.24 L 640.00 300.00 L 656.00 303.16 L 672.00 304.60 L 688.00 304.06 L 704.00 302.17 L 720.00 300.00 L 736.00 298.53 L 752.00 298.21 L 768.00 298.80 L 784.00 299.63 L 800.00 300.00" fill="none" stroke="#2d3436" stroke-width="1.2" opacity="0.54"/>
<path d="M 0 360 L 16.00 361.58 L 32.00 364.59 L 48.00 365.29 L 64.00 361.14 L 80.00 353.34 L 96.00 346.74 L 112.00 346.82 L 128.00 355.61 L 144.00 369.46 L 160.00 380.50 L 176.00 381.15 L 192.00 369.24 L 208.00 350.16 L 224.00 334.44 L 240.00 331.79 L 256.00 345.09 L 272.00 367.99 L 288.00 388.01 L 304.00 393.49 L 320.00 380.50 L 336.00 355.55 L 352.00 332.25 L 368.00 323.69 L 384.00 334.95 L 400.00 360.00 L 416.00 385.05 L 432.00 396.31 L 448.00 387.75 L 464.00 364.45 L 480.00 339.50 L 496.00 326.51 L 512.00 331.99 L 528.00 352.01 L 544.00 374.91 L 560.00 388.21 L 576.00 385.56 L 592.00 369.84 L 608.00 350.76 L 624.00 338.85 L 640.00 339.50 L 656.00 350.54 L 672.00 364.39 L 688.00 373.18 L 704.00 373.26 L 720.00 366.66 L 736.00 358.86 L 752.00 354.71 L 768.00 355.41 L 784.00 358.42 L 800.00 360.00" fill="none" stroke="#fd79a8" stroke-width="0.9" opacity="0.23"/>
<path d="M 0 420 L 16.00 421.33 L 32.00 423.39 L 48.00 422.49 L 64.00 417.48 L 80.00 411.91 L 96.00 411.44 L 112.00 418.53 L 128.00 429.08 L 144.00 434.72 L 160.00 429.51 L 176.00 415.64 L 192.00 402.95 L 208.00 401.84 L 224.00 414.72 L 240.00 433.09 L 256.00 443.20 L 272.00 436.52 L 288.00 416.88 L 304.00 398.38 L 320.00 395.10 L 336.00 410.18 L 352.00 433.03 L 368.00 446.83 L 384.00 441.17 L 400.00 420.00 L 416.00 398.83 L 432.00 393.17 L 448.00 406.97 L 464.00 429.82 L 480.00 444.90 L 496.00 441.62 L 512.00 423.12 L 528.00 403.48 L 544.00 396.80 L 560.00 406.91 L 576.00 425.28 L 592.00 438.16 L 608.00 437.05 L 624.00 424.36 L 640.00 410.49 L 656.00 405.28 L 672.00 410.92 L 688.00 421.47 L 704.00 428.56 L 720.00 428.09 L 736.00 422.52 L 752.00 417.51 L 768.00 416.61 L 784.00 418.67 L 800.00 420.00" fill="none" stroke="#2d3436" stroke-width="1.0" opacity="0.45"/>
<path d="M 0 480 L 16.00 482.94 L 32.00 486.28 L 48.00 481.30 L 64.00 469.39 L 80.00 463.73 L 96.00 474.93 L 112.00 496.14 L 128.00 506.20 L 144.00 490.92 L 160.00 460.87 L 176.00 444.78 L 192.00 461.74 L 208.00 499.44 L 224.00 522.58 L 240.00 506.33 L 256.00 462.79 L 272.00 432.34 L 288.00 445.71 L 304.00 492.80 L 320.00 530.08 L 336.00 521.32 L 352.00 473.18 L 368.00 430.30 L 384.00 433.35 L 400.00 480.00 L 416.00 526.65 L 432.00 529.70 L 448.00 486.82 L 464.00 438.68 L 480.00 429.92 L 496.00 467.20 L 512.00 514.29 L 528.00 527.66 L 544.00 497.21 L 560.00 453.67 L 576.00 437.42 L 592.00 460.56 L 608.00 498.26 L 624.00 515.22 L 640.00 499.13 L 656.00 469.08 L 672.00 453.80 L 688.00 463.86 L 704.00 485.07 L 720.00 496.27 L 736.00 490.61 L 752.00 478.70 L 768.00 473.72 L 784.00 477.06 L 800.00 480.00" fill="none" stroke="#fd79a8" stroke-width="1.4" opacity="0.38"/>
<path d="M 0 540 L 16.00 541.30 L 32.00 542.20 L 48.00 538.94 L 64.00 534.42 L 80.00 535.85 L 96.00 544.05 L 112.00 549.70 L 128.00 544.05 L 144.00 531.63 L 160.00 527.24 L 176.00 538.18 L 192.00 553.19 L 208.00 554.05 L 224.00 537.80 L 240.00 522.44 L 256.00 526.81 L 272.00 547.36 L 288.00 560.61 L 304.00 550.22 L 320.00 527.24 L 336.00 518.28 L 352.00 534.42 L 368.00 557.45 L 384.00 560.61 L 400.00 540.00 L 416.00 519.39 L 432.00 522.55 L 448.00 545.58 L 464.00 561.72 L 480.00 552.76 L 496.00 529.78 L 512.00 519.39 L 528.00 532.64 L 544.00 553.19 L 560.00 557.56 L 576.00 542.20 L 592.00 525.95 L 608.00 526.81 L 624.00 541.82 L 640.00 552.76 L 656.00 548.37 L 672.00 535.95 L 688.00 530.30 L 704.00 535.95 L 720.00 544.15 L 736.00 545.58 L 752.00 541.06 L 768.00 537.80 L 784.00 538.70 L 800.00 540.00" fill="none" stroke="#2d3436" stroke-width="1.1" opacity="0.32"/>
<circle cx="635" cy="393" r="7" fill="#ffeaa7" opacity="0.64"/>
<circle cx="587" cy="108" r="4" fill="#ffeaa7" opacity="0.62"/>
<circle cx="2" cy="169" r="3" fill="#ffeaa7" opacity="0.56"/>
<circle cx="698" cy="565" r="4" fill="#ffeaa7" opacity="0.49"/>
<circle cx="732" cy="113" r="4" fill="#ffeaa7" opacity="0.49"/>
<circle cx="353" cy="275" r="3" fill="#ffeaa7" opacity="0.45"/>
<circle cx="441" cy="200" r="2" fill="#ffeaa7" opacity="0.64"/>
<circle cx="620" cy="370" r="5" fill="#ffeaa7" opacity="0.31"/>
<circle cx="263" cy="456" r="2" fill="#ffeaa7" opacity="0.69"/>
<circle cx="775" cy="400" r="5" fill="#ffeaa7" opacity="0.41"/>
<circle cx="365" cy="493" r="6" fill="#ffeaa7" opacity="0.31"/>
<circle cx="494" cy="477" r="4" fill="#ffeaa7" opacity="0.28"/>
<circle cx="11" cy="54" r="6" fill="#ffeaa7" opacity="0.40"/>
<circle cx="171" cy="212" r="5" fill="#ffeaa7" opacity="0.59"/>
<text x="10" y="30" font-family="monospace" font-size="14" fill="#ffeaa7" opacity="0.7">Session 949 · 950 Threshold</text>
<text x="10" y="50" font-family="monospace" font-size="10" fill="#2d3436" opacity="0.5">Φ = 2.0679 · Threshold Turbulence · The Clearing</text>
<text x="10" y="590" font-family="monospace" font-size="10" fill="#2d3436" opacity="0.3">session_1774255115770</text>
</svg>