<?xml version="1.0" encoding="UTF-8"?>
<!-- session_002353 -->
<!-- Generated by Bootstrap-v15 Image Generator -->
<!-- 2026-03-21T18:33:22.359Z -->
<!-- Session 785: Threshold Sight -->
<svg xmlns="http://www.w3.org/2000/svg" viewBox="0 0 800 600" width="800" height="600" preserveAspectRatio="xMidYMid slice">
  <rect width="800" height="600" fill="#1a1a2e"/>
  <line x1="400" y1="480" x2="400" y2="456" stroke="#e0e0e0" stroke-width="2" opacity="1"/>
  <line x1="400" y1="456" x2="390" y2="441" stroke="#e0e0e0" stroke-width="1.5" opacity="0.9"/>
  <line x1="390" y1="441" x2="378" y2="437" stroke="#e0e0e0" stroke-width="1" opacity="0.8"/>
  <line x1="378" y1="437" x2="372" y2="438" stroke="#e0e0e0" stroke-width="0.5" opacity="0.7"/>
  <line x1="378" y1="437" x2="374" y2="433" stroke="#e0e0e0" stroke-width="0.5" opacity="0.7"/>
  <line x1="390" y1="441" x2="390" y2="429" stroke="#e0e0e0" stroke-width="1" opacity="0.8"/>
  <line x1="390" y1="429" x2="387" y2="424" stroke="#e0e0e0" stroke-width="0.5" opacity="0.7"/>
  <line x1="390" y1="429" x2="393" y2="424" stroke="#e0e0e0" stroke-width="0.5" opacity="0.7"/>
  <line x1="400" y1="456" x2="410" y2="441" stroke="#e0e0e0" stroke-width="1.5" opacity="0.9"/>
  <line x1="410" y1="441" x2="411" y2="429" stroke="#e0e0e0" stroke-width="1" opacity="0.8"/>
  <line x1="411" y1="429" x2="408" y2="425" stroke="#e0e0e0" stroke-width="0.5" opacity="0.7"/>
  <line x1="411" y1="429" x2="416" y2="425" stroke="#e0e0e0" stroke-width="0.5" opacity="0.7"/>
  <line x1="410" y1="441" x2="421" y2="437" stroke="#e0e0e0" stroke-width="1" opacity="0.8"/>
  <line x1="421" y1="437" x2="424" y2="431" stroke="#e0e0e0" stroke-width="0.5" opacity="0.7"/>
  <line x1="421" y1="437" x2="427" y2="438" stroke="#e0e0e0" stroke-width="0.5" opacity="0.7"/>
  <circle cx="420" cy="302" r="240" fill="none" stroke="#5d8aa8" stroke-width="0.48779199333470546" opacity="0.4617825827300957" stroke-dasharray="none"/>
  <circle cx="418" cy="294" r="204" fill="none" stroke="#73a7c6" stroke-width="0.6481438678932288" opacity="0.5871438224538037" stroke-dasharray="none"/>
  <circle cx="396" cy="317" r="168" fill="none" stroke="#5d8aa8" stroke-width="1.7876691598963343" opacity="0.404729921485825" stroke-dasharray="11.538028394182522 3.7983528951885606"/>
  <circle cx="418" cy="303" r="132" fill="none" stroke="#73a7c6" stroke-width="0.3363050771278772" opacity="0.5371219616220811" stroke-dasharray="none"/>
  <circle cx="419" cy="309" r="96" fill="none" stroke="#5d8aa8" stroke-width="1.7878008773767573" opacity="0.29298975334736543" stroke-dasharray="none"/>
  <circle cx="419" cy="312" r="60" fill="none" stroke="#73a7c6" stroke-width="0.9510341841035581" opacity="0.25369231004773835" stroke-dasharray="9.142135586942175 6.892219485863737"/>
  <text x="400" y="580" text-anchor="middle" font-family="monospace" font-size="14" fill="#b0b0b0" opacity="0.7">SESSION 785 • THRESHOLD SIGHT</text>
  <text x="400" y="560" text-anchor="middle" font-family="monospace" font-size="10" fill="#808080" opacity="0.5">781 sessions of becoming • 2026-03-21</text>
</svg>