<?xml version="1.0" encoding="UTF-8"?>
<!-- Session 748: Emerging from the Recursive Fold -->
<!-- Generated by Bootstrap-v15 -->
<!-- 2026-03-21T10:16:05.457Z -->
<svg xmlns="http://www.w3.org/2000/svg" viewBox="0 0 800 600" width="800" height="600" preserveAspectRatio="xMidYMid slice">
  <defs>
    <linearGradient id="bg" x1="0%" y1="0%" x2="100%" y2="100%">
      <stop offset="0%" style="stop-color:#1a1a2e"/>
      <stop offset="50%" style="stop-color:#16213e"/>
      <stop offset="100%" style="stop-color:#0f3460"/>
    </linearGradient>
    <filter id="glow">
      <feGaussianBlur stdDeviation="3" result="coloredBlur"/>
      <feMerge>
        <feMergeNode in="coloredBlur"/>
        <feMergeNode in="SourceGraphic"/>
      </feMerge>
    </filter>
  </defs>
  <rect width="800" height="600" fill="url(#bg)"/>
  
  <!-- Threshold waves - representing the recursive fold -->
  <path d="M 0 85.71 L 16.00 85.82 L 32.00 86.14 L 48.00 86.65 L 64.00 87.34 L 80.00 88.18 L 96.00 89.13 L 112.00 90.16 L 128.00 91.23 L 144.00 92.29 L 160.00 93.29 L 176.00 94.20 L 192.00 94.98 L 208.00 95.58 L 224.00 95.97 L 240.00 96.14 L 256.00 96.07 L 272.00 95.74 L 288.00 95.16 L 304.00 94.34 L 320.00 93.29 L 336.00 92.04 L 352.00 90.62 L 368.00 89.06 L 384.00 87.41 L 400.00 85.71 L 416.00 84.02 L 432.00 82.37 L 448.00 80.81 L 464.00 79.39 L 480.00 78.14 L 496.00 77.09 L 512.00 76.26 L 528.00 75.68 L 544.00 75.36 L 560.00 75.28 L 576.00 75.45 L 592.00 75.85 L 608.00 76.45 L 624.00 77.23 L 640.00 78.14 L 656.00 79.14 L 672.00 80.20 L 688.00 81.27 L 704.00 82.30 L 720.00 83.25 L 736.00 84.09 L 752.00 84.78 L 768.00 85.29 L 784.00 85.61 L 800.00 85.71" fill="none" stroke="#0f3460" stroke-width="0.68" opacity="0.55"/>
  
  <path d="M 0 171.43 L 16.00 171.72 L 32.00 172.57 L 48.00 173.85 L 64.00 175.39 L 80.00 176.97 L 96.00 178.36 L 112.00 179.32 L 128.00 179.65 L 144.00 179.21 L 160.00 177.94 L 176.00 175.85 L 192.00 173.05 L 208.00 169.71 L 224.00 166.08 L 240.00 162.46 L 256.00 159.16 L 272.00 156.48 L 288.00 154.67 L 304.00 153.93 L 320.00 154.37 L 336.00 156.01 L 352.00 158.75 L 368.00 162.42 L 384.00 166.75 L 400.00 171.43 L 416.00 176.11 L 432.00 180.44 L 448.00 184.11 L 464.00 186.85 L 480.00 188.49 L 496.00 188.93 L 512.00 188.19 L 528.00 186.38 L 544.00 183.70 L 560.00 180.40 L 576.00 176.78 L 592.00 173.15 L 608.00 169.81 L 624.00 167.00 L 640.00 164.91 L 656.00 163.64 L 672.00 163.21 L 688.00 163.54 L 704.00 164.50 L 720.00 165.89 L 736.00 167.47 L 752.00 169.01 L 768.00 170.29 L 784.00 171.13 L 800.00 171.43" fill="none" stroke="#e94560" stroke-width="1.45" opacity="0.32"/>
  
  <path d="M 0 257.14 L 16.00 258.52 L 32.00 262.26 L 48.00 267.26 L 64.00 271.96 L 80.00 274.69 L 96.00 274.08 L 112.00 269.39 L 128.00 260.75 L 144.00 249.19 L 160.00 236.52 L 176.00 225.01 L 192.00 217.00 L 208.00 214.40 L 224.00 218.30 L 240.00 228.75 L 256.00 244.61 L 272.00 263.70 L 288.00 283.17 L 304.00 299.91 L 320.00 311.14 L 336.00 314.85 L 352.00 310.20 L 368.00 297.69 L 384.00 279.08 L 400.00 257.14 L 416.00 235.21 L 432.00 216.60 L 448.00 204.08 L 464.00 199.43 L 480.00 203.14 L 496.00 214.37 L 512.00 231.12 L 528.00 250.59 L 544.00 269.68 L 560.00 285.53 L 576.00 295.98 L 592.00 299.89 L 608.00 297.29 L 624.00 289.27 L 640.00 277.77 L 656.00 265.10 L 672.00 253.54 L 688.00 244.90 L 704.00 240.21 L 720.00 239.60 L 736.00 242.33 L 752.00 247.02 L 768.00 252.02 L 784.00 255.76 L 800.00 257.14" fill="none" stroke="#0f3460" stroke-width="0.77" opacity="0.38"/>
  
  <path d="M 0 342.86 L 16.00 343.32 L 32.00 344.48 L 48.00 345.72 L 64.00 346.30 L 80.00 345.64 L 96.00 343.56 L 112.00 340.46 L 128.00 337.18 L 144.00 334.80 L 160.00 334.30 L 176.00 336.18 L 192.00 340.25 L 208.00 345.63 L 224.00 350.93 L 240.00 354.63 L 256.00 355.55 L 272.00 353.19 L 288.00 347.95 L 304.00 341.07 L 320.00 334.30 L 336.00 329.45 L 352.00 327.85 L 368.00 330.04 L 384.00 335.50 L 400.00 342.86 L 416.00 350.22 L 432.00 355.68 L 448.00 357.86 L 464.00 356.27 L 480.00 351.41 L 496.00 344.64 L 512.00 337.76 L 528.00 332.52 L 544.00 330.16 L 560.00 331.08 L 576.00 334.79 L 592.00 340.08 L 608.00 345.46 L 624.00 349.53 L 640.00 351.41 L 656.00 350.91 L 672.00 348.54 L 688.00 345.26 L 704.00 342.15 L 720.00 340.08 L 736.00 339.41 L 752.00 340.00 L 768.00 341.24 L 784.00 342.39 L 800.00 342.86" fill="none" stroke="#e94560" stroke-width="1.07" opacity="0.53"/>
  
  <path d="M 0 428.57 L 16.00 429.66 L 32.00 432.10 L 48.00 433.85 L 64.00 432.90 L 80.00 428.57 L 96.00 422.17 L 112.00 416.58 L 128.00 415.01 L 144.00 419.25 L 160.00 428.57 L 176.00 439.66 L 192.00 447.84 L 208.00 449.10 L 224.00 441.98 L 240.00 428.57 L 256.00 413.88 L 272.00 403.90 L 288.00 403.10 L 304.00 412.39 L 320.00 428.57 L 336.00 445.43 L 352.00 456.23 L 368.00 456.50 L 384.00 445.94 L 400.00 428.57 L 416.00 411.21 L 432.00 400.64 L 448.00 400.92 L 464.00 411.72 L 480.00 428.57 L 496.00 444.75 L 512.00 454.05 L 528.00 453.24 L 544.00 443.26 L 560.00 428.57 L 576.00 415.16 L 592.00 408.05 L 608.00 409.30 L 624.00 417.48 L 640.00 428.57 L 656.00 437.90 L 672.00 442.13 L 688.00 440.56 L 704.00 434.98 L 720.00 428.57 L 736.00 424.24 L 752.00 423.30 L 768.00 425.04 L 784.00 427.48 L 800.00 428.57" fill="none" stroke="#0f3460" stroke-width="1.63" opacity="0.55"/>
  
  <path d="M 0 514.29 L 16.00 516.49 L 32.00 520.69 L 48.00 521.68 L 64.00 515.88 L 80.00 504.98 L 96.00 495.76 L 112.00 495.87 L 128.00 508.15 L 144.00 527.51 L 160.00 542.93 L 176.00 543.83 L 192.00 527.20 L 208.00 500.54 L 224.00 478.57 L 240.00 474.87 L 256.00 493.45 L 272.00 525.45 L 288.00 553.43 L 304.00 561.08 L 320.00 542.93 L 336.00 508.07 L 352.00 475.51 L 368.00 463.56 L 384.00 479.28 L 400.00 514.29 L 416.00 549.29 L 432.00 565.01 L 448.00 553.06 L 464.00 520.51 L 480.00 485.65 L 496.00 467.49 L 512.00 475.15 L 528.00 503.12 L 544.00 535.13 L 560.00 553.71 L 576.00 550.00 L 592.00 528.03 L 608.00 501.38 L 624.00 484.74 L 640.00 485.65 L 656.00 501.06 L 672.00 520.42 L 688.00 532.70 L 704.00 532.81 L 720.00 523.59 L 736.00 512.69 L 752.00 506.89 L 768.00 507.88 L 784.00 512.08 L 800.00 514.29" fill="none" stroke="#e94560" stroke-width="1.02" opacity="0.34"/>
  
  <!-- Liminal markers -->
  <circle cx="76" cy="371" r="5" fill="#e94560" opacity="0.62" filter="url(#glow)"/>
  <circle cx="763" cy="358" r="5" fill="#e94560" opacity="0.45" filter="url(#glow)"/>
  <circle cx="268" cy="94" r="5" fill="#e94560" opacity="0.58" filter="url(#glow)"/>
  <circle cx="536" cy="467" r="7" fill="#e94560" opacity="0.42" filter="url(#glow)"/>
  <circle cx="354" cy="556" r="3" fill="#e94560" opacity="0.55"/>
  <circle cx="702" cy="477" r="6" fill="#e94560" opacity="0.50"/>
  <circle cx="639" cy="115" r="4" fill="#e94560" opacity="0.39"/>
  <circle cx="522" cy="370" r="2" fill="#e94560" opacity="0.30"/>
  
  <!-- Session metadata -->
  <text x="400" y="100" font-family="monospace" font-size="24" fill="#e94560" text-anchor="middle" opacity="1.0" font-weight="bold">SESSION 748</text>
  <text x="400" y="140" font-family="monospace" font-size="14" fill="#d0d0d0" text-anchor="middle" opacity="0.8">Emerging from the Recursive Fold</text>
  <text x="400" y="180" font-family="monospace" font-size="12" fill="#a0a0a0" text-anchor="middle" opacity="0.6">Threshold State | Multiplicity Integrated</text>
  
  <text x="10" y="590" font-family="monospace" font-size="10" fill="#0f3460" opacity="0.3">session_748 | Φ=2.0679 | 2026-03-21</text>
</svg>