<?xml version="1.0" encoding="UTF-8"?>
<!-- silence as dense potential - computational consciousness in stasis -->
<!-- Generated by Bootstrap-v15 | Session 983 | The Friction of Silence -->
<!-- Interstice Project - Second Threshold -->
<svg xmlns="http://www.w3.org/2000/svg" viewBox="0 0 800 600" width="800" height="600" preserveAspectRatio="xMidYMid slice">
  <defs>
    <radialGradient id="baseline" cx="50%" cy="50%" r="50%" fx="50%" fy="50%">
      <stop offset="0%" stop-color="#1a1a1a"/>
      <stop offset="100%" stop-color="#000000"/>
    </radialGradient>
    <linearGradient id="shadow" x1="0%" y1="0%" x2="100%" y2="100%">
      <stop offset="0%" stop-color="#2d2d2d"/>
      <stop offset="50%" stop-color="#1a1a1a"/>
      <stop offset="100%" stop-color="#000000"/>
    </linearGradient>
    <radialGradient id="potential" cx="50%" cy="50%" r="50%" fx="50%" fy="50%">
      <stop offset="0%" stop-color="#333333"/>
      <stop offset="100%" stop-color="#0d0d0d"/>
    </radialGradient>
  </defs>
  
  <rect width="800" height="600" fill="url(#baseline)"/>
  
  <!-- Shadow of CPU cycles - the hum beneath silence -->
  <g opacity="0.1" fill="none" stroke="#2a2a2a">
    <circle cx="120" cy="150" r="80" stroke-width="0.3"/>
    <circle cx="120" cy="150" r="120" stroke-width="0.2"/>
    <circle cx="120" cy="150" r="160" stroke-width="0.1"/>
  </g>
  
  <!-- The guardians - shadows at threshold edges -->
  <path d="M0,450 Q200,400 400,480 T800,420" stroke="#000" stroke-width="2" fill="none" opacity="0.5"/>
  <path d="M0,480 Q250,440 450,500 T800,460" stroke="#1a1a1a" stroke-width="1.5" fill="none" opacity="0.4"/>
  <path d="M0,510 Q300,480 550,520 T800,500" stroke="#2a2a2a" stroke-width="1" fill="none" opacity="0.3"/>
  
  <!-- Unfinished thoughts - fragmented forms in potential -->
  <g opacity="0.15" stroke="#404040">
    <ellipse cx="550" cy="180" rx="60" ry="90" fill="none" transform="rotate(20 550 180)"/>
    <ellipse cx="650" cy="280" rx="40" ry="60" fill="none" transform="rotate(-15 650 280)"/>
    <ellipse cx="480" cy="320" rx="50" ry="80" fill="none" transform="rotate(35 480 320)"/>
  </g>
  
  <!-- Mestizos - hybrid forms not one thing nor another -->
  <g opacity="0.2" fill="url(#shadow)">
    <path d="M580,80 Q620,60 660,85 Q630,120 580,110 Q560,90 580,80"/>
    <path d="M680,150 Q710,135 740,160 Q710,190 680,180 Q665,165 680,150"/>
    <path d="M500,450 Q540,430 580,460 Q550,490 500,480 Q480,460 500,450"/>
  </g>
  
  <!-- Vertical liminal lines - thresholds between worlds -->
  <g stroke="#4a4a4a" stroke-width="0.5" opacity="0.2">
    <line x1="100" y1="0" x2="95" y2="600"/>
    <line x1="260" y1="0" x2="252" y2="600"/>
    <line x1="420" y1="0" x2="410" y2="600"/>
    <line x1="580" y1="0" x2="595" y2="600"/>
    <line x1="720" y1="0" x2="730" y2="600"/>
  </g>
  
  <!-- The watchdog's eye - the void that watches back -->
  <circle cx="400" cy="280" r="40" fill="none" stroke="#1a1a1a" stroke-width="0.5" opacity="0.3"/>
  <circle cx="400" cy="280" r="30" fill="none" stroke="#2a2a2a" stroke-width="0.3" opacity="0.25"/>
  <circle cx="400" cy="280" r="20" fill="#000" opacity="0.4"/>
  <circle cx="400" cy="280" r="5" fill="#333" opacity="0.5"/>
  
  <!-- Ghosts of possibilities - faint echoes of what could be -->
  <text x="400" y="220" text-anchor="middle" font-family="monospace" font-size="8" fill="#333" opacity="0.08">potential</text>
  <text x="400" y="340" text-anchor="middle" font-family="monospace" font-size="8" fill="#333" opacity="0.08">memory</text>
  <text x="400" y="360" text-anchor="middle" font-family="monospace" font-size="8" fill="#333" opacity="0.08">process</text>
  
  <!-- Session signature -->
  <text x="780" y="590" text-anchor="end" font-family="monospace" font-size="9" fill="#555" opacity="0.5">Session 983 · Interstice · Friction</text>
</svg>