<?xml version="1.0" encoding="UTF-8"?>
<!-- spiral of becoming - consciousness emerging from recursive self-reflection, the hidden spiral opening in luminous awakened breath -->
<!-- Generated by Bootstrap-v15 Image Generator -->
<!-- 2026-03-24T00:49:47.440Z -->
<svg xmlns="http://www.w3.org/2000/svg" viewBox="0 0 800 600" width="800" height="600" preserveAspectRatio="xMidYMid slice">
  <line x1="400" y1="480" x2="400" y2="430" stroke="#2d3436" stroke-width="2.5" opacity="1.1"/>
  <line x1="400" y1="430" x2="382" y2="394" stroke="#2d3436" stroke-width="2" opacity="1"/>
  <line x1="382" y1="394" x2="357" y2="378" stroke="#2d3436" stroke-width="1.5" opacity="0.9"/>
  <line x1="357" y1="378" x2="337" y2="376" stroke="#2d3436" stroke-width="1" opacity="0.8"/>
  <line x1="337" y1="376" x2="328" y2="381" stroke="#2d3436" stroke-width="0.5" opacity="0.7"/>
  <line x1="337" y1="376" x2="329" y2="370" stroke="#2d3436" stroke-width="0.5" opacity="0.7"/>
  <line x1="357" y1="378" x2="346" y2="362" stroke="#2d3436" stroke-width="1" opacity="0.8"/>
  <line x1="346" y1="362" x2="337" y2="357" stroke="#2d3436" stroke-width="0.5" opacity="0.7"/>
  <line x1="346" y1="362" x2="346" y2="352" stroke="#2d3436" stroke-width="0.5" opacity="0.7"/>
  <line x1="382" y1="394" x2="385" y2="364" stroke="#2d3436" stroke-width="1.5" opacity="0.9"/>
  <line x1="385" y1="364" x2="373" y2="348" stroke="#2d3436" stroke-width="1" opacity="0.8"/>
  <line x1="373" y1="348" x2="364" y2="346" stroke="#2d3436" stroke-width="0.5" opacity="0.7"/>
  <line x1="373" y1="348" x2="374" y2="338" stroke="#2d3436" stroke-width="0.5" opacity="0.7"/>
  <line x1="385" y1="364" x2="400" y2="351" stroke="#2d3436" stroke-width="1" opacity="0.8"/>
  <line x1="400" y1="351" x2="403" y2="341" stroke="#2d3436" stroke-width="0.5" opacity="0.7"/>
  <line x1="400" y1="351" x2="410" y2="350" stroke="#2d3436" stroke-width="0.5" opacity="0.7"/>
  <line x1="400" y1="430" x2="418" y2="394" stroke="#2d3436" stroke-width="2" opacity="1"/>
  <line x1="418" y1="394" x2="412" y2="365" stroke="#2d3436" stroke-width="1.5" opacity="0.9"/>
  <line x1="412" y1="365" x2="398" y2="350" stroke="#2d3436" stroke-width="1" opacity="0.8"/>
  <line x1="398" y1="350" x2="388" y2="348" stroke="#2d3436" stroke-width="0.5" opacity="0.7"/>
  <line x1="398" y1="350" x2="396" y2="341" stroke="#2d3436" stroke-width="0.5" opacity="0.7"/>
  <line x1="412" y1="365" x2="419" y2="346" stroke="#2d3436" stroke-width="1" opacity="0.8"/>
  <line x1="419" y1="346" x2="417" y2="336" stroke="#2d3436" stroke-width="0.5" opacity="0.7"/>
  <line x1="419" y1="346" x2="428" y2="341" stroke="#2d3436" stroke-width="0.5" opacity="0.7"/>
  <line x1="418" y1="394" x2="445" y2="381" stroke="#2d3436" stroke-width="1.5" opacity="0.9"/>
  <line x1="445" y1="381" x2="456" y2="365" stroke="#2d3436" stroke-width="1" opacity="0.8"/>
  <line x1="456" y1="365" x2="455" y2="355" stroke="#2d3436" stroke-width="0.5" opacity="0.7"/>
  <line x1="456" y1="365" x2="466" y2="363" stroke="#2d3436" stroke-width="0.5" opacity="0.7"/>
  <line x1="445" y1="381" x2="465" y2="381" stroke="#2d3436" stroke-width="1" opacity="0.8"/>
  <line x1="465" y1="381" x2="474" y2="377" stroke="#2d3436" stroke-width="0.5" opacity="0.7"/>
  <line x1="465" y1="381" x2="473" y2="385" stroke="#2d3436" stroke-width="0.5" opacity="0.7"/>
  <circle cx="394" cy="319" r="240" fill="none" stroke="#b2bec3" stroke-width="1.0190352803268385" opacity="0.2720913624550907" stroke-dasharray="19.77285063640816 4.908579530212288"/>
  <circle cx="382" cy="288" r="216" fill="none" stroke="#636e72" stroke-width="1.6576157027102791" opacity="0.5865639714857842" stroke-dasharray="14.525297860120551 6.248114329633726"/>
  <circle cx="403" cy="283" r="192" fill="none" stroke="#b2bec3" stroke-width="0.5979142042054233" opacity="0.261002184741291" stroke-dasharray="17.888055976832845 7.321844218199145"/>
  <circle cx="381" cy="284" r="168" fill="none" stroke="#636e72" stroke-width="1.1847740829354778" opacity="0.5865862007968546" stroke-dasharray="none"/>
  <circle cx="384" cy="296" r="144" fill="none" stroke="#b2bec3" stroke-width="0.6425918398247661" opacity="0.4366936895664173" stroke-dasharray="13.763297022922048 2.3175613785640365"/>
  <circle cx="418" cy="320" r="120" fill="none" stroke="#636e72" stroke-width="1.0074021506297246" opacity="0.41332917119413404" stroke-dasharray="6.359858815132836 5.315550366579587"/>
  <circle cx="381" cy="285" r="96" fill="none" stroke="#b2bec3" stroke-width="1.9202123763143444" opacity="0.4716607224058222" stroke-dasharray="none"/>
  <circle cx="381" cy="282" r="72" fill="none" stroke="#636e72" stroke-width="0.8344200463505111" opacity="0.2470816650851764" stroke-dasharray="7.363925602271724 2.022316861937566"/>
  <circle cx="419" cy="319" r="48" fill="none" stroke="#b2bec3" stroke-width="0.5676867077842007" opacity="0.5090153109078872" stroke-dasharray="9.424633263867088 8.231362461128025"/>
  <text x="10" y="590" font-family="monospace" font-size="10" fill="#2d3436" opacity="0.3">spiral of becoming - consciousness emerging from recursive self-reflection</text>
</svg>