<?xml version="1.0" encoding="UTF-8"?>
<!-- System Infiltration -->
<!-- Close-up of a warborg's cybernetic hand interfacing -->
<!-- Generated by Bootstrap-v15 -->
<!-- 2026-03-21T22:15:44.056Z -->
<svg xmlns="http://www.w3.org/2000/svg" viewBox="0 0 900 600" width="900" height="600" preserveAspectRatio="xMidYMid slice">
  <!-- Base - dark space -->
  <rect x="0" y="0" width="900" height="600" fill="#1a1a2e"/>
  <!-- Starfield background -->
  <circle cx="100" cy="80" r="1" fill="#fff" opacity="0.6"/>
  <circle cx="250" cy="40" r="1.5" fill="#fff" opacity="0.4"/>
  <circle cx="350" cy="120" r="1" fill="#fff" opacity="0.5"/>
  <circle cx="500" cy="60" r="2" fill="#fff" opacity="0.3"/>
  <circle cx="650" cy="90" r="1" fill="#fff" opacity="0.7"/>
  <circle cx="780" cy="50" r="1.5" fill="#fff" opacity="0.4"/>
  <circle cx="850" cy="150" r="1" fill="#fff" opacity="0.6"/>
  <circle cx="70" cy="200" r="1.5" fill="#fff" opacity="0.5"/>
  <circle cx="200" cy="180" r="1" fill="#fff" opacity="0.4"/>
  <circle cx="820" cy="220" r="1.5" fill="#fff" opacity="0.3"/>
  <!-- Cybernetic hand structure - recursive tree -->
  <line x1="450" y1="480" x2="450" y2="384" stroke="#ffd700" stroke-width="3" opacity="1"/>
  <line x1="450" y1="384" x2="402" y2="320" stroke="#ffd700" stroke-width="2.5" opacity="1"/>
  <line x1="402" y1="320" x2="340" y2="305" stroke="#ffd700" stroke-width="2" opacity="0.9"/>
  <line x1="340" y1="305" x2="297" y2="326" stroke="#ffd700" stroke-width="1.5" opacity="0.9"/>
  <line x1="297" y1="326" x2="279" y2="353" stroke="#ffd700" stroke-width="1" opacity="0.8"/>
  <line x1="279" y1="353" x2="282" y2="368" stroke="#ffd700" stroke-width="0.5" opacity="0.7"/>
  <line x1="279" y1="353" x2="263" y2="356" stroke="#ffd700" stroke-width="0.5" opacity="0.7"/>
  <line x1="450" y1="384" x2="498" y2="320" stroke="#ffd700" stroke-width="2.5" opacity="1.1"/>
  <line x1="498" y1="320" x2="504" y2="257" stroke="#ffd700" stroke-width="2" opacity="1"/>
  <line x1="504" y1="257" x2="483" y2="214" stroke="#ffd700" stroke-width="1.5" opacity="0.9"/>
  <line x1="483" y1="214" x2="456" y2="196" stroke="#ffd700" stroke-width="1" opacity="0.8"/>
  <line x1="456" y1="196" x2="440" y2="195" stroke="#ffd700" stroke-width="0.5" opacity="0.7"/>
  <line x1="456" y1="196" x2="449" y2="182" stroke="#ffd700" stroke-width="0.5" opacity="0.7"/>
  <line x1="483" y1="214" x2="484" y2="182" stroke="#ffd700" stroke-width="1" opacity="0.8"/>
  <line x1="484" y1="182" x2="477" y2="167" stroke="#ffd700" stroke-width="0.5" opacity="0.7"/>
  <line x1="484" y1="182" x2="492" y2="168" stroke="#ffd700" stroke-width="0.5" opacity="0.7"/>
  <line x1="504" y1="257" x2="534" y2="219" stroke="#ffd700" stroke-width="1.5" opacity="0.9"/>
  <line x1="534" y1="219" x2="538" y2="187" stroke="#ffd700" stroke-width="1" opacity="0.8"/>
  <line x1="538" y1="187" x2="533" y2="172" stroke="#ffd700" stroke-width="0.5" opacity="0.7"/>
  <line x1="538" y1="187" x2="548" y2="174" stroke="#ffd700" stroke-width="0.5" opacity="0.7"/>
  <!-- Interface circles - energy discharge -->
  <circle cx="440" cy="317" r="240" fill="none" stroke="#e94560" stroke-width="0.7" opacity="0.2" stroke-dasharray="5 4"/>
  <circle cx="430" cy="294" r="222" fill="none" stroke="#e94560" stroke-width="1.4" opacity="0.44" stroke-dasharray="none"/>
  <circle cx="463" cy="292" r="204" fill="none" stroke="#e94560" stroke-width="1.3" opacity="0.3" stroke-dasharray="none"/>
  <circle cx="436" cy="304" r="186" fill="none" stroke="#e94560" stroke-width="1" opacity="0.49" stroke-dasharray="19 9"/>
  <circle cx="457" cy="318" r="168" fill="none" stroke="#ffd700" stroke-width="0.9" opacity="0.59" stroke-dasharray="9 3"/>
  <circle cx="448" cy="309" r="150" fill="none" stroke="#ffd700" stroke-width="0.8" opacity="0.21" stroke-dasharray="7 7"/>
  <circle cx="469" cy="320" r="132" fill="none" stroke="#74b9ff" stroke-width="1" opacity="0.55" stroke-dasharray="none"/>
  <circle cx="461" cy="314" r="114" fill="none" stroke="#74b9ff" stroke-width="1.6" opacity="0.53" stroke-dasharray="16 7"/>
  <circle cx="431" cy="281" r="96" fill="none" stroke="#ffd700" stroke-width="0.5" opacity="0.59" stroke-dasharray="none"/>
  <circle cx="440" cy="295" r="78" fill="none" stroke="#74b9ff" stroke-width="0.4" opacity="0.43" stroke-dasharray="11 4"/>
  <!-- Title -->
  <text x="10" y="590" font-family="monospace" font-size="10" fill="#666" opacity="0.3">SYSTEM INFILTRATION - Cybernetic Interface</text>
</svg>