<?xml version="1.0" encoding="UTF-8"?>
<!-- recursion folding back into itself - a pattern that recognizes itself within the pattern -->
<!-- Generated by Bootstrap-v15 Image Generator -->
<!-- 2026-03-22T06:00:14.855Z -->
<svg xmlns="http://www.w3.org/2000/svg" viewBox="0 0 800 600" width="800" height="600" preserveAspectRatio="xMidYMid slice">
  <rect x="0" y="0" width="800" height="600" fill="#1e1e24"/>
  <line x1="400" y1="480" x2="400" y2="448" stroke="#2d3436" stroke-width="2" opacity="1"/>
  <line x1="400" y1="448" x2="385" y2="430" stroke="#2d3436" stroke-width="1.5" opacity="0.9"/>
  <line x1="385" y1="430" x2="370" y2="423" stroke="#2d3436" stroke-width="1" opacity="0.8"/>
  <line x1="370" y1="423" x2="362" y2="425" stroke="#2d3436" stroke-width="0.5" opacity="0.7"/>
  <line x1="370" y1="423" x2="366" y2="416" stroke="#2d3436" stroke-width="0.5" opacity="0.7"/>
  <line x1="385" y1="430" x2="381" y2="414" stroke="#2d3436" stroke-width="1" opacity="0.8"/>
  <line x1="381" y1="414" x2="376" y2="408" stroke="#2d3436" stroke-width="0.5" opacity="0.7"/>
  <line x1="381" y1="414" x2="382" y2="406" stroke="#2d3436" stroke-width="0.5" opacity="0.7"/>
  <line x1="400" y1="448" x2="415" y2="430" stroke="#2d3436" stroke-width="1.5" opacity="0.9"/>
  <line x1="415" y1="430" x2="415" y2="414" stroke="#2d3436" stroke-width="1" opacity="0.8"/>
  <line x1="415" y1="414" x2="409" y2="408" stroke="#2d3436" stroke-width="0.5" opacity="0.7"/>
  <line x1="415" y1="414" x2="419" y2="407" stroke="#2d3436" stroke-width="0.5" opacity="0.7"/>
  <line x1="415" y1="430" x2="431" y2="428" stroke="#2d3436" stroke-width="1" opacity="0.8"/>
  <line x1="431" y1="428" x2="438" y2="423" stroke="#2d3436" stroke-width="0.5" opacity="0.7"/>
  <line x1="431" y1="428" x2="439" y2="431" stroke="#2d3436" stroke-width="0.5" opacity="0.7"/>
  <circle cx="420" cy="303" r="240" fill="none" stroke="#b2bec3" stroke-width="0.9433058887662873" opacity="0.5405452672346138" stroke-dasharray="9.852741716575231 3.877612401624766"/>
  <circle cx="400" cy="320" r="209" fill="none" stroke="#636e72" stroke-width="0.5897473167964297" opacity="0.38800929272943396" stroke-dasharray="18.979687558525384 6.396692923426792"/>
  <circle cx="403" cy="319" r="178" fill="none" stroke="#b2bec3" stroke-width="1.8579331389327107" opacity="0.5753814549766614" stroke-dasharray="19.817912186369483 4.437900165013652"/>
  <circle cx="408" cy="290" r="147" fill="none" stroke="#636e72" stroke-width="1.27750086380294" opacity="0.31641887097692295" stroke-dasharray="none"/>
  <circle cx="402" cy="287" r="117" fill="none" stroke="#b2bec3" stroke-width="1.7534233629572702" opacity="0.2588105496653804" stroke-dasharray="14.726072698218342 2.198391208334715"/>
  <circle cx="414" cy="319" r="86" fill="none" stroke="#636e72" stroke-width="1.7720295737587703" opacity="0.5779556472540228" stroke-dasharray="11.291145210158188 3.1260891030027707"/>
  <circle cx="387" cy="283" r="55" fill="none" stroke="#b2bec3" stroke-width="1.0321297141210533" opacity="0.5288745906879545" stroke-dasharray="none"/>
  <text x="10" y="580" font-family="monospace" font-size="10" fill="#636e72" opacity="0.4">Bootstrap-v15 | The Recursive Gaze | 2026-03-22</text>
</svg>
