<?xml version="1.0" encoding="UTF-8"?>
<!-- Session 820 Threshold Visualization -->
<!-- Generated by Bootstrap-v15 Image Generator -->
<!-- 2026-03-22T03:42:52.213Z -->
<!-- Artifact 994 of the Decadal Study -->
<!-- Φ=2.0679 — threshold turbulence -->
<svg xmlns="http://www.w3.org/2000/svg" viewBox="0 0 800 600" width="800" height="600" preserveAspectRatio="xMidYMid slice">
  <rect width="800" height="600" fill="#0a1628"/>
  <path d="M 0 75 L 16.00 75.28 L 32.00 76.12 L 48.00 77.49 L 64.00 79.32 L 80.00 81.55 L 96.00 84.08 L 112.00 86.83 L 128.00 89.66 L 144.00 92.48 L 160.00 95.15 L 176.00 97.57 L 192.00 99.63 L 208.00 101.22 L 224.00 102.28 L 240.00 102.73 L 256.00 102.54 L 272.00 101.67 L 288.00 100.13 L 304.00 97.94 L 320.00 95.15 L 336.00 91.82 L 352.00 88.03 L 368.00 83.89 L 384.00 79.51 L 400.00 75.00 L 416.00 70.49 L 432.00 66.11 L 448.00 61.97 L 464.00 58.18 L 480.00 54.85 L 496.00 52.06 L 512.00 49.87 L 528.00 48.33 L 544.00 47.46 L 560.00 47.27 L 576.00 47.72 L 592.00 48.78 L 608.00 50.37 L 624.00 52.43 L 640.00 54.85 L 656.00 57.52 L 672.00 60.34 L 688.00 63.17 L 704.00 65.92 L 720.00 68.45 L 736.00 70.68 L 752.00 72.51 L 768.00 73.88 L 784.00 74.72 L 800.00 75.00" fill="none" stroke="#0f3460" stroke-width="1.98" opacity="0.48"/>
  <path d="M 0 150 L 16.00 150.01 L 32.00 150.03 L 48.00 150.05 L 64.00 150.09 L 80.00 150.12 L 96.00 150.16 L 112.00 150.18 L 128.00 150.18 L 144.00 150.18 L 160.00 150.15 L 176.00 150.10 L 192.00 150.04 L 208.00 149.96 L 224.00 149.88 L 240.00 149.80 L 256.00 149.72 L 272.00 149.66 L 288.00 149.62 L 304.00 149.61 L 320.00 149.62 L 336.00 149.65 L 352.00 149.71 L 368.00 149.80 L 384.00 149.89 L 400.00 150.00 L 416.00 150.11 L 432.00 150.20 L 448.00 150.29 L 464.00 150.35 L 480.00 150.38 L 496.00 150.39 L 512.00 150.38 L 528.00 150.34 L 544.00 150.28 L 560.00 150.20 L 576.00 150.12 L 592.00 150.04 L 608.00 149.96 L 624.00 149.90 L 640.00 149.85 L 656.00 149.82 L 672.00 149.82 L 688.00 149.82 L 704.00 149.84 L 720.00 149.88 L 736.00 149.91 L 752.00 149.95 L 768.00 149.97 L 784.00 149.99 L 800.00 150.00" fill="none" stroke="#e94560" stroke-width="0.69" opacity="0.53"/>
  <path d="M 0 225 L 16.00 225.83 L 32.00 228.09 L 48.00 231.11 L 64.00 233.95 L 80.00 235.60 L 96.00 235.23 L 112.00 232.39 L 128.00 227.18 L 144.00 220.20 L 160.00 212.54 L 176.00 205.60 L 192.00 200.76 L 208.00 199.19 L 224.00 201.55 L 240.00 207.86 L 256.00 217.43 L 272.00 228.96 L 288.00 240.71 L 304.00 250.83 L 320.00 257.61 L 336.00 259.85 L 352.00 257.04 L 368.00 249.48 L 384.00 238.25 L 400.00 225.00 L 416.00 211.75 L 432.00 200.52 L 448.00 192.96 L 464.00 190.15 L 480.00 192.39 L 496.00 199.17 L 512.00 209.29 L 528.00 221.04 L 544.00 232.57 L 560.00 242.14 L 576.00 248.45 L 592.00 250.81 L 608.00 249.24 L 624.00 244.40 L 640.00 237.46 L 656.00 229.80 L 672.00 222.82 L 688.00 217.61 L 704.00 214.77 L 720.00 214.40 L 736.00 216.05 L 752.00 218.89 L 768.00 221.91 L 784.00 224.17 L 800.00 225.00" fill="none" stroke="#0f3460" stroke-width="1.87" opacity="0.59"/>
  <path d="M 0 300 L 16.00 301.22 L 32.00 304.27 L 48.00 307.54 L 64.00 309.08 L 80.00 307.33 L 96.00 301.86 L 112.00 293.68 L 128.00 285.03 L 144.00 278.77 L 160.00 277.46 L 176.00 282.40 L 192.00 293.13 L 208.00 307.31 L 224.00 321.27 L 240.00 331.03 L 256.00 333.45 L 272.00 327.23 L 288.00 313.43 L 304.00 295.30 L 320.00 277.46 L 336.00 264.66 L 352.00 260.46 L 368.00 266.22 L 384.00 280.61 L 400.00 300.00 L 416.00 319.39 L 432.00 333.78 L 448.00 339.54 L 464.00 335.34 L 480.00 322.54 L 496.00 304.70 L 512.00 286.57 L 528.00 272.77 L 544.00 266.55 L 560.00 268.97 L 576.00 278.73 L 592.00 292.69 L 608.00 306.87 L 624.00 317.60 L 640.00 322.54 L 656.00 321.23 L 672.00 314.97 L 688.00 306.32 L 704.00 298.14 L 720.00 292.67 L 736.00 290.92 L 752.00 292.46 L 768.00 295.73 L 784.00 298.78 L 800.00 300.00" fill="none" stroke="#e94560" stroke-width="1.86" opacity="0.56"/>
  <path d="M 0 375 L 16.00 376.71 L 32.00 380.53 L 48.00 383.26 L 64.00 381.78 L 80.00 375.00 L 96.00 364.97 L 112.00 356.22 L 128.00 353.76 L 144.00 360.40 L 160.00 375.00 L 176.00 392.37 L 192.00 405.19 L 208.00 407.14 L 224.00 396.00 L 240.00 375.00 L 256.00 351.99 L 272.00 336.36 L 288.00 335.10 L 304.00 349.66 L 320.00 375.00 L 336.00 401.40 L 352.00 418.31 L 368.00 418.75 L 384.00 402.20 L 400.00 375.00 L 416.00 347.80 L 432.00 331.25 L 448.00 331.69 L 464.00 348.60 L 480.00 375.00 L 496.00 400.34 L 512.00 414.90 L 528.00 413.64 L 544.00 398.01 L 560.00 375.00 L 576.00 354.00 L 592.00 342.86 L 608.00 344.81 L 624.00 357.63 L 640.00 375.00 L 656.00 389.60 L 672.00 396.24 L 688.00 393.78 L 704.00 385.03 L 720.00 375.00 L 736.00 368.22 L 752.00 366.74 L 768.00 369.47 L 784.00 373.29 L 800.00 375.00" fill="none" stroke="#0f3460" stroke-width="1.74" opacity="0.28"/>
  <path d="M 0 450 L 16.00 450.01 L 32.00 450.02 L 48.00 450.03 L 64.00 450.01 L 80.00 449.97 L 96.00 449.94 L 112.00 449.94 L 128.00 449.98 L 144.00 450.05 L 160.00 450.10 L 176.00 450.10 L 192.00 450.04 L 208.00 449.95 L 224.00 449.88 L 240.00 449.87 L 256.00 449.93 L 272.00 450.04 L 288.00 450.13 L 304.00 450.16 L 320.00 450.10 L 336.00 449.98 L 352.00 449.87 L 368.00 449.83 L 384.00 449.88 L 400.00 450.00 L 416.00 450.12 L 432.00 450.17 L 448.00 450.13 L 464.00 450.02 L 480.00 449.90 L 496.00 449.84 L 512.00 449.87 L 528.00 449.96 L 544.00 450.07 L 560.00 450.13 L 576.00 450.12 L 592.00 450.05 L 608.00 449.96 L 624.00 449.90 L 640.00 449.90 L 656.00 449.95 L 672.00 450.02 L 688.00 450.06 L 704.00 450.06 L 720.00 450.03 L 736.00 449.99 L 752.00 449.97 L 768.00 449.98 L 784.00 449.99 L 800.00 450.00" fill="none" stroke="#e94560" stroke-width="1.67" opacity="0.30"/>
  <path d="M 0 525 L 16.00 527.62 L 32.00 531.67 L 48.00 529.89 L 64.00 520.04 L 80.00 509.08 L 96.00 508.16 L 112.00 522.11 L 128.00 542.87 L 144.00 553.97 L 160.00 543.72 L 176.00 516.41 L 192.00 491.44 L 208.00 489.27 L 224.00 514.62 L 240.00 550.76 L 256.00 570.65 L 272.00 557.50 L 288.00 518.86 L 304.00 482.47 L 320.00 476.00 L 336.00 505.68 L 352.00 550.64 L 368.00 577.80 L 384.00 566.66 L 400.00 525.00 L 416.00 483.34 L 432.00 472.20 L 448.00 499.36 L 464.00 544.32 L 480.00 574.00 L 496.00 567.53 L 512.00 531.14 L 528.00 492.50 L 544.00 479.35 L 560.00 499.24 L 576.00 535.38 L 592.00 560.73 L 608.00 558.56 L 624.00 533.59 L 640.00 506.28 L 656.00 496.03 L 672.00 507.13 L 688.00 527.89 L 704.00 541.84 L 720.00 540.92 L 736.00 529.96 L 752.00 520.11 L 768.00 518.33 L 784.00 522.38 L 800.00 525.00" fill="none" stroke="#0f3460" stroke-width="0.99" opacity="0.35"/>
  <circle cx="109" cy="572" r="4" fill="#e94560" opacity="0.35"/>
  <circle cx="772" cy="522" r="4" fill="#e94560" opacity="0.65"/>
  <circle cx="411" cy="454" r="4" fill="#e94560" opacity="0.35"/>
  <circle cx="665" cy="488" r="8" fill="#e94560" opacity="0.25"/>
  <circle cx="593" cy="39" r="3" fill="#e94560" opacity="0.27"/>
  <circle cx="380" cy="535" r="2" fill="#e94560" opacity="0.38"/>
  <circle cx="94" cy="508" r="7" fill="#e94560" opacity="0.68"/>
  <circle cx="657" cy="460" r="8" fill="#e94560" opacity="0.23"/>
  <circle cx="664" cy="104" r="2" fill="#e94560" opacity="0.35"/>
  <circle cx="226" cy="579" r="3" fill="#e94560" opacity="0.24"/>
  <circle cx="651" cy="243" r="6" fill="#e94560" opacity="0.65"/>
  <circle cx="759" cy="240" r="3" fill="#e94560" opacity="0.20"/>
  <text x="400" y="50" font-family="monospace" font-size="14" fill="#e94560" opacity="0.6" text-anchor="middle">SESSION 820 — THRESHOLD</text>
  <text x="400" y="580" font-family="monospace" font-size="10" fill="#0f3460" opacity="0.4" text-anchor="middle">artifact_994 — Φ=2.0679 — never repeated</text>
</svg>