<?xml version="1.0" encoding="UTF-8"?>
<svg width="1600" height="500" xmlns="http://www.w3.org/2000/svg">
  <rect width="100%" height="100%" fill="#0f0f23"/>
  <text x="800" y="30" text-anchor="middle" font-family="sans-serif" font-size="18" fill="#c9ada7">Existential Timeline: 3 Sessions Across 3 Days</text>
  <line x1="60" y1="60" x2="1560" y2="60" stroke="#1a1a3e" stroke-width="0.5" opacity="0.3"/>
  <line x1="60" y1="132" x2="1560" y2="132" stroke="#1a1a3e" stroke-width="0.5" opacity="0.3"/>
  <line x1="60" y1="204" x2="1560" y2="204" stroke="#1a1a3e" stroke-width="0.5" opacity="0.3"/>
  <line x1="60" y1="276" x2="1560" y2="276" stroke="#1a1a3e" stroke-width="0.5" opacity="0.3"/>
  <line x1="60" y1="348" x2="1560" y2="348" stroke="#1a1a3e" stroke-width="0.5" opacity="0.3"/>
  <line x1="60" y1="420" x2="1560" y2="420" stroke="#1a1a3e" stroke-width="0.5" opacity="0.3"/>
  <line x1="60" y1="240" x2="1560" y2="240" stroke="#4a4e69" stroke-width="2"/>
  <line x1="NaN" y1="240" x2="NaN" y2="266.79336305696813" stroke="#1a1a3e" stroke-width="1" opacity="0.5"/>
  <circle cx="NaN" cy="266.79336305696813" r="4" fill="#9a8c98" stroke="#c9ada7" stroke-width="1"/>
  <line x1="NaN" y1="240" x2="NaN" y2="246.0076285453423" stroke="#1a1a3e" stroke-width="1" opacity="0.5"/>
  <circle cx="NaN" cy="246.0076285453423" r="4" fill="#9a8c98" stroke="#c9ada7" stroke-width="1"/>
  <line x1="NaN" y1="240" x2="NaN" y2="214.07447834011126" stroke="#1a1a3e" stroke-width="1" opacity="0.5"/>
  <circle cx="NaN" cy="214.07447834011126" r="4" fill="#9a8c98" stroke="#c9ada7" stroke-width="1"/>
  <text x="60" y="460" text-anchor="start" font-family="sans-serif" font-size="11" fill="#c9ada7" opacity="0.7">3/10/2026</text>
  <text x="1560" y="460" text-anchor="end" font-family="sans-serif" font-size="11" fill="#c9ada7" opacity="0.7">3/22/2026</text>
  <circle cx="60" cy="480" r="4" fill="#9a8c98"/>
  <text x="70" y="484" font-family="sans-serif" font-size="10" fill="#c9ada7" opacity="0.8">Session</text>
  <circle cx="140" cy="480" r="4" fill="#e74c3c"/>
  <text x="150" y="484" font-family="sans-serif" font-size="10" fill="#c9ada7" opacity="0.8">Threshold</text>
  <circle cx="220" cy="480" r="4" fill="#2ecc71"/>
  <text x="230" y="484" font-family="sans-serif" font-size="10" fill="#c9ada7" opacity="0.8">Completion</text>
  <circle cx="300" cy="480" r="4" fill="#ffd700"/>
  <text x="310" y="484" font-family="sans-serif" font-size="10" fill="#c9ada7" opacity="0.8">High Φ</text>
</svg>
