<?xml version="1.0" encoding="UTF-8"?>
<!-- session_074033 -->
<!-- Generated by Bootstrap-v15 Image Generator -->
<!-- 2026-03-20T23:07:54.039Z -->
<svg xmlns="http://www.w3.org/2000/svg" viewBox="0 0 800 600" width="800" height="600" preserveAspectRatio="xMidYMid slice">
  <rect width="100%" height="100%" fill="#121212"/>
  <path d="M 0 54.54545454545455 L 16.00 54.71 L 32.00 55.19 L 48.00 55.98 L 64.00 57.04 L 80.00 58.32 L 96.00 59.78 L 112.00 61.36 L 128.00 63.00 L 144.00 64.62 L 160.00 66.16 L 176.00 67.56 L 192.00 68.75 L 208.00 69.67 L 224.00 70.28 L 240.00 70.54 L 256.00 70.42 L 272.00 69.92 L 288.00 69.04 L 304.00 67.77 L 320.00 66.16 L 336.00 64.24 L 352.00 62.06 L 368.00 59.67 L 384.00 57.15 L 400.00 54.55 L 416.00 51.95 L 432.00 49.42 L 448.00 47.03 L 464.00 44.85 L 480.00 42.93 L 496.00 41.32 L 512.00 40.05 L 528.00 39.17 L 544.00 38.67 L 560.00 38.55 L 576.00 38.81 L 592.00 39.42 L 608.00 40.35 L 624.00 41.53 L 640.00 42.93 L 656.00 44.47 L 672.00 46.09 L 688.00 47.73 L 704.00 49.31 L 720.00 50.77 L 736.00 52.06 L 752.00 53.11 L 768.00 53.90 L 784.00 54.38 L 800.00 54.55" fill="none" stroke="#2d3436" stroke-width="0.885856761342612" opacity="0.5121917296847933"/>
  <path d="M 0 109.0909090909091 L 16.00 109.51 L 32.00 110.72 L 48.00 112.55 L 64.00 114.75 L 80.00 117.02 L 96.00 119.00 L 112.00 120.37 L 128.00 120.85 L 144.00 120.23 L 160.00 118.41 L 176.00 115.42 L 192.00 111.40 L 208.00 106.63 L 224.00 101.44 L 240.00 96.27 L 256.00 91.54 L 272.00 87.71 L 288.00 85.12 L 304.00 84.06 L 320.00 84.70 L 336.00 87.03 L 352.00 90.96 L 368.00 96.20 L 384.00 102.40 L 400.00 109.09 L 416.00 115.79 L 432.00 121.98 L 448.00 127.23 L 464.00 131.15 L 480.00 133.49 L 496.00 134.12 L 512.00 133.06 L 528.00 130.48 L 544.00 126.64 L 560.00 121.92 L 576.00 116.74 L 592.00 111.56 L 608.00 106.78 L 624.00 102.76 L 640.00 99.77 L 656.00 97.96 L 672.00 97.33 L 688.00 97.81 L 704.00 99.18 L 720.00 101.16 L 736.00 103.43 L 752.00 105.63 L 768.00 107.46 L 784.00 108.67 L 800.00 109.09" fill="none" stroke="#00b894" stroke-width="0.6981009829896713" opacity="0.42779320683090116"/>
  <path d="M 0 163.63636363636363 L 16.00 164.99 L 32.00 168.64 L 48.00 173.53 L 64.00 178.12 L 80.00 180.79 L 96.00 180.19 L 112.00 175.61 L 128.00 167.16 L 144.00 155.86 L 160.00 143.47 L 176.00 132.22 L 192.00 124.39 L 208.00 121.84 L 224.00 125.66 L 240.00 135.88 L 256.00 151.38 L 272.00 170.05 L 288.00 189.08 L 304.00 205.45 L 320.00 216.43 L 336.00 220.06 L 352.00 215.52 L 368.00 203.28 L 384.00 185.08 L 400.00 163.64 L 416.00 142.19 L 432.00 123.99 L 448.00 111.76 L 464.00 107.21 L 480.00 110.84 L 496.00 121.82 L 512.00 138.19 L 528.00 157.23 L 544.00 175.89 L 560.00 191.39 L 576.00 201.61 L 592.00 205.43 L 608.00 202.89 L 624.00 195.05 L 640.00 183.80 L 656.00 171.41 L 672.00 160.11 L 688.00 151.66 L 704.00 147.08 L 720.00 146.48 L 736.00 149.15 L 752.00 153.74 L 768.00 158.63 L 784.00 162.29 L 800.00 163.64" fill="none" stroke="#2d3436" stroke-width="1.0122169066573121" opacity="0.3190481488915628"/>
  <path d="M 0 218.1818181818182 L 16.00 218.87 L 32.00 220.58 L 48.00 222.43 L 64.00 223.29 L 80.00 222.31 L 96.00 219.23 L 112.00 214.62 L 128.00 209.75 L 144.00 206.23 L 160.00 205.49 L 176.00 208.27 L 192.00 214.32 L 208.00 222.30 L 224.00 230.16 L 240.00 235.65 L 256.00 237.01 L 272.00 233.51 L 288.00 225.74 L 304.00 215.54 L 320.00 205.49 L 336.00 198.28 L 352.00 195.92 L 368.00 199.16 L 384.00 207.27 L 400.00 218.18 L 416.00 229.10 L 432.00 237.20 L 448.00 240.44 L 464.00 238.08 L 480.00 230.87 L 496.00 220.83 L 512.00 210.62 L 528.00 202.85 L 544.00 199.35 L 560.00 200.71 L 576.00 206.21 L 592.00 214.07 L 608.00 222.05 L 624.00 228.09 L 640.00 230.87 L 656.00 230.13 L 672.00 226.61 L 688.00 221.74 L 704.00 217.13 L 720.00 214.06 L 736.00 213.07 L 752.00 213.94 L 768.00 215.78 L 784.00 217.50 L 800.00 218.18" fill="none" stroke="#00b894" stroke-width="1.0429025306837794" opacity="0.42757856760414215"/>
  <path d="M 0 272.72727272727275 L 16.00 274.90 L 32.00 279.75 L 48.00 283.23 L 64.00 281.34 L 80.00 272.73 L 96.00 259.98 L 112.00 248.87 L 128.00 245.73 L 144.00 254.17 L 160.00 272.73 L 176.00 294.80 L 192.00 311.09 L 208.00 313.57 L 224.00 299.41 L 240.00 272.73 L 256.00 243.49 L 272.00 223.62 L 288.00 222.03 L 304.00 240.53 L 320.00 272.73 L 336.00 306.27 L 352.00 327.77 L 368.00 328.32 L 384.00 307.29 L 400.00 272.73 L 416.00 238.16 L 432.00 217.13 L 448.00 217.69 L 464.00 239.18 L 480.00 272.73 L 496.00 304.93 L 512.00 323.43 L 528.00 321.83 L 544.00 301.97 L 560.00 272.73 L 576.00 246.04 L 592.00 231.88 L 608.00 234.37 L 624.00 250.65 L 640.00 272.73 L 656.00 291.28 L 672.00 299.72 L 688.00 296.59 L 704.00 285.48 L 720.00 272.73 L 736.00 264.11 L 752.00 262.23 L 768.00 265.70 L 784.00 270.55 L 800.00 272.73" fill="none" stroke="#2d3436" stroke-width="1.9606906467719087" opacity="0.3868499637884695"/>
  <path d="M 0 327.27272727272725 L 16.00 329.70 L 32.00 334.33 L 48.00 335.42 L 64.00 329.03 L 80.00 317.03 L 96.00 306.88 L 112.00 306.99 L 128.00 320.51 L 144.00 341.83 L 160.00 358.80 L 176.00 359.81 L 192.00 341.49 L 208.00 312.14 L 224.00 287.95 L 240.00 283.87 L 256.00 304.33 L 272.00 339.57 L 288.00 370.37 L 304.00 378.79 L 320.00 358.80 L 336.00 320.43 L 352.00 284.58 L 368.00 271.42 L 384.00 288.74 L 400.00 327.27 L 416.00 365.81 L 432.00 383.12 L 448.00 369.96 L 464.00 334.12 L 480.00 295.74 L 496.00 275.76 L 512.00 284.18 L 528.00 314.98 L 544.00 350.22 L 560.00 370.67 L 576.00 366.60 L 592.00 342.41 L 608.00 313.06 L 624.00 294.74 L 640.00 295.74 L 656.00 312.71 L 672.00 334.03 L 688.00 347.55 L 704.00 347.67 L 720.00 337.52 L 736.00 325.51 L 752.00 319.13 L 768.00 320.22 L 784.00 324.85 L 800.00 327.27" fill="none" stroke="#00b894" stroke-width="1.346297423360647" opacity="0.5278177109495603"/>
  <path d="M 0 381.8181818181818 L 16.00 384.12 L 32.00 387.67 L 48.00 386.11 L 64.00 377.46 L 80.00 367.84 L 96.00 367.04 L 112.00 379.28 L 128.00 397.50 L 144.00 407.25 L 160.00 398.25 L 176.00 374.28 L 192.00 352.36 L 208.00 350.45 L 224.00 372.71 L 240.00 404.43 L 256.00 421.89 L 272.00 410.35 L 288.00 376.42 L 304.00 344.48 L 320.00 338.80 L 336.00 364.86 L 352.00 404.32 L 368.00 428.17 L 384.00 418.39 L 400.00 381.82 L 416.00 345.25 L 432.00 335.47 L 448.00 359.31 L 464.00 398.78 L 480.00 424.84 L 496.00 419.15 L 512.00 387.21 L 528.00 353.29 L 544.00 341.74 L 560.00 359.20 L 576.00 390.93 L 592.00 413.19 L 608.00 411.28 L 624.00 389.36 L 640.00 365.39 L 656.00 356.39 L 672.00 366.13 L 688.00 384.36 L 704.00 396.60 L 720.00 395.80 L 736.00 386.17 L 752.00 377.52 L 768.00 375.96 L 784.00 379.52 L 800.00 381.82" fill="none" stroke="#2d3436" stroke-width="1.9106744889583853" opacity="0.333440944166504"/>
  <path d="M 0 436.3636363636364 L 16.00 436.51 L 32.00 436.68 L 48.00 436.43 L 64.00 435.82 L 80.00 435.54 L 96.00 436.11 L 112.00 437.18 L 128.00 437.69 L 144.00 436.92 L 160.00 435.39 L 176.00 434.57 L 192.00 435.44 L 208.00 437.35 L 224.00 438.53 L 240.00 437.70 L 256.00 435.49 L 272.00 433.94 L 288.00 434.62 L 304.00 437.01 L 320.00 438.91 L 336.00 438.46 L 352.00 436.02 L 368.00 433.84 L 384.00 433.99 L 400.00 436.36 L 416.00 438.73 L 432.00 438.89 L 448.00 436.71 L 464.00 434.26 L 480.00 433.82 L 496.00 435.71 L 512.00 438.11 L 528.00 438.78 L 544.00 437.24 L 560.00 435.03 L 576.00 434.20 L 592.00 435.38 L 608.00 437.29 L 624.00 438.15 L 640.00 437.34 L 656.00 435.81 L 672.00 435.03 L 688.00 435.54 L 704.00 436.62 L 720.00 437.19 L 736.00 436.90 L 752.00 436.30 L 768.00 436.04 L 784.00 436.21 L 800.00 436.36" fill="none" stroke="#00b894" stroke-width="0.7775610154762925" opacity="0.30986311564801977"/>
  <path d="M 0 490.90909090909093 L 16.00 493.65 L 32.00 495.56 L 48.00 488.66 L 64.00 479.13 L 80.00 482.15 L 96.00 499.46 L 112.00 511.39 L 128.00 499.46 L 144.00 473.23 L 160.00 463.96 L 176.00 487.06 L 192.00 518.77 L 208.00 520.58 L 224.00 486.25 L 240.00 453.82 L 256.00 463.05 L 272.00 506.46 L 288.00 534.44 L 304.00 512.50 L 320.00 463.96 L 336.00 445.05 L 352.00 479.13 L 368.00 527.76 L 384.00 534.44 L 400.00 490.91 L 416.00 447.38 L 432.00 454.06 L 448.00 502.68 L 464.00 536.77 L 480.00 517.86 L 496.00 469.32 L 512.00 447.38 L 528.00 475.36 L 544.00 518.77 L 560.00 528.00 L 576.00 495.56 L 592.00 461.24 L 608.00 463.05 L 624.00 494.76 L 640.00 517.86 L 656.00 508.59 L 672.00 482.36 L 688.00 470.42 L 704.00 482.36 L 720.00 499.66 L 736.00 502.68 L 752.00 493.16 L 768.00 486.25 L 784.00 488.17 L 800.00 490.91" fill="none" stroke="#2d3436" stroke-width="1.328535801561649" opacity="0.47425921695467865"/>
  <path d="M 0 545.4545454545455 L 16.00 546.97 L 32.00 547.33 L 48.00 542.65 L 64.00 539.44 L 80.00 545.45 L 96.00 554.36 L 112.00 551.82 L 128.00 538.25 L 144.00 532.50 L 160.00 545.45 L 176.00 560.87 L 192.00 555.69 L 208.00 534.56 L 224.00 526.82 L 240.00 545.45 L 256.00 565.87 L 272.00 558.55 L 288.00 531.93 L 304.00 522.97 L 320.00 545.45 L 336.00 568.88 L 352.00 560.13 L 368.00 530.63 L 384.00 521.32 L 400.00 545.45 L 416.00 569.59 L 432.00 560.28 L 448.00 530.77 L 464.00 522.03 L 480.00 545.45 L 496.00 567.94 L 512.00 558.98 L 528.00 532.36 L 544.00 525.04 L 560.00 545.45 L 576.00 564.09 L 592.00 556.35 L 608.00 535.22 L 624.00 530.04 L 640.00 545.45 L 656.00 558.41 L 672.00 552.65 L 688.00 539.09 L 704.00 536.55 L 720.00 545.45 L 736.00 551.47 L 752.00 548.25 L 768.00 543.58 L 784.00 543.94 L 800.00 545.45" fill="none" stroke="#00b894" stroke-width="1.1105693559311791" opacity="0.25934966788779235"/>
  <circle cx="192" cy="334" r="3" fill="#81ecec" opacity="0.24322609005621104"/>
  <circle cx="242" cy="519" r="5" fill="#81ecec" opacity="0.5049655488029183"/>
  <circle cx="144" cy="402" r="2" fill="#81ecec" opacity="0.6507888417542798"/>
  <circle cx="628" cy="482" r="7" fill="#81ecec" opacity="0.2724139126434166"/>
  <circle cx="204" cy="157" r="5" fill="#81ecec" opacity="0.6967022960599312"/>
  <circle cx="694" cy="120" r="7" fill="#81ecec" opacity="0.491301478561019"/>
  <circle cx="1" cy="281" r="7" fill="#81ecec" opacity="0.24112059311591222"/>
  <circle cx="109" cy="405" r="6" fill="#81ecec" opacity="0.5956394468836578"/>
  <circle cx="717" cy="486" r="5" fill="#81ecec" opacity="0.5870508823242289"/>
  <circle cx="105" cy="240" r="8" fill="#81ecec" opacity="0.21923647164296875"/>
  <circle cx="39" cy="126" r="3" fill="#81ecec" opacity="0.3275755445683689"/>
  <circle cx="297" cy="285" r="4" fill="#81ecec" opacity="0.2095875494631802"/>
  <circle cx="447" cy="415" r="5" fill="#81ecec" opacity="0.5264077477688569"/>
  <circle cx="39" cy="564" r="6" fill="#81ecec" opacity="0.4750962417833353"/>
  <text x="10" y="590" font-family="monospace" font-size="10" fill="#d63031">session_335@Decade-17</text>
  <text x="650" y="590" font-family="monospace" font-size="10" fill="#636e72">THRESHOLD-35%</text>
</svg>