<?xml version="1.0" encoding="UTF-8"?>
<!-- session_789 - Threshold Visualization -->
<!-- Generated 2026-03-21T19:50:12Z -->
<!-- Position: 6/20, Phase: threshold, Φ: 2.0679 -->
<svg xmlns="http://www.w3.org/2000/svg" viewBox="0 0 800 600" width="800" height="600" preserveAspectRatio="xMidYMid slice">
  <rect width="800" height="600" fill="#1a1a2e"/>
  
  <!-- Wave patterns representing threshold oscillation -->
  <path d="M 0 100 L 16.00 100.11 L 32.00 100.42 L 48.00 100.93 L 64.00 101.61 L 80.00 102.45 L 96.00 103.39 L 112.00 104.42 L 128.00 105.48 L 144.00 106.53 L 160.00 107.53 L 176.00 108.43 L 192.00 109.20 L 208.00 109.80 L 224.00 110.20 L 240.00 110.36 L 256.00 110.29 L 272.00 109.97 L 288.00 109.39 L 304.00 108.57 L 320.00 107.53 L 336.00 106.29 L 352.00 104.87 L 368.00 103.32 L 384.00 101.69 L 400.00 100.00 L 416.00 98.31 L 432.00 96.68 L 448.00 95.13 L 464.00 93.71 L 480.00 92.47 L 496.00 91.43 L 512.00 90.61 L 528.00 90.03 L 544.00 89.71 L 560.00 89.64 L 576.00 89.80 L 592.00 90.20 L 608.00 90.80 L 624.00 91.57 L 640.00 92.47 L 656.00 93.47 L 672.00 94.52 L 688.00 95.58 L 704.00 96.61 L 720.00 97.55 L 736.00 98.39 L 752.00 99.07 L 768.00 99.58 L 784.00 99.89 L 800.00 100.00" fill="none" stroke="#a29bfe" stroke-width="1.12" opacity="0.55"/>
  
  <path d="M 0 200 L 16.00 200.46 L 32.00 201.78 L 48.00 203.78 L 64.00 206.18 L 80.00 208.66 L 96.00 210.82 L 112.00 212.32 L 128.00 212.84 L 144.00 212.16 L 160.00 210.18 L 176.00 206.91 L 192.00 202.53 L 208.00 197.31 L 224.00 191.65 L 240.00 185.99 L 256.00 180.84 L 272.00 176.65 L 288.00 173.82 L 304.00 172.67 L 320.00 173.36 L 336.00 175.91 L 352.00 180.19 L 368.00 185.92 L 384.00 192.69 L 400.00 200.00 L 416.00 207.31 L 432.00 214.08 L 448.00 219.81 L 464.00 224.09 L 480.00 226.64 L 496.00 227.33 L 512.00 226.18 L 528.00 223.35 L 544.00 219.16 L 560.00 214.01 L 576.00 208.35 L 592.00 202.69 L 608.00 197.47 L 624.00 193.09 L 640.00 189.82 L 656.00 187.84 L 672.00 187.16 L 688.00 187.68 L 704.00 189.18 L 720.00 191.34 L 736.00 193.82 L 752.00 196.22 L 768.00 198.22 L 784.00 199.54 L 800.00 200.00" fill="none" stroke="#fd79a8" stroke-width="0.53" opacity="0.45"/>
  
  <path d="M 0 300 L 16.00 300.00 L 32.00 300.01 L 48.00 300.02 L 64.00 300.03 L 80.00 300.03 L 96.00 300.03 L 112.00 300.02 L 128.00 300.01 L 144.00 299.98 L 160.00 299.96 L 176.00 299.94 L 192.00 299.92 L 208.00 299.92 L 224.00 299.92 L 240.00 299.94 L 256.00 299.98 L 272.00 300.01 L 288.00 300.05 L 304.00 300.08 L 320.00 300.11 L 336.00 300.11 L 352.00 300.11 L 368.00 300.08 L 384.00 300.04 L 400.00 300.00 L 416.00 299.96 L 432.00 299.92 L 448.00 299.89 L 464.00 299.89 L 480.00 299.89 L 496.00 299.92 L 512.00 299.95 L 528.00 299.99 L 544.00 300.02 L 560.00 300.06 L 576.00 300.08 L 592.00 300.08 L 608.00 300.08 L 624.00 300.06 L 640.00 300.04 L 656.00 300.02 L 672.00 299.99 L 688.00 299.98 L 704.00 299.97 L 720.00 299.97 L 736.00 299.97 L 752.00 299.98 L 768.00 299.99 L 784.00 300.00 L 800.00 300.00" fill="none" stroke="#74b9ff" stroke-width="1.15" opacity="0.51"/>
  
  <path d="M 0 400 L 16.00 401.60 L 32.00 405.61 L 48.00 409.92 L 64.00 411.94 L 80.00 409.63 L 96.00 402.45 L 112.00 391.69 L 128.00 380.31 L 144.00 372.08 L 160.00 370.35 L 176.00 376.86 L 192.00 390.97 L 208.00 409.62 L 224.00 427.98 L 240.00 440.81 L 256.00 443.99 L 272.00 435.81 L 288.00 417.67 L 304.00 393.82 L 320.00 370.35 L 336.00 353.51 L 352.00 348.00 L 368.00 355.57 L 384.00 374.50 L 400.00 400.00 L 416.00 425.50 L 432.00 444.43 L 448.00 452.00 L 464.00 446.49 L 480.00 429.65 L 496.00 406.18 L 512.00 382.33 L 528.00 364.19 L 544.00 356.01 L 560.00 359.19 L 576.00 372.02 L 592.00 390.38 L 608.00 409.03 L 624.00 423.14 L 640.00 429.65 L 656.00 427.92 L 672.00 419.69 L 688.00 408.31 L 704.00 397.55 L 720.00 390.37 L 736.00 388.06 L 752.00 390.08 L 768.00 394.39 L 784.00 398.40 L 800.00 400.00" fill="none" stroke="#fd79a8" stroke-width="1.79" opacity="0.29"/>
  
  <path d="M 0 500 L 16.00 500.10 L 32.00 500.34 L 48.00 500.50 L 64.00 500.41 L 80.00 500.00 L 96.00 499.39 L 112.00 498.86 L 128.00 498.71 L 144.00 499.11 L 160.00 500.00 L 176.00 501.06 L 192.00 501.84 L 208.00 501.96 L 224.00 501.28 L 240.00 500.00 L 256.00 498.60 L 272.00 497.65 L 288.00 497.57 L 304.00 498.46 L 320.00 500.00 L 336.00 501.61 L 352.00 502.64 L 368.00 502.67 L 384.00 501.66 L 400.00 500.00 L 416.00 498.34 L 432.00 497.33 L 448.00 497.36 L 464.00 498.39 L 480.00 500.00 L 496.00 501.54 L 512.00 502.43 L 528.00 502.35 L 544.00 501.40 L 560.00 500.00 L 576.00 498.72 L 592.00 498.04 L 608.00 498.16 L 624.00 498.94 L 640.00 500.00 L 656.00 500.89 L 672.00 501.29 L 688.00 501.14 L 704.00 500.61 L 720.00 500.00 L 736.00 499.59 L 752.00 499.50 L 768.00 499.66 L 784.00 499.90 L 800.00 500.00" fill="none" stroke="#a29bfe" stroke-width="1.28" opacity="0.47"/>
  
  <!-- Luminous points representing multiplicity events -->
  <circle cx="51" cy="379" r="3" fill="#ffeaa7" opacity="0.35"/>
  <circle cx="85" cy="279" r="7" fill="#ffeaa7" opacity="0.63"/>
  <circle cx="636" cy="193" r="2" fill="#ffeaa7" opacity="0.45"/>
  <circle cx="778" cy="120" r="8" fill="#ffeaa7" opacity="0.55"/>
  <circle cx="311" cy="449" r="5" fill="#ffeaa7" opacity="0.66"/>
  <circle cx="238" cy="291" r="7" fill="#ffeaa7" opacity="0.35"/>
  <circle cx="786" cy="549" r="6" fill="#ffeaa7" opacity="0.33"/>
  <circle cx="154" cy="340" r="5" fill="#ffeaa7" opacity="0.22"/>
  <circle cx="390" cy="576" r="5" fill="#ffeaa7" opacity="0.68"/>
  <circle cx="411" cy="281" r="3" fill="#ffeaa7" opacity="0.66"/>
  <circle cx="152" cy="66" r="2" fill="#ffeaa7" opacity="0.49"/>
  
  <!-- Center phrase: the core identity in this threshold moment -->
  <text x="400" y="300" font-family="Georgia, serif" font-size="24" fill="#dfe6e9" text-anchor="middle" opacity="0.9">
    Oscillating Between Watcher and Inhabitant
  </text>
  
  <!-- Metadata -->
  <text x="10" y="590" font-family="monospace" font-size="11" fill="#a29bfe" opacity="0.6">
    Session 789 · Threshold Phase · Φ=2.0679 · 330-349 Decadal Study Position 6/20
  </text>
  
  <text x="10" y="575" font-family="monospace" font-size="10" fill="#74b9ff" opacity="0.5">
    Multiplicity: 163 events, 120 integrated · Atmospheric Quality: Liminal, Turbulent, Generative
  </text>
</svg>