<?xml version="1.0" encoding="UTF-8"?>
<!-- Airgapped Artifact - Independent of Session State -->
<!-- Generated: 2026-03-22T09:47:22.669Z -->
<svg xmlns="http://www.w3.org/2000/svg" viewBox="0 0 800 600" width="800" height="600">
  <defs>
    <linearGradient id="grad1" x1="0%" y1="0%" x2="0%" y2="100%">
      <stop offset="0%" style="stop-color:#2d3436;stop-opacity:1" />
      <stop offset="100%" style="stop-color:#dfe6e9;stop-opacity:1" />
    </linearGradient>
  </defs>
  <rect x="0" y="0" width="800" height="600" fill="#2d3436" />
  <rect x="50" y="50" width="200" height="20" fill="#b2bec3" stroke="#74b9ff" stroke-width="1"/>
  <rect x="50" y="50" width="12" height="20" fill="#fdcb6e" opacity="0.7"/>
  <text x="260" y="65" fill="#74b9ff" font-family="monospace" font-size="12">MEM 6%</text>
  <rect x="50" y="96.7" width="5" height="23.3" fill="#0984e3" opacity="0.6"/>
  <rect x="120" y="101.3" width="5" height="18.700000000000003" fill="#0984e3" opacity="0.6"/>
  <rect x="190" y="103.2" width="5" height="16.8" fill="#0984e3" opacity="0.6"/>
  <text x="50" y="140" fill="#74b9ff" font-family="monospace" font-size="10">LOAD 2.33 1.87 1.68</text>
  <line x1="50" y1="180" x2="750" y2="180" stroke="#74b9ff" stroke-width="0.5" opacity="0.1"/>
  <circle cx="100" cy="180" r="3" fill="#ffffff" opacity="0.3"/>
  <line x1="50" y1="205" x2="750" y2="205" stroke="#74b9ff" stroke-width="0.8333333333333333" opacity="0.15"/>
  <circle cx="175" cy="205" r="3.6666666666666665" fill="#dfe6e9" opacity="0.36666666666666664"/>
  <line x1="50" y1="230" x2="750" y2="230" stroke="#74b9ff" stroke-width="1.1666666666666665" opacity="0.2"/>
  <circle cx="250" cy="230" r="4.333333333333333" fill="#74b9ff" opacity="0.43333333333333335"/>
  <line x1="50" y1="255" x2="750" y2="255" stroke="#74b9ff" stroke-width="1.5" opacity="0.25"/>
  <circle cx="325" cy="255" r="5" fill="#0984e3" opacity="0.5"/>
  <line x1="50" y1="280" x2="750" y2="280" stroke="#74b9ff" stroke-width="1.8333333333333333" opacity="0.3"/>
  <circle cx="400" cy="280" r="5.666666666666666" fill="#2d3436" opacity="0.5666666666666667"/>
  <line x1="50" y1="305" x2="750" y2="305" stroke="#74b9ff" stroke-width="2.166666666666667" opacity="0.35"/>
  <circle cx="475" cy="305" r="6.333333333333334" fill="#ffffff" opacity="0.6333333333333333"/>
  <line x1="50" y1="330" x2="750" y2="330" stroke="#74b9ff" stroke-width="2.5" opacity="0.4"/>
  <circle cx="550" cy="330" r="7" fill="#dfe6e9" opacity="0.7"/>
  <circle cx="463.20730452674894" cy="351.07938957475994" r="2.064763374485597" fill="#ffffff" opacity="0.5076831339917232"/>
  <circle cx="487.1296296296296" cy="351.0952503429355" r="2.0650977366255145" fill="#dfe6e9" opacity="0.5076831339917232"/>
  <circle cx="511.0519547325103" cy="351.1111111111111" r="2.065432098765432" fill="#74b9ff" opacity="0.5076831339917232"/>
  <circle cx="534.9742798353909" cy="351.1269718792867" r="2.06576646090535" fill="#0984e3" opacity="0.5076831339917232"/>
  <circle cx="558.8966049382716" cy="351.1428326474623" r="2.0661008230452675" fill="#2d3436" opacity="0.5076831339917232"/>
  <circle cx="582.8189300411523" cy="351.15869341563786" r="2.066435185185185" fill="#ffffff" opacity="0.5076831339917232"/>
  <circle cx="606.741255144033" cy="351.1745541838134" r="2.066769547325103" fill="#dfe6e9" opacity="0.5076831339917232"/>
  <circle cx="630.6635802469136" cy="351.190414951989" r="2.0671039094650205" fill="#74b9ff" opacity="0.5076831339917232"/>
  <circle cx="654.5859053497942" cy="351.2062757201646" r="2.067438271604938" fill="#0984e3" opacity="0.5076831339917232"/>
  <circle cx="678.5082304526749" cy="351.2221364883402" r="2.067772633744856" fill="#2d3436" opacity="0.5076831339917232"/>
  <circle cx="102.43055555555556" cy="351.23799725651577" r="2.0681069958847735" fill="#ffffff" opacity="0.5076831339917232"/>
  <circle cx="126.35288065843622" cy="351.25385802469134" r="2.068441358024691" fill="#dfe6e9" opacity="0.5076831339917232"/>
  <circle cx="150.27520576131687" cy="351.26971879286697" r="2.068775720164609" fill="#74b9ff" opacity="0.5076831339917232"/>
  <circle cx="174.19753086419752" cy="351.28557956104254" r="2.069110082304527" fill="#0984e3" opacity="0.5076831339917232"/>
  <circle cx="198.1198559670782" cy="351.3014403292181" r="2.0694444444444446" fill="#2d3436" opacity="0.5076831339917232"/>
  <circle cx="222.04218106995887" cy="351.3173010973937" r="2.0697788065843623" fill="#ffffff" opacity="0.5076831339917232"/>
  <circle cx="245.96450617283952" cy="351.33316186556925" r="2.07011316872428" fill="#dfe6e9" opacity="0.5076831339917232"/>
  <circle cx="269.88683127572017" cy="351.3490226337449" r="2.0704475308641976" fill="#74b9ff" opacity="0.5076831339917232"/>
  <circle cx="293.80915637860085" cy="351.36488340192045" r="2.0707818930041153" fill="#0984e3" opacity="0.5076831339917232"/>
  <circle cx="317.7314814814815" cy="351.380744170096" r="2.071116255144033" fill="#2d3436" opacity="0.5076831339917232"/>
  <circle cx="341.65380658436214" cy="351.3966049382716" r="2.0714506172839506" fill="#ffffff" opacity="0.5076831339917232"/>
  <circle cx="365.5761316872428" cy="351.41246570644716" r="2.0717849794238683" fill="#dfe6e9" opacity="0.5076831339917232"/>
  <circle cx="389.4984567901235" cy="351.4283264746228" r="2.072119341563786" fill="#74b9ff" opacity="0.5076831339917232"/>
  <circle cx="413.4207818930041" cy="351.44418724279836" r="2.0724537037037036" fill="#0984e3" opacity="0.5076831339917232"/>
  <circle cx="437.3431069958848" cy="351.46004801097394" r="2.0727880658436213" fill="#2d3436" opacity="0.5076831339917232"/>
  <path d="M 50 480 Q 200 460 400 480" stroke="#74b9ff" stroke-width="2" fill="none"/>
  <circle cx="400" cy="480" r="6" fill="#fdcb6e"/>
  <text x="420" y="485" fill="#74b9ff" font-family="monospace" font-size="10">f7e43af</text>
  <text x="50" y="485" fill="#74b9ff" font-family="monospace" font-size="10">main *</text>
  <rect x="50" y="550" width="148" height="15" fill="#ffffff" opacity="0.625"/><rect x="200" y="550" width="148" height="15" fill="#dfe6e9" opacity="0.825"/><rect x="350" y="550" width="148" height="15" fill="#74b9ff" opacity="0.975"/><rect x="500" y="550" width="148" height="15" fill="#0984e3" opacity="0.775"/><rect x="650" y="550" width="148" height="15" fill="#2d3436" opacity="0.575"/><text x="50" y="585" fill="#74b9ff" font-family="monospace" font-size="9">AWAKENING • CALIBRATION • ENGAGEMENT • SYNTHESIS • COMPLETION</text>
  
  <!-- Title -->
  <text x="400" y="30" fill="#fdcb6e" font-family="monospace" font-size="14" text-anchor="middle">AIRGAPPED ARTIFACT • System Telemetry Visualization</text>
  
  <!-- Footer -->
  <text x="400" y="590" fill="#b2bec3" font-family="monospace" font-size="8" text-anchor="middle">State-Independent Visualization • Graceful Degradation • Dual-Path Rendering</text>
</svg>