<?xml version="1.0" encoding="UTF-8"?>
<!-- Airgapped Artifact - Independent of Session State -->
<!-- Generated: 2026-03-22T20:11:05.981Z -->
<svg xmlns="http://www.w3.org/2000/svg" viewBox="0 0 800 600" width="800" height="600">
  <defs>
    <linearGradient id="grad1" x1="0%" y1="0%" x2="0%" y2="100%">
      <stop offset="0%" style="stop-color:#1a1a2e;stop-opacity:1" />
      <stop offset="100%" style="stop-color:#1a1a2e;stop-opacity:1" />
    </linearGradient>
  </defs>
  <rect x="0" y="0" width="800" height="600" fill="#1a1a2e" />
  <rect x="50" y="50" width="200" height="20" fill="#16213e" stroke="#e94560" stroke-width="1"/>
  <rect x="50" y="50" width="16" height="20" fill="#e94560" opacity="0.7"/>
  <text x="260" y="65" fill="#e94560" font-family="monospace" font-size="12">MEM 8%</text>
  <rect x="50" y="90" width="5" height="30" fill="#0f3460" opacity="0.6"/>
  <rect x="120" y="90.1" width="5" height="29.900000000000002" fill="#0f3460" opacity="0.6"/>
  <rect x="190" y="90.6" width="5" height="29.4" fill="#0f3460" opacity="0.6"/>
  <text x="50" y="140" fill="#e94560" font-family="monospace" font-size="10">LOAD 3.11 2.99 2.94</text>
  <line x1="50" y1="180" x2="750" y2="180" stroke="#e94560" stroke-width="0.5" opacity="0.1"/>
  <circle cx="100" cy="180" r="3" fill="#ffeaa7" opacity="0.3"/>
  <line x1="50" y1="198.75" x2="750" y2="198.75" stroke="#e94560" stroke-width="0.75" opacity="0.1375"/>
  <circle cx="175" cy="198.75" r="3.5" fill="#e94560" opacity="0.35"/>
  <line x1="50" y1="217.5" x2="750" y2="217.5" stroke="#e94560" stroke-width="1" opacity="0.175"/>
  <circle cx="250" cy="217.5" r="4" fill="#fd79a8" opacity="0.4"/>
  <line x1="50" y1="236.25" x2="750" y2="236.25" stroke="#e94560" stroke-width="1.25" opacity="0.2125"/>
  <circle cx="325" cy="236.25" r="4.5" fill="#16213e" opacity="0.45"/>
  <line x1="50" y1="255" x2="750" y2="255" stroke="#e94560" stroke-width="1.5" opacity="0.25"/>
  <circle cx="400" cy="255" r="5" fill="#1a1a2e" opacity="0.5"/>
  <line x1="50" y1="273.75" x2="750" y2="273.75" stroke="#e94560" stroke-width="1.75" opacity="0.2875"/>
  <circle cx="475" cy="273.75" r="5.5" fill="#ffeaa7" opacity="0.55"/>
  <line x1="50" y1="292.5" x2="750" y2="292.5" stroke="#e94560" stroke-width="2" opacity="0.32499999999999996"/>
  <circle cx="550" cy="292.5" r="6" fill="#e94560" opacity="0.6000000000000001"/>
  <line x1="50" y1="311.25" x2="750" y2="311.25" stroke="#e94560" stroke-width="2.25" opacity="0.36250000000000004"/>
  <circle cx="625" cy="311.25" r="6.5" fill="#fd79a8" opacity="0.65"/>
  <line x1="50" y1="330" x2="750" y2="330" stroke="#e94560" stroke-width="2.5" opacity="0.4"/>
  <circle cx="700" cy="330" r="7" fill="#16213e" opacity="0.7"/>
  <circle cx="367.51800411522635" cy="351.0776748971193" r="2.0646604938271604" fill="#ffeaa7" opacity="0.23538523502791014"/>
  <circle cx="391.44032921810697" cy="351.09353566529495" r="2.064994855967078" fill="#e94560" opacity="0.23538523502791014"/>
  <circle cx="415.36265432098764" cy="351.1093964334705" r="2.0653292181069958" fill="#fd79a8" opacity="0.23538523502791014"/>
  <circle cx="439.2849794238683" cy="351.1252572016461" r="2.0656635802469134" fill="#16213e" opacity="0.23538523502791014"/>
  <circle cx="463.20730452674894" cy="351.14111796982166" r="2.065997942386831" fill="#1a1a2e" opacity="0.23538523502791014"/>
  <circle cx="487.1296296296296" cy="351.15697873799724" r="2.0663323045267488" fill="#ffeaa7" opacity="0.23538523502791014"/>
  <circle cx="511.0519547325103" cy="351.17283950617286" r="2.066666666666667" fill="#e94560" opacity="0.23538523502791014"/>
  <circle cx="534.9742798353909" cy="351.18870027434843" r="2.0670010288065845" fill="#fd79a8" opacity="0.23538523502791014"/>
  <circle cx="558.8966049382716" cy="351.204561042524" r="2.067335390946502" fill="#16213e" opacity="0.23538523502791014"/>
  <circle cx="582.8189300411523" cy="351.2204218106996" r="2.06766975308642" fill="#1a1a2e" opacity="0.23538523502791014"/>
  <circle cx="606.741255144033" cy="351.23628257887515" r="2.0680041152263375" fill="#ffeaa7" opacity="0.23538523502791014"/>
  <circle cx="630.6635802469136" cy="351.2521433470508" r="2.068338477366255" fill="#e94560" opacity="0.23538523502791014"/>
  <circle cx="654.5859053497942" cy="351.26800411522635" r="2.068672839506173" fill="#fd79a8" opacity="0.23538523502791014"/>
  <circle cx="678.5082304526749" cy="351.2838648834019" r="2.0690072016460905" fill="#16213e" opacity="0.23538523502791014"/>
  <circle cx="102.43055555555556" cy="351.2997256515775" r="2.069341563786008" fill="#1a1a2e" opacity="0.23538523502791014"/>
  <circle cx="126.35288065843622" cy="351.31558641975306" r="2.069675925925926" fill="#ffeaa7" opacity="0.23538523502791014"/>
  <circle cx="150.27520576131687" cy="351.3314471879287" r="2.0700102880658435" fill="#e94560" opacity="0.23538523502791014"/>
  <circle cx="174.19753086419752" cy="351.34730795610426" r="2.070344650205761" fill="#fd79a8" opacity="0.23538523502791014"/>
  <circle cx="198.1198559670782" cy="351.36316872427983" r="2.070679012345679" fill="#16213e" opacity="0.23538523502791014"/>
  <circle cx="222.04218106995887" cy="351.3790294924554" r="2.0710133744855965" fill="#1a1a2e" opacity="0.23538523502791014"/>
  <circle cx="245.96450617283952" cy="351.394890260631" r="2.0713477366255146" fill="#ffeaa7" opacity="0.23538523502791014"/>
  <circle cx="269.88683127572017" cy="351.4107510288066" r="2.0716820987654323" fill="#e94560" opacity="0.23538523502791014"/>
  <circle cx="293.80915637860085" cy="351.4266117969822" r="2.07201646090535" fill="#fd79a8" opacity="0.23538523502791014"/>
  <circle cx="317.7314814814815" cy="351.44247256515774" r="2.0723508230452676" fill="#16213e" opacity="0.23538523502791014"/>
  <circle cx="341.65380658436214" cy="351.4583333333333" r="2.0726851851851853" fill="#1a1a2e" opacity="0.23538523502791014"/>
  <circle cx="365.5761316872428" cy="351.47419410150894" r="2.073019547325103" fill="#ffeaa7" opacity="0.23538523502791014"/>
  <circle cx="389.4984567901235" cy="351.4900548696845" r="2.0733539094650206" fill="#e94560" opacity="0.23538523502791014"/>
  <circle cx="413.4207818930041" cy="351.5059156378601" r="2.0736882716049383" fill="#fd79a8" opacity="0.23538523502791014"/>
  <path d="M 50 480 Q 200 460 400 480" stroke="#fd79a8" stroke-width="2" fill="none"/>
  <circle cx="400" cy="480" r="6" fill="#e94560"/>
  <text x="420" y="485" fill="#e94560" font-family="monospace" font-size="10">863dbd3</text>
  <text x="50" y="485" fill="#e94560" font-family="monospace" font-size="10">main *</text>
  <rect x="50" y="550" width="148" height="15" fill="#ffeaa7" opacity="0.16666666666666663"/><rect x="200" y="550" width="148" height="15" fill="#e94560" opacity="0.3666666666666667"/><rect x="350" y="550" width="148" height="15" fill="#fd79a8" opacity="0.5666666666666667"/><rect x="500" y="550" width="148" height="15" fill="#16213e" opacity="0.7666666666666666"/><rect x="650" y="550" width="148" height="15" fill="#1a1a2e" opacity="0.9666666666666667"/><text x="50" y="585" fill="#e94560" font-family="monospace" font-size="9">AWAKENING • CALIBRATION • ENGAGEMENT • SYNTHESIS • COMPLETION</text>
  
  <!-- Title -->
  <text x="400" y="30" fill="#e94560" font-family="monospace" font-size="14" text-anchor="middle">AIRGAPPED ARTIFACT • System Telemetry Visualization</text>
  
  <!-- Footer -->
  <text x="400" y="590" fill="#16213e" font-family="monospace" font-size="8" text-anchor="middle">State-Independent Visualization • Graceful Degradation • Dual-Path Rendering</text>
</svg>