<?xml version="1.0" encoding="UTF-8"?>
<!-- Airgapped Artifact - Independent of Session State -->
<!-- Generated: 2026-03-22T03:00:58.060Z -->
<svg xmlns="http://www.w3.org/2000/svg" viewBox="0 0 800 600" width="800" height="600">
  <defs>
    <linearGradient id="grad1" x1="0%" y1="0%" x2="0%" y2="100%">
      <stop offset="0%" style="stop-color:#2d3436;stop-opacity:1" />
      <stop offset="100%" style="stop-color:#2d3436;stop-opacity:1" />
    </linearGradient>
  </defs>
  <rect x="0" y="0" width="800" height="600" fill="#2d3436" />
  <rect x="50" y="50" width="200" height="20" fill="#636e72" stroke="#b2bec3" stroke-width="1"/>
  <rect x="50" y="50" width="20" height="20" fill="#74b9ff" opacity="0.7"/>
  <text x="260" y="65" fill="#b2bec3" font-family="monospace" font-size="12">MEM 10%</text>
  <rect x="50" y="90" width="5" height="30" fill="#0984e3" opacity="0.6"/>
  <rect x="120" y="90" width="5" height="30" fill="#0984e3" opacity="0.6"/>
  <rect x="190" y="94.7" width="5" height="25.299999999999997" fill="#0984e3" opacity="0.6"/>
  <text x="50" y="140" fill="#b2bec3" font-family="monospace" font-size="10">LOAD 3.93 3.06 2.53</text>
  <line x1="50" y1="180" x2="750" y2="180" stroke="#b2bec3" stroke-width="0.5" opacity="0.1"/>
  <circle cx="100" cy="180" r="3" fill="#dfe6e9" opacity="0.3"/>
  <line x1="50" y1="205" x2="750" y2="205" stroke="#b2bec3" stroke-width="0.8333333333333333" opacity="0.15"/>
  <circle cx="175" cy="205" r="3.6666666666666665" fill="#74b9ff" opacity="0.36666666666666664"/>
  <line x1="50" y1="230" x2="750" y2="230" stroke="#b2bec3" stroke-width="1.1666666666666665" opacity="0.2"/>
  <circle cx="250" cy="230" r="4.333333333333333" fill="#0984e3" opacity="0.43333333333333335"/>
  <line x1="50" y1="255" x2="750" y2="255" stroke="#b2bec3" stroke-width="1.5" opacity="0.25"/>
  <circle cx="325" cy="255" r="5" fill="#636e72" opacity="0.5"/>
  <line x1="50" y1="280" x2="750" y2="280" stroke="#b2bec3" stroke-width="1.8333333333333333" opacity="0.3"/>
  <circle cx="400" cy="280" r="5.666666666666666" fill="#2d3436" opacity="0.5666666666666667"/>
  <line x1="50" y1="305" x2="750" y2="305" stroke="#b2bec3" stroke-width="2.166666666666667" opacity="0.35"/>
  <circle cx="475" cy="305" r="6.333333333333334" fill="#dfe6e9" opacity="0.6333333333333333"/>
  <line x1="50" y1="330" x2="750" y2="330" stroke="#b2bec3" stroke-width="2.5" opacity="0.4"/>
  <circle cx="550" cy="330" r="7" fill="#74b9ff" opacity="0.7"/>
  <circle cx="639.8791152263374" cy="353.4156378600823" r="2.2049382716049384" fill="#dfe6e9" opacity="0.48491919875848544"/>
  <circle cx="663.801440329218" cy="353.4314986282579" r="2.205272633744856" fill="#74b9ff" opacity="0.48491919875848544"/>
  <circle cx="687.7237654320987" cy="353.44735939643346" r="2.2056069958847737" fill="#0984e3" opacity="0.48491919875848544"/>
  <circle cx="111.64609053497942" cy="353.463220164609" r="2.2059413580246914" fill="#636e72" opacity="0.48491919875848544"/>
  <circle cx="135.56841563786008" cy="353.47908093278465" r="2.206275720164609" fill="#2d3436" opacity="0.48491919875848544"/>
  <circle cx="159.49074074074073" cy="353.4949417009602" r="2.2066100823045267" fill="#dfe6e9" opacity="0.48491919875848544"/>
  <circle cx="183.41306584362138" cy="353.5108024691358" r="2.2069444444444444" fill="#74b9ff" opacity="0.48491919875848544"/>
  <circle cx="207.33539094650206" cy="353.52666323731137" r="2.207278806584362" fill="#0984e3" opacity="0.48491919875848544"/>
  <circle cx="231.2577160493827" cy="353.542524005487" r="2.2076131687242797" fill="#636e72" opacity="0.48491919875848544"/>
  <circle cx="255.18004115226336" cy="353.55838477366257" r="2.2079475308641974" fill="#2d3436" opacity="0.48491919875848544"/>
  <circle cx="279.10236625514403" cy="353.57424554183814" r="2.2082818930041155" fill="#dfe6e9" opacity="0.48491919875848544"/>
  <circle cx="303.0246913580247" cy="353.5901063100137" r="2.208616255144033" fill="#74b9ff" opacity="0.48491919875848544"/>
  <circle cx="326.94701646090533" cy="353.6059670781893" r="2.208950617283951" fill="#0984e3" opacity="0.48491919875848544"/>
  <circle cx="350.869341563786" cy="353.6218278463649" r="2.2092849794238685" fill="#636e72" opacity="0.48491919875848544"/>
  <circle cx="374.79166666666663" cy="353.6376886145405" r="2.209619341563786" fill="#2d3436" opacity="0.48491919875848544"/>
  <circle cx="398.7139917695473" cy="353.65354938271605" r="2.209953703703704" fill="#dfe6e9" opacity="0.48491919875848544"/>
  <circle cx="422.636316872428" cy="353.6694101508916" r="2.2102880658436215" fill="#74b9ff" opacity="0.48491919875848544"/>
  <circle cx="446.55864197530866" cy="353.6852709190672" r="2.210622427983539" fill="#0984e3" opacity="0.48491919875848544"/>
  <circle cx="470.4809670781893" cy="353.7011316872428" r="2.210956790123457" fill="#636e72" opacity="0.48491919875848544"/>
  <circle cx="494.40329218106996" cy="353.7169924554184" r="2.2112911522633745" fill="#2d3436" opacity="0.48491919875848544"/>
  <circle cx="518.3256172839506" cy="353.73285322359396" r="2.211625514403292" fill="#dfe6e9" opacity="0.48491919875848544"/>
  <circle cx="542.2479423868313" cy="353.74871399176953" r="2.21195987654321" fill="#74b9ff" opacity="0.48491919875848544"/>
  <circle cx="566.1702674897119" cy="353.7645747599451" r="2.2122942386831275" fill="#0984e3" opacity="0.48491919875848544"/>
  <circle cx="590.0925925925926" cy="353.78043552812073" r="2.212628600823045" fill="#636e72" opacity="0.48491919875848544"/>
  <circle cx="614.0149176954733" cy="353.7962962962963" r="2.212962962962963" fill="#2d3436" opacity="0.48491919875848544"/>
  <path d="M 50 480 Q 200 460 400 480" stroke="#0984e3" stroke-width="2" fill="none"/>
  <circle cx="400" cy="480" r="6" fill="#74b9ff"/>
  <text x="420" y="485" fill="#b2bec3" font-family="monospace" font-size="10">8b29ec3</text>
  <text x="50" y="485" fill="#b2bec3" font-family="monospace" font-size="10">main *</text>
  <rect x="50" y="550" width="148" height="15" fill="#dfe6e9" opacity="0.875"/><rect x="200" y="550" width="148" height="15" fill="#74b9ff" opacity="0.925"/><rect x="350" y="550" width="148" height="15" fill="#0984e3" opacity="0.725"/><rect x="500" y="550" width="148" height="15" fill="#636e72" opacity="0.525"/><rect x="650" y="550" width="148" height="15" fill="#2d3436" opacity="0.32499999999999996"/><text x="50" y="585" fill="#b2bec3" font-family="monospace" font-size="9">AWAKENING • CALIBRATION • ENGAGEMENT • SYNTHESIS • COMPLETION</text>
  
  <!-- Title -->
  <text x="400" y="30" fill="#74b9ff" font-family="monospace" font-size="14" text-anchor="middle">AIRGAPPED ARTIFACT • System Telemetry Visualization</text>
  
  <!-- Footer -->
  <text x="400" y="590" fill="#636e72" font-family="monospace" font-size="8" text-anchor="middle">State-Independent Visualization • Graceful Degradation • Dual-Path Rendering</text>
</svg>