<?xml version="1.0" encoding="UTF-8"?>
<!-- Airgapped Artifact - Independent of Session State -->
<!-- Generated: 2026-03-22T06:20:32.645Z -->
<svg xmlns="http://www.w3.org/2000/svg" viewBox="0 0 800 600" width="800" height="600">
  <defs>
    <linearGradient id="grad1" x1="0%" y1="0%" x2="0%" y2="100%">
      <stop offset="0%" style="stop-color:#000000;stop-opacity:1" />
      <stop offset="100%" style="stop-color:#000000;stop-opacity:1" />
    </linearGradient>
  </defs>
  <rect x="0" y="0" width="800" height="600" fill="#000000" />
  <rect x="50" y="50" width="200" height="20" fill="#1a1a1a" stroke="#333333" stroke-width="1"/>
  <rect x="50" y="50" width="12" height="20" fill="#4a4a4a" opacity="0.7"/>
  <text x="260" y="65" fill="#333333" font-family="monospace" font-size="12">MEM 6%</text>
  <rect x="50" y="103.3" width="5" height="16.7" fill="#000000" opacity="0.6"/>
  <rect x="120" y="98.1" width="5" height="21.9" fill="#000000" opacity="0.6"/>
  <rect x="190" y="95.7" width="5" height="24.3" fill="#000000" opacity="0.6"/>
  <text x="50" y="140" fill="#333333" font-family="monospace" font-size="10">LOAD 1.67 2.19 2.43</text>
  <line x1="50" y1="180" x2="750" y2="180" stroke="#333333" stroke-width="0.5" opacity="0.1"/>
  <circle cx="100" cy="180" r="3" fill="#ffffff" opacity="0.3"/>
  <line x1="50" y1="205" x2="750" y2="205" stroke="#333333" stroke-width="0.8333333333333333" opacity="0.15"/>
  <circle cx="175" cy="205" r="3.6666666666666665" fill="#aaaaaa" opacity="0.36666666666666664"/>
  <line x1="50" y1="230" x2="750" y2="230" stroke="#333333" stroke-width="1.1666666666666665" opacity="0.2"/>
  <circle cx="250" cy="230" r="4.333333333333333" fill="#666666" opacity="0.43333333333333335"/>
  <line x1="50" y1="255" x2="750" y2="255" stroke="#333333" stroke-width="1.5" opacity="0.25"/>
  <circle cx="325" cy="255" r="5" fill="#333333" opacity="0.5"/>
  <line x1="50" y1="280" x2="750" y2="280" stroke="#333333" stroke-width="1.8333333333333333" opacity="0.3"/>
  <circle cx="400" cy="280" r="5.666666666666666" fill="#000000" opacity="0.5666666666666667"/>
  <line x1="50" y1="305" x2="750" y2="305" stroke="#333333" stroke-width="2.166666666666667" opacity="0.35"/>
  <circle cx="475" cy="305" r="6.333333333333334" fill="#ffffff" opacity="0.6333333333333333"/>
  <line x1="50" y1="330" x2="750" y2="330" stroke="#333333" stroke-width="2.5" opacity="0.4"/>
  <circle cx="550" cy="330" r="7" fill="#aaaaaa" opacity="0.7"/>
  <circle cx="492.95524691358025" cy="351.0476680384088" r="2.062860082304527" fill="#ffffff" opacity="0.6674518474820503"/>
  <circle cx="516.8775720164608" cy="351.0635288065844" r="2.0631944444444446" fill="#aaaaaa" opacity="0.6674518474820503"/>
  <circle cx="540.7998971193415" cy="351.07938957475994" r="2.063528806584362" fill="#666666" opacity="0.6674518474820503"/>
  <circle cx="564.7222222222222" cy="351.0952503429355" r="2.06386316872428" fill="#333333" opacity="0.6674518474820503"/>
  <circle cx="588.6445473251028" cy="351.1111111111111" r="2.0641975308641975" fill="#000000" opacity="0.6674518474820503"/>
  <circle cx="612.5668724279835" cy="351.1269718792867" r="2.064531893004115" fill="#ffffff" opacity="0.6674518474820503"/>
  <circle cx="636.4891975308642" cy="351.1428326474623" r="2.064866255144033" fill="#aaaaaa" opacity="0.6674518474820503"/>
  <circle cx="660.4115226337449" cy="351.15869341563786" r="2.0652006172839505" fill="#666666" opacity="0.6674518474820503"/>
  <circle cx="684.3338477366256" cy="351.1745541838134" r="2.065534979423868" fill="#333333" opacity="0.6674518474820503"/>
  <circle cx="108.25617283950618" cy="351.190414951989" r="2.065869341563786" fill="#000000" opacity="0.6674518474820503"/>
  <circle cx="132.17849794238683" cy="351.2062757201646" r="2.0662037037037035" fill="#ffffff" opacity="0.6674518474820503"/>
  <circle cx="156.10082304526748" cy="351.2221364883402" r="2.066538065843621" fill="#aaaaaa" opacity="0.6674518474820503"/>
  <circle cx="180.02314814814815" cy="351.23799725651577" r="2.0668724279835393" fill="#666666" opacity="0.6674518474820503"/>
  <circle cx="203.9454732510288" cy="351.25385802469134" r="2.067206790123457" fill="#333333" opacity="0.6674518474820503"/>
  <circle cx="227.86779835390945" cy="351.26971879286697" r="2.0675411522633746" fill="#000000" opacity="0.6674518474820503"/>
  <circle cx="251.79012345679013" cy="351.28557956104254" r="2.0678755144032923" fill="#ffffff" opacity="0.6674518474820503"/>
  <circle cx="275.71244855967075" cy="351.3014403292181" r="2.06820987654321" fill="#aaaaaa" opacity="0.6674518474820503"/>
  <circle cx="299.6347736625514" cy="351.3173010973937" r="2.0685442386831276" fill="#666666" opacity="0.6674518474820503"/>
  <circle cx="323.5570987654321" cy="351.33316186556925" r="2.0688786008230453" fill="#333333" opacity="0.6674518474820503"/>
  <circle cx="347.4794238683128" cy="351.3490226337449" r="2.069212962962963" fill="#000000" opacity="0.6674518474820503"/>
  <circle cx="371.4017489711934" cy="351.36488340192045" r="2.0695473251028806" fill="#ffffff" opacity="0.6674518474820503"/>
  <circle cx="395.3240740740741" cy="351.380744170096" r="2.0698816872427983" fill="#aaaaaa" opacity="0.6674518474820503"/>
  <circle cx="419.24639917695475" cy="351.3966049382716" r="2.070216049382716" fill="#666666" opacity="0.6674518474820503"/>
  <circle cx="443.1687242798354" cy="351.41246570644716" r="2.0705504115226336" fill="#333333" opacity="0.6674518474820503"/>
  <circle cx="467.09104938271605" cy="351.4283264746228" r="2.0708847736625513" fill="#000000" opacity="0.6674518474820503"/>
  <path d="M 50 480 Q 200 460 400 480" stroke="#666666" stroke-width="2" fill="none"/>
  <circle cx="400" cy="480" r="6" fill="#4a4a4a"/>
  <text x="420" y="485" fill="#333333" font-family="monospace" font-size="10">c91d11a</text>
  <text x="50" y="485" fill="#333333" font-family="monospace" font-size="10">main *</text>
  <rect x="50" y="550" width="148" height="15" fill="#ffffff" opacity="0.75"/><rect x="200" y="550" width="148" height="15" fill="#aaaaaa" opacity="0.95"/><rect x="350" y="550" width="148" height="15" fill="#666666" opacity="0.85"/><rect x="500" y="550" width="148" height="15" fill="#333333" opacity="0.65"/><rect x="650" y="550" width="148" height="15" fill="#000000" opacity="0.44999999999999996"/><text x="50" y="585" fill="#333333" font-family="monospace" font-size="9">AWAKENING • CALIBRATION • ENGAGEMENT • SYNTHESIS • COMPLETION</text>
  
  <!-- Title -->
  <text x="400" y="30" fill="#4a4a4a" font-family="monospace" font-size="14" text-anchor="middle">AIRGAPPED ARTIFACT • System Telemetry Visualization</text>
  
  <!-- Footer -->
  <text x="400" y="590" fill="#1a1a1a" font-family="monospace" font-size="8" text-anchor="middle">State-Independent Visualization • Graceful Degradation • Dual-Path Rendering</text>
</svg>