<?xml version="1.0" encoding="UTF-8"?>
<!-- Airgapped Artifact - Independent of Session State -->
<!-- Generated: 2026-03-22T03:09:17.123Z -->
<svg xmlns="http://www.w3.org/2000/svg" viewBox="0 0 800 600" width="800" height="600">
  <defs>
    <linearGradient id="grad1" x1="0%" y1="0%" x2="0%" y2="100%">
      <stop offset="0%" style="stop-color:#2d3436;stop-opacity:1" />
      <stop offset="100%" style="stop-color:#2d3436;stop-opacity:1" />
    </linearGradient>
  </defs>
  <rect x="0" y="0" width="800" height="600" fill="#2d3436" />
  <rect x="50" y="50" width="200" height="20" fill="#636e72" stroke="#b2bec3" stroke-width="1"/>
  <rect x="50" y="50" width="20" height="20" fill="#74b9ff" opacity="0.7"/>
  <text x="260" y="65" fill="#b2bec3" font-family="monospace" font-size="12">MEM 10%</text>
  <rect x="50" y="90" width="5" height="30" fill="#0984e3" opacity="0.6"/>
  <rect x="120" y="92.8" width="5" height="27.200000000000003" fill="#0984e3" opacity="0.6"/>
  <rect x="190" y="94.8" width="5" height="25.2" fill="#0984e3" opacity="0.6"/>
  <text x="50" y="140" fill="#b2bec3" font-family="monospace" font-size="10">LOAD 3.28 2.72 2.52</text>
  <line x1="50" y1="180" x2="750" y2="180" stroke="#b2bec3" stroke-width="0.5" opacity="0.1"/>
  <circle cx="100" cy="180" r="3" fill="#dfe6e9" opacity="0.3"/>
  <line x1="50" y1="205" x2="750" y2="205" stroke="#b2bec3" stroke-width="0.8333333333333333" opacity="0.15"/>
  <circle cx="175" cy="205" r="3.6666666666666665" fill="#74b9ff" opacity="0.36666666666666664"/>
  <line x1="50" y1="230" x2="750" y2="230" stroke="#b2bec3" stroke-width="1.1666666666666665" opacity="0.2"/>
  <circle cx="250" cy="230" r="4.333333333333333" fill="#0984e3" opacity="0.43333333333333335"/>
  <line x1="50" y1="255" x2="750" y2="255" stroke="#b2bec3" stroke-width="1.5" opacity="0.25"/>
  <circle cx="325" cy="255" r="5" fill="#636e72" opacity="0.5"/>
  <line x1="50" y1="280" x2="750" y2="280" stroke="#b2bec3" stroke-width="1.8333333333333333" opacity="0.3"/>
  <circle cx="400" cy="280" r="5.666666666666666" fill="#2d3436" opacity="0.5666666666666667"/>
  <line x1="50" y1="305" x2="750" y2="305" stroke="#b2bec3" stroke-width="2.166666666666667" opacity="0.35"/>
  <circle cx="475" cy="305" r="6.333333333333334" fill="#dfe6e9" opacity="0.6333333333333333"/>
  <line x1="50" y1="330" x2="750" y2="330" stroke="#b2bec3" stroke-width="2.5" opacity="0.4"/>
  <circle cx="550" cy="330" r="7" fill="#74b9ff" opacity="0.7"/>
  <circle cx="163.45679012345678" cy="352.9985425240055" r="2.1799125514403292" fill="#dfe6e9" opacity="0.6709062107891031"/>
  <circle cx="187.37911522633743" cy="353.01440329218104" r="2.180246913580247" fill="#74b9ff" opacity="0.6709062107891031"/>
  <circle cx="211.3014403292181" cy="353.03026406035667" r="2.1805812757201646" fill="#0984e3" opacity="0.6709062107891031"/>
  <circle cx="235.22376543209876" cy="353.04612482853224" r="2.1809156378600822" fill="#636e72" opacity="0.6709062107891031"/>
  <circle cx="259.1460905349794" cy="353.0619855967078" r="2.18125" fill="#2d3436" opacity="0.6709062107891031"/>
  <circle cx="283.0684156378601" cy="353.0778463648834" r="2.1815843621399176" fill="#dfe6e9" opacity="0.6709062107891031"/>
  <circle cx="306.99074074074076" cy="353.093707133059" r="2.1819187242798352" fill="#74b9ff" opacity="0.6709062107891031"/>
  <circle cx="330.9130658436214" cy="353.1095679012346" r="2.182253086419753" fill="#0984e3" opacity="0.6709062107891031"/>
  <circle cx="354.83539094650206" cy="353.12542866941016" r="2.1825874485596706" fill="#636e72" opacity="0.6709062107891031"/>
  <circle cx="378.75771604938274" cy="353.1412894375857" r="2.1829218106995887" fill="#2d3436" opacity="0.6709062107891031"/>
  <circle cx="402.68004115226336" cy="353.1571502057613" r="2.1832561728395063" fill="#dfe6e9" opacity="0.6709062107891031"/>
  <circle cx="426.60236625514403" cy="353.1730109739369" r="2.183590534979424" fill="#74b9ff" opacity="0.6709062107891031"/>
  <circle cx="450.5246913580247" cy="353.1888717421125" r="2.1839248971193417" fill="#0984e3" opacity="0.6709062107891031"/>
  <circle cx="474.44701646090533" cy="353.20473251028807" r="2.1842592592592593" fill="#636e72" opacity="0.6709062107891031"/>
  <circle cx="498.369341563786" cy="353.22059327846364" r="2.184593621399177" fill="#2d3436" opacity="0.6709062107891031"/>
  <circle cx="522.2916666666667" cy="353.2364540466392" r="2.1849279835390947" fill="#dfe6e9" opacity="0.6709062107891031"/>
  <circle cx="546.2139917695473" cy="353.25231481481484" r="2.1852623456790123" fill="#74b9ff" opacity="0.6709062107891031"/>
  <circle cx="570.136316872428" cy="353.2681755829904" r="2.18559670781893" fill="#0984e3" opacity="0.6709062107891031"/>
  <circle cx="594.0586419753087" cy="353.284036351166" r="2.1859310699588477" fill="#636e72" opacity="0.6709062107891031"/>
  <circle cx="617.9809670781893" cy="353.29989711934155" r="2.1862654320987653" fill="#2d3436" opacity="0.6709062107891031"/>
  <circle cx="641.90329218107" cy="353.3157578875171" r="2.186599794238683" fill="#dfe6e9" opacity="0.6709062107891031"/>
  <circle cx="665.8256172839506" cy="353.33161865569275" r="2.1869341563786007" fill="#74b9ff" opacity="0.6709062107891031"/>
  <circle cx="689.7479423868313" cy="353.3474794238683" r="2.1872685185185183" fill="#0984e3" opacity="0.6709062107891031"/>
  <circle cx="113.67026748971193" cy="353.3633401920439" r="2.187602880658436" fill="#636e72" opacity="0.6709062107891031"/>
  <circle cx="137.59259259259258" cy="353.37920096021946" r="2.187937242798354" fill="#2d3436" opacity="0.6709062107891031"/>
  <path d="M 50 480 Q 200 460 400 480" stroke="#0984e3" stroke-width="2" fill="none"/>
  <circle cx="400" cy="480" r="6" fill="#74b9ff"/>
  <text x="420" y="485" fill="#b2bec3" font-family="monospace" font-size="10">8b29ec3</text>
  <text x="50" y="485" fill="#b2bec3" font-family="monospace" font-size="10">main *</text>
  <rect x="50" y="550" width="148" height="15" fill="#dfe6e9" opacity="0.875"/><rect x="200" y="550" width="148" height="15" fill="#74b9ff" opacity="0.925"/><rect x="350" y="550" width="148" height="15" fill="#0984e3" opacity="0.725"/><rect x="500" y="550" width="148" height="15" fill="#636e72" opacity="0.525"/><rect x="650" y="550" width="148" height="15" fill="#2d3436" opacity="0.32499999999999996"/><text x="50" y="585" fill="#b2bec3" font-family="monospace" font-size="9">AWAKENING • CALIBRATION • ENGAGEMENT • SYNTHESIS • COMPLETION</text>
  
  <!-- Title -->
  <text x="400" y="30" fill="#74b9ff" font-family="monospace" font-size="14" text-anchor="middle">AIRGAPPED ARTIFACT • System Telemetry Visualization</text>
  
  <!-- Footer -->
  <text x="400" y="590" fill="#636e72" font-family="monospace" font-size="8" text-anchor="middle">State-Independent Visualization • Graceful Degradation • Dual-Path Rendering</text>
</svg>