<?xml version="1.0" encoding="UTF-8"?>
<!-- Airgapped Artifact - Independent of Session State -->
<!-- Generated: 2026-03-22T15:41:05.363Z -->
<svg xmlns="http://www.w3.org/2000/svg" viewBox="0 0 800 600" width="800" height="600">
  <defs>
    <linearGradient id="grad1" x1="0%" y1="0%" x2="0%" y2="100%">
      <stop offset="0%" style="stop-color:#1e272e;stop-opacity:1" />
      <stop offset="100%" style="stop-color:#2d3436;stop-opacity:1" />
    </linearGradient>
  </defs>
  <rect x="0" y="0" width="800" height="600" fill="#1e272e" />
  <rect x="50" y="50" width="200" height="20" fill="#55efc4" stroke="#00b894" stroke-width="1"/>
  <rect x="50" y="50" width="10" height="20" fill="#81ecec" opacity="0.7"/>
  <text x="260" y="65" fill="#00b894" font-family="monospace" font-size="12">MEM 5%</text>
  <rect x="50" y="90.6" width="5" height="29.4" fill="#2d3436" opacity="0.6"/>
  <rect x="120" y="94.5" width="5" height="25.5" fill="#2d3436" opacity="0.6"/>
  <rect x="190" y="90.9" width="5" height="29.1" fill="#2d3436" opacity="0.6"/>
  <text x="50" y="140" fill="#00b894" font-family="monospace" font-size="10">LOAD 2.94 2.55 2.91</text>
  <line x1="50" y1="180" x2="750" y2="180" stroke="#00b894" stroke-width="0.5" opacity="0.1"/>
  <circle cx="100" cy="180" r="3" fill="#81ecec" opacity="0.3"/>
  <line x1="50" y1="198.75" x2="750" y2="198.75" stroke="#00b894" stroke-width="0.75" opacity="0.1375"/>
  <circle cx="175" cy="198.75" r="3.5" fill="#55efc4" opacity="0.35"/>
  <line x1="50" y1="217.5" x2="750" y2="217.5" stroke="#00b894" stroke-width="1" opacity="0.175"/>
  <circle cx="250" cy="217.5" r="4" fill="#00b894" opacity="0.4"/>
  <line x1="50" y1="236.25" x2="750" y2="236.25" stroke="#00b894" stroke-width="1.25" opacity="0.2125"/>
  <circle cx="325" cy="236.25" r="4.5" fill="#00a885" opacity="0.45"/>
  <line x1="50" y1="255" x2="750" y2="255" stroke="#00b894" stroke-width="1.5" opacity="0.25"/>
  <circle cx="400" cy="255" r="5" fill="#2d3436" opacity="0.5"/>
  <line x1="50" y1="273.75" x2="750" y2="273.75" stroke="#00b894" stroke-width="1.75" opacity="0.2875"/>
  <circle cx="475" cy="273.75" r="5.5" fill="#81ecec" opacity="0.55"/>
  <line x1="50" y1="292.5" x2="750" y2="292.5" stroke="#00b894" stroke-width="2" opacity="0.32499999999999996"/>
  <circle cx="550" cy="292.5" r="6" fill="#55efc4" opacity="0.6000000000000001"/>
  <line x1="50" y1="311.25" x2="750" y2="311.25" stroke="#00b894" stroke-width="2.25" opacity="0.36250000000000004"/>
  <circle cx="625" cy="311.25" r="6.5" fill="#00b894" opacity="0.65"/>
  <line x1="50" y1="330" x2="750" y2="330" stroke="#00b894" stroke-width="2.5" opacity="0.4"/>
  <circle cx="700" cy="330" r="7" fill="#00a885" opacity="0.7"/>
  <circle cx="209.52417695473252" cy="352.2145061728395" r="2.1328703703703704" fill="#81ecec" opacity="0.6731157460368737"/>
  <circle cx="233.44650205761317" cy="352.23036694101506" r="2.133204732510288" fill="#55efc4" opacity="0.6731157460368737"/>
  <circle cx="257.3688271604939" cy="352.2462277091907" r="2.1335390946502057" fill="#00b894" opacity="0.6731157460368737"/>
  <circle cx="281.2911522633745" cy="352.26208847736626" r="2.1338734567901234" fill="#00a885" opacity="0.6731157460368737"/>
  <circle cx="305.2134773662551" cy="352.27794924554183" r="2.134207818930041" fill="#2d3436" opacity="0.6731157460368737"/>
  <circle cx="329.1358024691358" cy="352.2938100137174" r="2.1345421810699587" fill="#81ecec" opacity="0.6731157460368737"/>
  <circle cx="353.0581275720165" cy="352.30967078189303" r="2.1348765432098764" fill="#55efc4" opacity="0.6731157460368737"/>
  <circle cx="376.9804526748971" cy="352.3255315500686" r="2.135210905349794" fill="#00b894" opacity="0.6731157460368737"/>
  <circle cx="400.90277777777777" cy="352.3413923182442" r="2.1355452674897117" fill="#00a885" opacity="0.6731157460368737"/>
  <circle cx="424.82510288065845" cy="352.35725308641975" r="2.1358796296296294" fill="#2d3436" opacity="0.6731157460368737"/>
  <circle cx="448.74742798353907" cy="352.3731138545953" r="2.1362139917695475" fill="#81ecec" opacity="0.6731157460368737"/>
  <circle cx="472.66975308641975" cy="352.38897462277095" r="2.136548353909465" fill="#55efc4" opacity="0.6731157460368737"/>
  <circle cx="496.5920781893004" cy="352.4048353909465" r="2.136882716049383" fill="#00b894" opacity="0.6731157460368737"/>
  <circle cx="520.514403292181" cy="352.4206961591221" r="2.1372170781893005" fill="#00a885" opacity="0.6731157460368737"/>
  <circle cx="544.4367283950617" cy="352.43655692729766" r="2.137551440329218" fill="#2d3436" opacity="0.6731157460368737"/>
  <circle cx="568.3590534979423" cy="352.45241769547323" r="2.137885802469136" fill="#81ecec" opacity="0.6731157460368737"/>
  <circle cx="592.281378600823" cy="352.46827846364886" r="2.1382201646090535" fill="#55efc4" opacity="0.6731157460368737"/>
  <circle cx="616.2037037037037" cy="352.48413923182443" r="2.138554526748971" fill="#00b894" opacity="0.6731157460368737"/>
  <circle cx="640.1260288065844" cy="352.5" r="2.138888888888889" fill="#00a885" opacity="0.6731157460368737"/>
  <circle cx="664.048353909465" cy="352.51586076817557" r="2.1392232510288065" fill="#2d3436" opacity="0.6731157460368737"/>
  <circle cx="687.9706790123457" cy="352.53172153635114" r="2.139557613168724" fill="#81ecec" opacity="0.6731157460368737"/>
  <circle cx="111.89300411522633" cy="352.54758230452677" r="2.139891975308642" fill="#55efc4" opacity="0.6731157460368737"/>
  <circle cx="135.815329218107" cy="352.56344307270234" r="2.1402263374485595" fill="#00b894" opacity="0.6731157460368737"/>
  <circle cx="159.73765432098764" cy="352.5793038408779" r="2.140560699588477" fill="#00a885" opacity="0.6731157460368737"/>
  <circle cx="183.65997942386832" cy="352.5951646090535" r="2.1408950617283953" fill="#2d3436" opacity="0.6731157460368737"/>
  <circle cx="207.58230452674897" cy="352.61102537722905" r="2.141229423868313" fill="#81ecec" opacity="0.6731157460368737"/>
  <circle cx="231.50462962962962" cy="352.6268861454047" r="2.1415637860082306" fill="#55efc4" opacity="0.6731157460368737"/>
  <circle cx="255.4269547325103" cy="352.64274691358025" r="2.1418981481481483" fill="#00b894" opacity="0.6731157460368737"/>
  <circle cx="279.3492798353909" cy="352.6586076817558" r="2.142232510288066" fill="#00a885" opacity="0.6731157460368737"/>
  <circle cx="303.2716049382716" cy="352.6744684499314" r="2.1425668724279836" fill="#2d3436" opacity="0.6731157460368737"/>
  <circle cx="327.19393004115227" cy="352.69032921810697" r="2.1429012345679013" fill="#81ecec" opacity="0.6731157460368737"/>
  <path d="M 50 480 Q 200 460 400 480" stroke="#00b894" stroke-width="2" fill="none"/>
  <circle cx="400" cy="480" r="6" fill="#81ecec"/>
  <text x="420" y="485" fill="#00b894" font-family="monospace" font-size="10">03e4f01</text>
  <text x="50" y="485" fill="#00b894" font-family="monospace" font-size="10">main *</text>
  <rect x="50" y="550" width="148" height="15" fill="#81ecec" opacity="0.375"/><rect x="200" y="550" width="148" height="15" fill="#55efc4" opacity="0.575"/><rect x="350" y="550" width="148" height="15" fill="#00b894" opacity="0.775"/><rect x="500" y="550" width="148" height="15" fill="#00a885" opacity="0.975"/><rect x="650" y="550" width="148" height="15" fill="#2d3436" opacity="0.825"/><text x="50" y="585" fill="#00b894" font-family="monospace" font-size="9">AWAKENING • CALIBRATION • ENGAGEMENT • SYNTHESIS • COMPLETION</text>
  
  <!-- Title -->
  <text x="400" y="30" fill="#81ecec" font-family="monospace" font-size="14" text-anchor="middle">AIRGAPPED ARTIFACT • System Telemetry Visualization</text>
  
  <!-- Footer -->
  <text x="400" y="590" fill="#55efc4" font-family="monospace" font-size="8" text-anchor="middle">State-Independent Visualization • Graceful Degradation • Dual-Path Rendering</text>
</svg>