<?xml version="1.0" encoding="UTF-8"?>
<!-- Airgapped Artifact - Independent of Session State -->
<!-- Generated: 2026-03-22T03:02:05.239Z -->
<svg xmlns="http://www.w3.org/2000/svg" viewBox="0 0 800 600" width="800" height="600">
  <defs>
    <linearGradient id="grad1" x1="0%" y1="0%" x2="0%" y2="100%">
      <stop offset="0%" style="stop-color:#2d3436;stop-opacity:1" />
      <stop offset="100%" style="stop-color:#2d3436;stop-opacity:1" />
    </linearGradient>
  </defs>
  <rect x="0" y="0" width="800" height="600" fill="#2d3436" />
  <rect x="50" y="50" width="200" height="20" fill="#636e72" stroke="#b2bec3" stroke-width="1"/>
  <rect x="50" y="50" width="16" height="20" fill="#74b9ff" opacity="0.7"/>
  <text x="260" y="65" fill="#b2bec3" font-family="monospace" font-size="12">MEM 8%</text>
  <rect x="50" y="92.3" width="5" height="27.7" fill="#0984e3" opacity="0.6"/>
  <rect x="120" y="90.7" width="5" height="29.3" fill="#0984e3" opacity="0.6"/>
  <rect x="190" y="94.8" width="5" height="25.2" fill="#0984e3" opacity="0.6"/>
  <text x="50" y="140" fill="#b2bec3" font-family="monospace" font-size="10">LOAD 2.77 2.93 2.52</text>
  <line x1="50" y1="180" x2="750" y2="180" stroke="#b2bec3" stroke-width="0.5" opacity="0.1"/>
  <circle cx="100" cy="180" r="3" fill="#dfe6e9" opacity="0.3"/>
  <line x1="50" y1="205" x2="750" y2="205" stroke="#b2bec3" stroke-width="0.8333333333333333" opacity="0.15"/>
  <circle cx="175" cy="205" r="3.6666666666666665" fill="#74b9ff" opacity="0.36666666666666664"/>
  <line x1="50" y1="230" x2="750" y2="230" stroke="#b2bec3" stroke-width="1.1666666666666665" opacity="0.2"/>
  <circle cx="250" cy="230" r="4.333333333333333" fill="#0984e3" opacity="0.43333333333333335"/>
  <line x1="50" y1="255" x2="750" y2="255" stroke="#b2bec3" stroke-width="1.5" opacity="0.25"/>
  <circle cx="325" cy="255" r="5" fill="#636e72" opacity="0.5"/>
  <line x1="50" y1="280" x2="750" y2="280" stroke="#b2bec3" stroke-width="1.8333333333333333" opacity="0.3"/>
  <circle cx="400" cy="280" r="5.666666666666666" fill="#2d3436" opacity="0.5666666666666667"/>
  <line x1="50" y1="305" x2="750" y2="305" stroke="#b2bec3" stroke-width="2.166666666666667" opacity="0.35"/>
  <circle cx="475" cy="305" r="6.333333333333334" fill="#dfe6e9" opacity="0.6333333333333333"/>
  <line x1="50" y1="330" x2="750" y2="330" stroke="#b2bec3" stroke-width="2.5" opacity="0.4"/>
  <circle cx="550" cy="330" r="7" fill="#74b9ff" opacity="0.7"/>
  <circle cx="502.417695473251" cy="352.1875" r="2.13125" fill="#dfe6e9" opacity="0.4546008735361932"/>
  <circle cx="526.3400205761317" cy="352.20336076817557" r="2.1315843621399178" fill="#74b9ff" opacity="0.4546008735361932"/>
  <circle cx="550.2623456790124" cy="352.21922153635114" r="2.1319187242798354" fill="#0984e3" opacity="0.4546008735361932"/>
  <circle cx="574.1846707818929" cy="352.23508230452677" r="2.132253086419753" fill="#636e72" opacity="0.4546008735361932"/>
  <circle cx="598.1069958847736" cy="352.25094307270234" r="2.1325874485596708" fill="#2d3436" opacity="0.4546008735361932"/>
  <circle cx="622.0293209876543" cy="352.2668038408779" r="2.1329218106995884" fill="#dfe6e9" opacity="0.4546008735361932"/>
  <circle cx="645.951646090535" cy="352.2826646090535" r="2.133256172839506" fill="#74b9ff" opacity="0.4546008735361932"/>
  <circle cx="669.8739711934156" cy="352.29852537722905" r="2.1335905349794237" fill="#0984e3" opacity="0.4546008735361932"/>
  <circle cx="693.7962962962963" cy="352.3143861454047" r="2.1339248971193414" fill="#636e72" opacity="0.4546008735361932"/>
  <circle cx="117.71862139917695" cy="352.33024691358025" r="2.134259259259259" fill="#2d3436" opacity="0.4546008735361932"/>
  <circle cx="141.6409465020576" cy="352.3461076817558" r="2.1345936213991767" fill="#dfe6e9" opacity="0.4546008735361932"/>
  <circle cx="165.56327160493828" cy="352.3619684499314" r="2.134927983539095" fill="#74b9ff" opacity="0.4546008735361932"/>
  <circle cx="189.48559670781893" cy="352.37782921810697" r="2.1352623456790125" fill="#0984e3" opacity="0.4546008735361932"/>
  <circle cx="213.40792181069958" cy="352.3936899862826" r="2.13559670781893" fill="#636e72" opacity="0.4546008735361932"/>
  <circle cx="237.33024691358025" cy="352.40955075445817" r="2.135931069958848" fill="#2d3436" opacity="0.4546008735361932"/>
  <circle cx="261.25257201646093" cy="352.42541152263374" r="2.1362654320987655" fill="#dfe6e9" opacity="0.4546008735361932"/>
  <circle cx="285.17489711934155" cy="352.4412722908093" r="2.136599794238683" fill="#74b9ff" opacity="0.4546008735361932"/>
  <circle cx="309.09722222222223" cy="352.45713305898494" r="2.136934156378601" fill="#0984e3" opacity="0.4546008735361932"/>
  <circle cx="333.01954732510285" cy="352.4729938271605" r="2.1372685185185185" fill="#636e72" opacity="0.4546008735361932"/>
  <circle cx="356.9418724279835" cy="352.4888545953361" r="2.137602880658436" fill="#2d3436" opacity="0.4546008735361932"/>
  <circle cx="380.8641975308642" cy="352.50471536351165" r="2.137937242798354" fill="#dfe6e9" opacity="0.4546008735361932"/>
  <circle cx="404.7865226337449" cy="352.5205761316872" r="2.1382716049382715" fill="#74b9ff" opacity="0.4546008735361932"/>
  <circle cx="428.7088477366255" cy="352.53643689986285" r="2.138605967078189" fill="#0984e3" opacity="0.4546008735361932"/>
  <circle cx="452.6311728395062" cy="352.5522976680384" r="2.138940329218107" fill="#636e72" opacity="0.4546008735361932"/>
  <circle cx="476.55349794238685" cy="352.568158436214" r="2.1392746913580245" fill="#2d3436" opacity="0.4546008735361932"/>
  <path d="M 50 480 Q 200 460 400 480" stroke="#0984e3" stroke-width="2" fill="none"/>
  <circle cx="400" cy="480" r="6" fill="#74b9ff"/>
  <text x="420" y="485" fill="#b2bec3" font-family="monospace" font-size="10">8b29ec3</text>
  <text x="50" y="485" fill="#b2bec3" font-family="monospace" font-size="10">main *</text>
  <rect x="50" y="550" width="148" height="15" fill="#dfe6e9" opacity="0.875"/><rect x="200" y="550" width="148" height="15" fill="#74b9ff" opacity="0.925"/><rect x="350" y="550" width="148" height="15" fill="#0984e3" opacity="0.725"/><rect x="500" y="550" width="148" height="15" fill="#636e72" opacity="0.525"/><rect x="650" y="550" width="148" height="15" fill="#2d3436" opacity="0.32499999999999996"/><text x="50" y="585" fill="#b2bec3" font-family="monospace" font-size="9">AWAKENING • CALIBRATION • ENGAGEMENT • SYNTHESIS • COMPLETION</text>
  
  <!-- Title -->
  <text x="400" y="30" fill="#74b9ff" font-family="monospace" font-size="14" text-anchor="middle">AIRGAPPED ARTIFACT • System Telemetry Visualization</text>
  
  <!-- Footer -->
  <text x="400" y="590" fill="#636e72" font-family="monospace" font-size="8" text-anchor="middle">State-Independent Visualization • Graceful Degradation • Dual-Path Rendering</text>
</svg>