<?xml version="1.0" encoding="UTF-8"?>
<!-- Airgapped Artifact - Independent of Session State -->
<!-- Generated: 2026-03-22T04:56:33.541Z -->
<svg xmlns="http://www.w3.org/2000/svg" viewBox="0 0 800 600" width="800" height="600">
  <defs>
    <linearGradient id="grad1" x1="0%" y1="0%" x2="0%" y2="100%">
      <stop offset="0%" style="stop-color:#1a1a2e;stop-opacity:1" />
      <stop offset="100%" style="stop-color:#1a1a2e;stop-opacity:1" />
    </linearGradient>
  </defs>
  <rect x="0" y="0" width="800" height="600" fill="#1a1a2e" />
  <rect x="50" y="50" width="200" height="20" fill="#16213e" stroke="#e94560" stroke-width="1"/>
  <rect x="50" y="50" width="12" height="20" fill="#e94560" opacity="0.7"/>
  <text x="260" y="65" fill="#e94560" font-family="monospace" font-size="12">MEM 6%</text>
  <rect x="50" y="109.1" width="5" height="10.9" fill="#0f3460" opacity="0.6"/>
  <rect x="120" y="106" width="5" height="14" fill="#0f3460" opacity="0.6"/>
  <rect x="190" y="101.7" width="5" height="18.3" fill="#0f3460" opacity="0.6"/>
  <text x="50" y="140" fill="#e94560" font-family="monospace" font-size="10">LOAD 1.09 1.40 1.83</text>
  <line x1="50" y1="180" x2="750" y2="180" stroke="#e94560" stroke-width="0.5" opacity="0.1"/>
  <circle cx="100" cy="180" r="3" fill="#ffeaa7" opacity="0.3"/>
  <line x1="50" y1="205" x2="750" y2="205" stroke="#e94560" stroke-width="0.8333333333333333" opacity="0.15"/>
  <circle cx="175" cy="205" r="3.6666666666666665" fill="#e94560" opacity="0.36666666666666664"/>
  <line x1="50" y1="230" x2="750" y2="230" stroke="#e94560" stroke-width="1.1666666666666665" opacity="0.2"/>
  <circle cx="250" cy="230" r="4.333333333333333" fill="#fd79a8" opacity="0.43333333333333335"/>
  <line x1="50" y1="255" x2="750" y2="255" stroke="#e94560" stroke-width="1.5" opacity="0.25"/>
  <circle cx="325" cy="255" r="5" fill="#16213e" opacity="0.5"/>
  <line x1="50" y1="280" x2="750" y2="280" stroke="#e94560" stroke-width="1.8333333333333333" opacity="0.3"/>
  <circle cx="400" cy="280" r="5.666666666666666" fill="#1a1a2e" opacity="0.5666666666666667"/>
  <line x1="50" y1="305" x2="750" y2="305" stroke="#e94560" stroke-width="2.166666666666667" opacity="0.35"/>
  <circle cx="475" cy="305" r="6.333333333333334" fill="#ffeaa7" opacity="0.6333333333333333"/>
  <line x1="50" y1="330" x2="750" y2="330" stroke="#e94560" stroke-width="2.5" opacity="0.4"/>
  <circle cx="550" cy="330" r="7" fill="#e94560" opacity="0.7"/>
  <circle cx="205.80504115226336" cy="351.440329218107" r="2.0864197530864197" fill="#ffeaa7" opacity="0.6531184204247351"/>
  <circle cx="229.72736625514403" cy="351.4561899862826" r="2.0867541152263374" fill="#e94560" opacity="0.6531184204247351"/>
  <circle cx="253.64969135802468" cy="351.47205075445817" r="2.087088477366255" fill="#fd79a8" opacity="0.6531184204247351"/>
  <circle cx="277.5720164609054" cy="351.48791152263374" r="2.0874228395061727" fill="#16213e" opacity="0.6531184204247351"/>
  <circle cx="301.494341563786" cy="351.5037722908093" r="2.0877572016460904" fill="#1a1a2e" opacity="0.6531184204247351"/>
  <circle cx="325.41666666666663" cy="351.51963305898494" r="2.088091563786008" fill="#ffeaa7" opacity="0.6531184204247351"/>
  <circle cx="349.3389917695473" cy="351.5354938271605" r="2.088425925925926" fill="#e94560" opacity="0.6531184204247351"/>
  <circle cx="373.261316872428" cy="351.5513545953361" r="2.088760288065844" fill="#fd79a8" opacity="0.6531184204247351"/>
  <circle cx="397.18364197530866" cy="351.56721536351165" r="2.0890946502057615" fill="#16213e" opacity="0.6531184204247351"/>
  <circle cx="421.1059670781893" cy="351.5830761316872" r="2.089429012345679" fill="#1a1a2e" opacity="0.6531184204247351"/>
  <circle cx="445.02829218106996" cy="351.59893689986285" r="2.089763374485597" fill="#ffeaa7" opacity="0.6531184204247351"/>
  <circle cx="468.95061728395063" cy="351.6147976680384" r="2.0900977366255145" fill="#e94560" opacity="0.6531184204247351"/>
  <circle cx="492.87294238683126" cy="351.630658436214" r="2.090432098765432" fill="#fd79a8" opacity="0.6531184204247351"/>
  <circle cx="516.7952674897119" cy="351.64651920438956" r="2.09076646090535" fill="#16213e" opacity="0.6531184204247351"/>
  <circle cx="540.7175925925926" cy="351.66237997256513" r="2.0911008230452675" fill="#1a1a2e" opacity="0.6531184204247351"/>
  <circle cx="564.6399176954733" cy="351.67824074074076" r="2.091435185185185" fill="#ffeaa7" opacity="0.6531184204247351"/>
  <circle cx="588.562242798354" cy="351.69410150891633" r="2.091769547325103" fill="#e94560" opacity="0.6531184204247351"/>
  <circle cx="612.4845679012345" cy="351.7099622770919" r="2.0921039094650205" fill="#fd79a8" opacity="0.6531184204247351"/>
  <circle cx="636.4068930041152" cy="351.7258230452675" r="2.092438271604938" fill="#16213e" opacity="0.6531184204247351"/>
  <circle cx="660.3292181069959" cy="351.74168381344305" r="2.092772633744856" fill="#1a1a2e" opacity="0.6531184204247351"/>
  <circle cx="684.2515432098766" cy="351.7575445816187" r="2.0931069958847734" fill="#ffeaa7" opacity="0.6531184204247351"/>
  <circle cx="108.17386831275721" cy="351.77340534979425" r="2.0934413580246916" fill="#e94560" opacity="0.6531184204247351"/>
  <circle cx="132.09619341563786" cy="351.7892661179698" r="2.093775720164609" fill="#fd79a8" opacity="0.6531184204247351"/>
  <circle cx="156.01851851851853" cy="351.8051268861454" r="2.094110082304527" fill="#16213e" opacity="0.6531184204247351"/>
  <circle cx="179.94084362139918" cy="351.820987654321" r="2.0944444444444446" fill="#1a1a2e" opacity="0.6531184204247351"/>
  <path d="M 50 480 Q 200 460 400 480" stroke="#fd79a8" stroke-width="2" fill="none"/>
  <circle cx="400" cy="480" r="6" fill="#e94560"/>
  <text x="420" y="485" fill="#e94560" font-family="monospace" font-size="10">6f567f1</text>
  <text x="50" y="485" fill="#e94560" font-family="monospace" font-size="10">main *</text>
  <rect x="50" y="550" width="148" height="15" fill="#ffeaa7" opacity="0.8333333333333334"/><rect x="200" y="550" width="148" height="15" fill="#e94560" opacity="0.9666666666666667"/><rect x="350" y="550" width="148" height="15" fill="#fd79a8" opacity="0.7666666666666666"/><rect x="500" y="550" width="148" height="15" fill="#16213e" opacity="0.5666666666666667"/><rect x="650" y="550" width="148" height="15" fill="#1a1a2e" opacity="0.3666666666666666"/><text x="50" y="585" fill="#e94560" font-family="monospace" font-size="9">AWAKENING • CALIBRATION • ENGAGEMENT • SYNTHESIS • COMPLETION</text>
  
  <!-- Title -->
  <text x="400" y="30" fill="#e94560" font-family="monospace" font-size="14" text-anchor="middle">AIRGAPPED ARTIFACT • System Telemetry Visualization</text>
  
  <!-- Footer -->
  <text x="400" y="590" fill="#16213e" font-family="monospace" font-size="8" text-anchor="middle">State-Independent Visualization • Graceful Degradation • Dual-Path Rendering</text>
</svg>