<?xml version="1.0" encoding="UTF-8"?>
<!-- Airgapped Artifact - Independent of Session State -->
<!-- Generated: 2026-03-22T19:25:24.098Z -->
<svg xmlns="http://www.w3.org/2000/svg" viewBox="0 0 800 600" width="800" height="600">
  <defs>
    <linearGradient id="grad1" x1="0%" y1="0%" x2="0%" y2="100%">
      <stop offset="0%" style="stop-color:#2d3436;stop-opacity:1" />
      <stop offset="100%" style="stop-color:#2d3436;stop-opacity:1" />
    </linearGradient>
  </defs>
  <rect x="0" y="0" width="800" height="600" fill="#2d3436" />
  <rect x="50" y="50" width="200" height="20" fill="#636e72" stroke="#b2bec3" stroke-width="1"/>
  <rect x="50" y="50" width="16" height="20" fill="#74b9ff" opacity="0.7"/>
  <text x="260" y="65" fill="#b2bec3" font-family="monospace" font-size="12">MEM 8%</text>
  <rect x="50" y="90" width="5" height="30" fill="#0984e3" opacity="0.6"/>
  <rect x="120" y="91" width="5" height="29" fill="#0984e3" opacity="0.6"/>
  <rect x="190" y="95.7" width="5" height="24.3" fill="#0984e3" opacity="0.6"/>
  <text x="50" y="140" fill="#b2bec3" font-family="monospace" font-size="10">LOAD 3.11 2.90 2.43</text>
  <line x1="50" y1="180" x2="750" y2="180" stroke="#b2bec3" stroke-width="0.5" opacity="0.1"/>
  <circle cx="100" cy="180" r="3" fill="#dfe6e9" opacity="0.3"/>
  <line x1="50" y1="205" x2="750" y2="205" stroke="#b2bec3" stroke-width="0.8333333333333333" opacity="0.15"/>
  <circle cx="175" cy="205" r="3.6666666666666665" fill="#74b9ff" opacity="0.36666666666666664"/>
  <line x1="50" y1="230" x2="750" y2="230" stroke="#b2bec3" stroke-width="1.1666666666666665" opacity="0.2"/>
  <circle cx="250" cy="230" r="4.333333333333333" fill="#0984e3" opacity="0.43333333333333335"/>
  <line x1="50" y1="255" x2="750" y2="255" stroke="#b2bec3" stroke-width="1.5" opacity="0.25"/>
  <circle cx="325" cy="255" r="5" fill="#636e72" opacity="0.5"/>
  <line x1="50" y1="280" x2="750" y2="280" stroke="#b2bec3" stroke-width="1.8333333333333333" opacity="0.3"/>
  <circle cx="400" cy="280" r="5.666666666666666" fill="#2d3436" opacity="0.5666666666666667"/>
  <line x1="50" y1="305" x2="750" y2="305" stroke="#b2bec3" stroke-width="2.166666666666667" opacity="0.35"/>
  <circle cx="475" cy="305" r="6.333333333333334" fill="#dfe6e9" opacity="0.6333333333333333"/>
  <line x1="50" y1="330" x2="750" y2="330" stroke="#b2bec3" stroke-width="2.5" opacity="0.4"/>
  <circle cx="550" cy="330" r="7" fill="#74b9ff" opacity="0.7"/>
  <circle cx="144.9871399176955" cy="351.64351851851853" r="2.098611111111111" fill="#dfe6e9" opacity="0.6358497088265715"/>
  <circle cx="168.90946502057614" cy="351.6593792866941" r="2.0989454732510286" fill="#74b9ff" opacity="0.6358497088265715"/>
  <circle cx="192.83179012345678" cy="351.6752400548697" r="2.0992798353909463" fill="#0984e3" opacity="0.6358497088265715"/>
  <circle cx="216.75411522633743" cy="351.69110082304525" r="2.099614197530864" fill="#636e72" opacity="0.6358497088265715"/>
  <circle cx="240.6764403292181" cy="351.7069615912209" r="2.099948559670782" fill="#2d3436" opacity="0.6358497088265715"/>
  <circle cx="264.5987654320988" cy="351.72282235939645" r="2.1002829218106998" fill="#dfe6e9" opacity="0.6358497088265715"/>
  <circle cx="288.5210905349794" cy="351.738683127572" r="2.1006172839506174" fill="#74b9ff" opacity="0.6358497088265715"/>
  <circle cx="312.4434156378601" cy="351.7545438957476" r="2.100951646090535" fill="#0984e3" opacity="0.6358497088265715"/>
  <circle cx="336.36574074074076" cy="351.77040466392316" r="2.1012860082304528" fill="#636e72" opacity="0.6358497088265715"/>
  <circle cx="360.2880658436214" cy="351.7862654320988" r="2.1016203703703704" fill="#2d3436" opacity="0.6358497088265715"/>
  <circle cx="384.21039094650206" cy="351.80212620027436" r="2.101954732510288" fill="#dfe6e9" opacity="0.6358497088265715"/>
  <circle cx="408.1327160493827" cy="351.81798696844993" r="2.1022890946502057" fill="#74b9ff" opacity="0.6358497088265715"/>
  <circle cx="432.05504115226336" cy="351.8338477366255" r="2.1026234567901234" fill="#0984e3" opacity="0.6358497088265715"/>
  <circle cx="455.97736625514403" cy="351.8497085048011" r="2.102957818930041" fill="#636e72" opacity="0.6358497088265715"/>
  <circle cx="479.8996913580247" cy="351.8655692729767" r="2.1032921810699587" fill="#2d3436" opacity="0.6358497088265715"/>
  <circle cx="503.82201646090533" cy="351.88143004115227" r="2.1036265432098764" fill="#dfe6e9" opacity="0.6358497088265715"/>
  <circle cx="527.7443415637861" cy="351.89729080932784" r="2.103960905349794" fill="#74b9ff" opacity="0.6358497088265715"/>
  <circle cx="551.6666666666667" cy="351.9131515775034" r="2.1042952674897117" fill="#0984e3" opacity="0.6358497088265715"/>
  <circle cx="575.5889917695473" cy="351.929012345679" r="2.1046296296296294" fill="#636e72" opacity="0.6358497088265715"/>
  <circle cx="599.511316872428" cy="351.9448731138546" r="2.1049639917695475" fill="#2d3436" opacity="0.6358497088265715"/>
  <circle cx="623.4336419753087" cy="351.9607338820302" r="2.105298353909465" fill="#dfe6e9" opacity="0.6358497088265715"/>
  <circle cx="647.3559670781893" cy="351.97659465020575" r="2.105632716049383" fill="#74b9ff" opacity="0.6358497088265715"/>
  <circle cx="671.2782921810699" cy="351.9924554183813" r="2.1059670781893005" fill="#0984e3" opacity="0.6358497088265715"/>
  <circle cx="695.2006172839506" cy="352.00831618655695" r="2.106301440329218" fill="#636e72" opacity="0.6358497088265715"/>
  <circle cx="119.12294238683128" cy="352.0241769547325" r="2.106635802469136" fill="#2d3436" opacity="0.6358497088265715"/>
  <circle cx="143.04526748971193" cy="352.0400377229081" r="2.1069701646090535" fill="#dfe6e9" opacity="0.6358497088265715"/>
  <circle cx="166.9675925925926" cy="352.05589849108367" r="2.107304526748971" fill="#74b9ff" opacity="0.6358497088265715"/>
  <circle cx="190.88991769547326" cy="352.07175925925924" r="2.107638888888889" fill="#0984e3" opacity="0.6358497088265715"/>
  <circle cx="214.8122427983539" cy="352.08762002743487" r="2.1079732510288065" fill="#636e72" opacity="0.6358497088265715"/>
  <circle cx="238.73456790123458" cy="352.10348079561044" r="2.108307613168724" fill="#2d3436" opacity="0.6358497088265715"/>
  <circle cx="262.6568930041152" cy="352.119341563786" r="2.108641975308642" fill="#dfe6e9" opacity="0.6358497088265715"/>
  <path d="M 50 480 Q 200 460 400 480" stroke="#0984e3" stroke-width="2" fill="none"/>
  <circle cx="400" cy="480" r="6" fill="#74b9ff"/>
  <text x="420" y="485" fill="#b2bec3" font-family="monospace" font-size="10">1e97aff</text>
  <text x="50" y="485" fill="#b2bec3" font-family="monospace" font-size="10">main *</text>
  <rect x="50" y="550" width="148" height="15" fill="#dfe6e9" opacity="0.20833333333333337"/><rect x="200" y="550" width="148" height="15" fill="#74b9ff" opacity="0.40833333333333344"/><rect x="350" y="550" width="148" height="15" fill="#0984e3" opacity="0.6083333333333334"/><rect x="500" y="550" width="148" height="15" fill="#636e72" opacity="0.8083333333333333"/><rect x="650" y="550" width="148" height="15" fill="#2d3436" opacity="0.9916666666666666"/><text x="50" y="585" fill="#b2bec3" font-family="monospace" font-size="9">AWAKENING • CALIBRATION • ENGAGEMENT • SYNTHESIS • COMPLETION</text>
  
  <!-- Title -->
  <text x="400" y="30" fill="#74b9ff" font-family="monospace" font-size="14" text-anchor="middle">AIRGAPPED ARTIFACT • System Telemetry Visualization</text>
  
  <!-- Footer -->
  <text x="400" y="590" fill="#636e72" font-family="monospace" font-size="8" text-anchor="middle">State-Independent Visualization • Graceful Degradation • Dual-Path Rendering</text>
</svg>