<?xml version="1.0" encoding="UTF-8"?>
<!-- Airgapped Artifact - Independent of Session State -->
<!-- Generated: 2026-03-22T03:20:19.604Z -->
<svg xmlns="http://www.w3.org/2000/svg" viewBox="0 0 800 600" width="800" height="600">
  <defs>
    <linearGradient id="grad1" x1="0%" y1="0%" x2="0%" y2="100%">
      <stop offset="0%" style="stop-color:#2d3436;stop-opacity:1" />
      <stop offset="100%" style="stop-color:#2d3436;stop-opacity:1" />
    </linearGradient>
  </defs>
  <rect x="0" y="0" width="800" height="600" fill="#2d3436" />
  <rect x="50" y="50" width="200" height="20" fill="#636e72" stroke="#b2bec3" stroke-width="1"/>
  <rect x="50" y="50" width="12" height="20" fill="#74b9ff" opacity="0.7"/>
  <text x="260" y="65" fill="#b2bec3" font-family="monospace" font-size="12">MEM 6%</text>
  <rect x="50" y="102.4" width="5" height="17.6" fill="#0984e3" opacity="0.6"/>
  <rect x="120" y="97.3" width="5" height="22.7" fill="#0984e3" opacity="0.6"/>
  <rect x="190" y="95.1" width="5" height="24.900000000000002" fill="#0984e3" opacity="0.6"/>
  <text x="50" y="140" fill="#b2bec3" font-family="monospace" font-size="10">LOAD 1.76 2.27 2.49</text>
  <line x1="50" y1="180" x2="750" y2="180" stroke="#b2bec3" stroke-width="0.5" opacity="0.1"/>
  <circle cx="100" cy="180" r="3" fill="#dfe6e9" opacity="0.3"/>
  <line x1="50" y1="201.42857142857142" x2="750" y2="201.42857142857142" stroke="#b2bec3" stroke-width="0.7857142857142857" opacity="0.14285714285714285"/>
  <circle cx="175" cy="201.42857142857142" r="3.571428571428571" fill="#74b9ff" opacity="0.35714285714285715"/>
  <line x1="50" y1="222.85714285714286" x2="750" y2="222.85714285714286" stroke="#b2bec3" stroke-width="1.0714285714285714" opacity="0.18571428571428572"/>
  <circle cx="250" cy="222.85714285714286" r="4.142857142857142" fill="#0984e3" opacity="0.41428571428571426"/>
  <line x1="50" y1="244.28571428571428" x2="750" y2="244.28571428571428" stroke="#b2bec3" stroke-width="1.3571428571428572" opacity="0.22857142857142856"/>
  <circle cx="325" cy="244.28571428571428" r="4.714285714285714" fill="#636e72" opacity="0.4714285714285714"/>
  <line x1="50" y1="265.7142857142857" x2="750" y2="265.7142857142857" stroke="#b2bec3" stroke-width="1.6428571428571428" opacity="0.2714285714285714"/>
  <circle cx="400" cy="265.7142857142857" r="5.285714285714286" fill="#2d3436" opacity="0.5285714285714286"/>
  <line x1="50" y1="287.1428571428571" x2="750" y2="287.1428571428571" stroke="#b2bec3" stroke-width="1.9285714285714286" opacity="0.3142857142857143"/>
  <circle cx="475" cy="287.1428571428571" r="5.857142857142858" fill="#dfe6e9" opacity="0.5857142857142857"/>
  <line x1="50" y1="308.57142857142856" x2="750" y2="308.57142857142856" stroke="#b2bec3" stroke-width="2.2142857142857144" opacity="0.3571428571428571"/>
  <circle cx="550" cy="308.57142857142856" r="6.428571428571429" fill="#74b9ff" opacity="0.6428571428571428"/>
  <line x1="50" y1="330" x2="750" y2="330" stroke="#b2bec3" stroke-width="2.5" opacity="0.4"/>
  <circle cx="625" cy="330" r="7" fill="#0984e3" opacity="0.7"/>
  <circle cx="642.9783950617284" cy="354.0607853223594" r="2.243647119341564" fill="#dfe6e9" opacity="0.261325455542562"/>
  <circle cx="666.9007201646091" cy="354.07664609053495" r="2.2439814814814816" fill="#74b9ff" opacity="0.261325455542562"/>
  <circle cx="690.8230452674898" cy="354.0925068587106" r="2.2443158436213992" fill="#0984e3" opacity="0.261325455542562"/>
  <circle cx="114.74537037037037" cy="354.10836762688615" r="2.244650205761317" fill="#636e72" opacity="0.261325455542562"/>
  <circle cx="138.66769547325103" cy="354.1242283950617" r="2.2449845679012346" fill="#2d3436" opacity="0.261325455542562"/>
  <circle cx="162.59002057613168" cy="354.1400891632373" r="2.2453189300411522" fill="#dfe6e9" opacity="0.261325455542562"/>
  <circle cx="186.51234567901236" cy="354.1559499314129" r="2.24565329218107" fill="#74b9ff" opacity="0.261325455542562"/>
  <circle cx="210.434670781893" cy="354.1718106995885" r="2.2459876543209876" fill="#0984e3" opacity="0.261325455542562"/>
  <circle cx="234.35699588477365" cy="354.18767146776406" r="2.2463220164609052" fill="#636e72" opacity="0.261325455542562"/>
  <circle cx="258.27932098765433" cy="354.20353223593963" r="2.246656378600823" fill="#2d3436" opacity="0.261325455542562"/>
  <circle cx="282.20164609053495" cy="354.2193930041152" r="2.2469907407407406" fill="#dfe6e9" opacity="0.261325455542562"/>
  <circle cx="306.1239711934156" cy="354.23525377229083" r="2.2473251028806587" fill="#74b9ff" opacity="0.261325455542562"/>
  <circle cx="330.0462962962963" cy="354.2511145404664" r="2.2476594650205763" fill="#0984e3" opacity="0.261325455542562"/>
  <circle cx="353.968621399177" cy="354.266975308642" r="2.247993827160494" fill="#636e72" opacity="0.261325455542562"/>
  <circle cx="377.8909465020576" cy="354.28283607681755" r="2.2483281893004117" fill="#2d3436" opacity="0.261325455542562"/>
  <circle cx="401.8132716049383" cy="354.2986968449931" r="2.2486625514403293" fill="#dfe6e9" opacity="0.261325455542562"/>
  <circle cx="425.73559670781896" cy="354.31455761316874" r="2.248996913580247" fill="#74b9ff" opacity="0.261325455542562"/>
  <circle cx="449.65792181069963" cy="354.3304183813443" r="2.2493312757201647" fill="#0984e3" opacity="0.261325455542562"/>
  <circle cx="473.58024691358025" cy="354.3462791495199" r="2.2496656378600823" fill="#636e72" opacity="0.261325455542562"/>
  <circle cx="497.50257201646093" cy="354.36213991769546" r="2.25" fill="#2d3436" opacity="0.261325455542562"/>
  <circle cx="521.4248971193416" cy="354.37800068587103" r="2.2503343621399177" fill="#dfe6e9" opacity="0.261325455542562"/>
  <circle cx="545.3472222222222" cy="354.39386145404666" r="2.2506687242798353" fill="#74b9ff" opacity="0.261325455542562"/>
  <circle cx="569.2695473251028" cy="354.40972222222223" r="2.251003086419753" fill="#0984e3" opacity="0.261325455542562"/>
  <circle cx="593.1918724279835" cy="354.4255829903978" r="2.2513374485596707" fill="#636e72" opacity="0.261325455542562"/>
  <circle cx="617.1141975308642" cy="354.44144375857337" r="2.2516718106995883" fill="#2d3436" opacity="0.261325455542562"/>
  <circle cx="641.0365226337449" cy="354.457304526749" r="2.252006172839506" fill="#dfe6e9" opacity="0.261325455542562"/>
  <circle cx="664.9588477366256" cy="354.47316529492457" r="2.2523405349794237" fill="#74b9ff" opacity="0.261325455542562"/>
  <circle cx="688.8811728395061" cy="354.48902606310014" r="2.2526748971193413" fill="#0984e3" opacity="0.261325455542562"/>
  <path d="M 50 480 Q 200 460 400 480" stroke="#74b9ff" stroke-width="2" fill="none"/>
  <circle cx="400" cy="480" r="6" fill="#74b9ff"/>
  <text x="420" y="485" fill="#b2bec3" font-family="monospace" font-size="10">c5602dd</text>
  <text x="50" y="485" fill="#b2bec3" font-family="monospace" font-size="10">main</text>
  <rect x="50" y="550" width="148" height="15" fill="#dfe6e9" opacity="0.875"/><rect x="200" y="550" width="148" height="15" fill="#74b9ff" opacity="0.925"/><rect x="350" y="550" width="148" height="15" fill="#0984e3" opacity="0.725"/><rect x="500" y="550" width="148" height="15" fill="#636e72" opacity="0.525"/><rect x="650" y="550" width="148" height="15" fill="#2d3436" opacity="0.32499999999999996"/><text x="50" y="585" fill="#b2bec3" font-family="monospace" font-size="9">AWAKENING • CALIBRATION • ENGAGEMENT • SYNTHESIS • COMPLETION</text>
  
  <!-- Title -->
  <text x="400" y="30" fill="#74b9ff" font-family="monospace" font-size="14" text-anchor="middle">AIRGAPPED ARTIFACT • System Telemetry Visualization</text>
  
  <!-- Footer -->
  <text x="400" y="590" fill="#636e72" font-family="monospace" font-size="8" text-anchor="middle">State-Independent Visualization • Graceful Degradation • Dual-Path Rendering</text>
</svg>