<?xml version="1.0" encoding="UTF-8"?>
<!-- Airgapped Artifact - Independent of Session State -->
<!-- Generated: 2026-03-22T22:01:22.481Z -->
<svg xmlns="http://www.w3.org/2000/svg" viewBox="0 0 800 600" width="800" height="600">
  <defs>
    <linearGradient id="grad1" x1="0%" y1="0%" x2="0%" y2="100%">
      <stop offset="0%" style="stop-color:#2d3436;stop-opacity:1" />
      <stop offset="100%" style="stop-color:#2d3436;stop-opacity:1" />
    </linearGradient>
  </defs>
  <rect x="0" y="0" width="800" height="600" fill="#2d3436" />
  <rect x="50" y="50" width="200" height="20" fill="#636e72" stroke="#b2bec3" stroke-width="1"/>
  <rect x="50" y="50" width="16" height="20" fill="#74b9ff" opacity="0.7"/>
  <text x="260" y="65" fill="#b2bec3" font-family="monospace" font-size="12">MEM 8%</text>
  <rect x="50" y="100" width="5" height="20" fill="#0984e3" opacity="0.6"/>
  <rect x="120" y="96.3" width="5" height="23.700000000000003" fill="#0984e3" opacity="0.6"/>
  <rect x="190" y="97.6" width="5" height="22.400000000000002" fill="#0984e3" opacity="0.6"/>
  <text x="50" y="140" fill="#b2bec3" font-family="monospace" font-size="10">LOAD 2.00 2.37 2.24</text>
  <line x1="50" y1="180" x2="750" y2="180" stroke="#b2bec3" stroke-width="0.5" opacity="0.1"/>
  <circle cx="100" cy="180" r="3" fill="#dfe6e9" opacity="0.3"/>
  <line x1="50" y1="205" x2="750" y2="205" stroke="#b2bec3" stroke-width="0.8333333333333333" opacity="0.15"/>
  <circle cx="175" cy="205" r="3.6666666666666665" fill="#74b9ff" opacity="0.36666666666666664"/>
  <line x1="50" y1="230" x2="750" y2="230" stroke="#b2bec3" stroke-width="1.1666666666666665" opacity="0.2"/>
  <circle cx="250" cy="230" r="4.333333333333333" fill="#0984e3" opacity="0.43333333333333335"/>
  <line x1="50" y1="255" x2="750" y2="255" stroke="#b2bec3" stroke-width="1.5" opacity="0.25"/>
  <circle cx="325" cy="255" r="5" fill="#636e72" opacity="0.5"/>
  <line x1="50" y1="280" x2="750" y2="280" stroke="#b2bec3" stroke-width="1.8333333333333333" opacity="0.3"/>
  <circle cx="400" cy="280" r="5.666666666666666" fill="#2d3436" opacity="0.5666666666666667"/>
  <line x1="50" y1="305" x2="750" y2="305" stroke="#b2bec3" stroke-width="2.166666666666667" opacity="0.35"/>
  <circle cx="475" cy="305" r="6.333333333333334" fill="#dfe6e9" opacity="0.6333333333333333"/>
  <line x1="50" y1="330" x2="750" y2="330" stroke="#b2bec3" stroke-width="2.5" opacity="0.4"/>
  <circle cx="550" cy="330" r="7" fill="#74b9ff" opacity="0.7"/>
  <circle cx="119.9074074074074" cy="350.9872256515775" r="2.05923353909465" fill="#dfe6e9" opacity="0.49612657545709415"/>
  <circle cx="143.82973251028807" cy="351.00308641975306" r="2.059567901234568" fill="#74b9ff" opacity="0.49612657545709415"/>
  <circle cx="167.75205761316872" cy="351.0189471879287" r="2.0599022633744855" fill="#0984e3" opacity="0.49612657545709415"/>
  <circle cx="191.6743827160494" cy="351.03480795610426" r="2.060236625514403" fill="#636e72" opacity="0.49612657545709415"/>
  <circle cx="215.59670781893004" cy="351.05066872427983" r="2.060570987654321" fill="#2d3436" opacity="0.49612657545709415"/>
  <circle cx="239.5190329218107" cy="351.0665294924554" r="2.060905349794239" fill="#dfe6e9" opacity="0.49612657545709415"/>
  <circle cx="263.44135802469134" cy="351.082390260631" r="2.0612397119341566" fill="#74b9ff" opacity="0.49612657545709415"/>
  <circle cx="287.363683127572" cy="351.0982510288066" r="2.0615740740740742" fill="#0984e3" opacity="0.49612657545709415"/>
  <circle cx="311.2860082304527" cy="351.1141117969822" r="2.061908436213992" fill="#636e72" opacity="0.49612657545709415"/>
  <circle cx="335.20833333333337" cy="351.12997256515774" r="2.0622427983539096" fill="#2d3436" opacity="0.49612657545709415"/>
  <circle cx="359.130658436214" cy="351.1458333333333" r="2.062577160493827" fill="#dfe6e9" opacity="0.49612657545709415"/>
  <circle cx="383.05298353909467" cy="351.16169410150894" r="2.062911522633745" fill="#74b9ff" opacity="0.49612657545709415"/>
  <circle cx="406.9753086419753" cy="351.1775548696845" r="2.0632458847736626" fill="#0984e3" opacity="0.49612657545709415"/>
  <circle cx="430.89763374485597" cy="351.1934156378601" r="2.06358024691358" fill="#636e72" opacity="0.49612657545709415"/>
  <circle cx="454.81995884773664" cy="351.20927640603566" r="2.063914609053498" fill="#2d3436" opacity="0.49612657545709415"/>
  <circle cx="478.74228395061726" cy="351.2251371742112" r="2.0642489711934155" fill="#dfe6e9" opacity="0.49612657545709415"/>
  <circle cx="502.66460905349794" cy="351.24099794238685" r="2.064583333333333" fill="#74b9ff" opacity="0.49612657545709415"/>
  <circle cx="526.5869341563787" cy="351.2568587105624" r="2.064917695473251" fill="#0984e3" opacity="0.49612657545709415"/>
  <circle cx="550.5092592592592" cy="351.272719478738" r="2.0652520576131685" fill="#636e72" opacity="0.49612657545709415"/>
  <circle cx="574.4315843621399" cy="351.28858024691357" r="2.065586419753086" fill="#2d3436" opacity="0.49612657545709415"/>
  <circle cx="598.3539094650206" cy="351.30444101508914" r="2.0659207818930043" fill="#dfe6e9" opacity="0.49612657545709415"/>
  <circle cx="622.2762345679013" cy="351.32030178326477" r="2.066255144032922" fill="#74b9ff" opacity="0.49612657545709415"/>
  <circle cx="646.198559670782" cy="351.33616255144034" r="2.0665895061728397" fill="#0984e3" opacity="0.49612657545709415"/>
  <circle cx="670.1208847736625" cy="351.3520233196159" r="2.0669238683127573" fill="#636e72" opacity="0.49612657545709415"/>
  <circle cx="694.0432098765432" cy="351.3678840877915" r="2.067258230452675" fill="#2d3436" opacity="0.49612657545709415"/>
  <path d="M 50 480 Q 200 460 400 480" stroke="#0984e3" stroke-width="2" fill="none"/>
  <circle cx="400" cy="480" r="6" fill="#74b9ff"/>
  <text x="420" y="485" fill="#b2bec3" font-family="monospace" font-size="10">4304ab6</text>
  <text x="50" y="485" fill="#b2bec3" font-family="monospace" font-size="10">main *</text>
  <rect x="50" y="550" width="148" height="15" fill="#dfe6e9" opacity="0.08333333333333337"/><rect x="200" y="550" width="148" height="15" fill="#74b9ff" opacity="0.28333333333333344"/><rect x="350" y="550" width="148" height="15" fill="#0984e3" opacity="0.4833333333333334"/><rect x="500" y="550" width="148" height="15" fill="#636e72" opacity="0.6833333333333333"/><rect x="650" y="550" width="148" height="15" fill="#2d3436" opacity="0.8833333333333334"/><text x="50" y="585" fill="#b2bec3" font-family="monospace" font-size="9">AWAKENING • CALIBRATION • ENGAGEMENT • SYNTHESIS • COMPLETION</text>
  
  <!-- Title -->
  <text x="400" y="30" fill="#74b9ff" font-family="monospace" font-size="14" text-anchor="middle">AIRGAPPED ARTIFACT • System Telemetry Visualization</text>
  
  <!-- Footer -->
  <text x="400" y="590" fill="#636e72" font-family="monospace" font-size="8" text-anchor="middle">State-Independent Visualization • Graceful Degradation • Dual-Path Rendering</text>
</svg>