<?xml version="1.0" encoding="UTF-8"?>
<!-- Airgapped Artifact - Independent of Session State -->
<!-- Generated: 2026-03-22T05:15:27.671Z -->
<svg xmlns="http://www.w3.org/2000/svg" viewBox="0 0 800 600" width="800" height="600">
  <defs>
    <linearGradient id="grad1" x1="0%" y1="0%" x2="0%" y2="100%">
      <stop offset="0%" style="stop-color:#000000;stop-opacity:1" />
      <stop offset="100%" style="stop-color:#000000;stop-opacity:1" />
    </linearGradient>
  </defs>
  <rect x="0" y="0" width="800" height="600" fill="#000000" />
  <rect x="50" y="50" width="200" height="20" fill="#1a1a1a" stroke="#333333" stroke-width="1"/>
  <rect x="50" y="50" width="12" height="20" fill="#4a4a4a" opacity="0.7"/>
  <text x="260" y="65" fill="#333333" font-family="monospace" font-size="12">MEM 6%</text>
  <rect x="50" y="102.7" width="5" height="17.3" fill="#000000" opacity="0.6"/>
  <rect x="120" y="104" width="5" height="16" fill="#000000" opacity="0.6"/>
  <rect x="190" y="102.2" width="5" height="17.8" fill="#000000" opacity="0.6"/>
  <text x="50" y="140" fill="#333333" font-family="monospace" font-size="10">LOAD 1.73 1.60 1.78</text>
  <line x1="50" y1="180" x2="750" y2="180" stroke="#333333" stroke-width="0.5" opacity="0.1"/>
  <circle cx="100" cy="180" r="3" fill="#ffffff" opacity="0.3"/>
  <line x1="50" y1="198.75" x2="750" y2="198.75" stroke="#333333" stroke-width="0.75" opacity="0.1375"/>
  <circle cx="175" cy="198.75" r="3.5" fill="#aaaaaa" opacity="0.35"/>
  <line x1="50" y1="217.5" x2="750" y2="217.5" stroke="#333333" stroke-width="1" opacity="0.175"/>
  <circle cx="250" cy="217.5" r="4" fill="#666666" opacity="0.4"/>
  <line x1="50" y1="236.25" x2="750" y2="236.25" stroke="#333333" stroke-width="1.25" opacity="0.2125"/>
  <circle cx="325" cy="236.25" r="4.5" fill="#333333" opacity="0.45"/>
  <line x1="50" y1="255" x2="750" y2="255" stroke="#333333" stroke-width="1.5" opacity="0.25"/>
  <circle cx="400" cy="255" r="5" fill="#000000" opacity="0.5"/>
  <line x1="50" y1="273.75" x2="750" y2="273.75" stroke="#333333" stroke-width="1.75" opacity="0.2875"/>
  <circle cx="475" cy="273.75" r="5.5" fill="#ffffff" opacity="0.55"/>
  <line x1="50" y1="292.5" x2="750" y2="292.5" stroke="#333333" stroke-width="2" opacity="0.32499999999999996"/>
  <circle cx="550" cy="292.5" r="6" fill="#aaaaaa" opacity="0.6000000000000001"/>
  <line x1="50" y1="311.25" x2="750" y2="311.25" stroke="#333333" stroke-width="2.25" opacity="0.36250000000000004"/>
  <circle cx="625" cy="311.25" r="6.5" fill="#666666" opacity="0.65"/>
  <line x1="50" y1="330" x2="750" y2="330" stroke="#333333" stroke-width="2.5" opacity="0.4"/>
  <circle cx="700" cy="330" r="7" fill="#333333" opacity="0.7"/>
  <circle cx="654.7942386831276" cy="353.2008744855967" r="2.1920524691358025" fill="#ffffff" opacity="0.2577724025372949"/>
  <circle cx="678.7165637860082" cy="353.2167352537723" r="2.19238683127572" fill="#aaaaaa" opacity="0.2577724025372949"/>
  <circle cx="102.63888888888889" cy="353.23259602194787" r="2.192721193415638" fill="#666666" opacity="0.2577724025372949"/>
  <circle cx="126.56121399176955" cy="353.24845679012344" r="2.1930555555555555" fill="#333333" opacity="0.2577724025372949"/>
  <circle cx="150.4835390946502" cy="353.264317558299" r="2.193389917695473" fill="#000000" opacity="0.2577724025372949"/>
  <circle cx="174.40586419753086" cy="353.28017832647464" r="2.193724279835391" fill="#ffffff" opacity="0.2577724025372949"/>
  <circle cx="198.3281893004115" cy="353.2960390946502" r="2.1940586419753085" fill="#aaaaaa" opacity="0.2577724025372949"/>
  <circle cx="222.2505144032922" cy="353.3118998628258" r="2.194393004115226" fill="#666666" opacity="0.2577724025372949"/>
  <circle cx="246.17283950617283" cy="353.32776063100135" r="2.194727366255144" fill="#333333" opacity="0.2577724025372949"/>
  <circle cx="270.09516460905354" cy="353.343621399177" r="2.1950617283950615" fill="#000000" opacity="0.2577724025372949"/>
  <circle cx="294.01748971193416" cy="353.35948216735255" r="2.195396090534979" fill="#ffffff" opacity="0.2577724025372949"/>
  <circle cx="317.93981481481484" cy="353.3753429355281" r="2.1957304526748973" fill="#aaaaaa" opacity="0.2577724025372949"/>
  <circle cx="341.86213991769546" cy="353.3912037037037" r="2.196064814814815" fill="#666666" opacity="0.2577724025372949"/>
  <circle cx="365.78446502057614" cy="353.40706447187927" r="2.1963991769547326" fill="#333333" opacity="0.2577724025372949"/>
  <circle cx="389.7067901234568" cy="353.4229252400549" r="2.1967335390946503" fill="#000000" opacity="0.2577724025372949"/>
  <circle cx="413.62911522633743" cy="353.43878600823047" r="2.197067901234568" fill="#ffffff" opacity="0.2577724025372949"/>
  <circle cx="437.5514403292181" cy="353.45464677640604" r="2.1974022633744856" fill="#aaaaaa" opacity="0.2577724025372949"/>
  <circle cx="461.47376543209873" cy="353.4705075445816" r="2.1977366255144033" fill="#666666" opacity="0.2577724025372949"/>
  <circle cx="485.3960905349794" cy="353.4863683127572" r="2.198070987654321" fill="#333333" opacity="0.2577724025372949"/>
  <circle cx="509.3184156378601" cy="353.5022290809328" r="2.1984053497942386" fill="#000000" opacity="0.2577724025372949"/>
  <circle cx="533.2407407407406" cy="353.5180898491084" r="2.1987397119341563" fill="#ffffff" opacity="0.2577724025372949"/>
  <circle cx="557.1630658436213" cy="353.53395061728395" r="2.199074074074074" fill="#aaaaaa" opacity="0.2577724025372949"/>
  <circle cx="581.085390946502" cy="353.5498113854595" r="2.1994084362139916" fill="#666666" opacity="0.2577724025372949"/>
  <circle cx="605.0077160493827" cy="353.5656721536351" r="2.1997427983539093" fill="#333333" opacity="0.2577724025372949"/>
  <circle cx="628.9300411522634" cy="353.5815329218107" r="2.2000771604938274" fill="#000000" opacity="0.2577724025372949"/>
  <circle cx="652.852366255144" cy="353.5973936899863" r="2.200411522633745" fill="#ffffff" opacity="0.2577724025372949"/>
  <circle cx="676.7746913580247" cy="353.61325445816186" r="2.2007458847736627" fill="#aaaaaa" opacity="0.2577724025372949"/>
  <circle cx="100.69701646090535" cy="353.62911522633743" r="2.2010802469135804" fill="#666666" opacity="0.2577724025372949"/>
  <circle cx="124.61934156378601" cy="353.644975994513" r="2.201414609053498" fill="#333333" opacity="0.2577724025372949"/>
  <circle cx="148.54166666666669" cy="353.66083676268863" r="2.2017489711934157" fill="#000000" opacity="0.2577724025372949"/>
  <circle cx="172.46399176954733" cy="353.6766975308642" r="2.2020833333333334" fill="#ffffff" opacity="0.2577724025372949"/>
  <path d="M 50 480 Q 200 460 400 480" stroke="#666666" stroke-width="2" fill="none"/>
  <circle cx="400" cy="480" r="6" fill="#4a4a4a"/>
  <text x="420" y="485" fill="#333333" font-family="monospace" font-size="10">c8093ff</text>
  <text x="50" y="485" fill="#333333" font-family="monospace" font-size="10">main *</text>
  <rect x="50" y="550" width="148" height="15" fill="#ffffff" opacity="0.7916666666666666"/><rect x="200" y="550" width="148" height="15" fill="#aaaaaa" opacity="0.9916666666666667"/><rect x="350" y="550" width="148" height="15" fill="#666666" opacity="0.8083333333333333"/><rect x="500" y="550" width="148" height="15" fill="#333333" opacity="0.6083333333333334"/><rect x="650" y="550" width="148" height="15" fill="#000000" opacity="0.4083333333333333"/><text x="50" y="585" fill="#333333" font-family="monospace" font-size="9">AWAKENING • CALIBRATION • ENGAGEMENT • SYNTHESIS • COMPLETION</text>
  
  <!-- Title -->
  <text x="400" y="30" fill="#4a4a4a" font-family="monospace" font-size="14" text-anchor="middle">AIRGAPPED ARTIFACT • System Telemetry Visualization</text>
  
  <!-- Footer -->
  <text x="400" y="590" fill="#1a1a1a" font-family="monospace" font-size="8" text-anchor="middle">State-Independent Visualization • Graceful Degradation • Dual-Path Rendering</text>
</svg>