<?xml version="1.0" encoding="UTF-8"?>
<!-- Airgapped Artifact - Independent of Session State -->
<!-- Generated: 2026-03-22T06:40:16.470Z -->
<svg xmlns="http://www.w3.org/2000/svg" viewBox="0 0 800 600" width="800" height="600">
  <defs>
    <linearGradient id="grad1" x1="0%" y1="0%" x2="0%" y2="100%">
      <stop offset="0%" style="stop-color:#2d3436;stop-opacity:1" />
      <stop offset="100%" style="stop-color:#dfe6e9;stop-opacity:1" />
    </linearGradient>
  </defs>
  <rect x="0" y="0" width="800" height="600" fill="#2d3436" />
  <rect x="50" y="50" width="200" height="20" fill="#b2bec3" stroke="#74b9ff" stroke-width="1"/>
  <rect x="50" y="50" width="12" height="20" fill="#fdcb6e" opacity="0.7"/>
  <text x="260" y="65" fill="#74b9ff" font-family="monospace" font-size="12">MEM 6%</text>
  <rect x="50" y="95.4" width="5" height="24.6" fill="#0984e3" opacity="0.6"/>
  <rect x="120" y="94.9" width="5" height="25.099999999999998" fill="#0984e3" opacity="0.6"/>
  <rect x="190" y="95" width="5" height="25" fill="#0984e3" opacity="0.6"/>
  <text x="50" y="140" fill="#74b9ff" font-family="monospace" font-size="10">LOAD 2.46 2.51 2.50</text>
  <line x1="50" y1="180" x2="750" y2="180" stroke="#74b9ff" stroke-width="0.5" opacity="0.1"/>
  <circle cx="100" cy="180" r="3" fill="#ffffff" opacity="0.3"/>
  <line x1="50" y1="198.75" x2="750" y2="198.75" stroke="#74b9ff" stroke-width="0.75" opacity="0.1375"/>
  <circle cx="175" cy="198.75" r="3.5" fill="#dfe6e9" opacity="0.35"/>
  <line x1="50" y1="217.5" x2="750" y2="217.5" stroke="#74b9ff" stroke-width="1" opacity="0.175"/>
  <circle cx="250" cy="217.5" r="4" fill="#74b9ff" opacity="0.4"/>
  <line x1="50" y1="236.25" x2="750" y2="236.25" stroke="#74b9ff" stroke-width="1.25" opacity="0.2125"/>
  <circle cx="325" cy="236.25" r="4.5" fill="#0984e3" opacity="0.45"/>
  <line x1="50" y1="255" x2="750" y2="255" stroke="#74b9ff" stroke-width="1.5" opacity="0.25"/>
  <circle cx="400" cy="255" r="5" fill="#2d3436" opacity="0.5"/>
  <line x1="50" y1="273.75" x2="750" y2="273.75" stroke="#74b9ff" stroke-width="1.75" opacity="0.2875"/>
  <circle cx="475" cy="273.75" r="5.5" fill="#ffffff" opacity="0.55"/>
  <line x1="50" y1="292.5" x2="750" y2="292.5" stroke="#74b9ff" stroke-width="2" opacity="0.32499999999999996"/>
  <circle cx="550" cy="292.5" r="6" fill="#dfe6e9" opacity="0.6000000000000001"/>
  <line x1="50" y1="311.25" x2="750" y2="311.25" stroke="#74b9ff" stroke-width="2.25" opacity="0.36250000000000004"/>
  <circle cx="625" cy="311.25" r="6.5" fill="#74b9ff" opacity="0.65"/>
  <line x1="50" y1="330" x2="750" y2="330" stroke="#74b9ff" stroke-width="2.5" opacity="0.4"/>
  <circle cx="700" cy="330" r="7" fill="#0984e3" opacity="0.7"/>
  <circle cx="341.32458847736626" cy="352.67918381344305" r="2.1607510288065845" fill="#ffffff" opacity="0.2823770688816332"/>
  <circle cx="365.24691358024694" cy="352.6950445816187" r="2.161085390946502" fill="#dfe6e9" opacity="0.2823770688816332"/>
  <circle cx="389.16923868312756" cy="352.71090534979425" r="2.16141975308642" fill="#74b9ff" opacity="0.2823770688816332"/>
  <circle cx="413.09156378600824" cy="352.7267661179698" r="2.1617541152263375" fill="#0984e3" opacity="0.2823770688816332"/>
  <circle cx="437.0138888888889" cy="352.7426268861454" r="2.162088477366255" fill="#2d3436" opacity="0.2823770688816332"/>
  <circle cx="460.93621399176953" cy="352.758487654321" r="2.162422839506173" fill="#ffffff" opacity="0.2823770688816332"/>
  <circle cx="484.8585390946502" cy="352.7743484224966" r="2.1627572016460905" fill="#dfe6e9" opacity="0.2823770688816332"/>
  <circle cx="508.7808641975309" cy="352.79020919067216" r="2.163091563786008" fill="#74b9ff" opacity="0.2823770688816332"/>
  <circle cx="532.7031893004116" cy="352.80606995884773" r="2.163425925925926" fill="#0984e3" opacity="0.2823770688816332"/>
  <circle cx="556.6255144032922" cy="352.8219307270233" r="2.1637602880658435" fill="#2d3436" opacity="0.2823770688816332"/>
  <circle cx="580.5478395061729" cy="352.8377914951989" r="2.164094650205761" fill="#ffffff" opacity="0.2823770688816332"/>
  <circle cx="604.4701646090535" cy="352.8536522633745" r="2.164429012345679" fill="#dfe6e9" opacity="0.2823770688816332"/>
  <circle cx="628.3924897119342" cy="352.86951303155007" r="2.1647633744855965" fill="#74b9ff" opacity="0.2823770688816332"/>
  <circle cx="652.3148148148148" cy="352.88537379972564" r="2.1650977366255146" fill="#0984e3" opacity="0.2823770688816332"/>
  <circle cx="676.2371399176955" cy="352.9012345679012" r="2.1654320987654323" fill="#2d3436" opacity="0.2823770688816332"/>
  <circle cx="100.15946502057614" cy="352.91709533607684" r="2.16576646090535" fill="#ffffff" opacity="0.2823770688816332"/>
  <circle cx="124.08179012345678" cy="352.9329561042524" r="2.1661008230452676" fill="#dfe6e9" opacity="0.2823770688816332"/>
  <circle cx="148.00411522633743" cy="352.948816872428" r="2.1664351851851853" fill="#74b9ff" opacity="0.2823770688816332"/>
  <circle cx="171.9264403292181" cy="352.96467764060355" r="2.166769547325103" fill="#0984e3" opacity="0.2823770688816332"/>
  <circle cx="195.84876543209876" cy="352.9805384087791" r="2.1671039094650206" fill="#2d3436" opacity="0.2823770688816332"/>
  <circle cx="219.7710905349794" cy="352.99639917695475" r="2.1674382716049383" fill="#ffffff" opacity="0.2823770688816332"/>
  <circle cx="243.69341563786008" cy="353.0122599451303" r="2.167772633744856" fill="#dfe6e9" opacity="0.2823770688816332"/>
  <circle cx="267.61574074074076" cy="353.0281207133059" r="2.1681069958847736" fill="#74b9ff" opacity="0.2823770688816332"/>
  <circle cx="291.53806584362144" cy="353.04398148148147" r="2.1684413580246913" fill="#0984e3" opacity="0.2823770688816332"/>
  <circle cx="315.46039094650206" cy="353.05984224965704" r="2.168775720164609" fill="#2d3436" opacity="0.2823770688816332"/>
  <circle cx="339.3827160493827" cy="353.07570301783267" r="2.1691100823045266" fill="#ffffff" opacity="0.2823770688816332"/>
  <circle cx="363.30504115226336" cy="353.09156378600824" r="2.1694444444444443" fill="#dfe6e9" opacity="0.2823770688816332"/>
  <circle cx="387.22736625514403" cy="353.1074245541838" r="2.169778806584362" fill="#74b9ff" opacity="0.2823770688816332"/>
  <circle cx="411.14969135802465" cy="353.1232853223594" r="2.1701131687242796" fill="#0984e3" opacity="0.2823770688816332"/>
  <circle cx="435.07201646090533" cy="353.139146090535" r="2.1704475308641977" fill="#2d3436" opacity="0.2823770688816332"/>
  <circle cx="458.99434156378595" cy="353.1550068587106" r="2.1707818930041154" fill="#ffffff" opacity="0.2823770688816332"/>
  <path d="M 50 480 Q 200 460 400 480" stroke="#74b9ff" stroke-width="2" fill="none"/>
  <circle cx="400" cy="480" r="6" fill="#fdcb6e"/>
  <text x="420" y="485" fill="#74b9ff" font-family="monospace" font-size="10">c91d11a</text>
  <text x="50" y="485" fill="#74b9ff" font-family="monospace" font-size="10">main *</text>
  <rect x="50" y="550" width="148" height="15" fill="#ffffff" opacity="0.75"/><rect x="200" y="550" width="148" height="15" fill="#dfe6e9" opacity="0.95"/><rect x="350" y="550" width="148" height="15" fill="#74b9ff" opacity="0.85"/><rect x="500" y="550" width="148" height="15" fill="#0984e3" opacity="0.65"/><rect x="650" y="550" width="148" height="15" fill="#2d3436" opacity="0.44999999999999996"/><text x="50" y="585" fill="#74b9ff" font-family="monospace" font-size="9">AWAKENING • CALIBRATION • ENGAGEMENT • SYNTHESIS • COMPLETION</text>
  
  <!-- Title -->
  <text x="400" y="30" fill="#fdcb6e" font-family="monospace" font-size="14" text-anchor="middle">AIRGAPPED ARTIFACT • System Telemetry Visualization</text>
  
  <!-- Footer -->
  <text x="400" y="590" fill="#b2bec3" font-family="monospace" font-size="8" text-anchor="middle">State-Independent Visualization • Graceful Degradation • Dual-Path Rendering</text>
</svg>