<?xml version="1.0" encoding="UTF-8"?>
<!-- Airgapped Artifact - Independent of Session State -->
<!-- Generated: 2026-03-22T08:47:25.055Z -->
<svg xmlns="http://www.w3.org/2000/svg" viewBox="0 0 800 600" width="800" height="600">
  <defs>
    <linearGradient id="grad1" x1="0%" y1="0%" x2="0%" y2="100%">
      <stop offset="0%" style="stop-color:#2d3436;stop-opacity:1" />
      <stop offset="100%" style="stop-color:#dfe6e9;stop-opacity:1" />
    </linearGradient>
  </defs>
  <rect x="0" y="0" width="800" height="600" fill="#2d3436" />
  <rect x="50" y="50" width="200" height="20" fill="#b2bec3" stroke="#74b9ff" stroke-width="1"/>
  <rect x="50" y="50" width="12" height="20" fill="#fdcb6e" opacity="0.7"/>
  <text x="260" y="65" fill="#74b9ff" font-family="monospace" font-size="12">MEM 6%</text>
  <rect x="50" y="107.8" width="5" height="12.2" fill="#0984e3" opacity="0.6"/>
  <rect x="120" y="105.9" width="5" height="14.1" fill="#0984e3" opacity="0.6"/>
  <rect x="190" y="102.8" width="5" height="17.2" fill="#0984e3" opacity="0.6"/>
  <text x="50" y="140" fill="#74b9ff" font-family="monospace" font-size="10">LOAD 1.22 1.41 1.72</text>
  <line x1="50" y1="180" x2="750" y2="180" stroke="#74b9ff" stroke-width="0.5" opacity="0.1"/>
  <circle cx="100" cy="180" r="3" fill="#ffffff" opacity="0.3"/>
  <line x1="50" y1="205" x2="750" y2="205" stroke="#74b9ff" stroke-width="0.8333333333333333" opacity="0.15"/>
  <circle cx="175" cy="205" r="3.6666666666666665" fill="#dfe6e9" opacity="0.36666666666666664"/>
  <line x1="50" y1="230" x2="750" y2="230" stroke="#74b9ff" stroke-width="1.1666666666666665" opacity="0.2"/>
  <circle cx="250" cy="230" r="4.333333333333333" fill="#74b9ff" opacity="0.43333333333333335"/>
  <line x1="50" y1="255" x2="750" y2="255" stroke="#74b9ff" stroke-width="1.5" opacity="0.25"/>
  <circle cx="325" cy="255" r="5" fill="#0984e3" opacity="0.5"/>
  <line x1="50" y1="280" x2="750" y2="280" stroke="#74b9ff" stroke-width="1.8333333333333333" opacity="0.3"/>
  <circle cx="400" cy="280" r="5.666666666666666" fill="#2d3436" opacity="0.5666666666666667"/>
  <line x1="50" y1="305" x2="750" y2="305" stroke="#74b9ff" stroke-width="2.166666666666667" opacity="0.35"/>
  <circle cx="475" cy="305" r="6.333333333333334" fill="#ffffff" opacity="0.6333333333333333"/>
  <line x1="50" y1="330" x2="750" y2="330" stroke="#74b9ff" stroke-width="2.5" opacity="0.4"/>
  <circle cx="550" cy="330" r="7" fill="#dfe6e9" opacity="0.7"/>
  <circle cx="426.1471193415638" cy="352.07861796982166" r="2.1247170781893003" fill="#ffffff" opacity="0.3901946615228723"/>
  <circle cx="450.06944444444446" cy="352.09447873799724" r="2.125051440329218" fill="#dfe6e9" opacity="0.3901946615228723"/>
  <circle cx="473.99176954732513" cy="352.11033950617286" r="2.1253858024691357" fill="#74b9ff" opacity="0.3901946615228723"/>
  <circle cx="497.91409465020575" cy="352.12620027434843" r="2.1257201646090533" fill="#0984e3" opacity="0.3901946615228723"/>
  <circle cx="521.8364197530864" cy="352.142061042524" r="2.126054526748971" fill="#2d3436" opacity="0.3901946615228723"/>
  <circle cx="545.758744855967" cy="352.1579218106996" r="2.126388888888889" fill="#ffffff" opacity="0.3901946615228723"/>
  <circle cx="569.6810699588477" cy="352.17378257887515" r="2.1267232510288068" fill="#dfe6e9" opacity="0.3901946615228723"/>
  <circle cx="593.6033950617284" cy="352.1896433470508" r="2.1270576131687244" fill="#74b9ff" opacity="0.3901946615228723"/>
  <circle cx="617.5257201646091" cy="352.20550411522635" r="2.127391975308642" fill="#0984e3" opacity="0.3901946615228723"/>
  <circle cx="641.4480452674898" cy="352.2213648834019" r="2.1277263374485598" fill="#2d3436" opacity="0.3901946615228723"/>
  <circle cx="665.3703703703704" cy="352.2372256515775" r="2.1280606995884774" fill="#ffffff" opacity="0.3901946615228723"/>
  <circle cx="689.292695473251" cy="352.25308641975306" r="2.128395061728395" fill="#dfe6e9" opacity="0.3901946615228723"/>
  <circle cx="113.21502057613169" cy="352.2689471879287" r="2.1287294238683128" fill="#74b9ff" opacity="0.3901946615228723"/>
  <circle cx="137.13734567901236" cy="352.28480795610426" r="2.1290637860082304" fill="#0984e3" opacity="0.3901946615228723"/>
  <circle cx="161.059670781893" cy="352.30066872427983" r="2.129398148148148" fill="#2d3436" opacity="0.3901946615228723"/>
  <circle cx="184.98199588477365" cy="352.3165294924554" r="2.1297325102880658" fill="#ffffff" opacity="0.3901946615228723"/>
  <circle cx="208.90432098765433" cy="352.332390260631" r="2.1300668724279834" fill="#dfe6e9" opacity="0.3901946615228723"/>
  <circle cx="232.82664609053498" cy="352.3482510288066" r="2.130401234567901" fill="#74b9ff" opacity="0.3901946615228723"/>
  <circle cx="256.7489711934156" cy="352.3641117969822" r="2.1307355967078188" fill="#0984e3" opacity="0.3901946615228723"/>
  <circle cx="280.6712962962963" cy="352.37997256515774" r="2.1310699588477364" fill="#2d3436" opacity="0.3901946615228723"/>
  <circle cx="304.593621399177" cy="352.3958333333333" r="2.131404320987654" fill="#ffffff" opacity="0.3901946615228723"/>
  <circle cx="328.5159465020576" cy="352.41169410150894" r="2.131738683127572" fill="#dfe6e9" opacity="0.3901946615228723"/>
  <circle cx="352.4382716049383" cy="352.4275548696845" r="2.13207304526749" fill="#74b9ff" opacity="0.3901946615228723"/>
  <circle cx="376.36059670781896" cy="352.4434156378601" r="2.1324074074074075" fill="#0984e3" opacity="0.3901946615228723"/>
  <circle cx="400.28292181069963" cy="352.45927640603566" r="2.132741769547325" fill="#2d3436" opacity="0.3901946615228723"/>
  <path d="M 50 480 Q 200 460 400 480" stroke="#74b9ff" stroke-width="2" fill="none"/>
  <circle cx="400" cy="480" r="6" fill="#fdcb6e"/>
  <text x="420" y="485" fill="#74b9ff" font-family="monospace" font-size="10">f7e43af</text>
  <text x="50" y="485" fill="#74b9ff" font-family="monospace" font-size="10">main *</text>
  <rect x="50" y="550" width="148" height="15" fill="#ffffff" opacity="0.6666666666666667"/><rect x="200" y="550" width="148" height="15" fill="#dfe6e9" opacity="0.8666666666666667"/><rect x="350" y="550" width="148" height="15" fill="#74b9ff" opacity="0.9333333333333333"/><rect x="500" y="550" width="148" height="15" fill="#0984e3" opacity="0.7333333333333334"/><rect x="650" y="550" width="148" height="15" fill="#2d3436" opacity="0.5333333333333332"/><text x="50" y="585" fill="#74b9ff" font-family="monospace" font-size="9">AWAKENING • CALIBRATION • ENGAGEMENT • SYNTHESIS • COMPLETION</text>
  
  <!-- Title -->
  <text x="400" y="30" fill="#fdcb6e" font-family="monospace" font-size="14" text-anchor="middle">AIRGAPPED ARTIFACT • System Telemetry Visualization</text>
  
  <!-- Footer -->
  <text x="400" y="590" fill="#b2bec3" font-family="monospace" font-size="8" text-anchor="middle">State-Independent Visualization • Graceful Degradation • Dual-Path Rendering</text>
</svg>