<?xml version="1.0" encoding="UTF-8"?>
<!-- Airgapped Artifact - Independent of Session State -->
<!-- Generated: 2026-03-22T18:32:51.157Z -->
<svg xmlns="http://www.w3.org/2000/svg" viewBox="0 0 800 600" width="800" height="600">
  <defs>
    <linearGradient id="grad1" x1="0%" y1="0%" x2="0%" y2="100%">
      <stop offset="0%" style="stop-color:#2d3436;stop-opacity:1" />
      <stop offset="100%" style="stop-color:#2d3436;stop-opacity:1" />
    </linearGradient>
  </defs>
  <rect x="0" y="0" width="800" height="600" fill="#2d3436" />
  <rect x="50" y="50" width="200" height="20" fill="#636e72" stroke="#b2bec3" stroke-width="1"/>
  <rect x="50" y="50" width="16" height="20" fill="#74b9ff" opacity="0.7"/>
  <text x="260" y="65" fill="#b2bec3" font-family="monospace" font-size="12">MEM 8%</text>
  <rect x="50" y="105.5" width="5" height="14.5" fill="#0984e3" opacity="0.6"/>
  <rect x="120" y="97.6" width="5" height="22.400000000000002" fill="#0984e3" opacity="0.6"/>
  <rect x="190" y="90" width="5" height="30" fill="#0984e3" opacity="0.6"/>
  <text x="50" y="140" fill="#b2bec3" font-family="monospace" font-size="10">LOAD 1.45 2.24 3.07</text>
  <line x1="50" y1="180" x2="750" y2="180" stroke="#b2bec3" stroke-width="0.5" opacity="0.1"/>
  <circle cx="100" cy="180" r="3" fill="#dfe6e9" opacity="0.3"/>
  <line x1="50" y1="205" x2="750" y2="205" stroke="#b2bec3" stroke-width="0.8333333333333333" opacity="0.15"/>
  <circle cx="175" cy="205" r="3.6666666666666665" fill="#74b9ff" opacity="0.36666666666666664"/>
  <line x1="50" y1="230" x2="750" y2="230" stroke="#b2bec3" stroke-width="1.1666666666666665" opacity="0.2"/>
  <circle cx="250" cy="230" r="4.333333333333333" fill="#0984e3" opacity="0.43333333333333335"/>
  <line x1="50" y1="255" x2="750" y2="255" stroke="#b2bec3" stroke-width="1.5" opacity="0.25"/>
  <circle cx="325" cy="255" r="5" fill="#636e72" opacity="0.5"/>
  <line x1="50" y1="280" x2="750" y2="280" stroke="#b2bec3" stroke-width="1.8333333333333333" opacity="0.3"/>
  <circle cx="400" cy="280" r="5.666666666666666" fill="#2d3436" opacity="0.5666666666666667"/>
  <line x1="50" y1="305" x2="750" y2="305" stroke="#b2bec3" stroke-width="2.166666666666667" opacity="0.35"/>
  <circle cx="475" cy="305" r="6.333333333333334" fill="#dfe6e9" opacity="0.6333333333333333"/>
  <line x1="50" y1="330" x2="750" y2="330" stroke="#b2bec3" stroke-width="2.5" opacity="0.4"/>
  <circle cx="550" cy="330" r="7" fill="#74b9ff" opacity="0.7"/>
  <circle cx="507.9526748971194" cy="350.43509945130313" r="2.0261059670781894" fill="#dfe6e9" opacity="0.27021414256393106"/>
  <circle cx="531.875" cy="350.45096021947876" r="2.026440329218107" fill="#74b9ff" opacity="0.27021414256393106"/>
  <circle cx="555.7973251028807" cy="350.46682098765433" r="2.0267746913580247" fill="#0984e3" opacity="0.27021414256393106"/>
  <circle cx="579.7196502057614" cy="350.4826817558299" r="2.0271090534979423" fill="#636e72" opacity="0.27021414256393106"/>
  <circle cx="603.6419753086419" cy="350.4985425240055" r="2.02744341563786" fill="#2d3436" opacity="0.27021414256393106"/>
  <circle cx="627.5643004115226" cy="350.51440329218104" r="2.0277777777777777" fill="#dfe6e9" opacity="0.27021414256393106"/>
  <circle cx="651.4866255144033" cy="350.53026406035667" r="2.0281121399176953" fill="#74b9ff" opacity="0.27021414256393106"/>
  <circle cx="675.408950617284" cy="350.54612482853224" r="2.028446502057613" fill="#0984e3" opacity="0.27021414256393106"/>
  <circle cx="699.3312757201646" cy="350.5619855967078" r="2.0287808641975307" fill="#636e72" opacity="0.27021414256393106"/>
  <circle cx="123.25360082304528" cy="350.5778463648834" r="2.0291152263374483" fill="#2d3436" opacity="0.27021414256393106"/>
  <circle cx="147.17592592592592" cy="350.593707133059" r="2.0294495884773665" fill="#dfe6e9" opacity="0.27021414256393106"/>
  <circle cx="171.0982510288066" cy="350.6095679012346" r="2.029783950617284" fill="#74b9ff" opacity="0.27021414256393106"/>
  <circle cx="195.02057613168725" cy="350.62542866941016" r="2.030118312757202" fill="#0984e3" opacity="0.27021414256393106"/>
  <circle cx="218.9429012345679" cy="350.6412894375857" r="2.0304526748971194" fill="#636e72" opacity="0.27021414256393106"/>
  <circle cx="242.86522633744855" cy="350.6571502057613" r="2.030787037037037" fill="#2d3436" opacity="0.27021414256393106"/>
  <circle cx="266.78755144032925" cy="350.6730109739369" r="2.031121399176955" fill="#dfe6e9" opacity="0.27021414256393106"/>
  <circle cx="290.70987654320993" cy="350.6888717421125" r="2.0314557613168724" fill="#74b9ff" opacity="0.27021414256393106"/>
  <circle cx="314.63220164609055" cy="350.70473251028807" r="2.03179012345679" fill="#0984e3" opacity="0.27021414256393106"/>
  <circle cx="338.55452674897117" cy="350.72059327846364" r="2.0321244855967078" fill="#636e72" opacity="0.27021414256393106"/>
  <circle cx="362.47685185185185" cy="350.7364540466392" r="2.0324588477366254" fill="#2d3436" opacity="0.27021414256393106"/>
  <circle cx="386.3991769547325" cy="350.75231481481484" r="2.032793209876543" fill="#dfe6e9" opacity="0.27021414256393106"/>
  <circle cx="410.32150205761315" cy="350.7681755829904" r="2.0331275720164608" fill="#74b9ff" opacity="0.27021414256393106"/>
  <circle cx="434.2438271604938" cy="350.784036351166" r="2.0334619341563784" fill="#0984e3" opacity="0.27021414256393106"/>
  <circle cx="458.16615226337444" cy="350.79989711934155" r="2.033796296296296" fill="#636e72" opacity="0.27021414256393106"/>
  <circle cx="482.0884773662551" cy="350.8157578875171" r="2.034130658436214" fill="#2d3436" opacity="0.27021414256393106"/>
  <path d="M 50 480 Q 200 460 400 480" stroke="#0984e3" stroke-width="2" fill="none"/>
  <circle cx="400" cy="480" r="6" fill="#74b9ff"/>
  <text x="420" y="485" fill="#b2bec3" font-family="monospace" font-size="10">b96446e</text>
  <text x="50" y="485" fill="#b2bec3" font-family="monospace" font-size="10">main *</text>
  <rect x="50" y="550" width="148" height="15" fill="#dfe6e9" opacity="0.25"/><rect x="200" y="550" width="148" height="15" fill="#74b9ff" opacity="0.44999999999999996"/><rect x="350" y="550" width="148" height="15" fill="#0984e3" opacity="0.65"/><rect x="500" y="550" width="148" height="15" fill="#636e72" opacity="0.85"/><rect x="650" y="550" width="148" height="15" fill="#2d3436" opacity="0.95"/><text x="50" y="585" fill="#b2bec3" font-family="monospace" font-size="9">AWAKENING • CALIBRATION • ENGAGEMENT • SYNTHESIS • COMPLETION</text>
  
  <!-- Title -->
  <text x="400" y="30" fill="#74b9ff" font-family="monospace" font-size="14" text-anchor="middle">AIRGAPPED ARTIFACT • System Telemetry Visualization</text>
  
  <!-- Footer -->
  <text x="400" y="590" fill="#636e72" font-family="monospace" font-size="8" text-anchor="middle">State-Independent Visualization • Graceful Degradation • Dual-Path Rendering</text>
</svg>