<?xml version="1.0" encoding="UTF-8"?>
<!-- Airgapped Artifact - Independent of Session State -->
<!-- Generated: 2026-03-22T17:53:54.421Z -->
<svg xmlns="http://www.w3.org/2000/svg" viewBox="0 0 800 600" width="800" height="600">
  <defs>
    <linearGradient id="grad1" x1="0%" y1="0%" x2="0%" y2="100%">
      <stop offset="0%" style="stop-color:#2d3436;stop-opacity:1" />
      <stop offset="100%" style="stop-color:#2d3436;stop-opacity:1" />
    </linearGradient>
  </defs>
  <rect x="0" y="0" width="800" height="600" fill="#2d3436" />
  <rect x="50" y="50" width="200" height="20" fill="#636e72" stroke="#b2bec3" stroke-width="1"/>
  <rect x="50" y="50" width="16" height="20" fill="#74b9ff" opacity="0.7"/>
  <text x="260" y="65" fill="#b2bec3" font-family="monospace" font-size="12">MEM 8%</text>
  <rect x="50" y="90" width="5" height="30" fill="#0984e3" opacity="0.6"/>
  <rect x="120" y="90" width="5" height="30" fill="#0984e3" opacity="0.6"/>
  <rect x="190" y="90" width="5" height="30" fill="#0984e3" opacity="0.6"/>
  <text x="50" y="140" fill="#b2bec3" font-family="monospace" font-size="10">LOAD 3.43 3.62 3.31</text>
  <line x1="50" y1="180" x2="750" y2="180" stroke="#b2bec3" stroke-width="0.5" opacity="0.1"/>
  <circle cx="100" cy="180" r="3" fill="#dfe6e9" opacity="0.3"/>
  <line x1="50" y1="201.42857142857142" x2="750" y2="201.42857142857142" stroke="#b2bec3" stroke-width="0.7857142857142857" opacity="0.14285714285714285"/>
  <circle cx="175" cy="201.42857142857142" r="3.571428571428571" fill="#74b9ff" opacity="0.35714285714285715"/>
  <line x1="50" y1="222.85714285714286" x2="750" y2="222.85714285714286" stroke="#b2bec3" stroke-width="1.0714285714285714" opacity="0.18571428571428572"/>
  <circle cx="250" cy="222.85714285714286" r="4.142857142857142" fill="#0984e3" opacity="0.41428571428571426"/>
  <line x1="50" y1="244.28571428571428" x2="750" y2="244.28571428571428" stroke="#b2bec3" stroke-width="1.3571428571428572" opacity="0.22857142857142856"/>
  <circle cx="325" cy="244.28571428571428" r="4.714285714285714" fill="#636e72" opacity="0.4714285714285714"/>
  <line x1="50" y1="265.7142857142857" x2="750" y2="265.7142857142857" stroke="#b2bec3" stroke-width="1.6428571428571428" opacity="0.2714285714285714"/>
  <circle cx="400" cy="265.7142857142857" r="5.285714285714286" fill="#2d3436" opacity="0.5285714285714286"/>
  <line x1="50" y1="287.1428571428571" x2="750" y2="287.1428571428571" stroke="#b2bec3" stroke-width="1.9285714285714286" opacity="0.3142857142857143"/>
  <circle cx="475" cy="287.1428571428571" r="5.857142857142858" fill="#dfe6e9" opacity="0.5857142857142857"/>
  <line x1="50" y1="308.57142857142856" x2="750" y2="308.57142857142856" stroke="#b2bec3" stroke-width="2.2142857142857144" opacity="0.3571428571428571"/>
  <circle cx="550" cy="308.57142857142856" r="6.428571428571429" fill="#74b9ff" opacity="0.6428571428571428"/>
  <line x1="50" y1="330" x2="750" y2="330" stroke="#b2bec3" stroke-width="2.5" opacity="0.4"/>
  <circle cx="625" cy="330" r="7" fill="#0984e3" opacity="0.7"/>
  <circle cx="353.1404320987655" cy="351.8192729766804" r="2.109156378600823" fill="#dfe6e9" opacity="0.40169914347908575"/>
  <circle cx="377.0627572016461" cy="351.83513374485597" r="2.109490740740741" fill="#74b9ff" opacity="0.40169914347908575"/>
  <circle cx="400.9850823045267" cy="351.85099451303154" r="2.1098251028806585" fill="#0984e3" opacity="0.40169914347908575"/>
  <circle cx="424.9074074074074" cy="351.8668552812071" r="2.110159465020576" fill="#636e72" opacity="0.40169914347908575"/>
  <circle cx="448.829732510288" cy="351.88271604938274" r="2.110493827160494" fill="#2d3436" opacity="0.40169914347908575"/>
  <circle cx="472.7520576131687" cy="351.8985768175583" r="2.1108281893004115" fill="#dfe6e9" opacity="0.40169914347908575"/>
  <circle cx="496.67438271604937" cy="351.9144375857339" r="2.111162551440329" fill="#74b9ff" opacity="0.40169914347908575"/>
  <circle cx="520.5967078189301" cy="351.93029835390945" r="2.111496913580247" fill="#0984e3" opacity="0.40169914347908575"/>
  <circle cx="544.5190329218107" cy="351.946159122085" r="2.1118312757201645" fill="#636e72" opacity="0.40169914347908575"/>
  <circle cx="568.4413580246913" cy="351.96201989026065" r="2.112165637860082" fill="#2d3436" opacity="0.40169914347908575"/>
  <circle cx="592.363683127572" cy="351.9778806584362" r="2.1125" fill="#dfe6e9" opacity="0.40169914347908575"/>
  <circle cx="616.2860082304527" cy="351.9937414266118" r="2.1128343621399175" fill="#74b9ff" opacity="0.40169914347908575"/>
  <circle cx="640.2083333333333" cy="352.00960219478736" r="2.113168724279835" fill="#0984e3" opacity="0.40169914347908575"/>
  <circle cx="664.1306584362139" cy="352.025462962963" r="2.1135030864197533" fill="#636e72" opacity="0.40169914347908575"/>
  <circle cx="688.0529835390946" cy="352.04132373113856" r="2.113837448559671" fill="#2d3436" opacity="0.40169914347908575"/>
  <circle cx="111.97530864197532" cy="352.05718449931413" r="2.1141718106995886" fill="#dfe6e9" opacity="0.40169914347908575"/>
  <circle cx="135.89763374485597" cy="352.0730452674897" r="2.1145061728395063" fill="#74b9ff" opacity="0.40169914347908575"/>
  <circle cx="159.81995884773664" cy="352.0889060356653" r="2.114840534979424" fill="#0984e3" opacity="0.40169914347908575"/>
  <circle cx="183.7422839506173" cy="352.1047668038409" r="2.1151748971193416" fill="#636e72" opacity="0.40169914347908575"/>
  <circle cx="207.66460905349794" cy="352.1206275720165" r="2.1155092592592593" fill="#2d3436" opacity="0.40169914347908575"/>
  <circle cx="231.58693415637862" cy="352.13648834019205" r="2.115843621399177" fill="#dfe6e9" opacity="0.40169914347908575"/>
  <circle cx="255.50925925925924" cy="352.1523491083676" r="2.1161779835390946" fill="#74b9ff" opacity="0.40169914347908575"/>
  <circle cx="279.4315843621399" cy="352.1682098765432" r="2.1165123456790123" fill="#0984e3" opacity="0.40169914347908575"/>
  <circle cx="303.3539094650206" cy="352.1840706447188" r="2.11684670781893" fill="#636e72" opacity="0.40169914347908575"/>
  <circle cx="327.2762345679012" cy="352.1999314128944" r="2.1171810699588476" fill="#2d3436" opacity="0.40169914347908575"/>
  <circle cx="351.1985596707819" cy="352.21579218106996" r="2.1175154320987652" fill="#dfe6e9" opacity="0.40169914347908575"/>
  <circle cx="375.12088477366257" cy="352.23165294924553" r="2.1178497942386834" fill="#74b9ff" opacity="0.40169914347908575"/>
  <circle cx="399.0432098765432" cy="352.2475137174211" r="2.118184156378601" fill="#0984e3" opacity="0.40169914347908575"/>
  <path d="M 50 480 Q 200 460 400 480" stroke="#0984e3" stroke-width="2" fill="none"/>
  <circle cx="400" cy="480" r="6" fill="#74b9ff"/>
  <text x="420" y="485" fill="#b2bec3" font-family="monospace" font-size="10">b96446e</text>
  <text x="50" y="485" fill="#b2bec3" font-family="monospace" font-size="10">main *</text>
  <rect x="50" y="550" width="148" height="15" fill="#dfe6e9" opacity="0.29166666666666663"/><rect x="200" y="550" width="148" height="15" fill="#74b9ff" opacity="0.4916666666666667"/><rect x="350" y="550" width="148" height="15" fill="#0984e3" opacity="0.6916666666666667"/><rect x="500" y="550" width="148" height="15" fill="#636e72" opacity="0.8916666666666666"/><rect x="650" y="550" width="148" height="15" fill="#2d3436" opacity="0.9083333333333333"/><text x="50" y="585" fill="#b2bec3" font-family="monospace" font-size="9">AWAKENING • CALIBRATION • ENGAGEMENT • SYNTHESIS • COMPLETION</text>
  
  <!-- Title -->
  <text x="400" y="30" fill="#74b9ff" font-family="monospace" font-size="14" text-anchor="middle">AIRGAPPED ARTIFACT • System Telemetry Visualization</text>
  
  <!-- Footer -->
  <text x="400" y="590" fill="#636e72" font-family="monospace" font-size="8" text-anchor="middle">State-Independent Visualization • Graceful Degradation • Dual-Path Rendering</text>
</svg>