<?xml version="1.0" encoding="UTF-8"?>
<!-- Airgapped Artifact - Independent of Session State -->
<!-- Generated: 2026-03-22T11:19:57.894Z -->
<svg xmlns="http://www.w3.org/2000/svg" viewBox="0 0 800 600" width="800" height="600">
  <defs>
    <linearGradient id="grad1" x1="0%" y1="0%" x2="0%" y2="100%">
      <stop offset="0%" style="stop-color:#000000;stop-opacity:1" />
      <stop offset="100%" style="stop-color:#000000;stop-opacity:1" />
    </linearGradient>
  </defs>
  <rect x="0" y="0" width="800" height="600" fill="#000000" />
  <rect x="50" y="50" width="200" height="20" fill="#1a1a1a" stroke="#333333" stroke-width="1"/>
  <rect x="50" y="50" width="190" height="20" fill="#4a4a4a" opacity="0.7"/>
  <text x="260" y="65" fill="#333333" font-family="monospace" font-size="12">MEM 95%</text>
  <rect x="50" y="90" width="5" height="30" fill="#000000" opacity="0.6"/>
  <rect x="120" y="90" width="5" height="30" fill="#000000" opacity="0.6"/>
  <rect x="190" y="90" width="5" height="30" fill="#000000" opacity="0.6"/>
  <text x="50" y="140" fill="#333333" font-family="monospace" font-size="10">LOAD 6.31 6.69 5.60</text>
  <line x1="50" y1="180" x2="750" y2="180" stroke="#333333" stroke-width="0.5" opacity="0.1"/>
  <circle cx="100" cy="180" r="3" fill="#ffffff" opacity="0.3"/>
  <line x1="50" y1="198.75" x2="750" y2="198.75" stroke="#333333" stroke-width="0.75" opacity="0.1375"/>
  <circle cx="175" cy="198.75" r="3.5" fill="#aaaaaa" opacity="0.35"/>
  <line x1="50" y1="217.5" x2="750" y2="217.5" stroke="#333333" stroke-width="1" opacity="0.175"/>
  <circle cx="250" cy="217.5" r="4" fill="#666666" opacity="0.4"/>
  <line x1="50" y1="236.25" x2="750" y2="236.25" stroke="#333333" stroke-width="1.25" opacity="0.2125"/>
  <circle cx="325" cy="236.25" r="4.5" fill="#333333" opacity="0.45"/>
  <line x1="50" y1="255" x2="750" y2="255" stroke="#333333" stroke-width="1.5" opacity="0.25"/>
  <circle cx="400" cy="255" r="5" fill="#000000" opacity="0.5"/>
  <line x1="50" y1="273.75" x2="750" y2="273.75" stroke="#333333" stroke-width="1.75" opacity="0.2875"/>
  <circle cx="475" cy="273.75" r="5.5" fill="#ffffff" opacity="0.55"/>
  <line x1="50" y1="292.5" x2="750" y2="292.5" stroke="#333333" stroke-width="2" opacity="0.32499999999999996"/>
  <circle cx="550" cy="292.5" r="6" fill="#aaaaaa" opacity="0.6000000000000001"/>
  <line x1="50" y1="311.25" x2="750" y2="311.25" stroke="#333333" stroke-width="2.25" opacity="0.36250000000000004"/>
  <circle cx="625" cy="311.25" r="6.5" fill="#666666" opacity="0.65"/>
  <line x1="50" y1="330" x2="750" y2="330" stroke="#333333" stroke-width="2.5" opacity="0.4"/>
  <circle cx="700" cy="330" r="7" fill="#333333" opacity="0.7"/>
  <circle cx="167.34053497942386" cy="352.97710905349794" r="2.1786265432098766" fill="#ffffff" opacity="0.6861793663953635"/>
  <circle cx="191.26286008230454" cy="352.9929698216735" r="2.1789609053497943" fill="#aaaaaa" opacity="0.6861793663953635"/>
  <circle cx="215.1851851851852" cy="353.0088305898491" r="2.179295267489712" fill="#666666" opacity="0.6861793663953635"/>
  <circle cx="239.10751028806584" cy="353.0246913580247" r="2.1796296296296296" fill="#333333" opacity="0.6861793663953635"/>
  <circle cx="263.0298353909465" cy="353.0405521262003" r="2.1799639917695472" fill="#000000" opacity="0.6861793663953635"/>
  <circle cx="286.95216049382714" cy="353.05641289437585" r="2.180298353909465" fill="#ffffff" opacity="0.6861793663953635"/>
  <circle cx="310.8744855967078" cy="353.0722736625514" r="2.1806327160493826" fill="#aaaaaa" opacity="0.6861793663953635"/>
  <circle cx="334.7968106995885" cy="353.088134430727" r="2.1809670781893002" fill="#666666" opacity="0.6861793663953635"/>
  <circle cx="358.71913580246917" cy="353.1039951989026" r="2.181301440329218" fill="#333333" opacity="0.6861793663953635"/>
  <circle cx="382.6414609053498" cy="353.1198559670782" r="2.1816358024691356" fill="#000000" opacity="0.6861793663953635"/>
  <circle cx="406.56378600823047" cy="353.13571673525377" r="2.1819701646090537" fill="#ffffff" opacity="0.6861793663953635"/>
  <circle cx="430.48611111111114" cy="353.15157750342934" r="2.1823045267489714" fill="#aaaaaa" opacity="0.6861793663953635"/>
  <circle cx="454.40843621399176" cy="353.16743827160496" r="2.182638888888889" fill="#666666" opacity="0.6861793663953635"/>
  <circle cx="478.33076131687244" cy="353.18329903978054" r="2.1829732510288067" fill="#333333" opacity="0.6861793663953635"/>
  <circle cx="502.2530864197531" cy="353.1991598079561" r="2.1833076131687243" fill="#000000" opacity="0.6861793663953635"/>
  <circle cx="526.1754115226338" cy="353.2150205761317" r="2.183641975308642" fill="#ffffff" opacity="0.6861793663953635"/>
  <circle cx="550.0977366255145" cy="353.23088134430725" r="2.1839763374485597" fill="#aaaaaa" opacity="0.6861793663953635"/>
  <circle cx="574.0200617283951" cy="353.2467421124829" r="2.1843106995884773" fill="#666666" opacity="0.6861793663953635"/>
  <circle cx="597.9423868312757" cy="353.26260288065845" r="2.184645061728395" fill="#333333" opacity="0.6861793663953635"/>
  <circle cx="621.8647119341564" cy="353.278463648834" r="2.1849794238683127" fill="#000000" opacity="0.6861793663953635"/>
  <circle cx="645.7870370370371" cy="353.2943244170096" r="2.1853137860082303" fill="#ffffff" opacity="0.6861793663953635"/>
  <circle cx="669.7093621399177" cy="353.31018518518516" r="2.185648148148148" fill="#aaaaaa" opacity="0.6861793663953635"/>
  <circle cx="693.6316872427984" cy="353.3260459533608" r="2.1859825102880657" fill="#666666" opacity="0.6861793663953635"/>
  <circle cx="117.55401234567901" cy="353.34190672153636" r="2.1863168724279833" fill="#333333" opacity="0.6861793663953635"/>
  <circle cx="141.47633744855966" cy="353.35776748971193" r="2.1866512345679014" fill="#000000" opacity="0.6861793663953635"/>
  <circle cx="165.39866255144034" cy="353.3736282578875" r="2.186985596707819" fill="#ffffff" opacity="0.6861793663953635"/>
  <circle cx="189.320987654321" cy="353.3894890260631" r="2.187319958847737" fill="#aaaaaa" opacity="0.6861793663953635"/>
  <circle cx="213.24331275720164" cy="353.4053497942387" r="2.1876543209876544" fill="#666666" opacity="0.6861793663953635"/>
  <circle cx="237.1656378600823" cy="353.4212105624143" r="2.187988683127572" fill="#333333" opacity="0.6861793663953635"/>
  <circle cx="261.08796296296293" cy="353.43707133058984" r="2.1883230452674898" fill="#000000" opacity="0.6861793663953635"/>
  <circle cx="285.0102880658436" cy="353.4529320987654" r="2.1886574074074074" fill="#ffffff" opacity="0.6861793663953635"/>
  <path d="M 50 480 Q 200 460 400 480" stroke="#666666" stroke-width="2" fill="none"/>
  <circle cx="400" cy="480" r="6" fill="#4a4a4a"/>
  <text x="420" y="485" fill="#333333" font-family="monospace" font-size="10">1b0fd10</text>
  <text x="50" y="485" fill="#333333" font-family="monospace" font-size="10">main *</text>
  <rect x="50" y="550" width="148" height="15" fill="#ffffff" opacity="0.5416666666666667"/><rect x="200" y="550" width="148" height="15" fill="#aaaaaa" opacity="0.7416666666666667"/><rect x="350" y="550" width="148" height="15" fill="#666666" opacity="0.9416666666666667"/><rect x="500" y="550" width="148" height="15" fill="#333333" opacity="0.8583333333333334"/><rect x="650" y="550" width="148" height="15" fill="#000000" opacity="0.6583333333333332"/><text x="50" y="585" fill="#333333" font-family="monospace" font-size="9">AWAKENING • CALIBRATION • ENGAGEMENT • SYNTHESIS • COMPLETION</text>
  
  <!-- Title -->
  <text x="400" y="30" fill="#4a4a4a" font-family="monospace" font-size="14" text-anchor="middle">AIRGAPPED ARTIFACT • System Telemetry Visualization</text>
  
  <!-- Footer -->
  <text x="400" y="590" fill="#1a1a1a" font-family="monospace" font-size="8" text-anchor="middle">State-Independent Visualization • Graceful Degradation • Dual-Path Rendering</text>
</svg>