<?xml version="1.0" encoding="UTF-8"?>
<!-- Airgapped Artifact - Independent of Session State -->
<!-- Generated: 2026-03-22T15:46:24.071Z -->
<svg xmlns="http://www.w3.org/2000/svg" viewBox="0 0 800 600" width="800" height="600">
  <defs>
    <linearGradient id="grad1" x1="0%" y1="0%" x2="0%" y2="100%">
      <stop offset="0%" style="stop-color:#2d3436;stop-opacity:1" />
      <stop offset="100%" style="stop-color:#2d3436;stop-opacity:1" />
    </linearGradient>
  </defs>
  <rect x="0" y="0" width="800" height="600" fill="#2d3436" />
  <rect x="50" y="50" width="200" height="20" fill="#636e72" stroke="#b2bec3" stroke-width="1"/>
  <rect x="50" y="50" width="16" height="20" fill="#74b9ff" opacity="0.7"/>
  <text x="260" y="65" fill="#b2bec3" font-family="monospace" font-size="12">MEM 8%</text>
  <rect x="50" y="106.5" width="5" height="13.5" fill="#0984e3" opacity="0.6"/>
  <rect x="120" y="98.6" width="5" height="21.400000000000002" fill="#0984e3" opacity="0.6"/>
  <rect x="190" y="93.6" width="5" height="26.400000000000002" fill="#0984e3" opacity="0.6"/>
  <text x="50" y="140" fill="#b2bec3" font-family="monospace" font-size="10">LOAD 1.35 2.14 2.64</text>
  <line x1="50" y1="180" x2="750" y2="180" stroke="#b2bec3" stroke-width="0.5" opacity="0.1"/>
  <circle cx="100" cy="180" r="3" fill="#dfe6e9" opacity="0.3"/>
  <line x1="50" y1="205" x2="750" y2="205" stroke="#b2bec3" stroke-width="0.8333333333333333" opacity="0.15"/>
  <circle cx="175" cy="205" r="3.6666666666666665" fill="#74b9ff" opacity="0.36666666666666664"/>
  <line x1="50" y1="230" x2="750" y2="230" stroke="#b2bec3" stroke-width="1.1666666666666665" opacity="0.2"/>
  <circle cx="250" cy="230" r="4.333333333333333" fill="#0984e3" opacity="0.43333333333333335"/>
  <line x1="50" y1="255" x2="750" y2="255" stroke="#b2bec3" stroke-width="1.5" opacity="0.25"/>
  <circle cx="325" cy="255" r="5" fill="#636e72" opacity="0.5"/>
  <line x1="50" y1="280" x2="750" y2="280" stroke="#b2bec3" stroke-width="1.8333333333333333" opacity="0.3"/>
  <circle cx="400" cy="280" r="5.666666666666666" fill="#2d3436" opacity="0.5666666666666667"/>
  <line x1="50" y1="305" x2="750" y2="305" stroke="#b2bec3" stroke-width="2.166666666666667" opacity="0.35"/>
  <circle cx="475" cy="305" r="6.333333333333334" fill="#dfe6e9" opacity="0.6333333333333333"/>
  <line x1="50" y1="330" x2="750" y2="330" stroke="#b2bec3" stroke-width="2.5" opacity="0.4"/>
  <circle cx="550" cy="330" r="7" fill="#74b9ff" opacity="0.7"/>
  <circle cx="384.21039094650206" cy="351.64780521262" r="2.098868312757202" fill="#dfe6e9" opacity="0.3227226838225182"/>
  <circle cx="408.1327160493827" cy="351.6636659807956" r="2.0992026748971195" fill="#74b9ff" opacity="0.3227226838225182"/>
  <circle cx="432.05504115226336" cy="351.67952674897117" r="2.099537037037037" fill="#0984e3" opacity="0.3227226838225182"/>
  <circle cx="455.97736625514403" cy="351.6953875171468" r="2.099871399176955" fill="#636e72" opacity="0.3227226838225182"/>
  <circle cx="479.8996913580247" cy="351.71124828532237" r="2.1002057613168725" fill="#2d3436" opacity="0.3227226838225182"/>
  <circle cx="503.82201646090533" cy="351.72710905349794" r="2.10054012345679" fill="#dfe6e9" opacity="0.3227226838225182"/>
  <circle cx="527.7443415637861" cy="351.7429698216735" r="2.100874485596708" fill="#74b9ff" opacity="0.3227226838225182"/>
  <circle cx="551.6666666666667" cy="351.7588305898491" r="2.1012088477366255" fill="#0984e3" opacity="0.3227226838225182"/>
  <circle cx="575.5889917695473" cy="351.7746913580247" r="2.101543209876543" fill="#636e72" opacity="0.3227226838225182"/>
  <circle cx="599.511316872428" cy="351.7905521262003" r="2.101877572016461" fill="#2d3436" opacity="0.3227226838225182"/>
  <circle cx="623.4336419753087" cy="351.80641289437585" r="2.1022119341563785" fill="#dfe6e9" opacity="0.3227226838225182"/>
  <circle cx="647.3559670781893" cy="351.8222736625514" r="2.102546296296296" fill="#74b9ff" opacity="0.3227226838225182"/>
  <circle cx="671.2782921810699" cy="351.838134430727" r="2.102880658436214" fill="#0984e3" opacity="0.3227226838225182"/>
  <circle cx="695.2006172839506" cy="351.8539951989026" r="2.1032150205761315" fill="#636e72" opacity="0.3227226838225182"/>
  <circle cx="119.12294238683128" cy="351.8698559670782" r="2.103549382716049" fill="#2d3436" opacity="0.3227226838225182"/>
  <circle cx="143.04526748971193" cy="351.88571673525377" r="2.103883744855967" fill="#dfe6e9" opacity="0.3227226838225182"/>
  <circle cx="166.9675925925926" cy="351.90157750342934" r="2.104218106995885" fill="#74b9ff" opacity="0.3227226838225182"/>
  <circle cx="190.88991769547326" cy="351.91743827160496" r="2.1045524691358026" fill="#0984e3" opacity="0.3227226838225182"/>
  <circle cx="214.8122427983539" cy="351.93329903978054" r="2.1048868312757203" fill="#636e72" opacity="0.3227226838225182"/>
  <circle cx="238.73456790123458" cy="351.9491598079561" r="2.105221193415638" fill="#2d3436" opacity="0.3227226838225182"/>
  <circle cx="262.6568930041152" cy="351.9650205761317" r="2.1055555555555556" fill="#dfe6e9" opacity="0.3227226838225182"/>
  <circle cx="286.5792181069959" cy="351.98088134430725" r="2.1058899176954733" fill="#74b9ff" opacity="0.3227226838225182"/>
  <circle cx="310.50154320987656" cy="351.9967421124829" r="2.106224279835391" fill="#0984e3" opacity="0.3227226838225182"/>
  <circle cx="334.42386831275724" cy="352.01260288065845" r="2.1065586419753086" fill="#636e72" opacity="0.3227226838225182"/>
  <circle cx="358.34619341563786" cy="352.028463648834" r="2.1068930041152263" fill="#2d3436" opacity="0.3227226838225182"/>
  <circle cx="382.26851851851853" cy="352.0443244170096" r="2.107227366255144" fill="#dfe6e9" opacity="0.3227226838225182"/>
  <circle cx="406.1908436213992" cy="352.06018518518516" r="2.1075617283950616" fill="#74b9ff" opacity="0.3227226838225182"/>
  <circle cx="430.11316872427983" cy="352.0760459533608" r="2.1078960905349793" fill="#0984e3" opacity="0.3227226838225182"/>
  <circle cx="454.0354938271605" cy="352.09190672153636" r="2.108230452674897" fill="#636e72" opacity="0.3227226838225182"/>
  <circle cx="477.9578189300412" cy="352.10776748971193" r="2.1085648148148146" fill="#2d3436" opacity="0.3227226838225182"/>
  <circle cx="501.8801440329218" cy="352.1236282578875" r="2.1088991769547327" fill="#dfe6e9" opacity="0.3227226838225182"/>
  <path d="M 50 480 Q 200 460 400 480" stroke="#0984e3" stroke-width="2" fill="none"/>
  <circle cx="400" cy="480" r="6" fill="#74b9ff"/>
  <text x="420" y="485" fill="#b2bec3" font-family="monospace" font-size="10">03e4f01</text>
  <text x="50" y="485" fill="#b2bec3" font-family="monospace" font-size="10">main *</text>
  <rect x="50" y="550" width="148" height="15" fill="#dfe6e9" opacity="0.375"/><rect x="200" y="550" width="148" height="15" fill="#74b9ff" opacity="0.575"/><rect x="350" y="550" width="148" height="15" fill="#0984e3" opacity="0.775"/><rect x="500" y="550" width="148" height="15" fill="#636e72" opacity="0.975"/><rect x="650" y="550" width="148" height="15" fill="#2d3436" opacity="0.825"/><text x="50" y="585" fill="#b2bec3" font-family="monospace" font-size="9">AWAKENING • CALIBRATION • ENGAGEMENT • SYNTHESIS • COMPLETION</text>
  
  <!-- Title -->
  <text x="400" y="30" fill="#74b9ff" font-family="monospace" font-size="14" text-anchor="middle">AIRGAPPED ARTIFACT • System Telemetry Visualization</text>
  
  <!-- Footer -->
  <text x="400" y="590" fill="#636e72" font-family="monospace" font-size="8" text-anchor="middle">State-Independent Visualization • Graceful Degradation • Dual-Path Rendering</text>
</svg>