<?xml version="1.0" encoding="UTF-8"?>
<!-- Airgapped Artifact - Independent of Session State -->
<!-- Generated: 2026-03-22T11:17:44.912Z -->
<svg xmlns="http://www.w3.org/2000/svg" viewBox="0 0 800 600" width="800" height="600">
  <defs>
    <linearGradient id="grad1" x1="0%" y1="0%" x2="0%" y2="100%">
      <stop offset="0%" style="stop-color:#1a1a2e;stop-opacity:1" />
      <stop offset="100%" style="stop-color:#1a1a2e;stop-opacity:1" />
    </linearGradient>
  </defs>
  <rect x="0" y="0" width="800" height="600" fill="#1a1a2e" />
  <rect x="50" y="50" width="200" height="20" fill="#16213e" stroke="#e94560" stroke-width="1"/>
  <rect x="50" y="50" width="92" height="20" fill="#e94560" opacity="0.7"/>
  <text x="260" y="65" fill="#e94560" font-family="monospace" font-size="12">MEM 46%</text>
  <rect x="50" y="90" width="5" height="30" fill="#0f3460" opacity="0.6"/>
  <rect x="120" y="90" width="5" height="30" fill="#0f3460" opacity="0.6"/>
  <rect x="190" y="90" width="5" height="30" fill="#0f3460" opacity="0.6"/>
  <text x="50" y="140" fill="#e94560" font-family="monospace" font-size="10">LOAD 8.23 7.01 5.52</text>
  <line x1="50" y1="180" x2="750" y2="180" stroke="#e94560" stroke-width="0.5" opacity="0.1"/>
  <circle cx="100" cy="180" r="3" fill="#ffeaa7" opacity="0.3"/>
  <line x1="50" y1="201.42857142857142" x2="750" y2="201.42857142857142" stroke="#e94560" stroke-width="0.7857142857142857" opacity="0.14285714285714285"/>
  <circle cx="175" cy="201.42857142857142" r="3.571428571428571" fill="#e94560" opacity="0.35714285714285715"/>
  <line x1="50" y1="222.85714285714286" x2="750" y2="222.85714285714286" stroke="#e94560" stroke-width="1.0714285714285714" opacity="0.18571428571428572"/>
  <circle cx="250" cy="222.85714285714286" r="4.142857142857142" fill="#fd79a8" opacity="0.41428571428571426"/>
  <line x1="50" y1="244.28571428571428" x2="750" y2="244.28571428571428" stroke="#e94560" stroke-width="1.3571428571428572" opacity="0.22857142857142856"/>
  <circle cx="325" cy="244.28571428571428" r="4.714285714285714" fill="#16213e" opacity="0.4714285714285714"/>
  <line x1="50" y1="265.7142857142857" x2="750" y2="265.7142857142857" stroke="#e94560" stroke-width="1.6428571428571428" opacity="0.2714285714285714"/>
  <circle cx="400" cy="265.7142857142857" r="5.285714285714286" fill="#1a1a2e" opacity="0.5285714285714286"/>
  <line x1="50" y1="287.1428571428571" x2="750" y2="287.1428571428571" stroke="#e94560" stroke-width="1.9285714285714286" opacity="0.3142857142857143"/>
  <circle cx="475" cy="287.1428571428571" r="5.857142857142858" fill="#ffeaa7" opacity="0.5857142857142857"/>
  <line x1="50" y1="308.57142857142856" x2="750" y2="308.57142857142856" stroke="#e94560" stroke-width="2.2142857142857144" opacity="0.3571428571428571"/>
  <circle cx="550" cy="308.57142857142856" r="6.428571428571429" fill="#e94560" opacity="0.6428571428571428"/>
  <line x1="50" y1="330" x2="750" y2="330" stroke="#e94560" stroke-width="2.5" opacity="0.4"/>
  <circle cx="625" cy="330" r="7" fill="#fd79a8" opacity="0.7"/>
  <circle cx="192.12962962962962" cy="351.9131515775034" r="2.114789094650206" fill="#ffeaa7" opacity="0.6979488024721301"/>
  <circle cx="216.0519547325103" cy="351.929012345679" r="2.1151234567901236" fill="#e94560" opacity="0.6979488024721301"/>
  <circle cx="239.97427983539094" cy="351.9448731138546" r="2.1154578189300413" fill="#fd79a8" opacity="0.6979488024721301"/>
  <circle cx="263.8966049382716" cy="351.9607338820302" r="2.115792181069959" fill="#16213e" opacity="0.6979488024721301"/>
  <circle cx="287.81893004115227" cy="351.97659465020575" r="2.1161265432098766" fill="#1a1a2e" opacity="0.6979488024721301"/>
  <circle cx="311.74125514403295" cy="351.9924554183813" r="2.1164609053497943" fill="#ffeaa7" opacity="0.6979488024721301"/>
  <circle cx="335.6635802469136" cy="352.00831618655695" r="2.116795267489712" fill="#e94560" opacity="0.6979488024721301"/>
  <circle cx="359.58590534979425" cy="352.0241769547325" r="2.1171296296296296" fill="#fd79a8" opacity="0.6979488024721301"/>
  <circle cx="383.50823045267487" cy="352.0400377229081" r="2.1174639917695472" fill="#16213e" opacity="0.6979488024721301"/>
  <circle cx="407.43055555555554" cy="352.05589849108367" r="2.117798353909465" fill="#1a1a2e" opacity="0.6979488024721301"/>
  <circle cx="431.3528806584362" cy="352.07175925925924" r="2.1181327160493826" fill="#ffeaa7" opacity="0.6979488024721301"/>
  <circle cx="455.27520576131684" cy="352.08762002743487" r="2.1184670781893002" fill="#e94560" opacity="0.6979488024721301"/>
  <circle cx="479.1975308641975" cy="352.10348079561044" r="2.118801440329218" fill="#fd79a8" opacity="0.6979488024721301"/>
  <circle cx="503.1198559670782" cy="352.119341563786" r="2.1191358024691356" fill="#16213e" opacity="0.6979488024721301"/>
  <circle cx="527.0421810699588" cy="352.1352023319616" r="2.1194701646090537" fill="#1a1a2e" opacity="0.6979488024721301"/>
  <circle cx="550.9645061728395" cy="352.15106310013715" r="2.1198045267489714" fill="#ffeaa7" opacity="0.6979488024721301"/>
  <circle cx="574.8868312757202" cy="352.1669238683128" r="2.120138888888889" fill="#e94560" opacity="0.6979488024721301"/>
  <circle cx="598.8091563786008" cy="352.18278463648835" r="2.1204732510288067" fill="#fd79a8" opacity="0.6979488024721301"/>
  <circle cx="622.7314814814815" cy="352.1986454046639" r="2.1208076131687243" fill="#16213e" opacity="0.6979488024721301"/>
  <circle cx="646.6538065843621" cy="352.2145061728395" r="2.121141975308642" fill="#1a1a2e" opacity="0.6979488024721301"/>
  <circle cx="670.5761316872428" cy="352.23036694101506" r="2.1214763374485597" fill="#ffeaa7" opacity="0.6979488024721301"/>
  <circle cx="694.4984567901234" cy="352.2462277091907" r="2.1218106995884773" fill="#e94560" opacity="0.6979488024721301"/>
  <circle cx="118.42078189300412" cy="352.26208847736626" r="2.122145061728395" fill="#fd79a8" opacity="0.6979488024721301"/>
  <circle cx="142.34310699588477" cy="352.27794924554183" r="2.1224794238683127" fill="#16213e" opacity="0.6979488024721301"/>
  <circle cx="166.26543209876542" cy="352.2938100137174" r="2.1228137860082303" fill="#1a1a2e" opacity="0.6979488024721301"/>
  <circle cx="190.1877572016461" cy="352.30967078189303" r="2.123148148148148" fill="#ffeaa7" opacity="0.6979488024721301"/>
  <circle cx="214.11008230452677" cy="352.3255315500686" r="2.1234825102880657" fill="#e94560" opacity="0.6979488024721301"/>
  <circle cx="238.03240740740742" cy="352.3413923182442" r="2.1238168724279833" fill="#fd79a8" opacity="0.6979488024721301"/>
  <path d="M 50 480 Q 200 460 400 480" stroke="#fd79a8" stroke-width="2" fill="none"/>
  <circle cx="400" cy="480" r="6" fill="#e94560"/>
  <text x="420" y="485" fill="#e94560" font-family="monospace" font-size="10">1b0fd10</text>
  <text x="50" y="485" fill="#e94560" font-family="monospace" font-size="10">main *</text>
  <rect x="50" y="550" width="148" height="15" fill="#ffeaa7" opacity="0.5416666666666667"/><rect x="200" y="550" width="148" height="15" fill="#e94560" opacity="0.7416666666666667"/><rect x="350" y="550" width="148" height="15" fill="#fd79a8" opacity="0.9416666666666667"/><rect x="500" y="550" width="148" height="15" fill="#16213e" opacity="0.8583333333333334"/><rect x="650" y="550" width="148" height="15" fill="#1a1a2e" opacity="0.6583333333333332"/><text x="50" y="585" fill="#e94560" font-family="monospace" font-size="9">AWAKENING • CALIBRATION • ENGAGEMENT • SYNTHESIS • COMPLETION</text>
  
  <!-- Title -->
  <text x="400" y="30" fill="#e94560" font-family="monospace" font-size="14" text-anchor="middle">AIRGAPPED ARTIFACT • System Telemetry Visualization</text>
  
  <!-- Footer -->
  <text x="400" y="590" fill="#16213e" font-family="monospace" font-size="8" text-anchor="middle">State-Independent Visualization • Graceful Degradation • Dual-Path Rendering</text>
</svg>