<?xml version="1.0" encoding="UTF-8"?>
<!-- Airgapped Artifact - Independent of Session State -->
<!-- Generated: 2026-03-22T21:28:36.736Z -->
<svg xmlns="http://www.w3.org/2000/svg" viewBox="0 0 800 600" width="800" height="600">
  <defs>
    <linearGradient id="grad1" x1="0%" y1="0%" x2="0%" y2="100%">
      <stop offset="0%" style="stop-color:#2d3436;stop-opacity:1" />
      <stop offset="100%" style="stop-color:#2d3436;stop-opacity:1" />
    </linearGradient>
  </defs>
  <rect x="0" y="0" width="800" height="600" fill="#2d3436" />
  <rect x="50" y="50" width="200" height="20" fill="#636e72" stroke="#b2bec3" stroke-width="1"/>
  <rect x="50" y="50" width="16" height="20" fill="#74b9ff" opacity="0.7"/>
  <text x="260" y="65" fill="#b2bec3" font-family="monospace" font-size="12">MEM 8%</text>
  <rect x="50" y="102" width="5" height="18" fill="#0984e3" opacity="0.6"/>
  <rect x="120" y="97.7" width="5" height="22.3" fill="#0984e3" opacity="0.6"/>
  <rect x="190" y="96" width="5" height="24" fill="#0984e3" opacity="0.6"/>
  <text x="50" y="140" fill="#b2bec3" font-family="monospace" font-size="10">LOAD 1.80 2.23 2.40</text>
  <line x1="50" y1="180" x2="750" y2="180" stroke="#b2bec3" stroke-width="0.5" opacity="0.1"/>
  <circle cx="100" cy="180" r="3" fill="#dfe6e9" opacity="0.3"/>
  <line x1="50" y1="205" x2="750" y2="205" stroke="#b2bec3" stroke-width="0.8333333333333333" opacity="0.15"/>
  <circle cx="175" cy="205" r="3.6666666666666665" fill="#74b9ff" opacity="0.36666666666666664"/>
  <line x1="50" y1="230" x2="750" y2="230" stroke="#b2bec3" stroke-width="1.1666666666666665" opacity="0.2"/>
  <circle cx="250" cy="230" r="4.333333333333333" fill="#0984e3" opacity="0.43333333333333335"/>
  <line x1="50" y1="255" x2="750" y2="255" stroke="#b2bec3" stroke-width="1.5" opacity="0.25"/>
  <circle cx="325" cy="255" r="5" fill="#636e72" opacity="0.5"/>
  <line x1="50" y1="280" x2="750" y2="280" stroke="#b2bec3" stroke-width="1.8333333333333333" opacity="0.3"/>
  <circle cx="400" cy="280" r="5.666666666666666" fill="#2d3436" opacity="0.5666666666666667"/>
  <line x1="50" y1="305" x2="750" y2="305" stroke="#b2bec3" stroke-width="2.166666666666667" opacity="0.35"/>
  <circle cx="475" cy="305" r="6.333333333333334" fill="#dfe6e9" opacity="0.6333333333333333"/>
  <line x1="50" y1="330" x2="750" y2="330" stroke="#b2bec3" stroke-width="2.5" opacity="0.4"/>
  <circle cx="550" cy="330" r="7" fill="#74b9ff" opacity="0.7"/>
  <circle cx="515.2263374485597" cy="352.77906378600824" r="2.1667438271604937" fill="#dfe6e9" opacity="0.5136363309524048"/>
  <circle cx="539.1486625514403" cy="352.7949245541838" r="2.1670781893004114" fill="#74b9ff" opacity="0.5136363309524048"/>
  <circle cx="563.070987654321" cy="352.8107853223594" r="2.167412551440329" fill="#0984e3" opacity="0.5136363309524048"/>
  <circle cx="586.9933127572017" cy="352.826646090535" r="2.1677469135802467" fill="#636e72" opacity="0.5136363309524048"/>
  <circle cx="610.9156378600823" cy="352.8425068587106" r="2.168081275720165" fill="#2d3436" opacity="0.5136363309524048"/>
  <circle cx="634.8379629629629" cy="352.85836762688615" r="2.1684156378600825" fill="#dfe6e9" opacity="0.5136363309524048"/>
  <circle cx="658.7602880658436" cy="352.8742283950617" r="2.16875" fill="#74b9ff" opacity="0.5136363309524048"/>
  <circle cx="682.6826131687243" cy="352.8900891632373" r="2.169084362139918" fill="#0984e3" opacity="0.5136363309524048"/>
  <circle cx="106.60493827160494" cy="352.9059499314129" r="2.1694187242798355" fill="#636e72" opacity="0.5136363309524048"/>
  <circle cx="130.52726337448559" cy="352.9218106995885" r="2.169753086419753" fill="#2d3436" opacity="0.5136363309524048"/>
  <circle cx="154.44958847736626" cy="352.93767146776406" r="2.170087448559671" fill="#dfe6e9" opacity="0.5136363309524048"/>
  <circle cx="178.37191358024694" cy="352.95353223593963" r="2.1704218106995885" fill="#74b9ff" opacity="0.5136363309524048"/>
  <circle cx="202.29423868312756" cy="352.9693930041152" r="2.170756172839506" fill="#0984e3" opacity="0.5136363309524048"/>
  <circle cx="226.21656378600824" cy="352.98525377229083" r="2.171090534979424" fill="#636e72" opacity="0.5136363309524048"/>
  <circle cx="250.13888888888889" cy="353.0011145404664" r="2.1714248971193415" fill="#2d3436" opacity="0.5136363309524048"/>
  <circle cx="274.0612139917696" cy="353.016975308642" r="2.171759259259259" fill="#dfe6e9" opacity="0.5136363309524048"/>
  <circle cx="297.9835390946502" cy="353.03283607681755" r="2.172093621399177" fill="#74b9ff" opacity="0.5136363309524048"/>
  <circle cx="321.9058641975309" cy="353.0486968449931" r="2.1724279835390945" fill="#0984e3" opacity="0.5136363309524048"/>
  <circle cx="345.8281893004115" cy="353.06455761316874" r="2.172762345679012" fill="#636e72" opacity="0.5136363309524048"/>
  <circle cx="369.7505144032922" cy="353.0804183813443" r="2.17309670781893" fill="#2d3436" opacity="0.5136363309524048"/>
  <circle cx="393.67283950617286" cy="353.0962791495199" r="2.1734310699588475" fill="#dfe6e9" opacity="0.5136363309524048"/>
  <circle cx="417.5951646090535" cy="353.11213991769546" r="2.1737654320987656" fill="#74b9ff" opacity="0.5136363309524048"/>
  <circle cx="441.51748971193416" cy="353.12800068587103" r="2.1740997942386833" fill="#0984e3" opacity="0.5136363309524048"/>
  <circle cx="465.4398148148148" cy="353.14386145404666" r="2.174434156378601" fill="#636e72" opacity="0.5136363309524048"/>
  <circle cx="489.36213991769546" cy="353.15972222222223" r="2.1747685185185186" fill="#2d3436" opacity="0.5136363309524048"/>
  <path d="M 50 480 Q 200 460 400 480" stroke="#0984e3" stroke-width="2" fill="none"/>
  <circle cx="400" cy="480" r="6" fill="#74b9ff"/>
  <text x="420" y="485" fill="#b2bec3" font-family="monospace" font-size="10">ac24aac</text>
  <text x="50" y="485" fill="#b2bec3" font-family="monospace" font-size="10">main *</text>
  <rect x="50" y="550" width="148" height="15" fill="#dfe6e9" opacity="0.125"/><rect x="200" y="550" width="148" height="15" fill="#74b9ff" opacity="0.32499999999999996"/><rect x="350" y="550" width="148" height="15" fill="#0984e3" opacity="0.525"/><rect x="500" y="550" width="148" height="15" fill="#636e72" opacity="0.725"/><rect x="650" y="550" width="148" height="15" fill="#2d3436" opacity="0.925"/><text x="50" y="585" fill="#b2bec3" font-family="monospace" font-size="9">AWAKENING • CALIBRATION • ENGAGEMENT • SYNTHESIS • COMPLETION</text>
  
  <!-- Title -->
  <text x="400" y="30" fill="#74b9ff" font-family="monospace" font-size="14" text-anchor="middle">AIRGAPPED ARTIFACT • System Telemetry Visualization</text>
  
  <!-- Footer -->
  <text x="400" y="590" fill="#636e72" font-family="monospace" font-size="8" text-anchor="middle">State-Independent Visualization • Graceful Degradation • Dual-Path Rendering</text>
</svg>