<?xml version="1.0" encoding="UTF-8"?>
<!-- Airgapped Artifact - Independent of Session State -->
<!-- Generated: 2026-03-22T07:52:40.827Z -->
<svg xmlns="http://www.w3.org/2000/svg" viewBox="0 0 800 600" width="800" height="600">
  <defs>
    <linearGradient id="grad1" x1="0%" y1="0%" x2="0%" y2="100%">
      <stop offset="0%" style="stop-color:#2d3436;stop-opacity:1" />
      <stop offset="100%" style="stop-color:#2d3436;stop-opacity:1" />
    </linearGradient>
  </defs>
  <rect x="0" y="0" width="800" height="600" fill="#2d3436" />
  <rect x="50" y="50" width="200" height="20" fill="#636e72" stroke="#b2bec3" stroke-width="1"/>
  <rect x="50" y="50" width="12" height="20" fill="#74b9ff" opacity="0.7"/>
  <text x="260" y="65" fill="#b2bec3" font-family="monospace" font-size="12">MEM 6%</text>
  <rect x="50" y="109" width="5" height="11" fill="#0984e3" opacity="0.6"/>
  <rect x="120" y="103.5" width="5" height="16.5" fill="#0984e3" opacity="0.6"/>
  <rect x="190" y="99.5" width="5" height="20.5" fill="#0984e3" opacity="0.6"/>
  <text x="50" y="140" fill="#b2bec3" font-family="monospace" font-size="10">LOAD 1.10 1.65 2.05</text>
  <line x1="50" y1="180" x2="750" y2="180" stroke="#b2bec3" stroke-width="0.5" opacity="0.1"/>
  <circle cx="100" cy="180" r="3" fill="#dfe6e9" opacity="0.3"/>
  <line x1="50" y1="201.42857142857142" x2="750" y2="201.42857142857142" stroke="#b2bec3" stroke-width="0.7857142857142857" opacity="0.14285714285714285"/>
  <circle cx="175" cy="201.42857142857142" r="3.571428571428571" fill="#74b9ff" opacity="0.35714285714285715"/>
  <line x1="50" y1="222.85714285714286" x2="750" y2="222.85714285714286" stroke="#b2bec3" stroke-width="1.0714285714285714" opacity="0.18571428571428572"/>
  <circle cx="250" cy="222.85714285714286" r="4.142857142857142" fill="#0984e3" opacity="0.41428571428571426"/>
  <line x1="50" y1="244.28571428571428" x2="750" y2="244.28571428571428" stroke="#b2bec3" stroke-width="1.3571428571428572" opacity="0.22857142857142856"/>
  <circle cx="325" cy="244.28571428571428" r="4.714285714285714" fill="#636e72" opacity="0.4714285714285714"/>
  <line x1="50" y1="265.7142857142857" x2="750" y2="265.7142857142857" stroke="#b2bec3" stroke-width="1.6428571428571428" opacity="0.2714285714285714"/>
  <circle cx="400" cy="265.7142857142857" r="5.285714285714286" fill="#2d3436" opacity="0.5285714285714286"/>
  <line x1="50" y1="287.1428571428571" x2="750" y2="287.1428571428571" stroke="#b2bec3" stroke-width="1.9285714285714286" opacity="0.3142857142857143"/>
  <circle cx="475" cy="287.1428571428571" r="5.857142857142858" fill="#dfe6e9" opacity="0.5857142857142857"/>
  <line x1="50" y1="308.57142857142856" x2="750" y2="308.57142857142856" stroke="#b2bec3" stroke-width="2.2142857142857144" opacity="0.3571428571428571"/>
  <circle cx="550" cy="308.57142857142856" r="6.428571428571429" fill="#74b9ff" opacity="0.6428571428571428"/>
  <line x1="50" y1="330" x2="750" y2="330" stroke="#b2bec3" stroke-width="2.5" opacity="0.4"/>
  <circle cx="625" cy="330" r="7" fill="#0984e3" opacity="0.7"/>
  <circle cx="295.91563786008226" cy="350.28077846364886" r="2.01684670781893" fill="#dfe6e9" opacity="0.6591443214724302"/>
  <circle cx="319.83796296296293" cy="350.29663923182443" r="2.017181069958848" fill="#74b9ff" opacity="0.6591443214724302"/>
  <circle cx="343.7602880658436" cy="350.3125" r="2.0175154320987656" fill="#0984e3" opacity="0.6591443214724302"/>
  <circle cx="367.6826131687243" cy="350.32836076817557" r="2.0178497942386833" fill="#636e72" opacity="0.6591443214724302"/>
  <circle cx="391.6049382716049" cy="350.34422153635114" r="2.018184156378601" fill="#2d3436" opacity="0.6591443214724302"/>
  <circle cx="415.52726337448564" cy="350.36008230452677" r="2.0185185185185186" fill="#dfe6e9" opacity="0.6591443214724302"/>
  <circle cx="439.44958847736626" cy="350.37594307270234" r="2.0188528806584363" fill="#74b9ff" opacity="0.6591443214724302"/>
  <circle cx="463.37191358024694" cy="350.3918038408779" r="2.019187242798354" fill="#0984e3" opacity="0.6591443214724302"/>
  <circle cx="487.2942386831276" cy="350.4076646090535" r="2.0195216049382716" fill="#636e72" opacity="0.6591443214724302"/>
  <circle cx="511.21656378600824" cy="350.42352537722905" r="2.0198559670781893" fill="#2d3436" opacity="0.6591443214724302"/>
  <circle cx="535.1388888888889" cy="350.4393861454047" r="2.020190329218107" fill="#dfe6e9" opacity="0.6591443214724302"/>
  <circle cx="559.0612139917696" cy="350.45524691358025" r="2.0205246913580246" fill="#74b9ff" opacity="0.6591443214724302"/>
  <circle cx="582.9835390946503" cy="350.4711076817558" r="2.0208590534979423" fill="#0984e3" opacity="0.6591443214724302"/>
  <circle cx="606.9058641975308" cy="350.4869684499314" r="2.02119341563786" fill="#636e72" opacity="0.6591443214724302"/>
  <circle cx="630.8281893004115" cy="350.502829218107" r="2.0215277777777776" fill="#2d3436" opacity="0.6591443214724302"/>
  <circle cx="654.7505144032922" cy="350.5186899862826" r="2.0218621399176953" fill="#dfe6e9" opacity="0.6591443214724302"/>
  <circle cx="678.6728395061729" cy="350.53455075445817" r="2.0221965020576134" fill="#74b9ff" opacity="0.6591443214724302"/>
  <circle cx="102.5951646090535" cy="350.55041152263374" r="2.022530864197531" fill="#0984e3" opacity="0.6591443214724302"/>
  <circle cx="126.51748971193416" cy="350.5662722908093" r="2.0228652263374487" fill="#636e72" opacity="0.6591443214724302"/>
  <circle cx="150.4398148148148" cy="350.58213305898494" r="2.0231995884773664" fill="#2d3436" opacity="0.6591443214724302"/>
  <circle cx="174.36213991769546" cy="350.5979938271605" r="2.023533950617284" fill="#dfe6e9" opacity="0.6591443214724302"/>
  <circle cx="198.28446502057614" cy="350.6138545953361" r="2.0238683127572017" fill="#74b9ff" opacity="0.6591443214724302"/>
  <circle cx="222.20679012345678" cy="350.62971536351165" r="2.0242026748971194" fill="#0984e3" opacity="0.6591443214724302"/>
  <circle cx="246.12911522633743" cy="350.6455761316872" r="2.024537037037037" fill="#636e72" opacity="0.6591443214724302"/>
  <circle cx="270.0514403292181" cy="350.66143689986285" r="2.0248713991769547" fill="#2d3436" opacity="0.6591443214724302"/>
  <path d="M 50 480 Q 200 460 400 480" stroke="#0984e3" stroke-width="2" fill="none"/>
  <circle cx="400" cy="480" r="6" fill="#74b9ff"/>
  <text x="420" y="485" fill="#b2bec3" font-family="monospace" font-size="10">f7e43af</text>
  <text x="50" y="485" fill="#b2bec3" font-family="monospace" font-size="10">main *</text>
  <rect x="50" y="550" width="148" height="15" fill="#dfe6e9" opacity="0.7083333333333333"/><rect x="200" y="550" width="148" height="15" fill="#74b9ff" opacity="0.9083333333333333"/><rect x="350" y="550" width="148" height="15" fill="#0984e3" opacity="0.8916666666666666"/><rect x="500" y="550" width="148" height="15" fill="#636e72" opacity="0.6916666666666667"/><rect x="650" y="550" width="148" height="15" fill="#2d3436" opacity="0.4916666666666667"/><text x="50" y="585" fill="#b2bec3" font-family="monospace" font-size="9">AWAKENING • CALIBRATION • ENGAGEMENT • SYNTHESIS • COMPLETION</text>
  
  <!-- Title -->
  <text x="400" y="30" fill="#74b9ff" font-family="monospace" font-size="14" text-anchor="middle">AIRGAPPED ARTIFACT • System Telemetry Visualization</text>
  
  <!-- Footer -->
  <text x="400" y="590" fill="#636e72" font-family="monospace" font-size="8" text-anchor="middle">State-Independent Visualization • Graceful Degradation • Dual-Path Rendering</text>
</svg>