<?xml version="1.0" encoding="UTF-8"?>
<!-- Airgapped Artifact - Independent of Session State -->
<!-- Generated: 2026-03-22T04:56:33.912Z -->
<svg xmlns="http://www.w3.org/2000/svg" viewBox="0 0 800 600" width="800" height="600">
  <defs>
    <linearGradient id="grad1" x1="0%" y1="0%" x2="0%" y2="100%">
      <stop offset="0%" style="stop-color:#2d3436;stop-opacity:1" />
      <stop offset="100%" style="stop-color:#dfe6e9;stop-opacity:1" />
    </linearGradient>
  </defs>
  <rect x="0" y="0" width="800" height="600" fill="#2d3436" />
  <rect x="50" y="50" width="200" height="20" fill="#b2bec3" stroke="#74b9ff" stroke-width="1"/>
  <rect x="50" y="50" width="12" height="20" fill="#fdcb6e" opacity="0.7"/>
  <text x="260" y="65" fill="#74b9ff" font-family="monospace" font-size="12">MEM 6%</text>
  <rect x="50" y="109.1" width="5" height="10.9" fill="#0984e3" opacity="0.6"/>
  <rect x="120" y="106" width="5" height="14" fill="#0984e3" opacity="0.6"/>
  <rect x="190" y="101.7" width="5" height="18.3" fill="#0984e3" opacity="0.6"/>
  <text x="50" y="140" fill="#74b9ff" font-family="monospace" font-size="10">LOAD 1.09 1.40 1.83</text>
  <line x1="50" y1="180" x2="750" y2="180" stroke="#74b9ff" stroke-width="0.5" opacity="0.1"/>
  <circle cx="100" cy="180" r="3" fill="#ffffff" opacity="0.3"/>
  <line x1="50" y1="205" x2="750" y2="205" stroke="#74b9ff" stroke-width="0.8333333333333333" opacity="0.15"/>
  <circle cx="175" cy="205" r="3.6666666666666665" fill="#dfe6e9" opacity="0.36666666666666664"/>
  <line x1="50" y1="230" x2="750" y2="230" stroke="#74b9ff" stroke-width="1.1666666666666665" opacity="0.2"/>
  <circle cx="250" cy="230" r="4.333333333333333" fill="#74b9ff" opacity="0.43333333333333335"/>
  <line x1="50" y1="255" x2="750" y2="255" stroke="#74b9ff" stroke-width="1.5" opacity="0.25"/>
  <circle cx="325" cy="255" r="5" fill="#0984e3" opacity="0.5"/>
  <line x1="50" y1="280" x2="750" y2="280" stroke="#74b9ff" stroke-width="1.8333333333333333" opacity="0.3"/>
  <circle cx="400" cy="280" r="5.666666666666666" fill="#2d3436" opacity="0.5666666666666667"/>
  <line x1="50" y1="305" x2="750" y2="305" stroke="#74b9ff" stroke-width="2.166666666666667" opacity="0.35"/>
  <circle cx="475" cy="305" r="6.333333333333334" fill="#ffffff" opacity="0.6333333333333333"/>
  <line x1="50" y1="330" x2="750" y2="330" stroke="#74b9ff" stroke-width="2.5" opacity="0.4"/>
  <circle cx="550" cy="330" r="7" fill="#dfe6e9" opacity="0.7"/>
  <circle cx="270.4243827160494" cy="351.61351165980795" r="2.0968106995884774" fill="#ffffff" opacity="0.6956384255063766"/>
  <circle cx="294.34670781893004" cy="351.6293724279835" r="2.097145061728395" fill="#dfe6e9" opacity="0.6956384255063766"/>
  <circle cx="318.2690329218107" cy="351.6452331961591" r="2.0974794238683128" fill="#74b9ff" opacity="0.6956384255063766"/>
  <circle cx="342.19135802469134" cy="351.6610939643347" r="2.0978137860082304" fill="#0984e3" opacity="0.6956384255063766"/>
  <circle cx="366.113683127572" cy="351.6769547325103" r="2.098148148148148" fill="#2d3436" opacity="0.6956384255063766"/>
  <circle cx="390.0360082304527" cy="351.69281550068587" r="2.0984825102880658" fill="#ffffff" opacity="0.6956384255063766"/>
  <circle cx="413.9583333333333" cy="351.70867626886144" r="2.0988168724279834" fill="#dfe6e9" opacity="0.6956384255063766"/>
  <circle cx="437.880658436214" cy="351.724537037037" r="2.099151234567901" fill="#74b9ff" opacity="0.6956384255063766"/>
  <circle cx="461.8029835390946" cy="351.74039780521264" r="2.0994855967078188" fill="#0984e3" opacity="0.6956384255063766"/>
  <circle cx="485.7253086419753" cy="351.7562585733882" r="2.0998199588477364" fill="#2d3436" opacity="0.6956384255063766"/>
  <circle cx="509.64763374485597" cy="351.7721193415638" r="2.1001543209876545" fill="#ffffff" opacity="0.6956384255063766"/>
  <circle cx="533.5699588477366" cy="351.78798010973935" r="2.100488683127572" fill="#dfe6e9" opacity="0.6956384255063766"/>
  <circle cx="557.4922839506173" cy="351.803840877915" r="2.10082304526749" fill="#74b9ff" opacity="0.6956384255063766"/>
  <circle cx="581.414609053498" cy="351.81970164609055" r="2.1011574074074075" fill="#0984e3" opacity="0.6956384255063766"/>
  <circle cx="605.3369341563787" cy="351.8355624142661" r="2.101491769547325" fill="#2d3436" opacity="0.6956384255063766"/>
  <circle cx="629.2592592592592" cy="351.8514231824417" r="2.101826131687243" fill="#ffffff" opacity="0.6956384255063766"/>
  <circle cx="653.1815843621399" cy="351.86728395061726" r="2.1021604938271605" fill="#dfe6e9" opacity="0.6956384255063766"/>
  <circle cx="677.1039094650206" cy="351.8831447187929" r="2.102494855967078" fill="#74b9ff" opacity="0.6956384255063766"/>
  <circle cx="101.02623456790124" cy="351.89900548696846" r="2.102829218106996" fill="#0984e3" opacity="0.6956384255063766"/>
  <circle cx="124.94855967078189" cy="351.91486625514403" r="2.1031635802469135" fill="#2d3436" opacity="0.6956384255063766"/>
  <circle cx="148.87088477366254" cy="351.9307270233196" r="2.103497942386831" fill="#ffffff" opacity="0.6956384255063766"/>
  <circle cx="172.7932098765432" cy="351.9465877914952" r="2.103832304526749" fill="#dfe6e9" opacity="0.6956384255063766"/>
  <circle cx="196.71553497942386" cy="351.9624485596708" r="2.1041666666666665" fill="#74b9ff" opacity="0.6956384255063766"/>
  <circle cx="220.63786008230454" cy="351.9783093278464" r="2.104501028806584" fill="#0984e3" opacity="0.6956384255063766"/>
  <circle cx="244.5601851851852" cy="351.99417009602195" r="2.104835390946502" fill="#2d3436" opacity="0.6956384255063766"/>
  <path d="M 50 480 Q 200 460 400 480" stroke="#74b9ff" stroke-width="2" fill="none"/>
  <circle cx="400" cy="480" r="6" fill="#fdcb6e"/>
  <text x="420" y="485" fill="#74b9ff" font-family="monospace" font-size="10">6f567f1</text>
  <text x="50" y="485" fill="#74b9ff" font-family="monospace" font-size="10">main *</text>
  <rect x="50" y="550" width="148" height="15" fill="#ffffff" opacity="0.8333333333333334"/><rect x="200" y="550" width="148" height="15" fill="#dfe6e9" opacity="0.9666666666666667"/><rect x="350" y="550" width="148" height="15" fill="#74b9ff" opacity="0.7666666666666666"/><rect x="500" y="550" width="148" height="15" fill="#0984e3" opacity="0.5666666666666667"/><rect x="650" y="550" width="148" height="15" fill="#2d3436" opacity="0.3666666666666666"/><text x="50" y="585" fill="#74b9ff" font-family="monospace" font-size="9">AWAKENING • CALIBRATION • ENGAGEMENT • SYNTHESIS • COMPLETION</text>
  
  <!-- Title -->
  <text x="400" y="30" fill="#fdcb6e" font-family="monospace" font-size="14" text-anchor="middle">AIRGAPPED ARTIFACT • System Telemetry Visualization</text>
  
  <!-- Footer -->
  <text x="400" y="590" fill="#b2bec3" font-family="monospace" font-size="8" text-anchor="middle">State-Independent Visualization • Graceful Degradation • Dual-Path Rendering</text>
</svg>