<?xml version="1.0" encoding="UTF-8"?>
<!-- Airgapped Artifact - Independent of Session State -->
<!-- Generated: 2026-03-22T10:49:13.196Z -->
<svg xmlns="http://www.w3.org/2000/svg" viewBox="0 0 800 600" width="800" height="600">
  <defs>
    <linearGradient id="grad1" x1="0%" y1="0%" x2="0%" y2="100%">
      <stop offset="0%" style="stop-color:#2d3436;stop-opacity:1" />
      <stop offset="100%" style="stop-color:#2d3436;stop-opacity:1" />
    </linearGradient>
  </defs>
  <rect x="0" y="0" width="800" height="600" fill="#2d3436" />
  <rect x="50" y="50" width="200" height="20" fill="#636e72" stroke="#b2bec3" stroke-width="1"/>
  <rect x="50" y="50" width="14.000000000000002" height="20" fill="#74b9ff" opacity="0.7"/>
  <text x="260" y="65" fill="#b2bec3" font-family="monospace" font-size="12">MEM 7%</text>
  <rect x="50" y="102" width="5" height="18" fill="#0984e3" opacity="0.6"/>
  <rect x="120" y="97.8" width="5" height="22.200000000000003" fill="#0984e3" opacity="0.6"/>
  <rect x="190" y="96.3" width="5" height="23.700000000000003" fill="#0984e3" opacity="0.6"/>
  <text x="50" y="140" fill="#b2bec3" font-family="monospace" font-size="10">LOAD 1.80 2.22 2.37</text>
  <line x1="50" y1="180" x2="750" y2="180" stroke="#b2bec3" stroke-width="0.5" opacity="0.1"/>
  <circle cx="100" cy="180" r="3" fill="#dfe6e9" opacity="0.3"/>
  <line x1="50" y1="205" x2="750" y2="205" stroke="#b2bec3" stroke-width="0.8333333333333333" opacity="0.15"/>
  <circle cx="175" cy="205" r="3.6666666666666665" fill="#74b9ff" opacity="0.36666666666666664"/>
  <line x1="50" y1="230" x2="750" y2="230" stroke="#b2bec3" stroke-width="1.1666666666666665" opacity="0.2"/>
  <circle cx="250" cy="230" r="4.333333333333333" fill="#0984e3" opacity="0.43333333333333335"/>
  <line x1="50" y1="255" x2="750" y2="255" stroke="#b2bec3" stroke-width="1.5" opacity="0.25"/>
  <circle cx="325" cy="255" r="5" fill="#636e72" opacity="0.5"/>
  <line x1="50" y1="280" x2="750" y2="280" stroke="#b2bec3" stroke-width="1.8333333333333333" opacity="0.3"/>
  <circle cx="400" cy="280" r="5.666666666666666" fill="#2d3436" opacity="0.5666666666666667"/>
  <line x1="50" y1="305" x2="750" y2="305" stroke="#b2bec3" stroke-width="2.166666666666667" opacity="0.35"/>
  <circle cx="475" cy="305" r="6.333333333333334" fill="#dfe6e9" opacity="0.6333333333333333"/>
  <line x1="50" y1="330" x2="750" y2="330" stroke="#b2bec3" stroke-width="2.5" opacity="0.4"/>
  <circle cx="550" cy="330" r="7" fill="#74b9ff" opacity="0.7"/>
  <circle cx="330.62242798353907" cy="351.281292866941" r="2.076877572016461" fill="#dfe6e9" opacity="0.2533595987471615"/>
  <circle cx="354.54475308641975" cy="351.2971536351166" r="2.0772119341563786" fill="#74b9ff" opacity="0.2533595987471615"/>
  <circle cx="378.4670781893004" cy="351.3130144032922" r="2.0775462962962963" fill="#0984e3" opacity="0.2533595987471615"/>
  <circle cx="402.38940329218104" cy="351.32887517146776" r="2.077880658436214" fill="#636e72" opacity="0.2533595987471615"/>
  <circle cx="426.3117283950617" cy="351.34473593964333" r="2.0782150205761316" fill="#2d3436" opacity="0.2533595987471615"/>
  <circle cx="450.23405349794234" cy="351.36059670781896" r="2.0785493827160493" fill="#dfe6e9" opacity="0.2533595987471615"/>
  <circle cx="474.156378600823" cy="351.3764574759945" r="2.078883744855967" fill="#74b9ff" opacity="0.2533595987471615"/>
  <circle cx="498.0787037037037" cy="351.3923182441701" r="2.0792181069958846" fill="#0984e3" opacity="0.2533595987471615"/>
  <circle cx="522.0010288065844" cy="351.40817901234567" r="2.0795524691358023" fill="#636e72" opacity="0.2533595987471615"/>
  <circle cx="545.923353909465" cy="351.42403978052124" r="2.0798868312757204" fill="#2d3436" opacity="0.2533595987471615"/>
  <circle cx="569.8456790123457" cy="351.43990054869687" r="2.080221193415638" fill="#dfe6e9" opacity="0.2533595987471615"/>
  <circle cx="593.7680041152264" cy="351.45576131687244" r="2.0805555555555557" fill="#74b9ff" opacity="0.2533595987471615"/>
  <circle cx="617.690329218107" cy="351.471622085048" r="2.0808899176954734" fill="#0984e3" opacity="0.2533595987471615"/>
  <circle cx="641.6126543209876" cy="351.4874828532236" r="2.081224279835391" fill="#636e72" opacity="0.2533595987471615"/>
  <circle cx="665.5349794238683" cy="351.50334362139915" r="2.0815586419753087" fill="#2d3436" opacity="0.2533595987471615"/>
  <circle cx="689.457304526749" cy="351.5192043895748" r="2.0818930041152264" fill="#dfe6e9" opacity="0.2533595987471615"/>
  <circle cx="113.37962962962963" cy="351.53506515775035" r="2.082227366255144" fill="#74b9ff" opacity="0.2533595987471615"/>
  <circle cx="137.3019547325103" cy="351.5509259259259" r="2.0825617283950617" fill="#0984e3" opacity="0.2533595987471615"/>
  <circle cx="161.22427983539094" cy="351.5667866941015" r="2.0828960905349794" fill="#636e72" opacity="0.2533595987471615"/>
  <circle cx="185.1466049382716" cy="351.58264746227707" r="2.083230452674897" fill="#2d3436" opacity="0.2533595987471615"/>
  <circle cx="209.06893004115227" cy="351.5985082304527" r="2.0835648148148147" fill="#dfe6e9" opacity="0.2533595987471615"/>
  <circle cx="232.99125514403292" cy="351.61436899862827" r="2.0838991769547324" fill="#74b9ff" opacity="0.2533595987471615"/>
  <circle cx="256.91358024691357" cy="351.63022976680384" r="2.08423353909465" fill="#0984e3" opacity="0.2533595987471615"/>
  <circle cx="280.83590534979425" cy="351.6460905349794" r="2.0845679012345677" fill="#636e72" opacity="0.2533595987471615"/>
  <circle cx="304.75823045267487" cy="351.661951303155" r="2.084902263374486" fill="#2d3436" opacity="0.2533595987471615"/>
  <path d="M 50 480 Q 200 460 400 480" stroke="#0984e3" stroke-width="2" fill="none"/>
  <circle cx="400" cy="480" r="6" fill="#74b9ff"/>
  <text x="420" y="485" fill="#b2bec3" font-family="monospace" font-size="10">6e3295a</text>
  <text x="50" y="485" fill="#b2bec3" font-family="monospace" font-size="10">main *</text>
  <rect x="50" y="550" width="148" height="15" fill="#dfe6e9" opacity="0.5833333333333333"/><rect x="200" y="550" width="148" height="15" fill="#74b9ff" opacity="0.7833333333333333"/><rect x="350" y="550" width="148" height="15" fill="#0984e3" opacity="0.9833333333333334"/><rect x="500" y="550" width="148" height="15" fill="#636e72" opacity="0.8166666666666667"/><rect x="650" y="550" width="148" height="15" fill="#2d3436" opacity="0.6166666666666667"/><text x="50" y="585" fill="#b2bec3" font-family="monospace" font-size="9">AWAKENING • CALIBRATION • ENGAGEMENT • SYNTHESIS • COMPLETION</text>
  
  <!-- Title -->
  <text x="400" y="30" fill="#74b9ff" font-family="monospace" font-size="14" text-anchor="middle">AIRGAPPED ARTIFACT • System Telemetry Visualization</text>
  
  <!-- Footer -->
  <text x="400" y="590" fill="#636e72" font-family="monospace" font-size="8" text-anchor="middle">State-Independent Visualization • Graceful Degradation • Dual-Path Rendering</text>
</svg>