<?xml version="1.0" encoding="UTF-8"?>
<!-- Airgapped Artifact - Independent of Session State -->
<!-- Generated: 2026-03-22T05:12:01.306Z -->
<svg xmlns="http://www.w3.org/2000/svg" viewBox="0 0 800 600" width="800" height="600">
  <defs>
    <linearGradient id="grad1" x1="0%" y1="0%" x2="0%" y2="100%">
      <stop offset="0%" style="stop-color:#000000;stop-opacity:1" />
      <stop offset="100%" style="stop-color:#000000;stop-opacity:1" />
    </linearGradient>
  </defs>
  <rect x="0" y="0" width="800" height="600" fill="#000000" />
  <rect x="50" y="50" width="200" height="20" fill="#1a1a1a" stroke="#333333" stroke-width="1"/>
  <rect x="50" y="50" width="12" height="20" fill="#4a4a4a" opacity="0.7"/>
  <text x="260" y="65" fill="#333333" font-family="monospace" font-size="12">MEM 6%</text>
  <rect x="50" y="105.9" width="5" height="14.1" fill="#000000" opacity="0.6"/>
  <rect x="120" y="102.2" width="5" height="17.8" fill="#000000" opacity="0.6"/>
  <rect x="190" y="101.1" width="5" height="18.9" fill="#000000" opacity="0.6"/>
  <text x="50" y="140" fill="#333333" font-family="monospace" font-size="10">LOAD 1.41 1.78 1.89</text>
  <line x1="50" y1="180" x2="750" y2="180" stroke="#333333" stroke-width="0.5" opacity="0.1"/>
  <circle cx="100" cy="180" r="3" fill="#ffffff" opacity="0.3"/>
  <line x1="50" y1="201.42857142857142" x2="750" y2="201.42857142857142" stroke="#333333" stroke-width="0.7857142857142857" opacity="0.14285714285714285"/>
  <circle cx="175" cy="201.42857142857142" r="3.571428571428571" fill="#aaaaaa" opacity="0.35714285714285715"/>
  <line x1="50" y1="222.85714285714286" x2="750" y2="222.85714285714286" stroke="#333333" stroke-width="1.0714285714285714" opacity="0.18571428571428572"/>
  <circle cx="250" cy="222.85714285714286" r="4.142857142857142" fill="#666666" opacity="0.41428571428571426"/>
  <line x1="50" y1="244.28571428571428" x2="750" y2="244.28571428571428" stroke="#333333" stroke-width="1.3571428571428572" opacity="0.22857142857142856"/>
  <circle cx="325" cy="244.28571428571428" r="4.714285714285714" fill="#333333" opacity="0.4714285714285714"/>
  <line x1="50" y1="265.7142857142857" x2="750" y2="265.7142857142857" stroke="#333333" stroke-width="1.6428571428571428" opacity="0.2714285714285714"/>
  <circle cx="400" cy="265.7142857142857" r="5.285714285714286" fill="#000000" opacity="0.5285714285714286"/>
  <line x1="50" y1="287.1428571428571" x2="750" y2="287.1428571428571" stroke="#333333" stroke-width="1.9285714285714286" opacity="0.3142857142857143"/>
  <circle cx="475" cy="287.1428571428571" r="5.857142857142858" fill="#ffffff" opacity="0.5857142857142857"/>
  <line x1="50" y1="308.57142857142856" x2="750" y2="308.57142857142856" stroke="#333333" stroke-width="2.2142857142857144" opacity="0.3571428571428571"/>
  <circle cx="550" cy="308.57142857142856" r="6.428571428571429" fill="#aaaaaa" opacity="0.6428571428571428"/>
  <line x1="50" y1="330" x2="750" y2="330" stroke="#333333" stroke-width="2.5" opacity="0.4"/>
  <circle cx="625" cy="330" r="7" fill="#666666" opacity="0.7"/>
  <circle cx="380.5735596707819" cy="350.4758230452675" r="2.0285493827160495" fill="#ffffff" opacity="0.523783941836351"/>
  <circle cx="404.49588477366257" cy="350.49168381344305" r="2.028883744855967" fill="#aaaaaa" opacity="0.523783941836351"/>
  <circle cx="428.4182098765432" cy="350.5075445816187" r="2.029218106995885" fill="#666666" opacity="0.523783941836351"/>
  <circle cx="452.34053497942386" cy="350.52340534979425" r="2.0295524691358025" fill="#333333" opacity="0.523783941836351"/>
  <circle cx="476.26286008230454" cy="350.5392661179698" r="2.02988683127572" fill="#000000" opacity="0.523783941836351"/>
  <circle cx="500.18518518518516" cy="350.5551268861454" r="2.030221193415638" fill="#ffffff" opacity="0.523783941836351"/>
  <circle cx="524.1075102880659" cy="350.570987654321" r="2.0305555555555554" fill="#aaaaaa" opacity="0.523783941836351"/>
  <circle cx="548.0298353909466" cy="350.5868484224966" r="2.030889917695473" fill="#666666" opacity="0.523783941836351"/>
  <circle cx="571.9521604938271" cy="350.60270919067216" r="2.031224279835391" fill="#333333" opacity="0.523783941836351"/>
  <circle cx="595.8744855967078" cy="350.61856995884773" r="2.0315586419753084" fill="#000000" opacity="0.523783941836351"/>
  <circle cx="619.7968106995885" cy="350.6344307270233" r="2.0318930041152266" fill="#ffffff" opacity="0.523783941836351"/>
  <circle cx="643.7191358024692" cy="350.6502914951989" r="2.032227366255144" fill="#aaaaaa" opacity="0.523783941836351"/>
  <circle cx="667.6414609053498" cy="350.6661522633745" r="2.032561728395062" fill="#666666" opacity="0.523783941836351"/>
  <circle cx="691.5637860082304" cy="350.68201303155007" r="2.0328960905349795" fill="#333333" opacity="0.523783941836351"/>
  <circle cx="115.48611111111111" cy="350.69787379972564" r="2.033230452674897" fill="#000000" opacity="0.523783941836351"/>
  <circle cx="139.40843621399176" cy="350.7137345679012" r="2.033564814814815" fill="#ffffff" opacity="0.523783941836351"/>
  <circle cx="163.33076131687244" cy="350.72959533607684" r="2.0338991769547325" fill="#aaaaaa" opacity="0.523783941836351"/>
  <circle cx="187.2530864197531" cy="350.7454561042524" r="2.03423353909465" fill="#666666" opacity="0.523783941836351"/>
  <circle cx="211.17541152263374" cy="350.761316872428" r="2.034567901234568" fill="#333333" opacity="0.523783941836351"/>
  <circle cx="235.09773662551441" cy="350.77717764060355" r="2.0349022633744855" fill="#000000" opacity="0.523783941836351"/>
  <circle cx="259.02006172839504" cy="350.7930384087791" r="2.035236625514403" fill="#ffffff" opacity="0.523783941836351"/>
  <circle cx="282.9423868312757" cy="350.80889917695475" r="2.035570987654321" fill="#aaaaaa" opacity="0.523783941836351"/>
  <circle cx="306.8647119341564" cy="350.8247599451303" r="2.0359053497942385" fill="#666666" opacity="0.523783941836351"/>
  <circle cx="330.78703703703707" cy="350.8406207133059" r="2.036239711934156" fill="#333333" opacity="0.523783941836351"/>
  <circle cx="354.70936213991774" cy="350.85648148148147" r="2.036574074074074" fill="#000000" opacity="0.523783941836351"/>
  <path d="M 50 480 Q 200 460 400 480" stroke="#aaaaaa" stroke-width="2" fill="none"/>
  <circle cx="400" cy="480" r="6" fill="#4a4a4a"/>
  <text x="420" y="485" fill="#333333" font-family="monospace" font-size="10">c8093ff</text>
  <text x="50" y="485" fill="#333333" font-family="monospace" font-size="10">main</text>
  <rect x="50" y="550" width="148" height="15" fill="#ffffff" opacity="0.7916666666666666"/><rect x="200" y="550" width="148" height="15" fill="#aaaaaa" opacity="0.9916666666666667"/><rect x="350" y="550" width="148" height="15" fill="#666666" opacity="0.8083333333333333"/><rect x="500" y="550" width="148" height="15" fill="#333333" opacity="0.6083333333333334"/><rect x="650" y="550" width="148" height="15" fill="#000000" opacity="0.4083333333333333"/><text x="50" y="585" fill="#333333" font-family="monospace" font-size="9">AWAKENING • CALIBRATION • ENGAGEMENT • SYNTHESIS • COMPLETION</text>
  
  <!-- Title -->
  <text x="400" y="30" fill="#4a4a4a" font-family="monospace" font-size="14" text-anchor="middle">AIRGAPPED ARTIFACT • System Telemetry Visualization</text>
  
  <!-- Footer -->
  <text x="400" y="590" fill="#1a1a1a" font-family="monospace" font-size="8" text-anchor="middle">State-Independent Visualization • Graceful Degradation • Dual-Path Rendering</text>
</svg>