<?xml version="1.0" encoding="UTF-8"?>
<!-- Airgapped Artifact - Independent of Session State -->
<!-- Generated: 2026-03-22T03:28:08.363Z -->
<svg xmlns="http://www.w3.org/2000/svg" viewBox="0 0 800 600" width="800" height="600">
  <defs>
    <linearGradient id="grad1" x1="0%" y1="0%" x2="0%" y2="100%">
      <stop offset="0%" style="stop-color:#1a1a2e;stop-opacity:1" />
      <stop offset="100%" style="stop-color:#1a1a2e;stop-opacity:1" />
    </linearGradient>
  </defs>
  <rect x="0" y="0" width="800" height="600" fill="#1a1a2e" />
  <rect x="50" y="50" width="200" height="20" fill="#16213e" stroke="#e94560" stroke-width="1"/>
  <rect x="50" y="50" width="12" height="20" fill="#e94560" opacity="0.7"/>
  <text x="260" y="65" fill="#e94560" font-family="monospace" font-size="12">MEM 6%</text>
  <rect x="50" y="90" width="5" height="30" fill="#0f3460" opacity="0.6"/>
  <rect x="120" y="95.2" width="5" height="24.8" fill="#0f3460" opacity="0.6"/>
  <rect x="190" y="96" width="5" height="24" fill="#0f3460" opacity="0.6"/>
  <text x="50" y="140" fill="#e94560" font-family="monospace" font-size="10">LOAD 3.14 2.48 2.40</text>
  <line x1="50" y1="180" x2="750" y2="180" stroke="#e94560" stroke-width="0.5" opacity="0.1"/>
  <circle cx="100" cy="180" r="3" fill="#ffeaa7" opacity="0.3"/>
  <line x1="50" y1="205" x2="750" y2="205" stroke="#e94560" stroke-width="0.8333333333333333" opacity="0.15"/>
  <circle cx="175" cy="205" r="3.6666666666666665" fill="#e94560" opacity="0.36666666666666664"/>
  <line x1="50" y1="230" x2="750" y2="230" stroke="#e94560" stroke-width="1.1666666666666665" opacity="0.2"/>
  <circle cx="250" cy="230" r="4.333333333333333" fill="#fd79a8" opacity="0.43333333333333335"/>
  <line x1="50" y1="255" x2="750" y2="255" stroke="#e94560" stroke-width="1.5" opacity="0.25"/>
  <circle cx="325" cy="255" r="5" fill="#16213e" opacity="0.5"/>
  <line x1="50" y1="280" x2="750" y2="280" stroke="#e94560" stroke-width="1.8333333333333333" opacity="0.3"/>
  <circle cx="400" cy="280" r="5.666666666666666" fill="#1a1a2e" opacity="0.5666666666666667"/>
  <line x1="50" y1="305" x2="750" y2="305" stroke="#e94560" stroke-width="2.166666666666667" opacity="0.35"/>
  <circle cx="475" cy="305" r="6.333333333333334" fill="#ffeaa7" opacity="0.6333333333333333"/>
  <line x1="50" y1="330" x2="750" y2="330" stroke="#e94560" stroke-width="2.5" opacity="0.4"/>
  <circle cx="550" cy="330" r="7" fill="#e94560" opacity="0.7"/>
  <circle cx="389.0046296296296" cy="353.4756515775034" r="2.208539094650206" fill="#ffeaa7" opacity="0.27665970229718123"/>
  <circle cx="412.92695473251024" cy="353.491512345679" r="2.2088734567901236" fill="#e94560" opacity="0.27665970229718123"/>
  <circle cx="436.8492798353909" cy="353.5073731138546" r="2.2092078189300413" fill="#fd79a8" opacity="0.27665970229718123"/>
  <circle cx="460.7716049382716" cy="353.5232338820302" r="2.209542181069959" fill="#16213e" opacity="0.27665970229718123"/>
  <circle cx="484.69393004115227" cy="353.53909465020575" r="2.2098765432098766" fill="#1a1a2e" opacity="0.27665970229718123"/>
  <circle cx="508.6162551440329" cy="353.5549554183813" r="2.2102109053497943" fill="#ffeaa7" opacity="0.27665970229718123"/>
  <circle cx="532.5385802469136" cy="353.57081618655695" r="2.210545267489712" fill="#e94560" opacity="0.27665970229718123"/>
  <circle cx="556.4609053497943" cy="353.5866769547325" r="2.2108796296296296" fill="#fd79a8" opacity="0.27665970229718123"/>
  <circle cx="580.3832304526749" cy="353.6025377229081" r="2.2112139917695472" fill="#16213e" opacity="0.27665970229718123"/>
  <circle cx="604.3055555555555" cy="353.61839849108367" r="2.211548353909465" fill="#1a1a2e" opacity="0.27665970229718123"/>
  <circle cx="628.2278806584362" cy="353.63425925925924" r="2.2118827160493826" fill="#ffeaa7" opacity="0.27665970229718123"/>
  <circle cx="652.1502057613169" cy="353.65012002743487" r="2.2122170781893002" fill="#e94560" opacity="0.27665970229718123"/>
  <circle cx="676.0725308641976" cy="353.66598079561044" r="2.212551440329218" fill="#fd79a8" opacity="0.27665970229718123"/>
  <circle cx="699.9948559670781" cy="353.681841563786" r="2.2128858024691356" fill="#16213e" opacity="0.27665970229718123"/>
  <circle cx="123.91718106995884" cy="353.6977023319616" r="2.2132201646090532" fill="#1a1a2e" opacity="0.27665970229718123"/>
  <circle cx="147.8395061728395" cy="353.71356310013715" r="2.2135545267489714" fill="#ffeaa7" opacity="0.27665970229718123"/>
  <circle cx="171.76183127572017" cy="353.7294238683128" r="2.213888888888889" fill="#e94560" opacity="0.27665970229718123"/>
  <circle cx="195.68415637860082" cy="353.74528463648835" r="2.2142232510288067" fill="#fd79a8" opacity="0.27665970229718123"/>
  <circle cx="219.60648148148147" cy="353.7611454046639" r="2.2145576131687243" fill="#16213e" opacity="0.27665970229718123"/>
  <circle cx="243.52880658436214" cy="353.7770061728395" r="2.214891975308642" fill="#1a1a2e" opacity="0.27665970229718123"/>
  <circle cx="267.45113168724276" cy="353.79286694101506" r="2.2152263374485597" fill="#ffeaa7" opacity="0.27665970229718123"/>
  <circle cx="291.37345679012344" cy="353.8087277091907" r="2.2155606995884773" fill="#e94560" opacity="0.27665970229718123"/>
  <circle cx="315.2957818930041" cy="353.82458847736626" r="2.215895061728395" fill="#fd79a8" opacity="0.27665970229718123"/>
  <circle cx="339.2181069958848" cy="353.84044924554183" r="2.2162294238683127" fill="#16213e" opacity="0.27665970229718123"/>
  <circle cx="363.1404320987654" cy="353.8563100137174" r="2.2165637860082303" fill="#1a1a2e" opacity="0.27665970229718123"/>
  <path d="M 50 480 Q 200 460 400 480" stroke="#e94560" stroke-width="2" fill="none"/>
  <circle cx="400" cy="480" r="6" fill="#e94560"/>
  <text x="420" y="485" fill="#e94560" font-family="monospace" font-size="10">80bf3b6</text>
  <text x="50" y="485" fill="#e94560" font-family="monospace" font-size="10">main</text>
  <rect x="50" y="550" width="148" height="15" fill="#ffeaa7" opacity="0.875"/><rect x="200" y="550" width="148" height="15" fill="#e94560" opacity="0.925"/><rect x="350" y="550" width="148" height="15" fill="#fd79a8" opacity="0.725"/><rect x="500" y="550" width="148" height="15" fill="#16213e" opacity="0.525"/><rect x="650" y="550" width="148" height="15" fill="#1a1a2e" opacity="0.32499999999999996"/><text x="50" y="585" fill="#e94560" font-family="monospace" font-size="9">AWAKENING • CALIBRATION • ENGAGEMENT • SYNTHESIS • COMPLETION</text>
  
  <!-- Title -->
  <text x="400" y="30" fill="#e94560" font-family="monospace" font-size="14" text-anchor="middle">AIRGAPPED ARTIFACT • System Telemetry Visualization</text>
  
  <!-- Footer -->
  <text x="400" y="590" fill="#16213e" font-family="monospace" font-size="8" text-anchor="middle">State-Independent Visualization • Graceful Degradation • Dual-Path Rendering</text>
</svg>