<?xml version="1.0" encoding="UTF-8"?>
<!-- Airgapped Artifact - Independent of Session State -->
<!-- Generated: 2026-03-22T04:10:09.913Z -->
<svg xmlns="http://www.w3.org/2000/svg" viewBox="0 0 800 600" width="800" height="600">
  <defs>
    <linearGradient id="grad1" x1="0%" y1="0%" x2="0%" y2="100%">
      <stop offset="0%" style="stop-color:#000000;stop-opacity:1" />
      <stop offset="100%" style="stop-color:#000000;stop-opacity:1" />
    </linearGradient>
  </defs>
  <rect x="0" y="0" width="800" height="600" fill="#000000" />
  <rect x="50" y="50" width="200" height="20" fill="#1a1a1a" stroke="#333333" stroke-width="1"/>
  <rect x="50" y="50" width="12" height="20" fill="#4a4a4a" opacity="0.7"/>
  <text x="260" y="65" fill="#333333" font-family="monospace" font-size="12">MEM 6%</text>
  <rect x="50" y="90" width="5" height="30" fill="#000000" opacity="0.6"/>
  <rect x="120" y="90" width="5" height="30" fill="#000000" opacity="0.6"/>
  <rect x="190" y="92" width="5" height="28" fill="#000000" opacity="0.6"/>
  <text x="50" y="140" fill="#333333" font-family="monospace" font-size="10">LOAD 3.83 3.25 2.80</text>
  <line x1="50" y1="180" x2="750" y2="180" stroke="#333333" stroke-width="0.5" opacity="0.1"/>
  <circle cx="100" cy="180" r="3" fill="#ffffff" opacity="0.3"/>
  <line x1="50" y1="205" x2="750" y2="205" stroke="#333333" stroke-width="0.8333333333333333" opacity="0.15"/>
  <circle cx="175" cy="205" r="3.6666666666666665" fill="#aaaaaa" opacity="0.36666666666666664"/>
  <line x1="50" y1="230" x2="750" y2="230" stroke="#333333" stroke-width="1.1666666666666665" opacity="0.2"/>
  <circle cx="250" cy="230" r="4.333333333333333" fill="#666666" opacity="0.43333333333333335"/>
  <line x1="50" y1="255" x2="750" y2="255" stroke="#333333" stroke-width="1.5" opacity="0.25"/>
  <circle cx="325" cy="255" r="5" fill="#333333" opacity="0.5"/>
  <line x1="50" y1="280" x2="750" y2="280" stroke="#333333" stroke-width="1.8333333333333333" opacity="0.3"/>
  <circle cx="400" cy="280" r="5.666666666666666" fill="#000000" opacity="0.5666666666666667"/>
  <line x1="50" y1="305" x2="750" y2="305" stroke="#333333" stroke-width="2.166666666666667" opacity="0.35"/>
  <circle cx="475" cy="305" r="6.333333333333334" fill="#ffffff" opacity="0.6333333333333333"/>
  <line x1="50" y1="330" x2="750" y2="330" stroke="#333333" stroke-width="2.5" opacity="0.4"/>
  <circle cx="550" cy="330" r="7" fill="#aaaaaa" opacity="0.7"/>
  <circle cx="503.9480452674897" cy="354.1658093278464" r="2.249948559670782" fill="#ffffff" opacity="0.3627951870427545"/>
  <circle cx="527.8703703703703" cy="354.18167009602195" r="2.2502829218106997" fill="#aaaaaa" opacity="0.3627951870427545"/>
  <circle cx="551.792695473251" cy="354.1975308641975" r="2.2506172839506173" fill="#666666" opacity="0.3627951870427545"/>
  <circle cx="575.7150205761317" cy="354.2133916323731" r="2.250951646090535" fill="#333333" opacity="0.3627951870427545"/>
  <circle cx="599.6373456790122" cy="354.2292524005487" r="2.2512860082304527" fill="#000000" opacity="0.3627951870427545"/>
  <circle cx="623.559670781893" cy="354.2451131687243" r="2.2516203703703703" fill="#ffffff" opacity="0.3627951870427545"/>
  <circle cx="647.4819958847736" cy="354.26097393689986" r="2.251954732510288" fill="#aaaaaa" opacity="0.3627951870427545"/>
  <circle cx="671.4043209876543" cy="354.27683470507543" r="2.2522890946502057" fill="#666666" opacity="0.3627951870427545"/>
  <circle cx="695.326646090535" cy="354.292695473251" r="2.2526234567901233" fill="#333333" opacity="0.3627951870427545"/>
  <circle cx="119.24897119341564" cy="354.30855624142663" r="2.252957818930041" fill="#000000" opacity="0.3627951870427545"/>
  <circle cx="143.1712962962963" cy="354.3244170096022" r="2.253292181069959" fill="#ffffff" opacity="0.3627951870427545"/>
  <circle cx="167.09362139917695" cy="354.34027777777777" r="2.2536265432098768" fill="#aaaaaa" opacity="0.3627951870427545"/>
  <circle cx="191.0159465020576" cy="354.35613854595334" r="2.2539609053497944" fill="#666666" opacity="0.3627951870427545"/>
  <circle cx="214.93827160493828" cy="354.37199931412897" r="2.254295267489712" fill="#333333" opacity="0.3627951870427545"/>
  <circle cx="238.86059670781893" cy="354.38786008230454" r="2.2546296296296298" fill="#000000" opacity="0.3627951870427545"/>
  <circle cx="262.7829218106996" cy="354.4037208504801" r="2.2549639917695474" fill="#ffffff" opacity="0.3627951870427545"/>
  <circle cx="286.70524691358025" cy="354.4195816186557" r="2.255298353909465" fill="#aaaaaa" opacity="0.3627951870427545"/>
  <circle cx="310.62757201646093" cy="354.43544238683126" r="2.2556327160493828" fill="#666666" opacity="0.3627951870427545"/>
  <circle cx="334.54989711934155" cy="354.4513031550069" r="2.2559670781893004" fill="#333333" opacity="0.3627951870427545"/>
  <circle cx="358.47222222222223" cy="354.46716392318245" r="2.256301440329218" fill="#000000" opacity="0.3627951870427545"/>
  <circle cx="382.39454732510285" cy="354.483024691358" r="2.2566358024691358" fill="#ffffff" opacity="0.3627951870427545"/>
  <circle cx="406.3168724279835" cy="354.4988854595336" r="2.2569701646090534" fill="#aaaaaa" opacity="0.3627951870427545"/>
  <circle cx="430.2391975308642" cy="354.51474622770917" r="2.257304526748971" fill="#666666" opacity="0.3627951870427545"/>
  <circle cx="454.1615226337449" cy="354.5306069958848" r="2.2576388888888888" fill="#333333" opacity="0.3627951870427545"/>
  <circle cx="478.0838477366255" cy="354.54646776406037" r="2.2579732510288064" fill="#000000" opacity="0.3627951870427545"/>
  <path d="M 50 480 Q 200 460 400 480" stroke="#aaaaaa" stroke-width="2" fill="none"/>
  <circle cx="400" cy="480" r="6" fill="#4a4a4a"/>
  <text x="420" y="485" fill="#333333" font-family="monospace" font-size="10">6f567f1</text>
  <text x="50" y="485" fill="#333333" font-family="monospace" font-size="10">main</text>
  <rect x="50" y="550" width="148" height="15" fill="#ffffff" opacity="0.8333333333333334"/><rect x="200" y="550" width="148" height="15" fill="#aaaaaa" opacity="0.9666666666666667"/><rect x="350" y="550" width="148" height="15" fill="#666666" opacity="0.7666666666666666"/><rect x="500" y="550" width="148" height="15" fill="#333333" opacity="0.5666666666666667"/><rect x="650" y="550" width="148" height="15" fill="#000000" opacity="0.3666666666666666"/><text x="50" y="585" fill="#333333" font-family="monospace" font-size="9">AWAKENING • CALIBRATION • ENGAGEMENT • SYNTHESIS • COMPLETION</text>
  
  <!-- Title -->
  <text x="400" y="30" fill="#4a4a4a" font-family="monospace" font-size="14" text-anchor="middle">AIRGAPPED ARTIFACT • System Telemetry Visualization</text>
  
  <!-- Footer -->
  <text x="400" y="590" fill="#1a1a1a" font-family="monospace" font-size="8" text-anchor="middle">State-Independent Visualization • Graceful Degradation • Dual-Path Rendering</text>
</svg>