<?xml version="1.0" encoding="UTF-8"?>
<!-- Airgapped Artifact - Independent of Session State -->
<!-- Generated: 2026-03-22T21:02:37.475Z -->
<svg xmlns="http://www.w3.org/2000/svg" viewBox="0 0 800 600" width="800" height="600">
  <defs>
    <linearGradient id="grad1" x1="0%" y1="0%" x2="0%" y2="100%">
      <stop offset="0%" style="stop-color:#2d3436;stop-opacity:1" />
      <stop offset="100%" style="stop-color:#2d3436;stop-opacity:1" />
    </linearGradient>
  </defs>
  <rect x="0" y="0" width="800" height="600" fill="#2d3436" />
  <rect x="50" y="50" width="200" height="20" fill="#636e72" stroke="#b2bec3" stroke-width="1"/>
  <rect x="50" y="50" width="16" height="20" fill="#74b9ff" opacity="0.7"/>
  <text x="260" y="65" fill="#b2bec3" font-family="monospace" font-size="12">MEM 8%</text>
  <rect x="50" y="90" width="5" height="30" fill="#0984e3" opacity="0.6"/>
  <rect x="120" y="93.3" width="5" height="26.7" fill="#0984e3" opacity="0.6"/>
  <rect x="190" y="91.3" width="5" height="28.700000000000003" fill="#0984e3" opacity="0.6"/>
  <text x="50" y="140" fill="#b2bec3" font-family="monospace" font-size="10">LOAD 3.01 2.67 2.87</text>
  <line x1="50" y1="180" x2="750" y2="180" stroke="#b2bec3" stroke-width="0.5" opacity="0.1"/>
  <circle cx="100" cy="180" r="3" fill="#dfe6e9" opacity="0.3"/>
  <line x1="50" y1="201.42857142857142" x2="750" y2="201.42857142857142" stroke="#b2bec3" stroke-width="0.7857142857142857" opacity="0.14285714285714285"/>
  <circle cx="175" cy="201.42857142857142" r="3.571428571428571" fill="#74b9ff" opacity="0.35714285714285715"/>
  <line x1="50" y1="222.85714285714286" x2="750" y2="222.85714285714286" stroke="#b2bec3" stroke-width="1.0714285714285714" opacity="0.18571428571428572"/>
  <circle cx="250" cy="222.85714285714286" r="4.142857142857142" fill="#0984e3" opacity="0.41428571428571426"/>
  <line x1="50" y1="244.28571428571428" x2="750" y2="244.28571428571428" stroke="#b2bec3" stroke-width="1.3571428571428572" opacity="0.22857142857142856"/>
  <circle cx="325" cy="244.28571428571428" r="4.714285714285714" fill="#636e72" opacity="0.4714285714285714"/>
  <line x1="50" y1="265.7142857142857" x2="750" y2="265.7142857142857" stroke="#b2bec3" stroke-width="1.6428571428571428" opacity="0.2714285714285714"/>
  <circle cx="400" cy="265.7142857142857" r="5.285714285714286" fill="#2d3436" opacity="0.5285714285714286"/>
  <line x1="50" y1="287.1428571428571" x2="750" y2="287.1428571428571" stroke="#b2bec3" stroke-width="1.9285714285714286" opacity="0.3142857142857143"/>
  <circle cx="475" cy="287.1428571428571" r="5.857142857142858" fill="#dfe6e9" opacity="0.5857142857142857"/>
  <line x1="50" y1="308.57142857142856" x2="750" y2="308.57142857142856" stroke="#b2bec3" stroke-width="2.2142857142857144" opacity="0.3571428571428571"/>
  <circle cx="550" cy="308.57142857142856" r="6.428571428571429" fill="#74b9ff" opacity="0.6428571428571428"/>
  <line x1="50" y1="330" x2="750" y2="330" stroke="#b2bec3" stroke-width="2.5" opacity="0.4"/>
  <circle cx="625" cy="330" r="7" fill="#0984e3" opacity="0.7"/>
  <circle cx="215.80504115226339" cy="353.10699588477365" r="2.18641975308642" fill="#dfe6e9" opacity="0.4724742875790019"/>
  <circle cx="239.72736625514403" cy="353.1228566529492" r="2.1867541152263374" fill="#74b9ff" opacity="0.4724742875790019"/>
  <circle cx="263.6496913580247" cy="353.13871742112485" r="2.187088477366255" fill="#0984e3" opacity="0.4724742875790019"/>
  <circle cx="287.57201646090533" cy="353.1545781893004" r="2.187422839506173" fill="#636e72" opacity="0.4724742875790019"/>
  <circle cx="311.494341563786" cy="353.170438957476" r="2.1877572016460904" fill="#2d3436" opacity="0.4724742875790019"/>
  <circle cx="335.41666666666663" cy="353.18629972565157" r="2.188091563786008" fill="#dfe6e9" opacity="0.4724742875790019"/>
  <circle cx="359.3389917695473" cy="353.20216049382714" r="2.1884259259259258" fill="#74b9ff" opacity="0.4724742875790019"/>
  <circle cx="383.261316872428" cy="353.21802126200276" r="2.1887602880658434" fill="#0984e3" opacity="0.4724742875790019"/>
  <circle cx="407.18364197530866" cy="353.23388203017834" r="2.189094650205761" fill="#636e72" opacity="0.4724742875790019"/>
  <circle cx="431.1059670781893" cy="353.2497427983539" r="2.1894290123456788" fill="#2d3436" opacity="0.4724742875790019"/>
  <circle cx="455.0282921810699" cy="353.2656035665295" r="2.189763374485597" fill="#dfe6e9" opacity="0.4724742875790019"/>
  <circle cx="478.9506172839506" cy="353.28146433470505" r="2.1900977366255145" fill="#74b9ff" opacity="0.4724742875790019"/>
  <circle cx="502.87294238683126" cy="353.2973251028807" r="2.190432098765432" fill="#0984e3" opacity="0.4724742875790019"/>
  <circle cx="526.7952674897119" cy="353.31318587105625" r="2.19076646090535" fill="#636e72" opacity="0.4724742875790019"/>
  <circle cx="550.7175925925926" cy="353.3290466392318" r="2.1911008230452675" fill="#2d3436" opacity="0.4724742875790019"/>
  <circle cx="574.6399176954733" cy="353.3449074074074" r="2.191435185185185" fill="#dfe6e9" opacity="0.4724742875790019"/>
  <circle cx="598.562242798354" cy="353.360768175583" r="2.191769547325103" fill="#74b9ff" opacity="0.4724742875790019"/>
  <circle cx="622.4845679012345" cy="353.3766289437586" r="2.1921039094650205" fill="#0984e3" opacity="0.4724742875790019"/>
  <circle cx="646.4068930041152" cy="353.39248971193416" r="2.192438271604938" fill="#636e72" opacity="0.4724742875790019"/>
  <circle cx="670.3292181069959" cy="353.40835048010973" r="2.192772633744856" fill="#2d3436" opacity="0.4724742875790019"/>
  <circle cx="694.2515432098766" cy="353.4242112482853" r="2.1931069958847735" fill="#dfe6e9" opacity="0.4724742875790019"/>
  <circle cx="118.17386831275721" cy="353.44007201646093" r="2.193441358024691" fill="#74b9ff" opacity="0.4724742875790019"/>
  <circle cx="142.09619341563786" cy="353.4559327846365" r="2.193775720164609" fill="#0984e3" opacity="0.4724742875790019"/>
  <circle cx="166.01851851851853" cy="353.4717935528121" r="2.194110082304527" fill="#636e72" opacity="0.4724742875790019"/>
  <circle cx="189.94084362139915" cy="353.48765432098764" r="2.1944444444444446" fill="#2d3436" opacity="0.4724742875790019"/>
  <circle cx="213.86316872427983" cy="353.5035150891632" r="2.1947788065843623" fill="#dfe6e9" opacity="0.4724742875790019"/>
  <circle cx="237.78549382716048" cy="353.51937585733884" r="2.19511316872428" fill="#74b9ff" opacity="0.4724742875790019"/>
  <circle cx="261.7078189300411" cy="353.5352366255144" r="2.1954475308641976" fill="#0984e3" opacity="0.4724742875790019"/>
  <path d="M 50 480 Q 200 460 400 480" stroke="#0984e3" stroke-width="2" fill="none"/>
  <circle cx="400" cy="480" r="6" fill="#74b9ff"/>
  <text x="420" y="485" fill="#b2bec3" font-family="monospace" font-size="10">ac24aac</text>
  <text x="50" y="485" fill="#b2bec3" font-family="monospace" font-size="10">main *</text>
  <rect x="50" y="550" width="148" height="15" fill="#dfe6e9" opacity="0.125"/><rect x="200" y="550" width="148" height="15" fill="#74b9ff" opacity="0.32499999999999996"/><rect x="350" y="550" width="148" height="15" fill="#0984e3" opacity="0.525"/><rect x="500" y="550" width="148" height="15" fill="#636e72" opacity="0.725"/><rect x="650" y="550" width="148" height="15" fill="#2d3436" opacity="0.925"/><text x="50" y="585" fill="#b2bec3" font-family="monospace" font-size="9">AWAKENING • CALIBRATION • ENGAGEMENT • SYNTHESIS • COMPLETION</text>
  
  <!-- Title -->
  <text x="400" y="30" fill="#74b9ff" font-family="monospace" font-size="14" text-anchor="middle">AIRGAPPED ARTIFACT • System Telemetry Visualization</text>
  
  <!-- Footer -->
  <text x="400" y="590" fill="#636e72" font-family="monospace" font-size="8" text-anchor="middle">State-Independent Visualization • Graceful Degradation • Dual-Path Rendering</text>
</svg>