<?xml version="1.0" encoding="UTF-8"?>
<!-- Airgapped Artifact - Independent of Session State -->
<!-- Generated: 2026-03-22T07:10:01.079Z -->
<svg xmlns="http://www.w3.org/2000/svg" viewBox="0 0 800 600" width="800" height="600">
  <defs>
    <linearGradient id="grad1" x1="0%" y1="0%" x2="0%" y2="100%">
      <stop offset="0%" style="stop-color:#2d3436;stop-opacity:1" />
      <stop offset="100%" style="stop-color:#2d3436;stop-opacity:1" />
    </linearGradient>
  </defs>
  <rect x="0" y="0" width="800" height="600" fill="#2d3436" />
  <rect x="50" y="50" width="200" height="20" fill="#636e72" stroke="#b2bec3" stroke-width="1"/>
  <rect x="50" y="50" width="12" height="20" fill="#74b9ff" opacity="0.7"/>
  <text x="260" y="65" fill="#b2bec3" font-family="monospace" font-size="12">MEM 6%</text>
  <rect x="50" y="90" width="5" height="30" fill="#0984e3" opacity="0.6"/>
  <rect x="120" y="90" width="5" height="30" fill="#0984e3" opacity="0.6"/>
  <rect x="190" y="90" width="5" height="30" fill="#0984e3" opacity="0.6"/>
  <text x="50" y="140" fill="#b2bec3" font-family="monospace" font-size="10">LOAD 3.27 3.27 3.05</text>
  <line x1="50" y1="180" x2="750" y2="180" stroke="#b2bec3" stroke-width="0.5" opacity="0.1"/>
  <circle cx="100" cy="180" r="3" fill="#dfe6e9" opacity="0.3"/>
  <line x1="50" y1="205" x2="750" y2="205" stroke="#b2bec3" stroke-width="0.8333333333333333" opacity="0.15"/>
  <circle cx="175" cy="205" r="3.6666666666666665" fill="#74b9ff" opacity="0.36666666666666664"/>
  <line x1="50" y1="230" x2="750" y2="230" stroke="#b2bec3" stroke-width="1.1666666666666665" opacity="0.2"/>
  <circle cx="250" cy="230" r="4.333333333333333" fill="#0984e3" opacity="0.43333333333333335"/>
  <line x1="50" y1="255" x2="750" y2="255" stroke="#b2bec3" stroke-width="1.5" opacity="0.25"/>
  <circle cx="325" cy="255" r="5" fill="#636e72" opacity="0.5"/>
  <line x1="50" y1="280" x2="750" y2="280" stroke="#b2bec3" stroke-width="1.8333333333333333" opacity="0.3"/>
  <circle cx="400" cy="280" r="5.666666666666666" fill="#2d3436" opacity="0.5666666666666667"/>
  <line x1="50" y1="305" x2="750" y2="305" stroke="#b2bec3" stroke-width="2.166666666666667" opacity="0.35"/>
  <circle cx="475" cy="305" r="6.333333333333334" fill="#dfe6e9" opacity="0.6333333333333333"/>
  <line x1="50" y1="330" x2="750" y2="330" stroke="#b2bec3" stroke-width="2.5" opacity="0.4"/>
  <circle cx="550" cy="330" r="7" fill="#74b9ff" opacity="0.7"/>
  <circle cx="230.59413580246914" cy="350.3763717421125" r="2.022582304526749" fill="#dfe6e9" opacity="0.37890629955843885"/>
  <circle cx="254.5164609053498" cy="350.39223251028807" r="2.0229166666666667" fill="#74b9ff" opacity="0.37890629955843885"/>
  <circle cx="278.43878600823047" cy="350.40809327846364" r="2.0232510288065844" fill="#0984e3" opacity="0.37890629955843885"/>
  <circle cx="302.3611111111111" cy="350.4239540466392" r="2.023585390946502" fill="#636e72" opacity="0.37890629955843885"/>
  <circle cx="326.28343621399176" cy="350.43981481481484" r="2.0239197530864197" fill="#2d3436" opacity="0.37890629955843885"/>
  <circle cx="350.20576131687244" cy="350.4556755829904" r="2.0242541152263374" fill="#dfe6e9" opacity="0.37890629955843885"/>
  <circle cx="374.1280864197531" cy="350.471536351166" r="2.024588477366255" fill="#74b9ff" opacity="0.37890629955843885"/>
  <circle cx="398.05041152263374" cy="350.48739711934155" r="2.0249228395061727" fill="#0984e3" opacity="0.37890629955843885"/>
  <circle cx="421.97273662551436" cy="350.5032578875171" r="2.0252572016460904" fill="#636e72" opacity="0.37890629955843885"/>
  <circle cx="445.89506172839504" cy="350.51911865569275" r="2.025591563786008" fill="#2d3436" opacity="0.37890629955843885"/>
  <circle cx="469.8173868312757" cy="350.5349794238683" r="2.025925925925926" fill="#dfe6e9" opacity="0.37890629955843885"/>
  <circle cx="493.73971193415633" cy="350.5508401920439" r="2.026260288065844" fill="#74b9ff" opacity="0.37890629955843885"/>
  <circle cx="517.662037037037" cy="350.56670096021946" r="2.0265946502057615" fill="#0984e3" opacity="0.37890629955843885"/>
  <circle cx="541.5843621399176" cy="350.58256172839504" r="2.026929012345679" fill="#636e72" opacity="0.37890629955843885"/>
  <circle cx="565.5066872427983" cy="350.59842249657066" r="2.027263374485597" fill="#2d3436" opacity="0.37890629955843885"/>
  <circle cx="589.429012345679" cy="350.61428326474623" r="2.0275977366255145" fill="#dfe6e9" opacity="0.37890629955843885"/>
  <circle cx="613.3513374485597" cy="350.6301440329218" r="2.027932098765432" fill="#74b9ff" opacity="0.37890629955843885"/>
  <circle cx="637.2736625514403" cy="350.6460048010974" r="2.02826646090535" fill="#0984e3" opacity="0.37890629955843885"/>
  <circle cx="661.195987654321" cy="350.661865569273" r="2.0286008230452675" fill="#636e72" opacity="0.37890629955843885"/>
  <circle cx="685.1183127572016" cy="350.6777263374486" r="2.028935185185185" fill="#2d3436" opacity="0.37890629955843885"/>
  <circle cx="109.0406378600823" cy="350.69358710562415" r="2.029269547325103" fill="#dfe6e9" opacity="0.37890629955843885"/>
  <circle cx="132.96296296296296" cy="350.7094478737997" r="2.0296039094650205" fill="#74b9ff" opacity="0.37890629955843885"/>
  <circle cx="156.8852880658436" cy="350.7253086419753" r="2.029938271604938" fill="#0984e3" opacity="0.37890629955843885"/>
  <circle cx="180.8076131687243" cy="350.7411694101509" r="2.030272633744856" fill="#636e72" opacity="0.37890629955843885"/>
  <circle cx="204.72993827160496" cy="350.7570301783265" r="2.0306069958847734" fill="#2d3436" opacity="0.37890629955843885"/>
  <path d="M 50 480 Q 200 460 400 480" stroke="#74b9ff" stroke-width="2" fill="none"/>
  <circle cx="400" cy="480" r="6" fill="#74b9ff"/>
  <text x="420" y="485" fill="#b2bec3" font-family="monospace" font-size="10">f7e43af</text>
  <text x="50" y="485" fill="#b2bec3" font-family="monospace" font-size="10">main</text>
  <rect x="50" y="550" width="148" height="15" fill="#dfe6e9" opacity="0.7083333333333333"/><rect x="200" y="550" width="148" height="15" fill="#74b9ff" opacity="0.9083333333333333"/><rect x="350" y="550" width="148" height="15" fill="#0984e3" opacity="0.8916666666666666"/><rect x="500" y="550" width="148" height="15" fill="#636e72" opacity="0.6916666666666667"/><rect x="650" y="550" width="148" height="15" fill="#2d3436" opacity="0.4916666666666667"/><text x="50" y="585" fill="#b2bec3" font-family="monospace" font-size="9">AWAKENING • CALIBRATION • ENGAGEMENT • SYNTHESIS • COMPLETION</text>
  
  <!-- Title -->
  <text x="400" y="30" fill="#74b9ff" font-family="monospace" font-size="14" text-anchor="middle">AIRGAPPED ARTIFACT • System Telemetry Visualization</text>
  
  <!-- Footer -->
  <text x="400" y="590" fill="#636e72" font-family="monospace" font-size="8" text-anchor="middle">State-Independent Visualization • Graceful Degradation • Dual-Path Rendering</text>
</svg>