<?xml version="1.0" encoding="UTF-8"?>
<!-- Airgapped Artifact - Independent of Session State -->
<!-- Generated: 2026-03-22T15:27:55.658Z -->
<svg xmlns="http://www.w3.org/2000/svg" viewBox="0 0 800 600" width="800" height="600">
  <defs>
    <linearGradient id="grad1" x1="0%" y1="0%" x2="0%" y2="100%">
      <stop offset="0%" style="stop-color:#2d3436;stop-opacity:1" />
      <stop offset="100%" style="stop-color:#2d3436;stop-opacity:1" />
    </linearGradient>
  </defs>
  <rect x="0" y="0" width="800" height="600" fill="#2d3436" />
  <rect x="50" y="50" width="200" height="20" fill="#636e72" stroke="#b2bec3" stroke-width="1"/>
  <rect x="50" y="50" width="108" height="20" fill="#74b9ff" opacity="0.7"/>
  <text x="260" y="65" fill="#b2bec3" font-family="monospace" font-size="12">MEM 54%</text>
  <rect x="50" y="90" width="5" height="30" fill="#0984e3" opacity="0.6"/>
  <rect x="120" y="90" width="5" height="30" fill="#0984e3" opacity="0.6"/>
  <rect x="190" y="93" width="5" height="27" fill="#0984e3" opacity="0.6"/>
  <text x="50" y="140" fill="#b2bec3" font-family="monospace" font-size="10">LOAD 8.14 4.13 2.70</text>
  <line x1="50" y1="180" x2="750" y2="180" stroke="#b2bec3" stroke-width="0.5" opacity="0.1"/>
  <circle cx="100" cy="180" r="3" fill="#dfe6e9" opacity="0.3"/>
  <line x1="50" y1="201.42857142857142" x2="750" y2="201.42857142857142" stroke="#b2bec3" stroke-width="0.7857142857142857" opacity="0.14285714285714285"/>
  <circle cx="175" cy="201.42857142857142" r="3.571428571428571" fill="#74b9ff" opacity="0.35714285714285715"/>
  <line x1="50" y1="222.85714285714286" x2="750" y2="222.85714285714286" stroke="#b2bec3" stroke-width="1.0714285714285714" opacity="0.18571428571428572"/>
  <circle cx="250" cy="222.85714285714286" r="4.142857142857142" fill="#0984e3" opacity="0.41428571428571426"/>
  <line x1="50" y1="244.28571428571428" x2="750" y2="244.28571428571428" stroke="#b2bec3" stroke-width="1.3571428571428572" opacity="0.22857142857142856"/>
  <circle cx="325" cy="244.28571428571428" r="4.714285714285714" fill="#636e72" opacity="0.4714285714285714"/>
  <line x1="50" y1="265.7142857142857" x2="750" y2="265.7142857142857" stroke="#b2bec3" stroke-width="1.6428571428571428" opacity="0.2714285714285714"/>
  <circle cx="400" cy="265.7142857142857" r="5.285714285714286" fill="#2d3436" opacity="0.5285714285714286"/>
  <line x1="50" y1="287.1428571428571" x2="750" y2="287.1428571428571" stroke="#b2bec3" stroke-width="1.9285714285714286" opacity="0.3142857142857143"/>
  <circle cx="475" cy="287.1428571428571" r="5.857142857142858" fill="#dfe6e9" opacity="0.5857142857142857"/>
  <line x1="50" y1="308.57142857142856" x2="750" y2="308.57142857142856" stroke="#b2bec3" stroke-width="2.2142857142857144" opacity="0.3571428571428571"/>
  <circle cx="550" cy="308.57142857142856" r="6.428571428571429" fill="#74b9ff" opacity="0.6428571428571428"/>
  <line x1="50" y1="330" x2="750" y2="330" stroke="#b2bec3" stroke-width="2.5" opacity="0.4"/>
  <circle cx="625" cy="330" r="7" fill="#0984e3" opacity="0.7"/>
  <circle cx="250.92335390946502" cy="352.1184842249657" r="2.1271090534979424" fill="#dfe6e9" opacity="0.5569906383781357"/>
  <circle cx="274.84567901234567" cy="352.13434499314127" r="2.12744341563786" fill="#74b9ff" opacity="0.5569906383781357"/>
  <circle cx="298.76800411522635" cy="352.1502057613169" r="2.1277777777777778" fill="#0984e3" opacity="0.5569906383781357"/>
  <circle cx="322.69032921810697" cy="352.16606652949247" r="2.1281121399176954" fill="#636e72" opacity="0.5569906383781357"/>
  <circle cx="346.61265432098764" cy="352.18192729766804" r="2.128446502057613" fill="#2d3436" opacity="0.5569906383781357"/>
  <circle cx="370.5349794238683" cy="352.1977880658436" r="2.1287808641975308" fill="#dfe6e9" opacity="0.5569906383781357"/>
  <circle cx="394.457304526749" cy="352.2136488340192" r="2.1291152263374484" fill="#74b9ff" opacity="0.5569906383781357"/>
  <circle cx="418.3796296296296" cy="352.2295096021948" r="2.129449588477366" fill="#0984e3" opacity="0.5569906383781357"/>
  <circle cx="442.30195473251024" cy="352.2453703703704" r="2.1297839506172838" fill="#636e72" opacity="0.5569906383781357"/>
  <circle cx="466.2242798353909" cy="352.26123113854595" r="2.130118312757202" fill="#2d3436" opacity="0.5569906383781357"/>
  <circle cx="490.1466049382716" cy="352.2770919067215" r="2.1304526748971195" fill="#dfe6e9" opacity="0.5569906383781357"/>
  <circle cx="514.0689300411523" cy="352.2929526748971" r="2.130787037037037" fill="#74b9ff" opacity="0.5569906383781357"/>
  <circle cx="537.991255144033" cy="352.3088134430727" r="2.131121399176955" fill="#0984e3" opacity="0.5569906383781357"/>
  <circle cx="561.9135802469136" cy="352.3246742112483" r="2.1314557613168725" fill="#636e72" opacity="0.5569906383781357"/>
  <circle cx="585.8359053497942" cy="352.34053497942386" r="2.13179012345679" fill="#2d3436" opacity="0.5569906383781357"/>
  <circle cx="609.7582304526749" cy="352.35639574759944" r="2.132124485596708" fill="#dfe6e9" opacity="0.5569906383781357"/>
  <circle cx="633.6805555555555" cy="352.372256515775" r="2.1324588477366255" fill="#74b9ff" opacity="0.5569906383781357"/>
  <circle cx="657.6028806584362" cy="352.38811728395063" r="2.132793209876543" fill="#0984e3" opacity="0.5569906383781357"/>
  <circle cx="681.5252057613169" cy="352.4039780521262" r="2.133127572016461" fill="#636e72" opacity="0.5569906383781357"/>
  <circle cx="105.44753086419753" cy="352.4198388203018" r="2.1334619341563785" fill="#2d3436" opacity="0.5569906383781357"/>
  <circle cx="129.3698559670782" cy="352.43569958847735" r="2.133796296296296" fill="#dfe6e9" opacity="0.5569906383781357"/>
  <circle cx="153.29218106995884" cy="352.451560356653" r="2.134130658436214" fill="#74b9ff" opacity="0.5569906383781357"/>
  <circle cx="177.2145061728395" cy="352.46742112482855" r="2.1344650205761315" fill="#0984e3" opacity="0.5569906383781357"/>
  <circle cx="201.13683127572017" cy="352.4832818930041" r="2.134799382716049" fill="#636e72" opacity="0.5569906383781357"/>
  <circle cx="225.05915637860085" cy="352.4991426611797" r="2.135133744855967" fill="#2d3436" opacity="0.5569906383781357"/>
  <circle cx="248.9814814814815" cy="352.51500342935526" r="2.135468106995885" fill="#dfe6e9" opacity="0.5569906383781357"/>
  <circle cx="272.90380658436214" cy="352.5308641975309" r="2.1358024691358026" fill="#74b9ff" opacity="0.5569906383781357"/>
  <circle cx="296.82613168724276" cy="352.54672496570646" r="2.1361368312757203" fill="#0984e3" opacity="0.5569906383781357"/>
  <path d="M 50 480 Q 200 460 400 480" stroke="#74b9ff" stroke-width="2" fill="none"/>
  <circle cx="400" cy="480" r="6" fill="#74b9ff"/>
  <text x="420" y="485" fill="#b2bec3" font-family="monospace" font-size="10">03e4f01</text>
  <text x="50" y="485" fill="#b2bec3" font-family="monospace" font-size="10">main</text>
  <rect x="50" y="550" width="148" height="15" fill="#dfe6e9" opacity="0.375"/><rect x="200" y="550" width="148" height="15" fill="#74b9ff" opacity="0.575"/><rect x="350" y="550" width="148" height="15" fill="#0984e3" opacity="0.775"/><rect x="500" y="550" width="148" height="15" fill="#636e72" opacity="0.975"/><rect x="650" y="550" width="148" height="15" fill="#2d3436" opacity="0.825"/><text x="50" y="585" fill="#b2bec3" font-family="monospace" font-size="9">AWAKENING • CALIBRATION • ENGAGEMENT • SYNTHESIS • COMPLETION</text>
  
  <!-- Title -->
  <text x="400" y="30" fill="#74b9ff" font-family="monospace" font-size="14" text-anchor="middle">AIRGAPPED ARTIFACT • System Telemetry Visualization</text>
  
  <!-- Footer -->
  <text x="400" y="590" fill="#636e72" font-family="monospace" font-size="8" text-anchor="middle">State-Independent Visualization • Graceful Degradation • Dual-Path Rendering</text>
</svg>