<?xml version="1.0" encoding="UTF-8"?>
<!-- Airgapped Artifact - Independent of Session State -->
<!-- Generated: 2026-03-22T06:11:30.053Z -->
<svg xmlns="http://www.w3.org/2000/svg" viewBox="0 0 800 600" width="800" height="600">
  <defs>
    <linearGradient id="grad1" x1="0%" y1="0%" x2="0%" y2="100%">
      <stop offset="0%" style="stop-color:#2d3436;stop-opacity:1" />
      <stop offset="100%" style="stop-color:#2d3436;stop-opacity:1" />
    </linearGradient>
  </defs>
  <rect x="0" y="0" width="800" height="600" fill="#2d3436" />
  <rect x="50" y="50" width="200" height="20" fill="#636e72" stroke="#b2bec3" stroke-width="1"/>
  <rect x="50" y="50" width="12" height="20" fill="#74b9ff" opacity="0.7"/>
  <text x="260" y="65" fill="#b2bec3" font-family="monospace" font-size="12">MEM 6%</text>
  <rect x="50" y="93.8" width="5" height="26.200000000000003" fill="#0984e3" opacity="0.6"/>
  <rect x="120" y="95.1" width="5" height="24.900000000000002" fill="#0984e3" opacity="0.6"/>
  <rect x="190" y="94.6" width="5" height="25.4" fill="#0984e3" opacity="0.6"/>
  <text x="50" y="140" fill="#b2bec3" font-family="monospace" font-size="10">LOAD 2.62 2.49 2.54</text>
  <line x1="50" y1="180" x2="750" y2="180" stroke="#b2bec3" stroke-width="0.5" opacity="0.1"/>
  <circle cx="100" cy="180" r="3" fill="#dfe6e9" opacity="0.3"/>
  <line x1="50" y1="198.75" x2="750" y2="198.75" stroke="#b2bec3" stroke-width="0.75" opacity="0.1375"/>
  <circle cx="175" cy="198.75" r="3.5" fill="#74b9ff" opacity="0.35"/>
  <line x1="50" y1="217.5" x2="750" y2="217.5" stroke="#b2bec3" stroke-width="1" opacity="0.175"/>
  <circle cx="250" cy="217.5" r="4" fill="#0984e3" opacity="0.4"/>
  <line x1="50" y1="236.25" x2="750" y2="236.25" stroke="#b2bec3" stroke-width="1.25" opacity="0.2125"/>
  <circle cx="325" cy="236.25" r="4.5" fill="#636e72" opacity="0.45"/>
  <line x1="50" y1="255" x2="750" y2="255" stroke="#b2bec3" stroke-width="1.5" opacity="0.25"/>
  <circle cx="400" cy="255" r="5" fill="#2d3436" opacity="0.5"/>
  <line x1="50" y1="273.75" x2="750" y2="273.75" stroke="#b2bec3" stroke-width="1.75" opacity="0.2875"/>
  <circle cx="475" cy="273.75" r="5.5" fill="#dfe6e9" opacity="0.55"/>
  <line x1="50" y1="292.5" x2="750" y2="292.5" stroke="#b2bec3" stroke-width="2" opacity="0.32499999999999996"/>
  <circle cx="550" cy="292.5" r="6" fill="#74b9ff" opacity="0.6000000000000001"/>
  <line x1="50" y1="311.25" x2="750" y2="311.25" stroke="#b2bec3" stroke-width="2.25" opacity="0.36250000000000004"/>
  <circle cx="625" cy="311.25" r="6.5" fill="#0984e3" opacity="0.65"/>
  <line x1="50" y1="330" x2="750" y2="330" stroke="#b2bec3" stroke-width="2.5" opacity="0.4"/>
  <circle cx="700" cy="330" r="7" fill="#636e72" opacity="0.7"/>
  <circle cx="249.1898148148148" cy="354.247256515775" r="2.254835390946502" fill="#dfe6e9" opacity="0.2615331821889906"/>
  <circle cx="273.11213991769546" cy="354.26311728395063" r="2.25516975308642" fill="#74b9ff" opacity="0.2615331821889906"/>
  <circle cx="297.03446502057614" cy="354.2789780521262" r="2.2555041152263375" fill="#0984e3" opacity="0.2615331821889906"/>
  <circle cx="320.9567901234568" cy="354.2948388203018" r="2.255838477366255" fill="#636e72" opacity="0.2615331821889906"/>
  <circle cx="344.87911522633743" cy="354.31069958847735" r="2.256172839506173" fill="#2d3436" opacity="0.2615331821889906"/>
  <circle cx="368.8014403292181" cy="354.326560356653" r="2.2565072016460905" fill="#dfe6e9" opacity="0.2615331821889906"/>
  <circle cx="392.7237654320988" cy="354.34242112482855" r="2.256841563786008" fill="#74b9ff" opacity="0.2615331821889906"/>
  <circle cx="416.64609053497946" cy="354.3582818930041" r="2.257175925925926" fill="#0984e3" opacity="0.2615331821889906"/>
  <circle cx="440.5684156378601" cy="354.3741426611797" r="2.2575102880658435" fill="#636e72" opacity="0.2615331821889906"/>
  <circle cx="464.49074074074076" cy="354.39000342935526" r="2.257844650205761" fill="#2d3436" opacity="0.2615331821889906"/>
  <circle cx="488.41306584362144" cy="354.4058641975309" r="2.258179012345679" fill="#dfe6e9" opacity="0.2615331821889906"/>
  <circle cx="512.3353909465021" cy="354.42172496570646" r="2.2585133744855965" fill="#74b9ff" opacity="0.2615331821889906"/>
  <circle cx="536.2577160493827" cy="354.43758573388203" r="2.2588477366255146" fill="#0984e3" opacity="0.2615331821889906"/>
  <circle cx="560.1800411522634" cy="354.4534465020576" r="2.2591820987654323" fill="#636e72" opacity="0.2615331821889906"/>
  <circle cx="584.102366255144" cy="354.4693072702332" r="2.25951646090535" fill="#2d3436" opacity="0.2615331821889906"/>
  <circle cx="608.0246913580247" cy="354.4851680384088" r="2.2598508230452676" fill="#dfe6e9" opacity="0.2615331821889906"/>
  <circle cx="631.9470164609053" cy="354.5010288065844" r="2.2601851851851853" fill="#74b9ff" opacity="0.2615331821889906"/>
  <circle cx="655.869341563786" cy="354.51688957475994" r="2.260519547325103" fill="#0984e3" opacity="0.2615331821889906"/>
  <circle cx="679.7916666666666" cy="354.5327503429355" r="2.2608539094650206" fill="#636e72" opacity="0.2615331821889906"/>
  <circle cx="103.71399176954732" cy="354.5486111111111" r="2.2611882716049383" fill="#2d3436" opacity="0.2615331821889906"/>
  <circle cx="127.63631687242798" cy="354.5644718792867" r="2.261522633744856" fill="#dfe6e9" opacity="0.2615331821889906"/>
  <circle cx="151.55864197530863" cy="354.5803326474623" r="2.2618569958847736" fill="#74b9ff" opacity="0.2615331821889906"/>
  <circle cx="175.48096707818928" cy="354.59619341563786" r="2.2621913580246913" fill="#0984e3" opacity="0.2615331821889906"/>
  <circle cx="199.40329218106996" cy="354.6120541838134" r="2.262525720164609" fill="#636e72" opacity="0.2615331821889906"/>
  <circle cx="223.3256172839506" cy="354.627914951989" r="2.2628600823045266" fill="#2d3436" opacity="0.2615331821889906"/>
  <circle cx="247.24794238683128" cy="354.6437757201646" r="2.2631944444444443" fill="#dfe6e9" opacity="0.2615331821889906"/>
  <circle cx="271.17026748971193" cy="354.6596364883402" r="2.263528806584362" fill="#74b9ff" opacity="0.2615331821889906"/>
  <circle cx="295.0925925925926" cy="354.67549725651577" r="2.2638631687242796" fill="#0984e3" opacity="0.2615331821889906"/>
  <path d="M 50 480 Q 200 460 400 480" stroke="#0984e3" stroke-width="2" fill="none"/>
  <circle cx="400" cy="480" r="6" fill="#74b9ff"/>
  <text x="420" y="485" fill="#b2bec3" font-family="monospace" font-size="10">c91d11a</text>
  <text x="50" y="485" fill="#b2bec3" font-family="monospace" font-size="10">main *</text>
  <rect x="50" y="550" width="148" height="15" fill="#dfe6e9" opacity="0.75"/><rect x="200" y="550" width="148" height="15" fill="#74b9ff" opacity="0.95"/><rect x="350" y="550" width="148" height="15" fill="#0984e3" opacity="0.85"/><rect x="500" y="550" width="148" height="15" fill="#636e72" opacity="0.65"/><rect x="650" y="550" width="148" height="15" fill="#2d3436" opacity="0.44999999999999996"/><text x="50" y="585" fill="#b2bec3" font-family="monospace" font-size="9">AWAKENING • CALIBRATION • ENGAGEMENT • SYNTHESIS • COMPLETION</text>
  
  <!-- Title -->
  <text x="400" y="30" fill="#74b9ff" font-family="monospace" font-size="14" text-anchor="middle">AIRGAPPED ARTIFACT • System Telemetry Visualization</text>
  
  <!-- Footer -->
  <text x="400" y="590" fill="#636e72" font-family="monospace" font-size="8" text-anchor="middle">State-Independent Visualization • Graceful Degradation • Dual-Path Rendering</text>
</svg>