<?xml version="1.0" encoding="UTF-8"?>
<!-- Airgapped Artifact - Independent of Session State -->
<!-- Generated: 2026-03-22T11:11:16.869Z -->
<svg xmlns="http://www.w3.org/2000/svg" viewBox="0 0 800 600" width="800" height="600">
  <defs>
    <linearGradient id="grad1" x1="0%" y1="0%" x2="0%" y2="100%">
      <stop offset="0%" style="stop-color:#2d3436;stop-opacity:1" />
      <stop offset="100%" style="stop-color:#2d3436;stop-opacity:1" />
    </linearGradient>
  </defs>
  <rect x="0" y="0" width="800" height="600" fill="#2d3436" />
  <rect x="50" y="50" width="200" height="20" fill="#636e72" stroke="#b2bec3" stroke-width="1"/>
  <rect x="50" y="50" width="12" height="20" fill="#74b9ff" opacity="0.7"/>
  <text x="260" y="65" fill="#b2bec3" font-family="monospace" font-size="12">MEM 6%</text>
  <rect x="50" y="90" width="5" height="30" fill="#0984e3" opacity="0.6"/>
  <rect x="120" y="90" width="5" height="30" fill="#0984e3" opacity="0.6"/>
  <rect x="190" y="90" width="5" height="30" fill="#0984e3" opacity="0.6"/>
  <text x="50" y="140" fill="#b2bec3" font-family="monospace" font-size="10">LOAD 10.11 8.01 5.21</text>
  <line x1="50" y1="180" x2="750" y2="180" stroke="#b2bec3" stroke-width="0.5" opacity="0.1"/>
  <circle cx="100" cy="180" r="3" fill="#dfe6e9" opacity="0.3"/>
  <line x1="50" y1="205" x2="750" y2="205" stroke="#b2bec3" stroke-width="0.8333333333333333" opacity="0.15"/>
  <circle cx="175" cy="205" r="3.6666666666666665" fill="#74b9ff" opacity="0.36666666666666664"/>
  <line x1="50" y1="230" x2="750" y2="230" stroke="#b2bec3" stroke-width="1.1666666666666665" opacity="0.2"/>
  <circle cx="250" cy="230" r="4.333333333333333" fill="#0984e3" opacity="0.43333333333333335"/>
  <line x1="50" y1="255" x2="750" y2="255" stroke="#b2bec3" stroke-width="1.5" opacity="0.25"/>
  <circle cx="325" cy="255" r="5" fill="#636e72" opacity="0.5"/>
  <line x1="50" y1="280" x2="750" y2="280" stroke="#b2bec3" stroke-width="1.8333333333333333" opacity="0.3"/>
  <circle cx="400" cy="280" r="5.666666666666666" fill="#2d3436" opacity="0.5666666666666667"/>
  <line x1="50" y1="305" x2="750" y2="305" stroke="#b2bec3" stroke-width="2.166666666666667" opacity="0.35"/>
  <circle cx="475" cy="305" r="6.333333333333334" fill="#dfe6e9" opacity="0.6333333333333333"/>
  <line x1="50" y1="330" x2="750" y2="330" stroke="#b2bec3" stroke-width="2.5" opacity="0.4"/>
  <circle cx="550" cy="330" r="7" fill="#74b9ff" opacity="0.7"/>
  <circle cx="545.594135802469" cy="352.8763717421125" r="2.172582304526749" fill="#dfe6e9" opacity="0.5585861184480674"/>
  <circle cx="569.5164609053497" cy="352.89223251028807" r="2.1729166666666666" fill="#74b9ff" opacity="0.5585861184480674"/>
  <circle cx="593.4387860082304" cy="352.90809327846364" r="2.1732510288065843" fill="#0984e3" opacity="0.5585861184480674"/>
  <circle cx="617.3611111111111" cy="352.9239540466392" r="2.173585390946502" fill="#636e72" opacity="0.5585861184480674"/>
  <circle cx="641.2834362139918" cy="352.93981481481484" r="2.1739197530864196" fill="#2d3436" opacity="0.5585861184480674"/>
  <circle cx="665.2057613168724" cy="352.9556755829904" r="2.1742541152263373" fill="#dfe6e9" opacity="0.5585861184480674"/>
  <circle cx="689.1280864197531" cy="352.971536351166" r="2.174588477366255" fill="#74b9ff" opacity="0.5585861184480674"/>
  <circle cx="113.05041152263374" cy="352.98739711934155" r="2.1749228395061726" fill="#0984e3" opacity="0.5585861184480674"/>
  <circle cx="136.97273662551441" cy="353.0032578875171" r="2.1752572016460907" fill="#636e72" opacity="0.5585861184480674"/>
  <circle cx="160.89506172839506" cy="353.01911865569275" r="2.1755915637860084" fill="#2d3436" opacity="0.5585861184480674"/>
  <circle cx="184.8173868312757" cy="353.0349794238683" r="2.175925925925926" fill="#dfe6e9" opacity="0.5585861184480674"/>
  <circle cx="208.7397119341564" cy="353.0508401920439" r="2.1762602880658437" fill="#74b9ff" opacity="0.5585861184480674"/>
  <circle cx="232.66203703703704" cy="353.06670096021946" r="2.1765946502057614" fill="#0984e3" opacity="0.5585861184480674"/>
  <circle cx="256.5843621399177" cy="353.08256172839504" r="2.176929012345679" fill="#636e72" opacity="0.5585861184480674"/>
  <circle cx="280.5066872427983" cy="353.09842249657066" r="2.1772633744855967" fill="#2d3436" opacity="0.5585861184480674"/>
  <circle cx="304.429012345679" cy="353.11428326474623" r="2.1775977366255144" fill="#dfe6e9" opacity="0.5585861184480674"/>
  <circle cx="328.35133744855966" cy="353.1301440329218" r="2.177932098765432" fill="#74b9ff" opacity="0.5585861184480674"/>
  <circle cx="352.27366255144034" cy="353.1460048010974" r="2.1782664609053497" fill="#0984e3" opacity="0.5585861184480674"/>
  <circle cx="376.19598765432096" cy="353.161865569273" r="2.1786008230452674" fill="#636e72" opacity="0.5585861184480674"/>
  <circle cx="400.11831275720164" cy="353.1777263374486" r="2.178935185185185" fill="#2d3436" opacity="0.5585861184480674"/>
  <circle cx="424.0406378600823" cy="353.19358710562415" r="2.1792695473251027" fill="#dfe6e9" opacity="0.5585861184480674"/>
  <circle cx="447.962962962963" cy="353.2094478737997" r="2.179603909465021" fill="#74b9ff" opacity="0.5585861184480674"/>
  <circle cx="471.8852880658436" cy="353.2253086419753" r="2.1799382716049385" fill="#0984e3" opacity="0.5585861184480674"/>
  <circle cx="495.8076131687243" cy="353.2411694101509" r="2.180272633744856" fill="#636e72" opacity="0.5585861184480674"/>
  <circle cx="519.729938271605" cy="353.2570301783265" r="2.180606995884774" fill="#2d3436" opacity="0.5585861184480674"/>
  <path d="M 50 480 Q 200 460 400 480" stroke="#0984e3" stroke-width="2" fill="none"/>
  <circle cx="400" cy="480" r="6" fill="#74b9ff"/>
  <text x="420" y="485" fill="#b2bec3" font-family="monospace" font-size="10">1b0fd10</text>
  <text x="50" y="485" fill="#b2bec3" font-family="monospace" font-size="10">main *</text>
  <rect x="50" y="550" width="148" height="15" fill="#dfe6e9" opacity="0.5416666666666667"/><rect x="200" y="550" width="148" height="15" fill="#74b9ff" opacity="0.7416666666666667"/><rect x="350" y="550" width="148" height="15" fill="#0984e3" opacity="0.9416666666666667"/><rect x="500" y="550" width="148" height="15" fill="#636e72" opacity="0.8583333333333334"/><rect x="650" y="550" width="148" height="15" fill="#2d3436" opacity="0.6583333333333332"/><text x="50" y="585" fill="#b2bec3" font-family="monospace" font-size="9">AWAKENING • CALIBRATION • ENGAGEMENT • SYNTHESIS • COMPLETION</text>
  
  <!-- Title -->
  <text x="400" y="30" fill="#74b9ff" font-family="monospace" font-size="14" text-anchor="middle">AIRGAPPED ARTIFACT • System Telemetry Visualization</text>
  
  <!-- Footer -->
  <text x="400" y="590" fill="#636e72" font-family="monospace" font-size="8" text-anchor="middle">State-Independent Visualization • Graceful Degradation • Dual-Path Rendering</text>
</svg>