<?xml version="1.0" encoding="UTF-8"?>
<!-- Airgapped Artifact - Independent of Session State -->
<!-- Generated: 2026-03-22T03:34:40.347Z -->
<svg xmlns="http://www.w3.org/2000/svg" viewBox="0 0 800 600" width="800" height="600">
  <defs>
    <linearGradient id="grad1" x1="0%" y1="0%" x2="0%" y2="100%">
      <stop offset="0%" style="stop-color:#2d3436;stop-opacity:1" />
      <stop offset="100%" style="stop-color:#dfe6e9;stop-opacity:1" />
    </linearGradient>
  </defs>
  <rect x="0" y="0" width="800" height="600" fill="#2d3436" />
  <rect x="50" y="50" width="200" height="20" fill="#b2bec3" stroke="#74b9ff" stroke-width="1"/>
  <rect x="50" y="50" width="12" height="20" fill="#fdcb6e" opacity="0.7"/>
  <text x="260" y="65" fill="#74b9ff" font-family="monospace" font-size="12">MEM 6%</text>
  <rect x="50" y="105.9" width="5" height="14.1" fill="#0984e3" opacity="0.6"/>
  <rect x="120" y="101.3" width="5" height="18.700000000000003" fill="#0984e3" opacity="0.6"/>
  <rect x="190" y="98.3" width="5" height="21.7" fill="#0984e3" opacity="0.6"/>
  <text x="50" y="140" fill="#74b9ff" font-family="monospace" font-size="10">LOAD 1.41 1.87 2.17</text>
  <line x1="50" y1="180" x2="750" y2="180" stroke="#74b9ff" stroke-width="0.5" opacity="0.1"/>
  <circle cx="100" cy="180" r="3" fill="#ffffff" opacity="0.3"/>
  <line x1="50" y1="205" x2="750" y2="205" stroke="#74b9ff" stroke-width="0.8333333333333333" opacity="0.15"/>
  <circle cx="175" cy="205" r="3.6666666666666665" fill="#dfe6e9" opacity="0.36666666666666664"/>
  <line x1="50" y1="230" x2="750" y2="230" stroke="#74b9ff" stroke-width="1.1666666666666665" opacity="0.2"/>
  <circle cx="250" cy="230" r="4.333333333333333" fill="#74b9ff" opacity="0.43333333333333335"/>
  <line x1="50" y1="255" x2="750" y2="255" stroke="#74b9ff" stroke-width="1.5" opacity="0.25"/>
  <circle cx="325" cy="255" r="5" fill="#0984e3" opacity="0.5"/>
  <line x1="50" y1="280" x2="750" y2="280" stroke="#74b9ff" stroke-width="1.8333333333333333" opacity="0.3"/>
  <circle cx="400" cy="280" r="5.666666666666666" fill="#2d3436" opacity="0.5666666666666667"/>
  <line x1="50" y1="305" x2="750" y2="305" stroke="#74b9ff" stroke-width="2.166666666666667" opacity="0.35"/>
  <circle cx="475" cy="305" r="6.333333333333334" fill="#ffffff" opacity="0.6333333333333333"/>
  <line x1="50" y1="330" x2="750" y2="330" stroke="#74b9ff" stroke-width="2.5" opacity="0.4"/>
  <circle cx="550" cy="330" r="7" fill="#dfe6e9" opacity="0.7"/>
  <circle cx="426.55864197530866" cy="350.0895919067215" r="2.0053755144032923" fill="#ffffff" opacity="0.4864931581420042"/>
  <circle cx="450.4809670781893" cy="350.1054526748971" r="2.00570987654321" fill="#dfe6e9" opacity="0.4864931581420042"/>
  <circle cx="474.40329218106996" cy="350.1213134430727" r="2.0060442386831276" fill="#74b9ff" opacity="0.4864931581420042"/>
  <circle cx="498.32561728395063" cy="350.1371742112483" r="2.0063786008230453" fill="#0984e3" opacity="0.4864931581420042"/>
  <circle cx="522.2479423868313" cy="350.15303497942386" r="2.006712962962963" fill="#2d3436" opacity="0.4864931581420042"/>
  <circle cx="546.1702674897119" cy="350.16889574759944" r="2.0070473251028806" fill="#ffffff" opacity="0.4864931581420042"/>
  <circle cx="570.0925925925926" cy="350.184756515775" r="2.0073816872427983" fill="#dfe6e9" opacity="0.4864931581420042"/>
  <circle cx="594.0149176954733" cy="350.20061728395063" r="2.007716049382716" fill="#74b9ff" opacity="0.4864931581420042"/>
  <circle cx="617.937242798354" cy="350.2164780521262" r="2.0080504115226336" fill="#0984e3" opacity="0.4864931581420042"/>
  <circle cx="641.8595679012345" cy="350.2323388203018" r="2.0083847736625513" fill="#2d3436" opacity="0.4864931581420042"/>
  <circle cx="665.7818930041152" cy="350.24819958847735" r="2.008719135802469" fill="#ffffff" opacity="0.4864931581420042"/>
  <circle cx="689.7042181069959" cy="350.264060356653" r="2.0090534979423866" fill="#dfe6e9" opacity="0.4864931581420042"/>
  <circle cx="113.62654320987654" cy="350.27992112482855" r="2.0093878600823047" fill="#74b9ff" opacity="0.4864931581420042"/>
  <circle cx="137.5488683127572" cy="350.2957818930041" r="2.0097222222222224" fill="#0984e3" opacity="0.4864931581420042"/>
  <circle cx="161.47119341563786" cy="350.3116426611797" r="2.01005658436214" fill="#2d3436" opacity="0.4864931581420042"/>
  <circle cx="185.39351851851853" cy="350.32750342935526" r="2.0103909465020577" fill="#ffffff" opacity="0.4864931581420042"/>
  <circle cx="209.31584362139915" cy="350.3433641975309" r="2.0107253086419754" fill="#dfe6e9" opacity="0.4864931581420042"/>
  <circle cx="233.23816872427983" cy="350.35922496570646" r="2.011059670781893" fill="#74b9ff" opacity="0.4864931581420042"/>
  <circle cx="257.1604938271605" cy="350.37508573388203" r="2.0113940329218107" fill="#0984e3" opacity="0.4864931581420042"/>
  <circle cx="281.0828189300412" cy="350.3909465020576" r="2.0117283950617284" fill="#2d3436" opacity="0.4864931581420042"/>
  <circle cx="305.00514403292186" cy="350.4068072702332" r="2.012062757201646" fill="#ffffff" opacity="0.4864931581420042"/>
  <circle cx="328.9274691358024" cy="350.4226680384088" r="2.0123971193415637" fill="#dfe6e9" opacity="0.4864931581420042"/>
  <circle cx="352.8497942386831" cy="350.4385288065844" r="2.0127314814814814" fill="#74b9ff" opacity="0.4864931581420042"/>
  <circle cx="376.7721193415638" cy="350.45438957475994" r="2.013065843621399" fill="#0984e3" opacity="0.4864931581420042"/>
  <circle cx="400.69444444444446" cy="350.4702503429355" r="2.0134002057613167" fill="#2d3436" opacity="0.4864931581420042"/>
  <path d="M 50 480 Q 200 460 400 480" stroke="#74b9ff" stroke-width="2" fill="none"/>
  <circle cx="400" cy="480" r="6" fill="#fdcb6e"/>
  <text x="420" y="485" fill="#74b9ff" font-family="monospace" font-size="10">80bf3b6</text>
  <text x="50" y="485" fill="#74b9ff" font-family="monospace" font-size="10">main *</text>
  <rect x="50" y="550" width="148" height="15" fill="#ffffff" opacity="0.875"/><rect x="200" y="550" width="148" height="15" fill="#dfe6e9" opacity="0.925"/><rect x="350" y="550" width="148" height="15" fill="#74b9ff" opacity="0.725"/><rect x="500" y="550" width="148" height="15" fill="#0984e3" opacity="0.525"/><rect x="650" y="550" width="148" height="15" fill="#2d3436" opacity="0.32499999999999996"/><text x="50" y="585" fill="#74b9ff" font-family="monospace" font-size="9">AWAKENING • CALIBRATION • ENGAGEMENT • SYNTHESIS • COMPLETION</text>
  
  <!-- Title -->
  <text x="400" y="30" fill="#fdcb6e" font-family="monospace" font-size="14" text-anchor="middle">AIRGAPPED ARTIFACT • System Telemetry Visualization</text>
  
  <!-- Footer -->
  <text x="400" y="590" fill="#b2bec3" font-family="monospace" font-size="8" text-anchor="middle">State-Independent Visualization • Graceful Degradation • Dual-Path Rendering</text>
</svg>