<?xml version="1.0" encoding="UTF-8"?>
<!-- Airgapped Artifact - Independent of Session State -->
<!-- Generated: 2026-03-22T04:03:38.766Z -->
<svg xmlns="http://www.w3.org/2000/svg" viewBox="0 0 800 600" width="800" height="600">
  <defs>
    <linearGradient id="grad1" x1="0%" y1="0%" x2="0%" y2="100%">
      <stop offset="0%" style="stop-color:#2d3436;stop-opacity:1" />
      <stop offset="100%" style="stop-color:#2d3436;stop-opacity:1" />
    </linearGradient>
  </defs>
  <rect x="0" y="0" width="800" height="600" fill="#2d3436" />
  <rect x="50" y="50" width="200" height="20" fill="#636e72" stroke="#b2bec3" stroke-width="1"/>
  <rect x="50" y="50" width="12" height="20" fill="#74b9ff" opacity="0.7"/>
  <text x="260" y="65" fill="#b2bec3" font-family="monospace" font-size="12">MEM 6%</text>
  <rect x="50" y="93.7" width="5" height="26.299999999999997" fill="#0984e3" opacity="0.6"/>
  <rect x="120" y="90" width="5" height="30" fill="#0984e3" opacity="0.6"/>
  <rect x="190" y="94.5" width="5" height="25.5" fill="#0984e3" opacity="0.6"/>
  <text x="50" y="140" fill="#b2bec3" font-family="monospace" font-size="10">LOAD 2.63 3.00 2.55</text>
  <line x1="50" y1="180" x2="750" y2="180" stroke="#b2bec3" stroke-width="0.5" opacity="0.1"/>
  <circle cx="100" cy="180" r="3" fill="#dfe6e9" opacity="0.3"/>
  <line x1="50" y1="205" x2="750" y2="205" stroke="#b2bec3" stroke-width="0.8333333333333333" opacity="0.15"/>
  <circle cx="175" cy="205" r="3.6666666666666665" fill="#74b9ff" opacity="0.36666666666666664"/>
  <line x1="50" y1="230" x2="750" y2="230" stroke="#b2bec3" stroke-width="1.1666666666666665" opacity="0.2"/>
  <circle cx="250" cy="230" r="4.333333333333333" fill="#0984e3" opacity="0.43333333333333335"/>
  <line x1="50" y1="255" x2="750" y2="255" stroke="#b2bec3" stroke-width="1.5" opacity="0.25"/>
  <circle cx="325" cy="255" r="5" fill="#636e72" opacity="0.5"/>
  <line x1="50" y1="280" x2="750" y2="280" stroke="#b2bec3" stroke-width="1.8333333333333333" opacity="0.3"/>
  <circle cx="400" cy="280" r="5.666666666666666" fill="#2d3436" opacity="0.5666666666666667"/>
  <line x1="50" y1="305" x2="750" y2="305" stroke="#b2bec3" stroke-width="2.166666666666667" opacity="0.35"/>
  <circle cx="475" cy="305" r="6.333333333333334" fill="#dfe6e9" opacity="0.6333333333333333"/>
  <line x1="50" y1="330" x2="750" y2="330" stroke="#b2bec3" stroke-width="2.5" opacity="0.4"/>
  <circle cx="550" cy="330" r="7" fill="#74b9ff" opacity="0.7"/>
  <circle cx="399.9537037037037" cy="353.6801268861454" r="2.2208076131687244" fill="#dfe6e9" opacity="0.4850375164135049"/>
  <circle cx="423.8760288065844" cy="353.695987654321" r="2.221141975308642" fill="#74b9ff" opacity="0.4850375164135049"/>
  <circle cx="447.79835390946505" cy="353.7118484224966" r="2.2214763374485598" fill="#0984e3" opacity="0.4850375164135049"/>
  <circle cx="471.7206790123457" cy="353.72770919067216" r="2.2218106995884774" fill="#636e72" opacity="0.4850375164135049"/>
  <circle cx="495.6430041152263" cy="353.74356995884773" r="2.222145061728395" fill="#2d3436" opacity="0.4850375164135049"/>
  <circle cx="519.565329218107" cy="353.7594307270233" r="2.2224794238683128" fill="#dfe6e9" opacity="0.4850375164135049"/>
  <circle cx="543.4876543209876" cy="353.7752914951989" r="2.2228137860082304" fill="#74b9ff" opacity="0.4850375164135049"/>
  <circle cx="567.4099794238682" cy="353.7911522633745" r="2.223148148148148" fill="#0984e3" opacity="0.4850375164135049"/>
  <circle cx="591.3323045267489" cy="353.80701303155007" r="2.2234825102880658" fill="#636e72" opacity="0.4850375164135049"/>
  <circle cx="615.2546296296296" cy="353.82287379972564" r="2.2238168724279834" fill="#2d3436" opacity="0.4850375164135049"/>
  <circle cx="639.1769547325102" cy="353.8387345679012" r="2.224151234567901" fill="#dfe6e9" opacity="0.4850375164135049"/>
  <circle cx="663.0992798353909" cy="353.85459533607684" r="2.2244855967078188" fill="#74b9ff" opacity="0.4850375164135049"/>
  <circle cx="687.0216049382716" cy="353.8704561042524" r="2.2248199588477364" fill="#0984e3" opacity="0.4850375164135049"/>
  <circle cx="110.94393004115227" cy="353.886316872428" r="2.225154320987654" fill="#636e72" opacity="0.4850375164135049"/>
  <circle cx="134.86625514403292" cy="353.90217764060355" r="2.225488683127572" fill="#2d3436" opacity="0.4850375164135049"/>
  <circle cx="158.78858024691357" cy="353.9180384087791" r="2.22582304526749" fill="#dfe6e9" opacity="0.4850375164135049"/>
  <circle cx="182.71090534979425" cy="353.93389917695475" r="2.2261574074074075" fill="#74b9ff" opacity="0.4850375164135049"/>
  <circle cx="206.6332304526749" cy="353.9497599451303" r="2.226491769547325" fill="#0984e3" opacity="0.4850375164135049"/>
  <circle cx="230.55555555555554" cy="353.9656207133059" r="2.226826131687243" fill="#636e72" opacity="0.4850375164135049"/>
  <circle cx="254.47788065843622" cy="353.98148148148147" r="2.2271604938271605" fill="#2d3436" opacity="0.4850375164135049"/>
  <circle cx="278.4002057613169" cy="353.99734224965704" r="2.227494855967078" fill="#dfe6e9" opacity="0.4850375164135049"/>
  <circle cx="302.3225308641976" cy="354.01320301783267" r="2.227829218106996" fill="#74b9ff" opacity="0.4850375164135049"/>
  <circle cx="326.24485596707814" cy="354.02906378600824" r="2.2281635802469135" fill="#0984e3" opacity="0.4850375164135049"/>
  <circle cx="350.1671810699588" cy="354.0449245541838" r="2.228497942386831" fill="#636e72" opacity="0.4850375164135049"/>
  <circle cx="374.0895061728395" cy="354.0607853223594" r="2.228832304526749" fill="#2d3436" opacity="0.4850375164135049"/>
  <path d="M 50 480 Q 200 460 400 480" stroke="#74b9ff" stroke-width="2" fill="none"/>
  <circle cx="400" cy="480" r="6" fill="#74b9ff"/>
  <text x="420" y="485" fill="#b2bec3" font-family="monospace" font-size="10">20024ed</text>
  <text x="50" y="485" fill="#b2bec3" font-family="monospace" font-size="10">main</text>
  <rect x="50" y="550" width="148" height="15" fill="#dfe6e9" opacity="0.8333333333333334"/><rect x="200" y="550" width="148" height="15" fill="#74b9ff" opacity="0.9666666666666667"/><rect x="350" y="550" width="148" height="15" fill="#0984e3" opacity="0.7666666666666666"/><rect x="500" y="550" width="148" height="15" fill="#636e72" opacity="0.5666666666666667"/><rect x="650" y="550" width="148" height="15" fill="#2d3436" opacity="0.3666666666666666"/><text x="50" y="585" fill="#b2bec3" font-family="monospace" font-size="9">AWAKENING • CALIBRATION • ENGAGEMENT • SYNTHESIS • COMPLETION</text>
  
  <!-- Title -->
  <text x="400" y="30" fill="#74b9ff" font-family="monospace" font-size="14" text-anchor="middle">AIRGAPPED ARTIFACT • System Telemetry Visualization</text>
  
  <!-- Footer -->
  <text x="400" y="590" fill="#636e72" font-family="monospace" font-size="8" text-anchor="middle">State-Independent Visualization • Graceful Degradation • Dual-Path Rendering</text>
</svg>