<?xml version="1.0" encoding="UTF-8"?>
<!-- Airgapped Artifact - Independent of Session State -->
<!-- Generated: 2026-03-22T10:38:39.090Z -->
<svg xmlns="http://www.w3.org/2000/svg" viewBox="0 0 800 600" width="800" height="600">
  <defs>
    <linearGradient id="grad1" x1="0%" y1="0%" x2="0%" y2="100%">
      <stop offset="0%" style="stop-color:#2d3436;stop-opacity:1" />
      <stop offset="100%" style="stop-color:#2d3436;stop-opacity:1" />
    </linearGradient>
  </defs>
  <rect x="0" y="0" width="800" height="600" fill="#2d3436" />
  <rect x="50" y="50" width="200" height="20" fill="#636e72" stroke="#b2bec3" stroke-width="1"/>
  <rect x="50" y="50" width="12" height="20" fill="#74b9ff" opacity="0.7"/>
  <text x="260" y="65" fill="#b2bec3" font-family="monospace" font-size="12">MEM 6%</text>
  <rect x="50" y="92.7" width="5" height="27.3" fill="#0984e3" opacity="0.6"/>
  <rect x="120" y="99.9" width="5" height="20.099999999999998" fill="#0984e3" opacity="0.6"/>
  <rect x="190" y="96.8" width="5" height="23.2" fill="#0984e3" opacity="0.6"/>
  <text x="50" y="140" fill="#b2bec3" font-family="monospace" font-size="10">LOAD 2.73 2.01 2.32</text>
  <line x1="50" y1="180" x2="750" y2="180" stroke="#b2bec3" stroke-width="0.5" opacity="0.1"/>
  <circle cx="100" cy="180" r="3" fill="#dfe6e9" opacity="0.3"/>
  <line x1="50" y1="205" x2="750" y2="205" stroke="#b2bec3" stroke-width="0.8333333333333333" opacity="0.15"/>
  <circle cx="175" cy="205" r="3.6666666666666665" fill="#74b9ff" opacity="0.36666666666666664"/>
  <line x1="50" y1="230" x2="750" y2="230" stroke="#b2bec3" stroke-width="1.1666666666666665" opacity="0.2"/>
  <circle cx="250" cy="230" r="4.333333333333333" fill="#0984e3" opacity="0.43333333333333335"/>
  <line x1="50" y1="255" x2="750" y2="255" stroke="#b2bec3" stroke-width="1.5" opacity="0.25"/>
  <circle cx="325" cy="255" r="5" fill="#636e72" opacity="0.5"/>
  <line x1="50" y1="280" x2="750" y2="280" stroke="#b2bec3" stroke-width="1.8333333333333333" opacity="0.3"/>
  <circle cx="400" cy="280" r="5.666666666666666" fill="#2d3436" opacity="0.5666666666666667"/>
  <line x1="50" y1="305" x2="750" y2="305" stroke="#b2bec3" stroke-width="2.166666666666667" opacity="0.35"/>
  <circle cx="475" cy="305" r="6.333333333333334" fill="#dfe6e9" opacity="0.6333333333333333"/>
  <line x1="50" y1="330" x2="750" y2="330" stroke="#b2bec3" stroke-width="2.5" opacity="0.4"/>
  <circle cx="550" cy="330" r="7" fill="#74b9ff" opacity="0.7"/>
  <circle cx="400.5735596707819" cy="353.80915637860085" r="2.228549382716049" fill="#dfe6e9" opacity="0.2165924622851812"/>
  <circle cx="424.4958847736625" cy="353.8250171467764" r="2.228883744855967" fill="#74b9ff" opacity="0.2165924622851812"/>
  <circle cx="448.4182098765432" cy="353.840877914952" r="2.229218106995885" fill="#0984e3" opacity="0.2165924622851812"/>
  <circle cx="472.34053497942386" cy="353.85673868312756" r="2.2295524691358026" fill="#636e72" opacity="0.2165924622851812"/>
  <circle cx="496.26286008230454" cy="353.87259945130313" r="2.2298868312757203" fill="#2d3436" opacity="0.2165924622851812"/>
  <circle cx="520.1851851851852" cy="353.88846021947876" r="2.230221193415638" fill="#dfe6e9" opacity="0.2165924622851812"/>
  <circle cx="544.1075102880659" cy="353.90432098765433" r="2.2305555555555556" fill="#74b9ff" opacity="0.2165924622851812"/>
  <circle cx="568.0298353909466" cy="353.9201817558299" r="2.2308899176954733" fill="#0984e3" opacity="0.2165924622851812"/>
  <circle cx="591.9521604938271" cy="353.9360425240055" r="2.231224279835391" fill="#636e72" opacity="0.2165924622851812"/>
  <circle cx="615.8744855967078" cy="353.95190329218104" r="2.2315586419753086" fill="#2d3436" opacity="0.2165924622851812"/>
  <circle cx="639.7968106995885" cy="353.96776406035667" r="2.2318930041152263" fill="#dfe6e9" opacity="0.2165924622851812"/>
  <circle cx="663.7191358024692" cy="353.98362482853224" r="2.232227366255144" fill="#74b9ff" opacity="0.2165924622851812"/>
  <circle cx="687.6414609053497" cy="353.9994855967078" r="2.2325617283950616" fill="#0984e3" opacity="0.2165924622851812"/>
  <circle cx="111.56378600823045" cy="354.0153463648834" r="2.2328960905349793" fill="#636e72" opacity="0.2165924622851812"/>
  <circle cx="135.48611111111111" cy="354.031207133059" r="2.233230452674897" fill="#2d3436" opacity="0.2165924622851812"/>
  <circle cx="159.40843621399176" cy="354.0470679012346" r="2.2335648148148146" fill="#dfe6e9" opacity="0.2165924622851812"/>
  <circle cx="183.33076131687244" cy="354.06292866941016" r="2.2338991769547327" fill="#74b9ff" opacity="0.2165924622851812"/>
  <circle cx="207.2530864197531" cy="354.0787894375857" r="2.2342335390946504" fill="#0984e3" opacity="0.2165924622851812"/>
  <circle cx="231.17541152263374" cy="354.0946502057613" r="2.234567901234568" fill="#636e72" opacity="0.2165924622851812"/>
  <circle cx="255.09773662551441" cy="354.1105109739369" r="2.2349022633744857" fill="#2d3436" opacity="0.2165924622851812"/>
  <circle cx="279.02006172839504" cy="354.1263717421125" r="2.2352366255144034" fill="#dfe6e9" opacity="0.2165924622851812"/>
  <circle cx="302.9423868312757" cy="354.14223251028807" r="2.235570987654321" fill="#74b9ff" opacity="0.2165924622851812"/>
  <path d="M 50 480 Q 200 460 400 480" stroke="#74b9ff" stroke-width="2" fill="none"/>
  <circle cx="400" cy="480" r="6" fill="#74b9ff"/>
  <text x="420" y="485" fill="#b2bec3" font-family="monospace" font-size="10">6e3295a</text>
  <text x="50" y="485" fill="#b2bec3" font-family="monospace" font-size="10">main</text>
  <rect x="50" y="550" width="148" height="15" fill="#dfe6e9" opacity="0.5833333333333333"/><rect x="200" y="550" width="148" height="15" fill="#74b9ff" opacity="0.7833333333333333"/><rect x="350" y="550" width="148" height="15" fill="#0984e3" opacity="0.9833333333333334"/><rect x="500" y="550" width="148" height="15" fill="#636e72" opacity="0.8166666666666667"/><rect x="650" y="550" width="148" height="15" fill="#2d3436" opacity="0.6166666666666667"/><text x="50" y="585" fill="#b2bec3" font-family="monospace" font-size="9">AWAKENING • CALIBRATION • ENGAGEMENT • SYNTHESIS • COMPLETION</text>
  
  <!-- Title -->
  <text x="400" y="30" fill="#74b9ff" font-family="monospace" font-size="14" text-anchor="middle">AIRGAPPED ARTIFACT • System Telemetry Visualization</text>
  
  <!-- Footer -->
  <text x="400" y="590" fill="#636e72" font-family="monospace" font-size="8" text-anchor="middle">State-Independent Visualization • Graceful Degradation • Dual-Path Rendering</text>
</svg>