<?xml version="1.0" encoding="UTF-8"?>
<!-- Airgapped Artifact - Independent of Session State -->
<!-- Generated: 2026-03-22T03:02:05.374Z -->
<svg xmlns="http://www.w3.org/2000/svg" viewBox="0 0 800 600" width="800" height="600">
  <defs>
    <linearGradient id="grad1" x1="0%" y1="0%" x2="0%" y2="100%">
      <stop offset="0%" style="stop-color:#1a1a2e;stop-opacity:1" />
      <stop offset="100%" style="stop-color:#1a1a2e;stop-opacity:1" />
    </linearGradient>
  </defs>
  <rect x="0" y="0" width="800" height="600" fill="#1a1a2e" />
  <rect x="50" y="50" width="200" height="20" fill="#16213e" stroke="#e94560" stroke-width="1"/>
  <rect x="50" y="50" width="16" height="20" fill="#e94560" opacity="0.7"/>
  <text x="260" y="65" fill="#e94560" font-family="monospace" font-size="12">MEM 8%</text>
  <rect x="50" y="92.3" width="5" height="27.7" fill="#0f3460" opacity="0.6"/>
  <rect x="120" y="90.7" width="5" height="29.3" fill="#0f3460" opacity="0.6"/>
  <rect x="190" y="94.8" width="5" height="25.2" fill="#0f3460" opacity="0.6"/>
  <text x="50" y="140" fill="#e94560" font-family="monospace" font-size="10">LOAD 2.77 2.93 2.52</text>
  <line x1="50" y1="180" x2="750" y2="180" stroke="#e94560" stroke-width="0.5" opacity="0.1"/>
  <circle cx="100" cy="180" r="3" fill="#ffeaa7" opacity="0.3"/>
  <line x1="50" y1="205" x2="750" y2="205" stroke="#e94560" stroke-width="0.8333333333333333" opacity="0.15"/>
  <circle cx="175" cy="205" r="3.6666666666666665" fill="#e94560" opacity="0.36666666666666664"/>
  <line x1="50" y1="230" x2="750" y2="230" stroke="#e94560" stroke-width="1.1666666666666665" opacity="0.2"/>
  <circle cx="250" cy="230" r="4.333333333333333" fill="#fd79a8" opacity="0.43333333333333335"/>
  <line x1="50" y1="255" x2="750" y2="255" stroke="#e94560" stroke-width="1.5" opacity="0.25"/>
  <circle cx="325" cy="255" r="5" fill="#16213e" opacity="0.5"/>
  <line x1="50" y1="280" x2="750" y2="280" stroke="#e94560" stroke-width="1.8333333333333333" opacity="0.3"/>
  <circle cx="400" cy="280" r="5.666666666666666" fill="#1a1a2e" opacity="0.5666666666666667"/>
  <line x1="50" y1="305" x2="750" y2="305" stroke="#e94560" stroke-width="2.166666666666667" opacity="0.35"/>
  <circle cx="475" cy="305" r="6.333333333333334" fill="#ffeaa7" opacity="0.6333333333333333"/>
  <line x1="50" y1="330" x2="750" y2="330" stroke="#e94560" stroke-width="2.5" opacity="0.4"/>
  <circle cx="550" cy="330" r="7" fill="#e94560" opacity="0.7"/>
  <circle cx="323.31018518518516" cy="352.24879972565157" r="2.134927983539095" fill="#ffeaa7" opacity="0.6907393228837516"/>
  <circle cx="347.23251028806584" cy="352.26466049382714" r="2.1352623456790125" fill="#e94560" opacity="0.6907393228837516"/>
  <circle cx="371.1548353909465" cy="352.28052126200276" r="2.13559670781893" fill="#fd79a8" opacity="0.6907393228837516"/>
  <circle cx="395.07716049382714" cy="352.29638203017834" r="2.135931069958848" fill="#16213e" opacity="0.6907393228837516"/>
  <circle cx="418.9994855967078" cy="352.3122427983539" r="2.1362654320987655" fill="#1a1a2e" opacity="0.6907393228837516"/>
  <circle cx="442.9218106995885" cy="352.3281035665295" r="2.136599794238683" fill="#ffeaa7" opacity="0.6907393228837516"/>
  <circle cx="466.8441358024691" cy="352.34396433470505" r="2.136934156378601" fill="#e94560" opacity="0.6907393228837516"/>
  <circle cx="490.7664609053498" cy="352.3598251028807" r="2.1372685185185185" fill="#fd79a8" opacity="0.6907393228837516"/>
  <circle cx="514.6887860082304" cy="352.37568587105625" r="2.137602880658436" fill="#16213e" opacity="0.6907393228837516"/>
  <circle cx="538.6111111111111" cy="352.3915466392318" r="2.137937242798354" fill="#1a1a2e" opacity="0.6907393228837516"/>
  <circle cx="562.5334362139918" cy="352.4074074074074" r="2.1382716049382715" fill="#ffeaa7" opacity="0.6907393228837516"/>
  <circle cx="586.4557613168724" cy="352.423268175583" r="2.138605967078189" fill="#e94560" opacity="0.6907393228837516"/>
  <circle cx="610.3780864197531" cy="352.4391289437586" r="2.138940329218107" fill="#fd79a8" opacity="0.6907393228837516"/>
  <circle cx="634.3004115226338" cy="352.45498971193416" r="2.1392746913580245" fill="#16213e" opacity="0.6907393228837516"/>
  <circle cx="658.2227366255144" cy="352.47085048010973" r="2.139609053497942" fill="#1a1a2e" opacity="0.6907393228837516"/>
  <circle cx="682.145061728395" cy="352.4867112482853" r="2.1399434156378603" fill="#ffeaa7" opacity="0.6907393228837516"/>
  <circle cx="106.06738683127571" cy="352.50257201646093" r="2.140277777777778" fill="#e94560" opacity="0.6907393228837516"/>
  <circle cx="129.9897119341564" cy="352.5184327846365" r="2.1406121399176956" fill="#fd79a8" opacity="0.6907393228837516"/>
  <circle cx="153.91203703703704" cy="352.5342935528121" r="2.1409465020576133" fill="#16213e" opacity="0.6907393228837516"/>
  <circle cx="177.8343621399177" cy="352.55015432098764" r="2.141280864197531" fill="#1a1a2e" opacity="0.6907393228837516"/>
  <circle cx="201.75668724279836" cy="352.5660150891632" r="2.1416152263374486" fill="#ffeaa7" opacity="0.6907393228837516"/>
  <circle cx="225.679012345679" cy="352.58187585733884" r="2.1419495884773663" fill="#e94560" opacity="0.6907393228837516"/>
  <circle cx="249.60133744855966" cy="352.5977366255144" r="2.142283950617284" fill="#fd79a8" opacity="0.6907393228837516"/>
  <circle cx="273.52366255144034" cy="352.61359739369" r="2.1426183127572016" fill="#16213e" opacity="0.6907393228837516"/>
  <circle cx="297.445987654321" cy="352.62945816186556" r="2.1429526748971193" fill="#1a1a2e" opacity="0.6907393228837516"/>
  <path d="M 50 480 Q 200 460 400 480" stroke="#fd79a8" stroke-width="2" fill="none"/>
  <circle cx="400" cy="480" r="6" fill="#e94560"/>
  <text x="420" y="485" fill="#e94560" font-family="monospace" font-size="10">8b29ec3</text>
  <text x="50" y="485" fill="#e94560" font-family="monospace" font-size="10">main *</text>
  <rect x="50" y="550" width="148" height="15" fill="#ffeaa7" opacity="0.875"/><rect x="200" y="550" width="148" height="15" fill="#e94560" opacity="0.925"/><rect x="350" y="550" width="148" height="15" fill="#fd79a8" opacity="0.725"/><rect x="500" y="550" width="148" height="15" fill="#16213e" opacity="0.525"/><rect x="650" y="550" width="148" height="15" fill="#1a1a2e" opacity="0.32499999999999996"/><text x="50" y="585" fill="#e94560" font-family="monospace" font-size="9">AWAKENING • CALIBRATION • ENGAGEMENT • SYNTHESIS • COMPLETION</text>
  
  <!-- Title -->
  <text x="400" y="30" fill="#e94560" font-family="monospace" font-size="14" text-anchor="middle">AIRGAPPED ARTIFACT • System Telemetry Visualization</text>
  
  <!-- Footer -->
  <text x="400" y="590" fill="#16213e" font-family="monospace" font-size="8" text-anchor="middle">State-Independent Visualization • Graceful Degradation • Dual-Path Rendering</text>
</svg>