<?xml version="1.0" encoding="UTF-8"?>
<!-- Airgapped Artifact - Independent of Session State -->
<!-- Generated: 2026-03-22T06:56:46.262Z -->
<svg xmlns="http://www.w3.org/2000/svg" viewBox="0 0 800 600" width="800" height="600">
  <defs>
    <linearGradient id="grad1" x1="0%" y1="0%" x2="0%" y2="100%">
      <stop offset="0%" style="stop-color:#2d3436;stop-opacity:1" />
      <stop offset="100%" style="stop-color:#2d3436;stop-opacity:1" />
    </linearGradient>
  </defs>
  <rect x="0" y="0" width="800" height="600" fill="#2d3436" />
  <rect x="50" y="50" width="200" height="20" fill="#636e72" stroke="#b2bec3" stroke-width="1"/>
  <rect x="50" y="50" width="14.000000000000002" height="20" fill="#74b9ff" opacity="0.7"/>
  <text x="260" y="65" fill="#b2bec3" font-family="monospace" font-size="12">MEM 7%</text>
  <rect x="50" y="98.4" width="5" height="21.6" fill="#0984e3" opacity="0.6"/>
  <rect x="120" y="90.8" width="5" height="29.2" fill="#0984e3" opacity="0.6"/>
  <rect x="190" y="92.1" width="5" height="27.9" fill="#0984e3" opacity="0.6"/>
  <text x="50" y="140" fill="#b2bec3" font-family="monospace" font-size="10">LOAD 2.16 2.92 2.79</text>
  <line x1="50" y1="180" x2="750" y2="180" stroke="#b2bec3" stroke-width="0.5" opacity="0.1"/>
  <circle cx="100" cy="180" r="3" fill="#dfe6e9" opacity="0.3"/>
  <line x1="50" y1="201.42857142857142" x2="750" y2="201.42857142857142" stroke="#b2bec3" stroke-width="0.7857142857142857" opacity="0.14285714285714285"/>
  <circle cx="175" cy="201.42857142857142" r="3.571428571428571" fill="#74b9ff" opacity="0.35714285714285715"/>
  <line x1="50" y1="222.85714285714286" x2="750" y2="222.85714285714286" stroke="#b2bec3" stroke-width="1.0714285714285714" opacity="0.18571428571428572"/>
  <circle cx="250" cy="222.85714285714286" r="4.142857142857142" fill="#0984e3" opacity="0.41428571428571426"/>
  <line x1="50" y1="244.28571428571428" x2="750" y2="244.28571428571428" stroke="#b2bec3" stroke-width="1.3571428571428572" opacity="0.22857142857142856"/>
  <circle cx="325" cy="244.28571428571428" r="4.714285714285714" fill="#636e72" opacity="0.4714285714285714"/>
  <line x1="50" y1="265.7142857142857" x2="750" y2="265.7142857142857" stroke="#b2bec3" stroke-width="1.6428571428571428" opacity="0.2714285714285714"/>
  <circle cx="400" cy="265.7142857142857" r="5.285714285714286" fill="#2d3436" opacity="0.5285714285714286"/>
  <line x1="50" y1="287.1428571428571" x2="750" y2="287.1428571428571" stroke="#b2bec3" stroke-width="1.9285714285714286" opacity="0.3142857142857143"/>
  <circle cx="475" cy="287.1428571428571" r="5.857142857142858" fill="#dfe6e9" opacity="0.5857142857142857"/>
  <line x1="50" y1="308.57142857142856" x2="750" y2="308.57142857142856" stroke="#b2bec3" stroke-width="2.2142857142857144" opacity="0.3571428571428571"/>
  <circle cx="550" cy="308.57142857142856" r="6.428571428571429" fill="#74b9ff" opacity="0.6428571428571428"/>
  <line x1="50" y1="330" x2="750" y2="330" stroke="#b2bec3" stroke-width="2.5" opacity="0.4"/>
  <circle cx="625" cy="330" r="7" fill="#0984e3" opacity="0.7"/>
  <circle cx="185.51954732510288" cy="352.61188271604937" r="2.156712962962963" fill="#dfe6e9" opacity="0.4370197827205057"/>
  <circle cx="209.44187242798353" cy="352.627743484225" r="2.1570473251028806" fill="#74b9ff" opacity="0.4370197827205057"/>
  <circle cx="233.3641975308642" cy="352.64360425240056" r="2.157381687242798" fill="#0984e3" opacity="0.4370197827205057"/>
  <circle cx="257.2865226337449" cy="352.65946502057614" r="2.157716049382716" fill="#636e72" opacity="0.4370197827205057"/>
  <circle cx="281.2088477366255" cy="352.6753257887517" r="2.1580504115226335" fill="#2d3436" opacity="0.4370197827205057"/>
  <circle cx="305.1311728395062" cy="352.6911865569273" r="2.1583847736625517" fill="#dfe6e9" opacity="0.4370197827205057"/>
  <circle cx="329.0534979423868" cy="352.7070473251029" r="2.1587191358024693" fill="#74b9ff" opacity="0.4370197827205057"/>
  <circle cx="352.9758230452675" cy="352.7229080932785" r="2.159053497942387" fill="#0984e3" opacity="0.4370197827205057"/>
  <circle cx="376.89814814814815" cy="352.73876886145405" r="2.1593878600823047" fill="#636e72" opacity="0.4370197827205057"/>
  <circle cx="400.82047325102883" cy="352.7546296296296" r="2.1597222222222223" fill="#2d3436" opacity="0.4370197827205057"/>
  <circle cx="424.74279835390945" cy="352.7704903978052" r="2.16005658436214" fill="#dfe6e9" opacity="0.4370197827205057"/>
  <circle cx="448.6651234567901" cy="352.7863511659808" r="2.1603909465020577" fill="#74b9ff" opacity="0.4370197827205057"/>
  <circle cx="472.5874485596708" cy="352.8022119341564" r="2.1607253086419753" fill="#0984e3" opacity="0.4370197827205057"/>
  <circle cx="496.5097736625514" cy="352.81807270233196" r="2.161059670781893" fill="#636e72" opacity="0.4370197827205057"/>
  <circle cx="520.4320987654321" cy="352.83393347050753" r="2.1613940329218106" fill="#2d3436" opacity="0.4370197827205057"/>
  <circle cx="544.3544238683128" cy="352.8497942386831" r="2.1617283950617283" fill="#dfe6e9" opacity="0.4370197827205057"/>
  <circle cx="568.2767489711935" cy="352.86565500685873" r="2.162062757201646" fill="#74b9ff" opacity="0.4370197827205057"/>
  <circle cx="592.1990740740741" cy="352.8815157750343" r="2.1623971193415636" fill="#0984e3" opacity="0.4370197827205057"/>
  <circle cx="616.1213991769547" cy="352.8973765432099" r="2.1627314814814813" fill="#636e72" opacity="0.4370197827205057"/>
  <circle cx="640.0437242798354" cy="352.91323731138544" r="2.163065843621399" fill="#2d3436" opacity="0.4370197827205057"/>
  <circle cx="663.966049382716" cy="352.929098079561" r="2.1634002057613166" fill="#dfe6e9" opacity="0.4370197827205057"/>
  <circle cx="687.8883744855967" cy="352.94495884773664" r="2.1637345679012348" fill="#74b9ff" opacity="0.4370197827205057"/>
  <circle cx="111.81069958847736" cy="352.9608196159122" r="2.1640689300411524" fill="#0984e3" opacity="0.4370197827205057"/>
  <circle cx="135.73302469135803" cy="352.9766803840878" r="2.16440329218107" fill="#636e72" opacity="0.4370197827205057"/>
  <circle cx="159.65534979423867" cy="352.99254115226336" r="2.1647376543209877" fill="#2d3436" opacity="0.4370197827205057"/>
  <circle cx="183.57767489711932" cy="353.008401920439" r="2.1650720164609054" fill="#dfe6e9" opacity="0.4370197827205057"/>
  <circle cx="207.5" cy="353.02426268861456" r="2.165406378600823" fill="#74b9ff" opacity="0.4370197827205057"/>
  <circle cx="231.42232510288065" cy="353.0401234567901" r="2.1657407407407407" fill="#0984e3" opacity="0.4370197827205057"/>
  <path d="M 50 480 Q 200 460 400 480" stroke="#0984e3" stroke-width="2" fill="none"/>
  <circle cx="400" cy="480" r="6" fill="#74b9ff"/>
  <text x="420" y="485" fill="#b2bec3" font-family="monospace" font-size="10">c91d11a</text>
  <text x="50" y="485" fill="#b2bec3" font-family="monospace" font-size="10">main *</text>
  <rect x="50" y="550" width="148" height="15" fill="#dfe6e9" opacity="0.75"/><rect x="200" y="550" width="148" height="15" fill="#74b9ff" opacity="0.95"/><rect x="350" y="550" width="148" height="15" fill="#0984e3" opacity="0.85"/><rect x="500" y="550" width="148" height="15" fill="#636e72" opacity="0.65"/><rect x="650" y="550" width="148" height="15" fill="#2d3436" opacity="0.44999999999999996"/><text x="50" y="585" fill="#b2bec3" font-family="monospace" font-size="9">AWAKENING • CALIBRATION • ENGAGEMENT • SYNTHESIS • COMPLETION</text>
  
  <!-- Title -->
  <text x="400" y="30" fill="#74b9ff" font-family="monospace" font-size="14" text-anchor="middle">AIRGAPPED ARTIFACT • System Telemetry Visualization</text>
  
  <!-- Footer -->
  <text x="400" y="590" fill="#636e72" font-family="monospace" font-size="8" text-anchor="middle">State-Independent Visualization • Graceful Degradation • Dual-Path Rendering</text>
</svg>