<?xml version="1.0" encoding="UTF-8"?>
<!-- Airgapped Artifact - Independent of Session State -->
<!-- Generated: 2026-03-22T07:37:51.898Z -->
<svg xmlns="http://www.w3.org/2000/svg" viewBox="0 0 800 600" width="800" height="600">
  <defs>
    <linearGradient id="grad1" x1="0%" y1="0%" x2="0%" y2="100%">
      <stop offset="0%" style="stop-color:#1a1a2e;stop-opacity:1" />
      <stop offset="100%" style="stop-color:#1a1a2e;stop-opacity:1" />
    </linearGradient>
  </defs>
  <rect x="0" y="0" width="800" height="600" fill="#1a1a2e" />
  <rect x="50" y="50" width="200" height="20" fill="#16213e" stroke="#e94560" stroke-width="1"/>
  <rect x="50" y="50" width="12" height="20" fill="#e94560" opacity="0.7"/>
  <text x="260" y="65" fill="#e94560" font-family="monospace" font-size="12">MEM 6%</text>
  <rect x="50" y="104.2" width="5" height="15.8" fill="#0f3460" opacity="0.6"/>
  <rect x="120" y="102.2" width="5" height="17.8" fill="#0f3460" opacity="0.6"/>
  <rect x="190" y="98.3" width="5" height="21.7" fill="#0f3460" opacity="0.6"/>
  <text x="50" y="140" fill="#e94560" font-family="monospace" font-size="10">LOAD 1.58 1.78 2.17</text>
  <line x1="50" y1="180" x2="750" y2="180" stroke="#e94560" stroke-width="0.5" opacity="0.1"/>
  <circle cx="100" cy="180" r="3" fill="#ffeaa7" opacity="0.3"/>
  <line x1="50" y1="201.42857142857142" x2="750" y2="201.42857142857142" stroke="#e94560" stroke-width="0.7857142857142857" opacity="0.14285714285714285"/>
  <circle cx="175" cy="201.42857142857142" r="3.571428571428571" fill="#e94560" opacity="0.35714285714285715"/>
  <line x1="50" y1="222.85714285714286" x2="750" y2="222.85714285714286" stroke="#e94560" stroke-width="1.0714285714285714" opacity="0.18571428571428572"/>
  <circle cx="250" cy="222.85714285714286" r="4.142857142857142" fill="#fd79a8" opacity="0.41428571428571426"/>
  <line x1="50" y1="244.28571428571428" x2="750" y2="244.28571428571428" stroke="#e94560" stroke-width="1.3571428571428572" opacity="0.22857142857142856"/>
  <circle cx="325" cy="244.28571428571428" r="4.714285714285714" fill="#16213e" opacity="0.4714285714285714"/>
  <line x1="50" y1="265.7142857142857" x2="750" y2="265.7142857142857" stroke="#e94560" stroke-width="1.6428571428571428" opacity="0.2714285714285714"/>
  <circle cx="400" cy="265.7142857142857" r="5.285714285714286" fill="#1a1a2e" opacity="0.5285714285714286"/>
  <line x1="50" y1="287.1428571428571" x2="750" y2="287.1428571428571" stroke="#e94560" stroke-width="1.9285714285714286" opacity="0.3142857142857143"/>
  <circle cx="475" cy="287.1428571428571" r="5.857142857142858" fill="#ffeaa7" opacity="0.5857142857142857"/>
  <line x1="50" y1="308.57142857142856" x2="750" y2="308.57142857142856" stroke="#e94560" stroke-width="2.2142857142857144" opacity="0.3571428571428571"/>
  <circle cx="550" cy="308.57142857142856" r="6.428571428571429" fill="#e94560" opacity="0.6428571428571428"/>
  <line x1="50" y1="330" x2="750" y2="330" stroke="#e94560" stroke-width="2.5" opacity="0.4"/>
  <circle cx="625" cy="330" r="7" fill="#fd79a8" opacity="0.7"/>
  <circle cx="118.66769547325103" cy="350.7291666666667" r="2.04375" fill="#ffeaa7" opacity="0.3903621941832212"/>
  <circle cx="142.59002057613168" cy="350.74502743484226" r="2.044084362139918" fill="#e94560" opacity="0.3903621941832212"/>
  <circle cx="166.51234567901236" cy="350.7608882030178" r="2.0444187242798355" fill="#fd79a8" opacity="0.3903621941832212"/>
  <circle cx="190.434670781893" cy="350.7767489711934" r="2.044753086419753" fill="#16213e" opacity="0.3903621941832212"/>
  <circle cx="214.35699588477365" cy="350.792609739369" r="2.045087448559671" fill="#1a1a2e" opacity="0.3903621941832212"/>
  <circle cx="238.27932098765433" cy="350.8084705075446" r="2.0454218106995885" fill="#ffeaa7" opacity="0.3903621941832212"/>
  <circle cx="262.20164609053495" cy="350.82433127572017" r="2.045756172839506" fill="#e94560" opacity="0.3903621941832212"/>
  <circle cx="286.1239711934156" cy="350.84019204389574" r="2.046090534979424" fill="#fd79a8" opacity="0.3903621941832212"/>
  <circle cx="310.0462962962963" cy="350.8560528120713" r="2.0464248971193415" fill="#16213e" opacity="0.3903621941832212"/>
  <circle cx="333.968621399177" cy="350.87191358024694" r="2.046759259259259" fill="#1a1a2e" opacity="0.3903621941832212"/>
  <circle cx="357.8909465020576" cy="350.8877743484225" r="2.047093621399177" fill="#ffeaa7" opacity="0.3903621941832212"/>
  <circle cx="381.8132716049383" cy="350.9036351165981" r="2.0474279835390945" fill="#e94560" opacity="0.3903621941832212"/>
  <circle cx="405.73559670781896" cy="350.91949588477365" r="2.047762345679012" fill="#fd79a8" opacity="0.3903621941832212"/>
  <circle cx="429.65792181069963" cy="350.9353566529492" r="2.04809670781893" fill="#16213e" opacity="0.3903621941832212"/>
  <circle cx="453.58024691358025" cy="350.95121742112485" r="2.048431069958848" fill="#1a1a2e" opacity="0.3903621941832212"/>
  <circle cx="477.50257201646093" cy="350.9670781893004" r="2.0487654320987656" fill="#ffeaa7" opacity="0.3903621941832212"/>
  <circle cx="501.4248971193416" cy="350.982938957476" r="2.0490997942386833" fill="#e94560" opacity="0.3903621941832212"/>
  <circle cx="525.3472222222222" cy="350.99879972565157" r="2.049434156378601" fill="#fd79a8" opacity="0.3903621941832212"/>
  <circle cx="549.2695473251028" cy="351.01466049382714" r="2.0497685185185186" fill="#16213e" opacity="0.3903621941832212"/>
  <circle cx="573.1918724279835" cy="351.03052126200276" r="2.0501028806584363" fill="#1a1a2e" opacity="0.3903621941832212"/>
  <circle cx="597.1141975308642" cy="351.04638203017834" r="2.050437242798354" fill="#ffeaa7" opacity="0.3903621941832212"/>
  <circle cx="621.0365226337449" cy="351.0622427983539" r="2.0507716049382716" fill="#e94560" opacity="0.3903621941832212"/>
  <circle cx="644.9588477366254" cy="351.0781035665295" r="2.0511059670781893" fill="#fd79a8" opacity="0.3903621941832212"/>
  <circle cx="668.8811728395061" cy="351.09396433470505" r="2.051440329218107" fill="#16213e" opacity="0.3903621941832212"/>
  <circle cx="692.8034979423868" cy="351.1098251028807" r="2.0517746913580246" fill="#1a1a2e" opacity="0.3903621941832212"/>
  <path d="M 50 480 Q 200 460 400 480" stroke="#fd79a8" stroke-width="2" fill="none"/>
  <circle cx="400" cy="480" r="6" fill="#e94560"/>
  <text x="420" y="485" fill="#e94560" font-family="monospace" font-size="10">f7e43af</text>
  <text x="50" y="485" fill="#e94560" font-family="monospace" font-size="10">main *</text>
  <rect x="50" y="550" width="148" height="15" fill="#ffeaa7" opacity="0.7083333333333333"/><rect x="200" y="550" width="148" height="15" fill="#e94560" opacity="0.9083333333333333"/><rect x="350" y="550" width="148" height="15" fill="#fd79a8" opacity="0.8916666666666666"/><rect x="500" y="550" width="148" height="15" fill="#16213e" opacity="0.6916666666666667"/><rect x="650" y="550" width="148" height="15" fill="#1a1a2e" opacity="0.4916666666666667"/><text x="50" y="585" fill="#e94560" font-family="monospace" font-size="9">AWAKENING • CALIBRATION • ENGAGEMENT • SYNTHESIS • COMPLETION</text>
  
  <!-- Title -->
  <text x="400" y="30" fill="#e94560" font-family="monospace" font-size="14" text-anchor="middle">AIRGAPPED ARTIFACT • System Telemetry Visualization</text>
  
  <!-- Footer -->
  <text x="400" y="590" fill="#16213e" font-family="monospace" font-size="8" text-anchor="middle">State-Independent Visualization • Graceful Degradation • Dual-Path Rendering</text>
</svg>