<?xml version="1.0" encoding="UTF-8"?>
<!-- Airgapped Artifact - Independent of Session State -->
<!-- Generated: 2026-03-22T09:16:32.375Z -->
<svg xmlns="http://www.w3.org/2000/svg" viewBox="0 0 800 600" width="800" height="600">
  <defs>
    <linearGradient id="grad1" x1="0%" y1="0%" x2="0%" y2="100%">
      <stop offset="0%" style="stop-color:#2d3436;stop-opacity:1" />
      <stop offset="100%" style="stop-color:#dfe6e9;stop-opacity:1" />
    </linearGradient>
  </defs>
  <rect x="0" y="0" width="800" height="600" fill="#2d3436" />
  <rect x="50" y="50" width="200" height="20" fill="#b2bec3" stroke="#74b9ff" stroke-width="1"/>
  <rect x="50" y="50" width="12" height="20" fill="#fdcb6e" opacity="0.7"/>
  <text x="260" y="65" fill="#74b9ff" font-family="monospace" font-size="12">MEM 6%</text>
  <rect x="50" y="102.2" width="5" height="17.8" fill="#0984e3" opacity="0.6"/>
  <rect x="120" y="102.2" width="5" height="17.8" fill="#0984e3" opacity="0.6"/>
  <rect x="190" y="103.9" width="5" height="16.1" fill="#0984e3" opacity="0.6"/>
  <text x="50" y="140" fill="#74b9ff" font-family="monospace" font-size="10">LOAD 1.78 1.78 1.61</text>
  <line x1="50" y1="180" x2="750" y2="180" stroke="#74b9ff" stroke-width="0.5" opacity="0.1"/>
  <circle cx="100" cy="180" r="3" fill="#ffffff" opacity="0.3"/>
  <line x1="50" y1="210" x2="750" y2="210" stroke="#74b9ff" stroke-width="0.9" opacity="0.16"/>
  <circle cx="175" cy="210" r="3.8" fill="#dfe6e9" opacity="0.38"/>
  <line x1="50" y1="240" x2="750" y2="240" stroke="#74b9ff" stroke-width="1.3" opacity="0.22"/>
  <circle cx="250" cy="240" r="4.6" fill="#74b9ff" opacity="0.46"/>
  <line x1="50" y1="270" x2="750" y2="270" stroke="#74b9ff" stroke-width="1.7" opacity="0.28"/>
  <circle cx="325" cy="270" r="5.4" fill="#0984e3" opacity="0.54"/>
  <line x1="50" y1="300" x2="750" y2="300" stroke="#74b9ff" stroke-width="2.1" opacity="0.33999999999999997"/>
  <circle cx="400" cy="300" r="6.2" fill="#2d3436" opacity="0.6200000000000001"/>
  <line x1="50" y1="330" x2="750" y2="330" stroke="#74b9ff" stroke-width="2.5" opacity="0.4"/>
  <circle cx="475" cy="330" r="7" fill="#ffffff" opacity="0.7"/>
  <circle cx="420.56841563786" cy="350.91735253772293" r="2.0550411522633745" fill="#ffffff" opacity="0.26651666348870967"/>
  <circle cx="444.4907407407407" cy="350.9332133058985" r="2.055375514403292" fill="#dfe6e9" opacity="0.26651666348870967"/>
  <circle cx="468.4130658436214" cy="350.9490740740741" r="2.05570987654321" fill="#74b9ff" opacity="0.26651666348870967"/>
  <circle cx="492.335390946502" cy="350.96493484224965" r="2.0560442386831275" fill="#0984e3" opacity="0.26651666348870967"/>
  <circle cx="516.2577160493827" cy="350.9807956104252" r="2.056378600823045" fill="#2d3436" opacity="0.26651666348870967"/>
  <circle cx="540.1800411522634" cy="350.99665637860085" r="2.056712962962963" fill="#ffffff" opacity="0.26651666348870967"/>
  <circle cx="564.102366255144" cy="351.0125171467764" r="2.0570473251028805" fill="#dfe6e9" opacity="0.26651666348870967"/>
  <circle cx="588.0246913580247" cy="351.028377914952" r="2.057381687242798" fill="#74b9ff" opacity="0.26651666348870967"/>
  <circle cx="611.9470164609054" cy="351.04423868312756" r="2.0577160493827162" fill="#0984e3" opacity="0.26651666348870967"/>
  <circle cx="635.869341563786" cy="351.06009945130313" r="2.058050411522634" fill="#2d3436" opacity="0.26651666348870967"/>
  <circle cx="659.7916666666666" cy="351.07596021947876" r="2.0583847736625516" fill="#ffffff" opacity="0.26651666348870967"/>
  <circle cx="683.7139917695473" cy="351.09182098765433" r="2.0587191358024692" fill="#dfe6e9" opacity="0.26651666348870967"/>
  <circle cx="107.63631687242798" cy="351.1076817558299" r="2.059053497942387" fill="#74b9ff" opacity="0.26651666348870967"/>
  <circle cx="131.55864197530863" cy="351.1235425240055" r="2.0593878600823046" fill="#0984e3" opacity="0.26651666348870967"/>
  <circle cx="155.48096707818928" cy="351.13940329218104" r="2.0597222222222222" fill="#2d3436" opacity="0.26651666348870967"/>
  <circle cx="179.40329218106996" cy="351.15526406035667" r="2.06005658436214" fill="#ffffff" opacity="0.26651666348870967"/>
  <circle cx="203.32561728395063" cy="351.17112482853224" r="2.0603909465020576" fill="#dfe6e9" opacity="0.26651666348870967"/>
  <circle cx="227.24794238683126" cy="351.1869855967078" r="2.0607253086419752" fill="#74b9ff" opacity="0.26651666348870967"/>
  <circle cx="251.17026748971193" cy="351.2028463648834" r="2.061059670781893" fill="#0984e3" opacity="0.26651666348870967"/>
  <path d="M 50 480 Q 200 460 400 480" stroke="#74b9ff" stroke-width="2" fill="none"/>
  <circle cx="400" cy="480" r="6" fill="#fdcb6e"/>
  <text x="420" y="485" fill="#74b9ff" font-family="monospace" font-size="10">f7e43af</text>
  <text x="50" y="485" fill="#74b9ff" font-family="monospace" font-size="10">main *</text>
  <rect x="50" y="550" width="148" height="15" fill="#ffffff" opacity="0.625"/><rect x="200" y="550" width="148" height="15" fill="#dfe6e9" opacity="0.825"/><rect x="350" y="550" width="148" height="15" fill="#74b9ff" opacity="0.975"/><rect x="500" y="550" width="148" height="15" fill="#0984e3" opacity="0.775"/><rect x="650" y="550" width="148" height="15" fill="#2d3436" opacity="0.575"/><text x="50" y="585" fill="#74b9ff" font-family="monospace" font-size="9">AWAKENING • CALIBRATION • ENGAGEMENT • SYNTHESIS • COMPLETION</text>
  
  <!-- Title -->
  <text x="400" y="30" fill="#fdcb6e" font-family="monospace" font-size="14" text-anchor="middle">AIRGAPPED ARTIFACT • System Telemetry Visualization</text>
  
  <!-- Footer -->
  <text x="400" y="590" fill="#b2bec3" font-family="monospace" font-size="8" text-anchor="middle">State-Independent Visualization • Graceful Degradation • Dual-Path Rendering</text>
</svg>