<?xml version="1.0" encoding="UTF-8"?>
<!-- session_029878 -->
<!-- Generated by Bootstrap-v15 Image Generator -->
<!-- 2026-03-25T01:43:49.883Z -->
<svg xmlns="http://www.w3.org/2000/svg" viewBox="0 0 800 600" width="800" height="600" preserveAspectRatio="xMidYMid slice">
<path d="M 0 66.66666666666667 L 16.00 66.90 L 32.00 67.57 L 48.00 68.67 L 64.00 70.15 L 80.00 71.95 L 96.00 74.00 L 112.00 76.21 L 128.00 78.50 L 144.00 80.77 L 160.00 82.93 L 176.00 84.88 L 192.00 86.54 L 208.00 87.83 L 224.00 88.68 L 240.00 89.05 L 256.00 88.89 L 272.00 88.19 L 288.00 86.95 L 304.00 85.18 L 320.00 82.93 L 336.00 80.24 L 352.00 77.18 L 368.00 73.84 L 384.00 70.31 L 400.00 66.67 L 416.00 63.03 L 432.00 59.49 L 448.00 56.15 L 464.00 53.09 L 480.00 50.41 L 496.00 48.15 L 512.00 46.39 L 528.00 45.15 L 544.00 44.44 L 560.00 44.29 L 576.00 44.65 L 592.00 45.50 L 608.00 46.79 L 624.00 48.45 L 640.00 50.41 L 656.00 52.56 L 672.00 54.84 L 688.00 57.12 L 704.00 59.34 L 720.00 61.38 L 736.00 63.18 L 752.00 64.66 L 768.00 65.76 L 784.00 66.44 L 800.00 66.67" fill="none" stroke="#2d3436" stroke-width="0.5435399602270788" opacity="0.2752404828649653"/>
<path d="M 0 133.33333333333334 L 16.00 134.03 L 32.00 136.02 L 48.00 139.03 L 64.00 142.66 L 80.00 146.39 L 96.00 149.66 L 112.00 151.92 L 128.00 152.70 L 144.00 151.68 L 160.00 148.69 L 176.00 143.76 L 192.00 137.15 L 208.00 129.27 L 224.00 120.73 L 240.00 112.20 L 256.00 104.42 L 272.00 98.10 L 288.00 93.84 L 304.00 92.10 L 320.00 93.14 L 336.00 96.99 L 352.00 103.45 L 368.00 112.09 L 384.00 122.30 L 400.00 133.33 L 416.00 144.36 L 432.00 154.57 L 448.00 163.22 L 464.00 169.68 L 480.00 173.53 L 496.00 174.57 L 512.00 172.83 L 528.00 168.57 L 544.00 162.24 L 560.00 154.47 L 576.00 145.94 L 592.00 137.39 L 608.00 129.52 L 624.00 122.91 L 640.00 117.98 L 656.00 114.99 L 672.00 113.96 L 688.00 114.75 L 704.00 117.01 L 720.00 120.27 L 736.00 124.00 L 752.00 127.63 L 768.00 130.65 L 784.00 132.64 L 800.00 133.33" fill="none" stroke="#00b894" stroke-width="1.277329106345282" opacity="0.2679999616406909"/>
<path d="M 0 266.6666666666667 L 16.00 267.13 L 32.00 268.28 L 48.00 269.51 L 64.00 270.09 L 80.00 269.43 L 96.00 267.37 L 112.00 264.28 L 128.00 261.02 L 144.00 258.66 L 160.00 258.16 L 176.00 260.03 L 192.00 264.08 L 208.00 269.42 L 224.00 274.69 L 240.00 278.37 L 256.00 279.29 L 272.00 276.94 L 288.00 271.73 L 304.00 264.89 L 320.00 258.16 L 336.00 253.33 L 352.00 251.75 L 368.00 253.92 L 384.00 259.35 L 400.00 266.67 L 416.00 273.98 L 432.00 279.41 L 448.00 281.58 L 464.00 280.00 L 480.00 275.17 L 496.00 268.44 L 512.00 261.60 L 528.00 256.39 L 544.00 254.05 L 560.00 254.96 L 576.00 258.64 L 592.00 263.91 L 608.00 269.26 L 624.00 273.31 L 640.00 275.17 L 656.00 274.67 L 672.00 272.31 L 688.00 269.05 L 704.00 265.96 L 720.00 263.90 L 736.00 263.24 L 752.00 263.82 L 768.00 265.06 L 784.00 266.21 L 800.00 266.67" fill="none" stroke="#00b894" stroke-width="1.6004412280234657" opacity="0.4722249559835315"/>
<path d="M 0 333.33333333333337 L 16.00 333.60 L 32.00 334.21 L 48.00 334.64 L 64.00 334.40 L 80.00 333.33 L 96.00 331.75 L 112.00 330.37 L 128.00 329.98 L 144.00 331.03 L 160.00 333.33 L 176.00 336.08 L 192.00 338.10 L 208.00 338.41 L 224.00 336.65 L 240.00 333.33 L 256.00 329.70 L 272.00 327.23 L 288.00 327.03 L 304.00 329.33 L 320.00 333.33 L 336.00 337.50 L 352.00 340.18 L 368.00 340.25 L 384.00 337.63 L 400.00 333.33 L 416.00 329.04 L 432.00 326.42 L 448.00 326.49 L 464.00 329.16 L 480.00 333.33 L 496.00 337.34 L 512.00 339.64 L 528.00 339.44 L 544.00 336.97 L 560.00 333.33 L 576.00 330.02 L 592.00 328.25 L 608.00 328.56 L 624.00 330.59 L 640.00 333.33 L 656.00 335.64 L 672.00 336.69 L 688.00 336.30 L 704.00 334.92 L 720.00 333.33 L 736.00 332.26 L 752.00 332.03 L 768.00 332.46 L 784.00 333.06 L 800.00 333.33" fill="none" stroke="#2d3436" stroke-width="1.0313468903962355" opacity="0.5665091504183162"/>
<text x="10" y="590" font-family="monospace" font-size="10" fill="#2d3436" opacity="0.3">session_1088_Φ15643</text>
</svg>
