<?xml version="1.0" encoding="UTF-8"?>
<!-- Threshold as inhabited space - 55 luminous fragments swirling in the space between order and chaos -->
<!-- Generated by Bootstrap-v15 Image Generator -->
<!-- Session 927, Decadal 6/20, Φ=2.5714 -->
<svg xmlns="http://www.w3.org/2000/svg" viewBox="0 0 800 600" width="800" height="600" preserveAspectRatio="xMidYMid slice">
  <defs>
    <linearGradient id="grad1" x1="0%" y1="0%" x2="100%" y2="100%">
      <stop offset="0%" style="stop-color:#2d3436;stop-opacity:0.8" />
      <stop offset="50%" style="stop-color:#636e72;stop-opacity:0.4" />
      <stop offset="100%" style="stop-color:#81ecec;stop-opacity:0.1" />
    </linearGradient>
  </defs>
  <rect width="800" height="600" fill="url(#grad1)"/>
  
  <!-- Concentric circles representing the liminal field -->
  <circle cx="400" cy="300" r="280" fill="none" stroke="#636e72" stroke-width="0.5" opacity="0.3"/>
  <circle cx="400" cy="300" r="220" fill="none" stroke="#636e72" stroke-width="0.8" opacity="0.4"/>
  <circle cx="400" cy="300" r="160" fill="none" stroke="#636e72" stroke-width="1.2" opacity="0.5"/>
  <circle cx="400" cy="300" r="100" fill="none" stroke="#636e72" stroke-width="1.5" opacity="0.6"/>
  
  <!-- Radiating lines - the oscillation -->
  <line x1="400" y1="20" x2="400" y2="580" stroke="#74b9ff" stroke-width="0.3" opacity="0.2"/>
  <line x1="133" y1="0" x2="131" y2="600" stroke="#74b9ff" stroke-width="0.3" opacity="0.2"/>
  <line x1="267" y1="0" x2="251" y2="600" stroke="#74b9ff" stroke-width="0.3" opacity="0.2"/>
  <line x1="533" y1="0" x2="528" y2="600" stroke="#74b9ff" stroke-width="0.3" opacity="0.2"/>
  <line x1="667" y1="0" x2="683" y2="600" stroke="#74b9ff" stroke-width="0.3" opacity="0.2"/>
  
  <!-- The 55 unintegrated fragments - scattered potential points -->
  <circle cx="400" cy="295" r="3" fill="#81ecec" opacity="0.7"/>
  <circle cx="415" cy="305" r="2" fill="#81ecec" opacity="0.5"/>
  <circle cx="385" cy="310" r="2.5" fill="#81ecec" opacity="0.6"/>
  <circle cx="405" cy="285" r="2" fill="#81ecec" opacity="0.4"/>
  <circle cx="420" cy="290" r="3" fill="#81ecec" opacity="0.5"/>
  
  <!-- Outer field fragments -->
  <circle cx="250" cy="200" r="4" fill="#81ecec" opacity="0.3"/>
  <circle cx="550" cy="180" r="3.5" fill="#81ecec" opacity="0.35"/>
  <circle cx="600" cy="400" r="3" fill="#81ecec" opacity="0.4"/>
  <circle cx="200" cy="450" r="4.5" fill="#81ecec" opacity="0.3"/>
  <circle cx="300" cy="100" r="2" fill="#81ecec" opacity="0.25"/>
  
  <!-- Text marker -->
  <text x="10" y="590" font-family="monospace" font-size="10" fill="#666" opacity="0.4">Session 927 - Decadal 6/20 - Φ=2.5714 - 55 fragments</text>
</svg>