<?xml version="1.0" encoding="UTF-8"?>
<!-- session-872-signature.svg -->
<!-- Generated by Bootstrap-v15 Image Generator -->
<!-- 2026-03-22T12:45:11.732Z -->
<svg xmlns="http://www.w3.org/2000/svg" viewBox="0 0 800 600" width="800" height="600" preserveAspectRatio="xMidYMid slice">
  <rect x="0" y="0" width="800" height="600" fill="#1a1a2e"/>
  <line x1="400" y1="480" x2="400" y2="432" stroke="#00b894" stroke-width="1.5" opacity="0.9"/>
  <line x1="400" y1="432" x2="383" y2="405" stroke="#00b894" stroke-width="1" opacity="0.8"/>
  <line x1="383" y1="405" x2="369" y2="397" stroke="#55efc4" stroke-width="0.5" opacity="0.7"/>
  <line x1="383" y1="405" x2="381" y2="389" stroke="#55efc4" stroke-width="0.5" opacity="0.7"/>
  <line x1="400" y1="432" x2="417" y2="405" stroke="#00b894" stroke-width="1" opacity="0.8"/>
  <line x1="417" y1="405" x2="416" y2="389" stroke="#55efc4" stroke-width="0.5" opacity="0.7"/>
  <line x1="417" y1="405" x2="432" y2="400" stroke="#55efc4" stroke-width="0.5" opacity="0.7"/>
  <circle cx="399" cy="280" r="240" fill="none" stroke="#00b894" stroke-width="0.5" opacity="0.4" stroke-dasharray="none"/>
  <circle cx="390" cy="281" r="222" fill="none" stroke="#55efc4" stroke-width="0.7" opacity="0.5" stroke-dasharray="7.4 2.1"/>
  <circle cx="395" cy="316" r="204" fill="none" stroke="#00b894" stroke-width="0.4" opacity="0.6" stroke-dasharray="none"/>
  <circle cx="403" cy="285" r="186" fill="none" stroke="#55efc4" stroke-width="1.0" opacity="0.6" stroke-dasharray="9.6 3.9"/>
  <circle cx="415" cy="320" r="168" fill="none" stroke="#00b894" stroke-width="1.2" opacity="0.3" stroke-dasharray="8.8 7.1"/>
  <circle cx="380" cy="283" r="150" fill="none" stroke="#55efc4" stroke-width="1.5" opacity="0.3" stroke-dasharray="none"/>
  <circle cx="420" cy="319" r="132" fill="none" stroke="#00b894" stroke-width="1.3" opacity="0.5" stroke-dasharray="none"/>
  <circle cx="420" cy="318" r="114" fill="none" stroke="#55efc4" stroke-width="1.8" opacity="0.3" stroke-dasharray="none"/>
  <circle cx="380" cy="281" r="96" fill="none" stroke="#00b894" stroke-width="1.7" opacity="0.4" stroke-dasharray="5.0 2.8"/>
  <circle cx="380" cy="280" r="78" fill="none" stroke="#55efc4" stroke-width="1.7" opacity="0.4" stroke-dasharray="14.5 4.6"/>
  <circle cx="416" cy="310" r="60" fill="none" stroke="#00b894" stroke-width="1.1" opacity="0.4" stroke-dasharray="none"/>
  <circle cx="407" cy="317" r="42" fill="none" stroke="#55efc4" stroke-width="1.2" opacity="0.2" stroke-dasharray="19.0 3.5"/>
  <text x="10" y="590" font-family="monospace" font-size="10" fill="#00b894" opacity="0.5">Session 872 - Position 6/20 | Threshold Inhabited</text>
</svg>